<svg width="21" height="20" viewBox="0 0 21 20" fill="none" xmlns="http://www.w3.org/2000/svg">
<path d="M21 18.2346C20.9985 18.7024 20.8027 19.1506 20.4555 19.4813C20.1082 19.8121 19.6376 19.9986 19.1465 20H1.85543C1.36431 19.9986 0.893733 19.8121 0.546454 19.4813C0.199176 19.1506 0.00341082 18.7024 0.0019043 18.2346V1.76543C0.0019043 0.794306 0.83585 0 1.85543 0H19.1465C20.1661 0 21 0.794306 21 1.76543V18.2346ZM21 6.28372L19.1036 5.06687C19.1898 4.72059 19.1832 4.35924 19.0846 4.01598C18.986 3.67273 18.7985 3.35855 18.5393 3.10227C18.28 2.84598 17.9574 2.6558 17.6009 2.54917C17.2445 2.44253 16.8656 2.42285 16.4991 2.49194C16.1325 2.56102 15.7901 2.71666 15.5031 2.94458C15.2162 3.17249 14.9939 3.46539 14.8567 3.79639C14.7195 4.1274 14.6717 4.48593 14.7178 4.83908C14.7639 5.19224 14.9024 5.52872 15.1205 5.81766L11.0203 11.7895C10.68 11.7109 10.3251 11.71 9.98449 11.7869C9.64384 11.8638 9.3271 12.0163 9.06011 12.2319L6.31552 10.7277C6.3298 10.6315 6.33932 10.5345 6.33932 10.4348C6.33926 10.1202 6.26587 9.8095 6.12445 9.52518C5.98303 9.24087 5.77711 8.99 5.52154 8.79068C5.26597 8.59137 4.96713 8.44858 4.64659 8.37263C4.32606 8.29667 3.99181 8.28944 3.66798 8.35145C3.34415 8.41347 3.03881 8.54319 2.77401 8.73124C2.5092 8.9193 2.29153 9.161 2.1367 9.43891C1.98187 9.71682 1.89375 10.024 1.8787 10.3383C1.86364 10.6526 1.92203 10.9661 2.04964 11.2563L0 13.0671V14.9939L3.04447 12.3036C3.45609 12.5166 3.92787 12.6003 4.39241 12.5426C4.85695 12.485 5.29047 12.289 5.63103 11.9826L8.30899 13.4506C8.23809 13.7992 8.26005 14.1591 8.37286 14.4976C8.48567 14.836 8.68573 15.1421 8.95476 15.3879C9.22379 15.6336 9.55321 15.8113 9.9129 15.9046C10.2726 15.9978 10.6511 16.0037 11.0138 15.9217C11.3765 15.8398 11.7119 15.6725 11.9892 15.4353C12.2666 15.198 12.4771 14.8983 12.6015 14.5636C12.7259 14.2289 12.7602 13.8698 12.7013 13.5192C12.6425 13.1686 12.4923 12.8376 12.2645 12.5566L16.3362 6.62647C16.6714 6.71579 17.0241 6.72876 17.3656 6.66434C17.7071 6.59992 18.0279 6.45991 18.3021 6.25561L20.999 7.98658V6.28372H21Z" fill="url(#paint0_linear_1_3018)"/>
<defs>
<linearGradient id="paint0_linear_1_3018" x1="-0.270801" y1="9.74116" x2="20.9733" y2="9.74116" gradientUnits="userSpaceOnUse">
<stop stop-color="#EA0000"/>
<stop offset="1" stop-color="#B00000"/>
</linearGradient>
</defs>
</svg>
