<svg width="52" height="32" viewBox="0 0 52 32" fill="none" xmlns="http://www.w3.org/2000/svg">
<path d="M49.3598 21.9217H48.1553V19.1592C48.1552 18.5567 48.0353 17.9602 47.8025 17.4045C47.5698 16.8488 47.2288 16.345 46.7994 15.9223C46.37 15.4997 45.8608 15.1667 45.3015 14.9427C44.7422 14.7187 44.1439 14.6083 43.5415 14.6177C43.1005 14.6156 42.6655 14.5162 42.2674 14.3266C41.8693 14.137 41.518 13.8619 41.2384 13.5209L38.5812 10.4053L30.4488 0.450184C30.3823 0.368481 30.2983 0.302643 30.2031 0.257457C30.1079 0.212272 30.0038 0.188873 29.8984 0.188965C29.3934 0.188965 28.8988 0.332235 28.472 0.602132C28.0452 0.872029 27.7038 1.25748 27.4873 1.7137C27.2709 2.16992 27.1883 2.67819 27.2492 3.17947C27.3101 3.68075 27.512 4.15447 27.8314 4.54559L32.4037 10.1433H23.7912L20.4193 6.01418C20.0266 5.55739 19.4709 5.27217 18.8708 5.21937C18.2707 5.16656 17.6738 5.35036 17.2073 5.73154C16.7408 6.11273 16.4418 6.66111 16.374 7.2597C16.3062 7.85828 16.475 8.45966 16.8443 8.93553L17.8311 10.1433H9.21822L5.84635 6.01418C5.45361 5.55739 4.89791 5.27217 4.29782 5.21937C3.69773 5.16656 3.10076 5.35036 2.63429 5.73154C2.16781 6.11273 1.86877 6.66111 1.80096 7.2597C1.73316 7.85828 1.90196 8.45966 2.27135 8.93553L3.25813 10.1433H3.15088C2.31616 10.1443 1.5159 10.4763 0.925666 11.0665C0.335429 11.6568 0.00340907 12.457 0.00244141 13.2917V26.4949C0.00254904 26.6834 0.0774857 26.8642 0.210789 26.9975C0.344092 27.1308 0.524859 27.2057 0.713379 27.2058H5.42019C5.94992 28.5629 6.87686 29.7286 8.0798 30.5504C9.28274 31.3722 10.7057 31.8118 12.1625 31.8118C13.6194 31.8118 15.0423 31.3722 16.2452 30.5504C17.4482 29.7286 18.3751 28.5629 18.9048 27.2058H29.2236C29.7534 28.5629 30.6804 29.7285 31.8834 30.5503C33.0863 31.372 34.5093 31.8116 35.9661 31.8116C37.423 31.8116 38.8459 31.372 40.0489 30.5503C41.2518 29.7285 42.1788 28.5629 42.7087 27.2058H49.3598C50.0601 27.2058 50.7318 26.9276 51.227 26.4324C51.7222 25.9372 52.0004 25.2655 52.0004 24.5652C52.0004 23.8648 51.7222 23.1932 51.227 22.698C50.7318 22.2028 50.0601 21.9246 49.3598 21.9246V21.9217ZM28.7718 2.323C28.8485 2.15587 28.9619 2.00825 29.1037 1.89118C29.2454 1.77411 29.4118 1.69063 29.5904 1.647L37.4888 11.3157L40.1558 14.4439C40.5718 14.9435 41.0927 15.3454 41.6815 15.6211C42.2702 15.8968 42.9125 16.0395 43.5626 16.0392C43.977 16.0295 44.389 16.1038 44.7739 16.2579C45.1587 16.4119 45.5082 16.6424 45.8014 16.9354C46.0974 17.225 46.3322 17.5709 46.4922 17.9528C46.6521 18.3347 46.7338 18.7448 46.7326 19.1588V21.9213H42.7176C42.1803 20.5675 41.2502 19.4053 40.0471 18.5844C38.8439 17.7634 37.4227 17.3211 35.9661 17.3144C35.5125 17.3168 35.0599 17.3594 34.6137 17.4416V10.8542C34.6086 10.6912 34.5525 10.534 34.4533 10.4045L28.9327 3.64615C28.7805 3.46493 28.6843 3.24338 28.6558 3.00847C28.6272 2.77356 28.6675 2.53541 28.7718 2.323ZM32.8315 18.038C31.181 18.8321 29.8901 20.2187 29.2159 21.9217H19.1202V11.5652H33.191V17.8686C33.0415 17.9331 33.1862 17.8686 32.8315 18.038ZM17.8299 7.09481C17.9 6.94173 18.0131 6.81232 18.1554 6.72232C18.2977 6.63231 18.4631 6.58558 18.6314 6.58781C18.763 6.58743 18.8929 6.61641 19.0119 6.67263C19.1308 6.72886 19.2356 6.81091 19.3188 6.91281L21.9566 10.1425H19.6658L17.9445 8.03731C17.8361 7.9082 17.7676 7.75039 17.7472 7.58307C17.7269 7.41574 17.7556 7.24611 17.8299 7.09481ZM3.37228 8.03731C3.26604 7.90729 3.19886 7.7498 3.17856 7.58312C3.15827 7.41644 3.18568 7.24743 3.25763 7.09571C3.32957 6.944 3.44309 6.81581 3.58499 6.72605C3.72689 6.63629 3.89135 6.58863 4.05925 6.58862C4.19074 6.58821 4.32065 6.61718 4.4395 6.67341C4.55835 6.72964 4.66315 6.81171 4.74622 6.91362L7.38441 10.1433H5.09153L3.37228 8.03731ZM1.42432 13.2917C1.42485 12.834 1.60693 12.3952 1.93061 12.0715C2.25429 11.7478 2.69313 11.5657 3.15088 11.5652H17.6983V19.8722C17.0137 19.0729 16.1648 18.4305 15.2096 17.9889C14.2543 17.5472 13.2151 17.3166 12.1627 17.3128C9.46603 17.2592 6.41916 19.143 5.41125 21.9217H1.42432V13.2917ZM5.01719 25.7827H1.42432V23.3452H5.01719C4.88599 24.1524 4.88599 24.9755 5.01719 25.7827ZM12.1627 30.3888C9.06466 30.3522 6.30378 27.8197 6.33628 24.5632C6.27372 21.76 8.87413 18.6047 12.1627 18.7367C15.0804 18.781 18.0728 21.1742 17.9888 24.5632C18.042 27.4752 15.4119 30.47 12.1627 30.3888ZM28.821 25.7827H19.3078C19.439 24.9755 19.439 24.1524 19.3078 23.3452H28.821C28.6896 24.1524 28.6896 24.9755 28.821 25.7827ZM35.9661 30.3888C32.8685 30.3522 30.1076 27.8197 30.1401 24.5632C30.1121 21.7227 32.5776 18.6526 35.9661 18.7367C38.8838 18.781 41.8767 21.1742 41.7926 24.5632C41.8442 27.4752 39.2157 30.47 35.9661 30.3888ZM49.3598 25.7827H43.1117C43.2426 24.9755 43.2426 24.1524 43.1117 23.3452H49.3598C49.683 23.3452 49.993 23.4736 50.2216 23.7022C50.4501 23.9307 50.5785 24.2407 50.5785 24.564C50.5785 24.8872 50.4501 25.1972 50.2216 25.4258C49.993 25.6543 49.683 25.7827 49.3598 25.7827Z" fill="#8C8DA5"/>
</svg>
