<svg width="13" height="25" viewBox="0 0 13 25" fill="none" xmlns="http://www.w3.org/2000/svg">
<path d="M11.2321 5.79197V18.488C11.2321 20.9278 9.25598 22.904 6.81614 22.904C4.3763 22.904 2.40014 20.9278 2.40014 18.488V4.68797C2.40014 3.95598 2.69093 3.25396 3.20853 2.73636C3.72613 2.21876 4.42814 1.92797 5.16014 1.92797C5.89214 1.92797 6.59416 2.21876 7.11176 2.73636C7.62936 3.25396 7.92014 3.95598 7.92014 4.68797V16.28C7.92014 16.8872 7.42334 17.384 6.81614 17.384C6.20894 17.384 5.71214 16.8872 5.71214 16.28V5.79197H4.05614V16.28C4.05614 17.012 4.34693 17.714 4.86453 18.2316C5.38213 18.7492 6.08414 19.04 6.81614 19.04C7.54814 19.04 8.25016 18.7492 8.76776 18.2316C9.28536 17.714 9.57614 17.012 9.57614 16.28V4.68797C9.57614 2.24813 7.59998 0.271973 5.16014 0.271973C2.7203 0.271973 0.744141 2.24813 0.744141 4.68797V18.488C0.744141 21.8441 3.45998 24.56 6.81614 24.56C10.1723 24.56 12.8881 21.8441 12.8881 18.488V5.79197H11.2321Z" fill="#1B1A57"/>
</svg>
