<svg width="45" height="45" viewBox="0 0 45 45" fill="none" xmlns="http://www.w3.org/2000/svg">
<circle cx="22.2558" cy="22.416" r="22.08" fill="#A4A4A4"/>
<path d="M22.2558 26.832C24.6913 26.832 26.6718 24.8514 26.6718 22.416V15.792C26.6718 13.3444 24.7012 11.3528 22.279 11.3528C22.2013 11.3533 22.1239 11.3625 22.0483 11.3804C20.9148 11.4354 19.8457 11.924 19.0624 12.7451C18.279 13.5663 17.8413 14.6571 17.8398 15.792V22.416C17.8398 24.8514 19.8204 26.832 22.2558 26.832Z" fill="white"/>
<path d="M21.1518 31.1718V33.456H23.3598V31.1718C27.7085 30.6253 31.0878 26.9126 31.0878 22.416H28.8798C28.8798 26.0691 25.909 29.04 22.2558 29.04C18.6027 29.04 15.6318 26.0691 15.6318 22.416H13.4238C13.4238 26.9115 16.8032 30.6253 21.1518 31.1718Z" fill="white"/>
</svg>
