<svg width="18" height="20" viewBox="0 0 18 20" fill="none" xmlns="http://www.w3.org/2000/svg">
<mask id="path-1-outside-1" maskUnits="userSpaceOnUse" x="-0.0935059" y="-0.563232" width="18" height="21" fill="black">
<rect fill="white" x="-0.0935059" y="-0.563232" width="18" height="21"/>
<path d="M17.0786 17.9625L15.9543 10.0384C15.9056 9.70434 15.7386 9.3989 15.4838 9.17754C15.2289 8.95617 14.9031 8.83357 14.5656 8.832H10.4488L10.4592 8.56205H11.319C11.4133 8.56205 11.5037 8.5246 11.5704 8.45793C11.637 8.39127 11.6745 8.30086 11.6745 8.20658V7.86492C11.6623 7.0241 11.8357 6.19093 12.1823 5.42478C12.4365 4.87755 12.5453 4.27403 12.4982 3.67249C12.4511 3.07095 12.2497 2.49171 11.9135 1.99069C11.5773 1.48967 11.1176 1.0838 10.5787 0.812257C10.0399 0.540715 9.44019 0.412676 8.83745 0.440502C7.94847 0.48316 7.10872 0.861321 6.48757 1.49872C5.86641 2.13613 5.51005 2.98535 5.49036 3.87514C5.47937 4.36677 5.57305 4.85512 5.76519 5.30778C6.12146 6.11428 6.31197 6.98416 6.32541 7.86574V8.20678C6.32541 8.30106 6.36286 8.39147 6.42952 8.45814C6.49618 8.5248 6.5866 8.56225 6.68087 8.56225H7.5407L7.55106 8.8322H3.43433C3.09663 8.83357 2.77064 8.95609 2.51563 9.17747C2.26063 9.39886 2.09354 9.70441 2.04475 10.0386L1.56984 13.3911C1.56296 13.4177 1.55914 13.445 1.55847 13.4724L1.398 14.603C1.38657 14.6373 1.38048 14.6732 1.37992 14.7094C1.37992 14.7135 1.38114 14.7173 1.38114 14.7214L1.22616 15.814C1.21061 15.854 1.20249 15.8965 1.20219 15.9393C1.20219 15.9481 1.20422 15.956 1.20483 15.9645L0.920452 17.9631C0.892175 18.1621 0.906972 18.3648 0.96384 18.5576C1.02071 18.7504 1.11832 18.9287 1.25008 19.0805C1.38183 19.2323 1.54465 19.354 1.72752 19.4374C1.91039 19.5208 2.10904 19.5639 2.31003 19.5639H15.6891C15.8901 19.5639 16.0887 19.5208 16.2716 19.4374C16.4544 19.354 16.6173 19.2323 16.749 19.0805C16.8808 18.9287 16.9784 18.7504 17.0352 18.5576C17.0921 18.3648 17.1069 18.1621 17.0786 17.9631V17.9625ZM7.73062 13.4921C7.73419 13.5839 7.77318 13.6708 7.83941 13.7346C7.90564 13.7983 7.99397 13.8339 8.08589 13.834H9.91401C10.0059 13.8339 10.0943 13.7983 10.1605 13.7346C10.2267 13.6708 10.2657 13.5839 10.2693 13.4921L10.3901 10.3554H10.6187C11.0175 10.3559 11.3999 10.5145 11.6819 10.7965C11.9639 11.0786 12.1226 11.4609 12.123 11.8598V15.0972C12.1226 15.496 11.9639 15.8784 11.6819 16.1604C11.3999 16.4425 11.0175 16.6011 10.6187 16.6015H7.38125C6.9824 16.6011 6.60002 16.4425 6.31799 16.1604C6.03597 15.8784 5.87734 15.496 5.8769 15.0972V11.8598C5.87734 11.4609 6.03597 11.0786 6.31799 10.7965C6.60002 10.5145 6.9824 10.3559 7.38125 10.3554H7.60976L7.73062 13.4921ZM6.42026 5.03031C6.26743 4.66977 6.19294 4.28087 6.2017 3.88936C6.22539 3.18258 6.51205 2.51009 7.00554 2.00356C7.49903 1.49703 8.16382 1.19294 8.86975 1.15083C9.35048 1.12792 9.82898 1.22946 10.259 1.44561C10.689 1.66176 11.0559 1.98521 11.3243 2.38469C11.5927 2.78416 11.7535 3.24614 11.7911 3.72594C11.8287 4.20575 11.7419 4.68713 11.539 5.12355C11.1498 5.97963 10.9535 6.91078 10.964 7.85111H7.03634C7.02122 6.87916 6.81175 5.92006 6.42026 5.03031ZM9.74765 8.56205L9.57195 13.123H8.42795L8.25225 8.56205H9.74765ZM16.2121 18.6125C16.1471 18.6874 16.0668 18.7475 15.9765 18.7887C15.8863 18.8298 15.7883 18.8512 15.6891 18.8511H2.31084C2.21167 18.8511 2.11366 18.8298 2.02343 18.7886C1.9332 18.7474 1.85287 18.6874 1.78784 18.6125C1.72282 18.5376 1.67462 18.4496 1.64651 18.3545C1.6184 18.2594 1.61102 18.1594 1.62489 18.0612L1.87595 16.294H3.08394C3.17821 16.294 3.26863 16.2565 3.33529 16.1899C3.40195 16.1232 3.4394 16.0328 3.4394 15.9385C3.4394 15.8443 3.40195 15.7538 3.33529 15.6872C3.26863 15.6205 3.17821 15.5831 3.08394 15.5831H1.9767L2.05044 15.0641H3.26167C3.35595 15.0641 3.44636 15.0266 3.51303 14.96C3.57969 14.8933 3.61714 14.8029 3.61714 14.7086C3.61714 14.6143 3.57969 14.5239 3.51303 14.4573C3.44636 14.3906 3.35595 14.3531 3.26167 14.3531H2.15139L2.22492 13.8342H3.4394C3.53368 13.8342 3.6241 13.7967 3.69076 13.73C3.75742 13.6634 3.79487 13.573 3.79487 13.4787C3.79487 13.3844 3.75742 13.294 3.69076 13.2273C3.6241 13.1607 3.53368 13.1232 3.4394 13.1232H2.32587L2.3994 12.6042H3.61816C3.71243 12.6042 3.80285 12.5668 3.86951 12.5001C3.93617 12.4335 3.97362 12.343 3.97362 12.2488C3.97362 12.1545 3.93617 12.0641 3.86951 11.9974C3.80285 11.9307 3.71243 11.8933 3.61816 11.8933H2.49995L2.74898 10.1387C2.77296 9.97379 2.85532 9.82296 2.98109 9.71363C3.10686 9.6043 3.26768 9.54373 3.43433 9.54294H7.57808L7.58214 9.6445H7.38084C6.7936 9.64531 6.23064 9.87897 5.81544 10.2943C5.40023 10.7095 5.16667 11.2725 5.16597 11.8598V15.0972C5.16667 15.6845 5.40029 16.2476 5.81558 16.6629C6.23087 17.0781 6.79393 17.3118 7.38125 17.3125H10.6187C11.206 17.3118 11.769 17.0781 12.1843 16.6629C12.5996 16.2476 12.8332 15.6845 12.8339 15.0972V11.8598C12.8332 11.2725 12.5996 10.7094 12.1843 10.2941C11.769 9.87882 11.206 9.6452 10.6187 9.6445H10.4174L10.4214 9.54294H14.5656C14.7323 9.54363 14.8932 9.60413 15.019 9.71342C15.1449 9.82272 15.2273 9.97356 15.2513 10.1385L16.3758 18.062C16.3895 18.1601 16.3819 18.26 16.3537 18.355C16.3255 18.45 16.2772 18.5378 16.2121 18.6125Z"/>
</mask>
<path d="M17.0786 17.9625L15.9543 10.0384C15.9056 9.70434 15.7386 9.3989 15.4838 9.17754C15.2289 8.95617 14.9031 8.83357 14.5656 8.832H10.4488L10.4592 8.56205H11.319C11.4133 8.56205 11.5037 8.5246 11.5704 8.45793C11.637 8.39127 11.6745 8.30086 11.6745 8.20658V7.86492C11.6623 7.0241 11.8357 6.19093 12.1823 5.42478C12.4365 4.87755 12.5453 4.27403 12.4982 3.67249C12.4511 3.07095 12.2497 2.49171 11.9135 1.99069C11.5773 1.48967 11.1176 1.0838 10.5787 0.812257C10.0399 0.540715 9.44019 0.412676 8.83745 0.440502C7.94847 0.48316 7.10872 0.861321 6.48757 1.49872C5.86641 2.13613 5.51005 2.98535 5.49036 3.87514C5.47937 4.36677 5.57305 4.85512 5.76519 5.30778C6.12146 6.11428 6.31197 6.98416 6.32541 7.86574V8.20678C6.32541 8.30106 6.36286 8.39147 6.42952 8.45814C6.49618 8.5248 6.5866 8.56225 6.68087 8.56225H7.5407L7.55106 8.8322H3.43433C3.09663 8.83357 2.77064 8.95609 2.51563 9.17747C2.26063 9.39886 2.09354 9.70441 2.04475 10.0386L1.56984 13.3911C1.56296 13.4177 1.55914 13.445 1.55847 13.4724L1.398 14.603C1.38657 14.6373 1.38048 14.6732 1.37992 14.7094C1.37992 14.7135 1.38114 14.7173 1.38114 14.7214L1.22616 15.814C1.21061 15.854 1.20249 15.8965 1.20219 15.9393C1.20219 15.9481 1.20422 15.956 1.20483 15.9645L0.920452 17.9631C0.892175 18.1621 0.906972 18.3648 0.96384 18.5576C1.02071 18.7504 1.11832 18.9287 1.25008 19.0805C1.38183 19.2323 1.54465 19.354 1.72752 19.4374C1.91039 19.5208 2.10904 19.5639 2.31003 19.5639H15.6891C15.8901 19.5639 16.0887 19.5208 16.2716 19.4374C16.4544 19.354 16.6173 19.2323 16.749 19.0805C16.8808 18.9287 16.9784 18.7504 17.0352 18.5576C17.0921 18.3648 17.1069 18.1621 17.0786 17.9631V17.9625ZM7.73062 13.4921C7.73419 13.5839 7.77318 13.6708 7.83941 13.7346C7.90564 13.7983 7.99397 13.8339 8.08589 13.834H9.91401C10.0059 13.8339 10.0943 13.7983 10.1605 13.7346C10.2267 13.6708 10.2657 13.5839 10.2693 13.4921L10.3901 10.3554H10.6187C11.0175 10.3559 11.3999 10.5145 11.6819 10.7965C11.9639 11.0786 12.1226 11.4609 12.123 11.8598V15.0972C12.1226 15.496 11.9639 15.8784 11.6819 16.1604C11.3999 16.4425 11.0175 16.6011 10.6187 16.6015H7.38125C6.9824 16.6011 6.60002 16.4425 6.31799 16.1604C6.03597 15.8784 5.87734 15.496 5.8769 15.0972V11.8598C5.87734 11.4609 6.03597 11.0786 6.31799 10.7965C6.60002 10.5145 6.9824 10.3559 7.38125 10.3554H7.60976L7.73062 13.4921ZM6.42026 5.03031C6.26743 4.66977 6.19294 4.28087 6.2017 3.88936C6.22539 3.18258 6.51205 2.51009 7.00554 2.00356C7.49903 1.49703 8.16382 1.19294 8.86975 1.15083C9.35048 1.12792 9.82898 1.22946 10.259 1.44561C10.689 1.66176 11.0559 1.98521 11.3243 2.38469C11.5927 2.78416 11.7535 3.24614 11.7911 3.72594C11.8287 4.20575 11.7419 4.68713 11.539 5.12355C11.1498 5.97963 10.9535 6.91078 10.964 7.85111H7.03634C7.02122 6.87916 6.81175 5.92006 6.42026 5.03031ZM9.74765 8.56205L9.57195 13.123H8.42795L8.25225 8.56205H9.74765ZM16.2121 18.6125C16.1471 18.6874 16.0668 18.7475 15.9765 18.7887C15.8863 18.8298 15.7883 18.8512 15.6891 18.8511H2.31084C2.21167 18.8511 2.11366 18.8298 2.02343 18.7886C1.9332 18.7474 1.85287 18.6874 1.78784 18.6125C1.72282 18.5376 1.67462 18.4496 1.64651 18.3545C1.6184 18.2594 1.61102 18.1594 1.62489 18.0612L1.87595 16.294H3.08394C3.17821 16.294 3.26863 16.2565 3.33529 16.1899C3.40195 16.1232 3.4394 16.0328 3.4394 15.9385C3.4394 15.8443 3.40195 15.7538 3.33529 15.6872C3.26863 15.6205 3.17821 15.5831 3.08394 15.5831H1.9767L2.05044 15.0641H3.26167C3.35595 15.0641 3.44636 15.0266 3.51303 14.96C3.57969 14.8933 3.61714 14.8029 3.61714 14.7086C3.61714 14.6143 3.57969 14.5239 3.51303 14.4573C3.44636 14.3906 3.35595 14.3531 3.26167 14.3531H2.15139L2.22492 13.8342H3.4394C3.53368 13.8342 3.6241 13.7967 3.69076 13.73C3.75742 13.6634 3.79487 13.573 3.79487 13.4787C3.79487 13.3844 3.75742 13.294 3.69076 13.2273C3.6241 13.1607 3.53368 13.1232 3.4394 13.1232H2.32587L2.3994 12.6042H3.61816C3.71243 12.6042 3.80285 12.5668 3.86951 12.5001C3.93617 12.4335 3.97362 12.343 3.97362 12.2488C3.97362 12.1545 3.93617 12.0641 3.86951 11.9974C3.80285 11.9307 3.71243 11.8933 3.61816 11.8933H2.49995L2.74898 10.1387C2.77296 9.97379 2.85532 9.82296 2.98109 9.71363C3.10686 9.6043 3.26768 9.54373 3.43433 9.54294H7.57808L7.58214 9.6445H7.38084C6.7936 9.64531 6.23064 9.87897 5.81544 10.2943C5.40023 10.7095 5.16667 11.2725 5.16597 11.8598V15.0972C5.16667 15.6845 5.40029 16.2476 5.81558 16.6629C6.23087 17.0781 6.79393 17.3118 7.38125 17.3125H10.6187C11.206 17.3118 11.769 17.0781 12.1843 16.6629C12.5996 16.2476 12.8332 15.6845 12.8339 15.0972V11.8598C12.8332 11.2725 12.5996 10.7094 12.1843 10.2941C11.769 9.87882 11.206 9.6452 10.6187 9.6445H10.4174L10.4214 9.54294H14.5656C14.7323 9.54363 14.8932 9.60413 15.019 9.71342C15.1449 9.82272 15.2273 9.97356 15.2513 10.1385L16.3758 18.062C16.3895 18.1601 16.3819 18.26 16.3537 18.355C16.3255 18.45 16.2772 18.5378 16.2121 18.6125Z" fill="#E20001"/>
<path d="M17.0786 17.9625L15.9543 10.0384C15.9056 9.70434 15.7386 9.3989 15.4838 9.17754C15.2289 8.95617 14.9031 8.83357 14.5656 8.832H10.4488L10.4592 8.56205H11.319C11.4133 8.56205 11.5037 8.5246 11.5704 8.45793C11.637 8.39127 11.6745 8.30086 11.6745 8.20658V7.86492C11.6623 7.0241 11.8357 6.19093 12.1823 5.42478C12.4365 4.87755 12.5453 4.27403 12.4982 3.67249C12.4511 3.07095 12.2497 2.49171 11.9135 1.99069C11.5773 1.48967 11.1176 1.0838 10.5787 0.812257C10.0399 0.540715 9.44019 0.412676 8.83745 0.440502C7.94847 0.48316 7.10872 0.861321 6.48757 1.49872C5.86641 2.13613 5.51005 2.98535 5.49036 3.87514C5.47937 4.36677 5.57305 4.85512 5.76519 5.30778C6.12146 6.11428 6.31197 6.98416 6.32541 7.86574V8.20678C6.32541 8.30106 6.36286 8.39147 6.42952 8.45814C6.49618 8.5248 6.5866 8.56225 6.68087 8.56225H7.5407L7.55106 8.8322H3.43433C3.09663 8.83357 2.77064 8.95609 2.51563 9.17747C2.26063 9.39886 2.09354 9.70441 2.04475 10.0386L1.56984 13.3911C1.56296 13.4177 1.55914 13.445 1.55847 13.4724L1.398 14.603C1.38657 14.6373 1.38048 14.6732 1.37992 14.7094C1.37992 14.7135 1.38114 14.7173 1.38114 14.7214L1.22616 15.814C1.21061 15.854 1.20249 15.8965 1.20219 15.9393C1.20219 15.9481 1.20422 15.956 1.20483 15.9645L0.920452 17.9631C0.892175 18.1621 0.906972 18.3648 0.96384 18.5576C1.02071 18.7504 1.11832 18.9287 1.25008 19.0805C1.38183 19.2323 1.54465 19.354 1.72752 19.4374C1.91039 19.5208 2.10904 19.5639 2.31003 19.5639H15.6891C15.8901 19.5639 16.0887 19.5208 16.2716 19.4374C16.4544 19.354 16.6173 19.2323 16.749 19.0805C16.8808 18.9287 16.9784 18.7504 17.0352 18.5576C17.0921 18.3648 17.1069 18.1621 17.0786 17.9631V17.9625ZM7.73062 13.4921C7.73419 13.5839 7.77318 13.6708 7.83941 13.7346C7.90564 13.7983 7.99397 13.8339 8.08589 13.834H9.91401C10.0059 13.8339 10.0943 13.7983 10.1605 13.7346C10.2267 13.6708 10.2657 13.5839 10.2693 13.4921L10.3901 10.3554H10.6187C11.0175 10.3559 11.3999 10.5145 11.6819 10.7965C11.9639 11.0786 12.1226 11.4609 12.123 11.8598V15.0972C12.1226 15.496 11.9639 15.8784 11.6819 16.1604C11.3999 16.4425 11.0175 16.6011 10.6187 16.6015H7.38125C6.9824 16.6011 6.60002 16.4425 6.31799 16.1604C6.03597 15.8784 5.87734 15.496 5.8769 15.0972V11.8598C5.87734 11.4609 6.03597 11.0786 6.31799 10.7965C6.60002 10.5145 6.9824 10.3559 7.38125 10.3554H7.60976L7.73062 13.4921ZM6.42026 5.03031C6.26743 4.66977 6.19294 4.28087 6.2017 3.88936C6.22539 3.18258 6.51205 2.51009 7.00554 2.00356C7.49903 1.49703 8.16382 1.19294 8.86975 1.15083C9.35048 1.12792 9.82898 1.22946 10.259 1.44561C10.689 1.66176 11.0559 1.98521 11.3243 2.38469C11.5927 2.78416 11.7535 3.24614 11.7911 3.72594C11.8287 4.20575 11.7419 4.68713 11.539 5.12355C11.1498 5.97963 10.9535 6.91078 10.964 7.85111H7.03634C7.02122 6.87916 6.81175 5.92006 6.42026 5.03031ZM9.74765 8.56205L9.57195 13.123H8.42795L8.25225 8.56205H9.74765ZM16.2121 18.6125C16.1471 18.6874 16.0668 18.7475 15.9765 18.7887C15.8863 18.8298 15.7883 18.8512 15.6891 18.8511H2.31084C2.21167 18.8511 2.11366 18.8298 2.02343 18.7886C1.9332 18.7474 1.85287 18.6874 1.78784 18.6125C1.72282 18.5376 1.67462 18.4496 1.64651 18.3545C1.6184 18.2594 1.61102 18.1594 1.62489 18.0612L1.87595 16.294H3.08394C3.17821 16.294 3.26863 16.2565 3.33529 16.1899C3.40195 16.1232 3.4394 16.0328 3.4394 15.9385C3.4394 15.8443 3.40195 15.7538 3.33529 15.6872C3.26863 15.6205 3.17821 15.5831 3.08394 15.5831H1.9767L2.05044 15.0641H3.26167C3.35595 15.0641 3.44636 15.0266 3.51303 14.96C3.57969 14.8933 3.61714 14.8029 3.61714 14.7086C3.61714 14.6143 3.57969 14.5239 3.51303 14.4573C3.44636 14.3906 3.35595 14.3531 3.26167 14.3531H2.15139L2.22492 13.8342H3.4394C3.53368 13.8342 3.6241 13.7967 3.69076 13.73C3.75742 13.6634 3.79487 13.573 3.79487 13.4787C3.79487 13.3844 3.75742 13.294 3.69076 13.2273C3.6241 13.1607 3.53368 13.1232 3.4394 13.1232H2.32587L2.3994 12.6042H3.61816C3.71243 12.6042 3.80285 12.5668 3.86951 12.5001C3.93617 12.4335 3.97362 12.343 3.97362 12.2488C3.97362 12.1545 3.93617 12.0641 3.86951 11.9974C3.80285 11.9307 3.71243 11.8933 3.61816 11.8933H2.49995L2.74898 10.1387C2.77296 9.97379 2.85532 9.82296 2.98109 9.71363C3.10686 9.6043 3.26768 9.54373 3.43433 9.54294H7.57808L7.58214 9.6445H7.38084C6.7936 9.64531 6.23064 9.87897 5.81544 10.2943C5.40023 10.7095 5.16667 11.2725 5.16597 11.8598V15.0972C5.16667 15.6845 5.40029 16.2476 5.81558 16.6629C6.23087 17.0781 6.79393 17.3118 7.38125 17.3125H10.6187C11.206 17.3118 11.769 17.0781 12.1843 16.6629C12.5996 16.2476 12.8332 15.6845 12.8339 15.0972V11.8598C12.8332 11.2725 12.5996 10.7094 12.1843 10.2941C11.769 9.87882 11.206 9.6452 10.6187 9.6445H10.4174L10.4214 9.54294H14.5656C14.7323 9.54363 14.8932 9.60413 15.019 9.71342C15.1449 9.82272 15.2273 9.97356 15.2513 10.1385L16.3758 18.062C16.3895 18.1601 16.3819 18.26 16.3537 18.355C16.3255 18.45 16.2772 18.5378 16.2121 18.6125Z" stroke="#E20001" stroke-width="0.4" mask="url(#path-1-outside-1)"/>
</svg>
