<svg width="16" height="16" viewBox="0 0 16 16" fill="none" xmlns="http://www.w3.org/2000/svg">
<path d="M15.0757 3.02384H11.7874L11.7874 2.11589L11.7874 2.11571C11.7864 1.30296 11.1279 0.644464 10.3152 0.643457H10.315L5.55422 0.643457L5.55404 0.643457C4.74129 0.644464 4.0828 1.30296 4.08179 2.11571V2.11589V3.02384H0.79346C0.272432 3.02384 -0.15 3.44627 -0.15 3.9673L-0.150002 9.85471L-0.149998 9.85546C-0.148186 10.2177 0.0594029 10.5436 0.378974 10.7006V14.2823C0.378974 14.8033 0.801406 15.2257 1.32243 15.2257H14.5468C15.0678 15.2257 15.4902 14.8033 15.4902 14.2823V10.7009C15.8098 10.5437 16.0175 10.2177 16.0192 9.85541V9.85471V3.9673C16.0192 3.44627 15.5968 3.02384 15.0757 3.02384ZM15.1902 9.85471V9.85486C15.1903 9.91197 15.1483 9.96036 15.0918 9.96835L15.0191 9.97834L15.019 9.97836L9.14255 10.7887V10.5795C9.14255 10.0584 8.72012 9.63601 8.19909 9.63601H7.67012C7.14909 9.63601 6.72666 10.0584 6.72666 10.5795V10.7887L0.777518 9.96833C0.777493 9.96833 0.777469 9.96833 0.777445 9.96832C0.720985 9.96036 0.678918 9.91194 0.678974 9.85486V9.85471V3.9673C0.678974 3.90408 0.730241 3.85281 0.79346 3.85281H15.0757C15.139 3.85281 15.1902 3.90408 15.1902 3.9673V9.85471ZM4.91076 2.11589C4.91076 1.76055 5.19888 1.47243 5.55422 1.47243H10.315C10.6703 1.47243 10.9584 1.76055 10.9584 2.11589V3.02384H10.7295V2.11589C10.7295 1.88699 10.5439 1.7014 10.315 1.7014H5.55422C5.32532 1.7014 5.13974 1.88699 5.13974 2.11589V3.02384H4.91076V2.11589ZM9.9005 3.02384H5.96871V2.53038H9.9005V3.02384ZM14.6613 14.2823C14.6613 14.3455 14.61 14.3968 14.5468 14.3968H1.32243C1.25922 14.3968 1.20795 14.3455 1.20795 14.2823V10.8644L6.72666 11.6256V12.1664C6.72666 12.6874 7.14909 13.1098 7.67012 13.1098H8.19909C8.72012 13.1098 9.14255 12.6874 9.14255 12.1664V11.6256L14.6613 10.8644V14.2823ZM8.31358 12.1664C8.31358 12.2296 8.26231 12.2809 8.19909 12.2809H7.67012C7.6069 12.2809 7.55563 12.2296 7.55563 12.1664V10.5795C7.55563 10.5163 7.6069 10.465 7.67012 10.465H8.19909C8.26231 10.465 8.31358 10.5163 8.31358 10.5795V12.1664Z" fill="#E20001" stroke="#E20001" stroke-width="0.3"/>
</svg>
