<svg width="27" height="27" viewBox="0 0 27 27" fill="none" xmlns="http://www.w3.org/2000/svg">
<path d="M7.42135 8.65675L6.56595 11.2229H10.6479V7.32295H9.27125C8.86193 7.32299 8.463 7.45183 8.13098 7.69122C7.79896 7.93061 7.5507 8.2684 7.42135 8.65675ZM6.13305 12.5229L6.12915 12.5359L5.78335 12.6217L5.62475 12.6607C5.20273 12.7663 4.82813 13.01 4.56054 13.3529C4.29294 13.6959 4.14771 14.1185 4.14795 14.5535V16.7479C4.14795 16.9559 4.21295 17.151 4.32605 17.3096C4.5587 16.6358 5.00642 16.0572 5.60025 15.6628C6.19407 15.2685 6.90107 15.0804 7.61234 15.1274C8.32361 15.1744 8.9997 15.4539 9.53648 15.9229C10.0733 16.3919 10.441 17.0244 10.5829 17.7229H15.9129C16.0549 17.0244 16.4226 16.3919 16.9594 15.9229C17.4962 15.4539 18.1723 15.1744 18.8836 15.1274C19.5948 15.0804 20.3018 15.2685 20.8957 15.6628C21.4895 16.0572 21.9372 16.6358 22.1698 17.3096C22.2859 17.1453 22.3482 16.9491 22.3479 16.7479V15.171C22.3481 14.7412 22.2062 14.3233 21.9443 13.9824C21.6824 13.6415 21.3152 13.3967 20.8997 13.286L18.0371 12.5229H6.13305ZM16.9815 11.2229L15.3721 8.32655C15.2035 8.02268 14.9567 7.76942 14.6572 7.59297C14.3578 7.41652 14.0167 7.3233 13.6692 7.32295H11.9479V11.2229H16.9815ZM23.6479 16.7479C23.6479 17.6671 23.1019 18.4587 22.318 18.8175C22.2139 19.5781 21.844 20.2773 21.2736 20.7912C20.7033 21.3051 19.9695 21.6005 19.2022 21.6251C18.435 21.6497 17.6837 21.402 17.0817 20.9257C16.4796 20.4494 16.0656 19.7753 15.9129 19.023H10.5829C10.4303 19.7753 10.0163 20.4494 9.41424 20.9257C8.81218 21.402 8.06095 21.6497 7.29366 21.6251C6.52637 21.6005 5.79256 21.3051 5.22225 20.7912C4.65194 20.2773 4.28196 19.5781 4.17785 18.8175C3.78111 18.6364 3.44482 18.3449 3.20903 17.978C2.97325 17.6111 2.84791 17.1841 2.84795 16.7479V14.5535C2.84792 13.8626 3.06808 13.1897 3.47647 12.6324C3.88486 12.0751 4.46022 11.6625 5.11905 11.4543L6.18895 8.24465C6.40463 7.598 6.81818 7.03554 7.37109 6.63683C7.924 6.23813 8.58828 6.02338 9.26995 6.02295H13.6678C14.2478 6.02259 14.8173 6.17743 15.3172 6.4714C15.8172 6.76537 16.2293 7.18776 16.5109 7.69475L18.5129 11.3048L21.2338 12.0303C21.9261 12.2145 22.5382 12.6223 22.9747 13.1903C23.4113 13.7583 23.648 14.4547 23.6479 15.171V16.7479ZM7.39795 16.4229C6.88078 16.4229 6.38479 16.6284 6.01909 16.9941C5.65339 17.3598 5.44795 17.8558 5.44795 18.3729C5.44795 18.8901 5.65339 19.3861 6.01909 19.7518C6.38479 20.1175 6.88078 20.323 7.39795 20.323C7.91512 20.323 8.41111 20.1175 8.77681 19.7518C9.1425 19.3861 9.34795 18.8901 9.34795 18.3729C9.34795 17.8558 9.1425 17.3598 8.77681 16.9941C8.41111 16.6284 7.91512 16.4229 7.39795 16.4229ZM19.0979 16.4229C18.5808 16.4229 18.0848 16.6284 17.7191 16.9941C17.3534 17.3598 17.1479 17.8558 17.1479 18.3729C17.1479 18.8901 17.3534 19.3861 17.7191 19.7518C18.0848 20.1175 18.5808 20.323 19.0979 20.323C19.6151 20.323 20.1111 20.1175 20.4768 19.7518C20.8425 19.3861 21.0479 18.8901 21.0479 18.3729C21.0479 17.8558 20.8425 17.3598 20.4768 16.9941C20.1111 16.6284 19.6151 16.4229 19.0979 16.4229Z" fill="#E20001"/>
</svg>
