<svg width="20" height="20" viewBox="0 0 20 20" fill="none" xmlns="http://www.w3.org/2000/svg">
<path d="M16.4166 2.66665H15.4999V1.74998C15.4999 1.19998 15.1333 0.833313 14.5833 0.833313C14.0333 0.833313 13.6666 1.19998 13.6666 1.74998V2.66665H6.33325V1.74998C6.33325 1.19998 5.96659 0.833313 5.41659 0.833313C4.86659 0.833313 4.49992 1.19998 4.49992 1.74998V2.66665H3.58325C2.02492 2.66665 0.833252 3.85831 0.833252 5.41665V6.33331H19.1666V5.41665C19.1666 3.85831 17.9749 2.66665 16.4166 2.66665ZM0.833252 16.4166C0.833252 17.975 2.02492 19.1666 3.58325 19.1666H16.4166C17.9749 19.1666 19.1666 17.975 19.1666 16.4166V8.16665H0.833252V16.4166ZM14.5833 9.99998C15.1333 9.99998 15.4999 10.3666 15.4999 10.9166C15.4999 11.4666 15.1333 11.8333 14.5833 11.8333C14.0333 11.8333 13.6666 11.4666 13.6666 10.9166C13.6666 10.3666 14.0333 9.99998 14.5833 9.99998ZM14.5833 13.6666C15.1333 13.6666 15.4999 14.0333 15.4999 14.5833C15.4999 15.1333 15.1333 15.5 14.5833 15.5C14.0333 15.5 13.6666 15.1333 13.6666 14.5833C13.6666 14.0333 14.0333 13.6666 14.5833 13.6666ZM9.99992 9.99998C10.5499 9.99998 10.9166 10.3666 10.9166 10.9166C10.9166 11.4666 10.5499 11.8333 9.99992 11.8333C9.44992 11.8333 9.08325 11.4666 9.08325 10.9166C9.08325 10.3666 9.44992 9.99998 9.99992 9.99998ZM9.99992 13.6666C10.5499 13.6666 10.9166 14.0333 10.9166 14.5833C10.9166 15.1333 10.5499 15.5 9.99992 15.5C9.44992 15.5 9.08325 15.1333 9.08325 14.5833C9.08325 14.0333 9.44992 13.6666 9.99992 13.6666ZM5.41659 9.99998C5.96659 9.99998 6.33325 10.3666 6.33325 10.9166C6.33325 11.4666 5.96659 11.8333 5.41659 11.8333C4.86659 11.8333 4.49992 11.4666 4.49992 10.9166C4.49992 10.3666 4.86659 9.99998 5.41659 9.99998ZM5.41659 13.6666C5.96659 13.6666 6.33325 14.0333 6.33325 14.5833C6.33325 15.1333 5.96659 15.5 5.41659 15.5C4.86659 15.5 4.49992 15.1333 4.49992 14.5833C4.49992 14.0333 4.86659 13.6666 5.41659 13.6666Z" fill="#303030"/>
</svg>
