<svg width="22" height="15" viewBox="0 0 22 15" fill="none" xmlns="http://www.w3.org/2000/svg">
<path d="M21.253 5.955L15.4555 3.87L13.0255 0.825C12.8146 0.567293 12.5492 0.359614 12.2483 0.216946C11.9474 0.0742792 11.6186 0.000181791 11.2855 0H5.28555C4.91953 0.00189171 4.5595 0.0930489 4.23668 0.265566C3.91387 0.438083 3.63801 0.68675 3.43305 0.99L1.40055 3.99C0.979507 4.60695 0.7523 5.33558 0.748047 6.0825V12C0.748047 12.1989 0.827064 12.3897 0.967717 12.5303C1.10837 12.671 1.29913 12.75 1.49805 12.75H3.10305C3.27576 13.3855 3.6528 13.9466 4.17599 14.3465C4.69919 14.7465 5.33947 14.9632 5.99805 14.9632C6.65662 14.9632 7.2969 14.7465 7.8201 14.3465C8.3433 13.9466 8.72033 13.3855 8.89305 12.75H13.603C13.7758 13.3855 14.1528 13.9466 14.676 14.3465C15.1992 14.7465 15.8395 14.9632 16.498 14.9632C17.1566 14.9632 17.7969 14.7465 18.3201 14.3465C18.8433 13.9466 19.2203 13.3855 19.393 12.75H20.998C21.197 12.75 21.3877 12.671 21.5284 12.5303C21.669 12.3897 21.748 12.1989 21.748 12V6.66C21.748 6.50586 21.7004 6.35549 21.6119 6.22935C21.5233 6.1032 21.398 6.00741 21.253 5.955ZM5.99805 13.5C5.70138 13.5 5.41137 13.412 5.16469 13.2472C4.91802 13.0824 4.72576 12.8481 4.61223 12.574C4.4987 12.2999 4.46899 11.9983 4.52687 11.7074C4.58475 11.4164 4.72761 11.1491 4.93739 10.9393C5.14717 10.7296 5.41444 10.5867 5.70541 10.5288C5.99638 10.4709 6.29798 10.5006 6.57207 10.6142C6.84616 10.7277 7.08043 10.92 7.24525 11.1666C7.41007 11.4133 7.49805 11.7033 7.49805 12C7.49805 12.3978 7.34001 12.7794 7.05871 13.0607C6.7774 13.342 6.39587 13.5 5.99805 13.5ZM16.498 13.5C16.2014 13.5 15.9114 13.412 15.6647 13.2472C15.418 13.0824 15.2258 12.8481 15.1122 12.574C14.9987 12.2999 14.969 11.9983 15.0269 11.7074C15.0847 11.4164 15.2276 11.1491 15.4374 10.9393C15.6472 10.7296 15.9144 10.5867 16.2054 10.5288C16.4964 10.4709 16.798 10.5006 17.0721 10.6142C17.3462 10.7277 17.5804 10.92 17.7453 11.1666C17.9101 11.4133 17.998 11.7033 17.998 12C17.998 12.3978 17.84 12.7794 17.5587 13.0607C17.2774 13.342 16.8959 13.5 16.498 13.5ZM20.248 11.25H19.393C19.2203 10.6145 18.8433 10.0534 18.3201 9.65345C17.7969 9.25346 17.1566 9.03675 16.498 9.03675C15.8395 9.03675 15.1992 9.25346 14.676 9.65345C14.1528 10.0534 13.7758 10.6145 13.603 11.25H8.89305C8.72033 10.6145 8.3433 10.0534 7.8201 9.65345C7.2969 9.25346 6.65662 9.03675 5.99805 9.03675C5.33947 9.03675 4.69919 9.25346 4.17599 9.65345C3.6528 10.0534 3.27576 10.6145 3.10305 11.25H2.24805V6.0825C2.24776 5.63041 2.38366 5.18872 2.63805 4.815L4.67055 1.815C4.74102 1.71599 4.8345 1.63558 4.94294 1.58071C5.05138 1.52584 5.17153 1.49814 5.29305 1.5H11.293C11.4032 1.49982 11.5121 1.52392 11.6119 1.57059C11.7117 1.61725 11.8 1.68534 11.8705 1.77L14.4205 4.9725C14.5085 5.07911 14.622 5.16168 14.7505 5.2125L20.248 7.185V11.25Z" fill="#E20001"/>
</svg>
