<svg width="50" height="49" viewBox="0 0 50 49" fill="none" xmlns="http://www.w3.org/2000/svg">
<path d="M9.3753 26.5416C6.50449 26.5416 4.16699 28.8324 4.16699 31.6458C4.16699 34.4591 6.50449 36.75 9.3753 36.75C12.2461 36.75 14.5836 34.4592 14.5836 31.6459C14.5836 28.8325 12.2461 26.5416 9.3753 26.5416ZM9.3753 34.7084C7.65235 34.7084 6.25029 33.3343 6.25029 31.6459C6.25029 29.9574 7.65235 28.5834 9.3753 28.5834C11.0982 28.5834 12.5003 29.9574 12.5003 31.6459C12.5003 33.3342 11.0982 34.7084 9.3753 34.7084Z" fill="#3A3C69" fill-opacity="0.54"/>
<path d="M40.6253 26.5416C37.7545 26.5416 35.417 28.8324 35.417 31.6458C35.417 34.4591 37.7545 36.75 40.6253 36.75C43.4961 36.75 45.8336 34.4592 45.8336 31.6459C45.8336 28.8325 43.4961 26.5416 40.6253 26.5416ZM40.6253 34.7084C38.9023 34.7084 37.5003 33.3343 37.5003 31.6459C37.5003 29.9574 38.9023 28.5834 40.6253 28.5834C42.3482 28.5834 43.7503 29.9574 43.7503 31.6459C43.7503 33.3342 42.3482 34.7084 40.6253 34.7084Z" fill="#3A3C69" fill-opacity="0.54"/>
<path d="M43.75 20.4166H41.9875C41.3438 20.4166 40.7125 20.2002 40.2083 19.8041L32 13.3688C31.0792 12.6481 29.9229 12.25 28.7458 12.25H13.6875C11.9417 12.25 10.3229 13.0994 9.3542 14.5224L7.58125 17.1316C7.05 17.9095 6.1625 18.375 5.2083 18.375C2.3375 18.375 0 20.6657 0 23.4791V27.5625C0 30.3759 2.3375 32.6666 5.2083 32.6666C5.7833 32.6666 6.25 32.2093 6.25 31.6458C6.25 31.0823 5.7833 30.625 5.2083 30.625C3.48535 30.625 2.0833 29.251 2.0833 27.5625V23.4791C2.0833 21.7906 3.48535 20.4166 5.2083 20.4166C6.8625 20.4166 8.3958 19.6122 9.31455 18.2626L11.0875 15.6554C11.6688 14.802 12.6417 14.2915 13.6875 14.2915H28.7458C29.4541 14.2915 30.1458 14.5304 30.7 14.9633L38.9083 21.3965C39.7771 22.0805 40.8729 22.4582 41.9896 22.4582H43.75C46.8063 22.4582 47.9167 25.5104 47.9167 27.5623C47.9167 29.5733 46.3459 30.6248 44.7917 30.6248C44.2167 30.6248 43.75 31.0822 43.75 31.6457C43.75 32.2092 44.2167 32.6665 44.7917 32.6665C47.7604 32.6666 50 30.4719 50 27.5625C50 24.0978 47.8104 20.4166 43.75 20.4166Z" fill="#3A3C69" fill-opacity="0.54"/>
<path d="M36.4583 30.625H13.5417C12.9667 30.625 12.5 31.0824 12.5 31.6459C12.5 32.2094 12.9667 32.6667 13.5417 32.6667H36.4584C37.0334 32.6667 37.5001 32.2094 37.5001 31.6459C37.5001 31.0824 37.0333 30.625 36.4583 30.625Z" fill="#3A3C69" fill-opacity="0.54"/>
<path d="M34.3749 20.4166H24.9999V17.3541C24.9999 16.7906 24.5332 16.3333 23.9582 16.3333C23.3832 16.3333 22.9165 16.7906 22.9165 17.3541V21.4375C22.9165 22.001 23.3832 22.4583 23.9582 22.4583H34.3749C34.9499 22.4583 35.4166 22.001 35.4166 21.4375C35.4166 20.874 34.9499 20.4166 34.3749 20.4166Z" fill="#3A3C69" fill-opacity="0.54"/>
<path d="M19.7919 20.4167H13.1439L14.4752 17.8116C14.7314 17.3074 14.5231 16.6949 14.0085 16.4416C13.4918 16.1905 12.8689 16.3926 12.6105 16.899L10.5272 20.9823C10.3647 21.2967 10.3835 21.6745 10.573 21.9746C10.7626 22.2747 11.098 22.4585 11.4585 22.4585H19.7918C20.3668 22.4585 20.8335 22.0011 20.8335 21.4376C20.8335 20.8741 20.3669 20.4167 19.7919 20.4167Z" fill="#3A3C69" fill-opacity="0.54"/>
<path d="M28.125 24.5H26.0417C25.4667 24.5 25 24.9574 25 25.5209C25 26.0844 25.4667 26.5417 26.0417 26.5417H28.125C28.7 26.5417 29.1667 26.0844 29.1667 25.5209C29.1667 24.9574 28.7 24.5 28.125 24.5Z" fill="#3A3C69" fill-opacity="0.54"/>
</svg>
