<svg width="48" height="49" viewBox="0 0 48 49" fill="none" xmlns="http://www.w3.org/2000/svg">
<g clip-path="url(#clip0)">
<path d="M46.3619 33.2387H44.1524C43.7465 35.7923 41.5448 37.6714 38.9595 37.6714C36.3741 37.6714 34.1723 35.7923 33.7664 33.2387H15.0164C14.6108 35.7923 12.4087 37.6714 9.82377 37.6714C7.2383 37.6714 5.03677 35.7923 4.63064 33.2387H1.76099C0.824512 33.2387 0.0653267 32.4798 0.0653267 31.5431V20.5295C0.0653267 20.5295 0.0653267 20.5295 0.0653267 20.4726C0.0653267 20.4155 0.0653267 20.4726 0.0653267 20.4155C0.114307 20.0566 1.3939 11.5785 6.45667 11.5785H28.6878C28.7942 11.5798 28.8993 11.602 28.9978 11.6438C33.1338 13.4992 36.8024 16.2568 39.734 19.7145H41.9598C44.7721 19.7145 48.0654 21.0841 48.0654 24.9316V31.5431C48.0654 31.9944 47.8861 32.4268 47.5657 32.7451C47.246 33.0632 46.8126 33.241 46.3619 33.2387ZM38.919 36.0594C40.9266 36.0594 42.5547 34.4319 42.5547 32.4237C42.5547 30.4158 40.9266 28.7875 38.919 28.7875C36.9108 28.7875 35.283 30.4158 35.283 32.4237C35.283 34.4319 36.9108 36.0594 38.919 36.0594ZM14.9998 31.6084H23.2585V21.3448H10.6631V27.2227C12.9192 27.5806 14.6873 29.3517 15.0411 31.6084H14.9998ZM23.2585 19.0703V13.2091H10.6631V19.7306H23.2585V19.0703ZM9.848 36.0594C11.8562 36.0594 13.4837 34.4319 13.4837 32.4237C13.4837 30.4158 11.8562 28.7875 9.848 28.7875C7.83983 28.7875 6.21228 30.4158 6.21228 32.4237C6.21228 34.4319 7.83983 36.0594 9.848 36.0594ZM1.69569 31.5431C1.69569 31.5791 1.72477 31.6084 1.76099 31.6084H4.67937C5.03039 29.3594 6.78626 27.59 9.03269 27.2227V21.3448H1.69569V31.5431ZM6.50539 13.2091C3.84799 13.2091 2.42936 17.2851 1.89161 19.7306H9.03269V13.2091H6.50539ZM28.5164 13.2091H24.8888V19.7306H37.5981C35.0095 17.0032 31.9284 14.79 28.5164 13.2091ZM46.4514 24.9316C46.4514 21.6706 43.321 21.3448 41.9759 21.3448H24.8888V31.6084H33.7664C34.1613 29.0431 36.3687 27.1497 38.9636 27.1497C41.5588 27.1497 43.7659 29.0431 44.1603 31.6084H46.3619C46.3976 31.6084 46.4272 31.5791 46.4272 31.5431L46.4514 24.9316Z" fill="#8D8EA6"/>
<path d="M27.579 24.3368H26.5846C26.1341 24.3368 25.7693 23.9717 25.7693 23.5212C25.7693 23.0715 26.1341 22.7062 26.5846 22.7062H27.579C28.0292 22.7062 28.394 23.0715 28.394 23.5212C28.394 23.9717 28.0292 24.3368 27.579 24.3368Z" fill="#8D8EA6"/>
<path d="M12.2282 22.7147H13.2145C13.665 22.7147 14.0298 23.0795 14.0298 23.5298C14.0298 23.9798 13.665 24.3451 13.2145 24.3451H12.2203C11.7701 24.3451 11.4053 23.9798 11.4053 23.5298C11.4053 23.0795 11.7701 22.7147 12.2203 22.7147H12.2282Z" fill="#8D8EA6"/>
</g>
<defs>
<clipPath id="clip0">
<rect width="48" height="48" fill="white" transform="matrix(-1 0 0 1 48 0.607178)"/>
</clipPath>
</defs>
</svg>
