<svg width="52" height="52" viewBox="0 0 52 52" fill="none" xmlns="http://www.w3.org/2000/svg">
<g clip-path="url(#clip0)">
<path d="M12.1625 30.5654C11.3717 30.5654 10.5988 30.7999 9.94134 31.2392C9.28389 31.6785 8.77147 32.3029 8.46887 33.0334C8.16628 33.7639 8.08711 34.5678 8.24137 35.3433C8.39563 36.1188 8.77639 36.8312 9.33551 37.3903C9.89463 37.9494 10.607 38.3302 11.3825 38.4844C12.158 38.6387 12.9619 38.5595 13.6924 38.2569C14.4229 37.9543 15.0473 37.4419 15.4866 36.7845C15.9259 36.127 16.1604 35.3541 16.1604 34.5633C16.1592 33.5034 15.7376 32.4872 14.9881 31.7377C14.2386 30.9882 13.2224 30.5666 12.1625 30.5654ZM12.1625 37.1394C11.653 37.1394 11.1549 36.9883 10.7313 36.7052C10.3077 36.4222 9.97749 36.0199 9.78252 35.5491C9.58754 35.0784 9.53653 34.5605 9.63592 34.0608C9.73532 33.5611 9.98066 33.1021 10.3409 32.7418C10.7012 32.3815 11.1602 32.1362 11.6599 32.0368C12.1596 31.9374 12.6776 31.9884 13.1483 32.1834C13.619 32.3784 14.0213 32.7085 14.3044 33.1322C14.5874 33.5558 14.7385 34.0538 14.7385 34.5633C14.7376 35.2463 14.466 35.901 13.983 36.3839C13.5001 36.8668 12.8454 37.1385 12.1625 37.1394Z" fill="#8D8EA6"/>
<path d="M35.9663 30.5654C35.1756 30.5655 34.4026 30.8001 33.7452 31.2394C33.0878 31.6787 32.5755 32.3032 32.273 33.0337C31.9704 33.7642 31.8913 34.568 32.0456 35.3435C32.1999 36.119 32.5807 36.8313 33.1399 37.3904C33.699 37.9495 34.4113 38.3302 35.1869 38.4844C35.9624 38.6387 36.7662 38.5595 37.4967 38.2569C38.2272 37.9543 38.8516 37.4419 39.2908 36.7844C39.7301 36.127 39.9646 35.354 39.9646 34.5633C39.9634 33.5033 39.5417 32.4871 38.7922 31.7376C38.0426 30.988 37.0263 30.5665 35.9663 30.5654ZM35.9663 37.1394C35.4568 37.1393 34.9588 36.9881 34.5352 36.705C34.1116 36.4219 33.7815 36.0196 33.5866 35.5489C33.3917 35.0781 33.3407 34.5602 33.4402 34.0605C33.5396 33.5609 33.785 33.1019 34.1453 32.7417C34.5056 32.3814 34.9646 32.1361 35.4643 32.0368C35.9639 31.9374 36.4819 31.9884 36.9526 32.1834C37.4232 32.3784 37.8255 32.7086 38.1086 33.1322C38.3916 33.5558 38.5427 34.0539 38.5427 34.5633C38.5418 35.2463 38.2701 35.9011 37.7871 36.3841C37.3041 36.867 36.6493 37.1386 35.9663 37.1394Z" fill="#8D8EA6"/>
<path d="M49.3598 31.9218H48.1553V29.1593C48.1552 28.5568 48.0353 27.9604 47.8025 27.4047C47.5698 26.8489 47.2288 26.3451 46.7994 25.9224C46.37 25.4998 45.8608 25.1668 45.3015 24.9428C44.7422 24.7188 44.1439 24.6084 43.5415 24.6179C43.1005 24.6157 42.6655 24.5163 42.2674 24.3267C41.8693 24.1371 41.518 23.862 41.2384 23.521L38.5812 20.4055L30.4488 10.4503C30.3823 10.3686 30.2983 10.3028 30.2031 10.2576C30.1079 10.2124 30.0038 10.189 29.8984 10.1891C29.3934 10.1891 28.8988 10.3324 28.472 10.6023C28.0452 10.8722 27.7038 11.2576 27.4873 11.7138C27.2709 12.17 27.1883 12.6783 27.2492 13.1796C27.3101 13.6809 27.512 14.1546 27.8314 14.5457L32.4037 20.1434H23.7912L20.4193 16.0143C20.0266 15.5575 19.4709 15.2723 18.8708 15.2195C18.2707 15.1667 17.6738 15.3505 17.2073 15.7317C16.7408 16.1128 16.4418 16.6612 16.374 17.2598C16.3062 17.8584 16.475 18.4598 16.8443 18.9356L17.8311 20.1434H9.21822L5.84635 16.0143C5.45361 15.5575 4.89791 15.2723 4.29782 15.2195C3.69773 15.1667 3.10076 15.3505 2.63429 15.7317C2.16781 16.1128 1.86877 16.6612 1.80096 17.2598C1.73316 17.8584 1.90196 18.4598 2.27135 18.9356L3.25813 20.1434H3.15088C2.31616 20.1444 1.5159 20.4764 0.925666 21.0667C0.335429 21.6569 0.00340907 22.4571 0.00244141 23.2919V36.495C0.00254904 36.6835 0.0774857 36.8643 0.210789 36.9976C0.344092 37.1309 0.524859 37.2058 0.713379 37.2059H5.42019C5.94992 38.563 6.87686 39.7287 8.0798 40.5505C9.28274 41.3723 10.7057 41.8119 12.1625 41.8119C13.6194 41.8119 15.0423 41.3723 16.2452 40.5505C17.4482 39.7287 18.3751 38.563 18.9048 37.2059H29.2236C29.7534 38.563 30.6804 39.7286 31.8834 40.5504C33.0863 41.3721 34.5093 41.8117 35.9661 41.8117C37.423 41.8117 38.8459 41.3721 40.0489 40.5504C41.2518 39.7286 42.1788 38.563 42.7087 37.2059H49.3598C50.0601 37.2059 50.7318 36.9277 51.227 36.4325C51.7222 35.9373 52.0004 35.2656 52.0004 34.5653C52.0004 33.865 51.7222 33.1933 51.227 32.6981C50.7318 32.2029 50.0601 31.9247 49.3598 31.9247V31.9218ZM28.7718 12.3231C28.8485 12.156 28.9619 12.0084 29.1037 11.8913C29.2454 11.7742 29.4118 11.6908 29.5904 11.6471L37.4888 21.3159L40.1558 24.444C40.5718 24.9436 41.0927 25.3455 41.6815 25.6212C42.2702 25.8969 42.9125 26.0397 43.5626 26.0393C43.977 26.0296 44.389 26.104 44.7739 26.258C45.1587 26.412 45.5082 26.6425 45.8014 26.9355C46.0974 27.2251 46.3322 27.571 46.4922 27.9529C46.6521 28.3348 46.7338 28.7449 46.7326 29.1589V31.9214H42.7176C42.1803 30.5676 41.2502 29.4055 40.0471 28.5845C38.8439 27.7635 37.4227 27.3213 35.9661 27.3146C35.5125 27.3169 35.0599 27.3595 34.6137 27.4417V20.8544C34.6086 20.6914 34.5525 20.5341 34.4533 20.4046L28.9327 13.6463C28.7805 13.465 28.6843 13.2435 28.6558 13.0086C28.6272 12.7737 28.6675 12.5355 28.7718 12.3231ZM32.8315 28.0381C31.181 28.8322 29.8901 30.2188 29.2159 31.9218H19.1202V21.5653H33.191V27.8687C33.0415 27.9333 33.1862 27.8687 32.8315 28.0381ZM17.8299 17.0949C17.9 16.9419 18.0131 16.8124 18.1554 16.7224C18.2977 16.6324 18.4631 16.5857 18.6314 16.5879C18.763 16.5876 18.8929 16.6165 19.0119 16.6728C19.1308 16.729 19.2356 16.811 19.3188 16.9129L21.9566 20.1426H19.6658L17.9445 18.0374C17.8361 17.9083 17.7676 17.7505 17.7472 17.5832C17.7269 17.4159 17.7556 17.2462 17.8299 17.0949ZM3.37228 18.0374C3.26604 17.9074 3.19886 17.7499 3.17856 17.5832C3.15827 17.4166 3.18568 17.2475 3.25763 17.0958C3.32957 16.9441 3.44309 16.8159 3.58499 16.7262C3.72689 16.6364 3.89135 16.5888 4.05925 16.5887C4.19074 16.5883 4.32065 16.6173 4.4395 16.6735C4.55835 16.7298 4.66315 16.8118 4.74622 16.9137L7.38441 20.1434H5.09153L3.37228 18.0374ZM1.42432 23.2919C1.42485 22.8341 1.60693 22.3953 1.93061 22.0716C2.25429 21.7479 2.69313 21.5658 3.15088 21.5653H17.6983V29.8723C17.0137 29.073 16.1648 28.4307 15.2096 27.989C14.2543 27.5473 13.2151 27.3167 12.1627 27.3129C9.46603 27.2593 6.41916 29.1431 5.41125 31.9218H1.42432V23.2919ZM5.01719 35.7828H1.42432V33.3453H5.01719C4.88599 34.1525 4.88599 34.9756 5.01719 35.7828ZM12.1627 40.3889C9.06466 40.3523 6.30378 37.8198 6.33628 34.5633C6.27372 31.7601 8.87413 28.6048 12.1627 28.7368C15.0804 28.7811 18.0728 31.1743 17.9888 34.5633C18.042 37.4753 15.4119 40.4701 12.1627 40.3889ZM28.821 35.7828H19.3078C19.439 34.9756 19.439 34.1525 19.3078 33.3453H28.821C28.6896 34.1525 28.6896 34.9756 28.821 35.7828ZM35.9661 40.3889C32.8685 40.3523 30.1076 37.8198 30.1401 34.5633C30.1121 31.7228 32.5776 28.6527 35.9661 28.7368C38.8838 28.7811 41.8767 31.1743 41.7926 34.5633C41.8442 37.4753 39.2157 40.4701 35.9661 40.3889ZM49.3598 35.7828H43.1117C43.2426 34.9756 43.2426 34.1526 43.1117 33.3453H49.3598C49.683 33.3453 49.993 33.4737 50.2216 33.7023C50.4501 33.9309 50.5785 34.2409 50.5785 34.5641C50.5785 34.8873 50.4501 35.1973 50.2216 35.4259C49.993 35.6544 49.683 35.7828 49.3598 35.7828Z" fill="#8C8DA5"/>
<path d="M24.2356 23.5787H21.7222C21.5336 23.5787 21.3528 23.6536 21.2195 23.787C21.0861 23.9203 21.0112 24.1011 21.0112 24.2897C21.0112 24.4782 21.0861 24.6591 21.2195 24.7924C21.3528 24.9257 21.5336 25.0006 21.7222 25.0006H24.2356C24.4242 25.0006 24.605 24.9257 24.7383 24.7924C24.8717 24.6591 24.9466 24.4782 24.9466 24.2897C24.9466 24.1011 24.8717 23.9203 24.7383 23.787C24.605 23.6536 24.4242 23.5787 24.2356 23.5787Z" fill="#3A3C69" fill-opacity="0.54"/>
</g>
<defs>
<clipPath id="clip0">
<rect width="52" height="52" fill="white"/>
</clipPath>
</defs>
</svg>
