<svg width="19" height="28" viewBox="0 0 19 28" fill="none" xmlns="http://www.w3.org/2000/svg">
<path d="M4.69014 7.8798C6.36128 7.8798 7.78818 6.79998 8.32809 5.30881H14.9741V6.59431C14.9741 7.30133 15.5526 7.8798 16.2596 7.8798C16.9666 7.8798 17.5451 7.30133 17.5451 6.59431V5.30881C18.2521 5.30881 18.8306 4.73034 18.8306 4.02332C18.8306 3.3163 18.2521 2.73783 17.5451 2.73783H8.32809C8.01708 1.86055 7.39968 1.12512 6.58952 0.666897C5.77936 0.20867 4.83095 0.0584808 3.91884 0.243971C2.41482 0.539634 1.1936 1.77371 0.897936 3.27773C0.448013 5.72017 2.31198 7.8798 4.69014 7.8798ZM4.69014 2.73783C5.39716 2.73783 5.97563 3.3163 5.97563 4.02332C5.97563 4.73034 5.39716 5.30881 4.69014 5.30881C3.98312 5.30881 3.40465 4.73034 3.40465 4.02332C3.40465 3.3163 3.98312 2.73783 4.69014 2.73783ZM15.4754 10.4508H4.1888C3.63604 10.4508 3.14755 10.8107 2.96758 11.3249L0.833661 17.7652V25.8767C0.833661 26.5837 1.41213 27.1622 2.11915 27.1622C2.82618 27.1622 3.40465 26.5837 3.40465 25.8767V24.5912H16.2596V25.8767C16.2596 26.5837 16.8381 27.1622 17.5451 27.1622C18.2521 27.1622 18.8306 26.5837 18.8306 25.8767V17.7652L16.6966 11.3249C16.5167 10.8107 16.0282 10.4508 15.4754 10.4508ZM5.97563 21.3775C5.26861 21.3775 4.69014 20.799 4.69014 20.092C4.69014 19.385 5.26861 18.8065 5.97563 18.8065C6.68265 18.8065 7.26113 19.385 7.26113 20.092C7.26113 20.799 6.68265 21.3775 5.97563 21.3775ZM13.6886 21.3775C12.9816 21.3775 12.4031 20.799 12.4031 20.092C12.4031 19.385 12.9816 18.8065 13.6886 18.8065C14.3956 18.8065 14.9741 19.385 14.9741 20.092C14.9741 20.799 14.3956 21.3775 13.6886 21.3775ZM4.26593 15.5928L5.11435 13.0218H14.5499L15.3983 15.5928H4.26593Z" fill="#B1B1B1"/>
</svg>
