<svg width="28" height="28" viewBox="0 0 28 28" fill="none" xmlns="http://www.w3.org/2000/svg">
<path d="M8.69014 7.8798C10.3613 7.8798 11.7882 6.79998 12.3281 5.30881H18.9741V6.59431C18.9741 7.30133 19.5526 7.8798 20.2596 7.8798C20.9666 7.8798 21.5451 7.30133 21.5451 6.59431V5.30881C22.2521 5.30881 22.8306 4.73034 22.8306 4.02332C22.8306 3.3163 22.2521 2.73783 21.5451 2.73783H12.3281C12.0171 1.86055 11.3997 1.12512 10.5895 0.666897C9.77936 0.20867 8.83095 0.0584808 7.91884 0.243971C6.41482 0.539634 5.1936 1.77371 4.89794 3.27773C4.44801 5.72017 6.31198 7.8798 8.69014 7.8798ZM8.69014 2.73783C9.39716 2.73783 9.97563 3.3163 9.97563 4.02332C9.97563 4.73034 9.39716 5.30881 8.69014 5.30881C7.98312 5.30881 7.40465 4.73034 7.40465 4.02332C7.40465 3.3163 7.98312 2.73783 8.69014 2.73783ZM19.4754 10.4508H8.1888C7.63604 10.4508 7.14755 10.8107 6.96758 11.3249L4.83366 17.7652V25.8767C4.83366 26.5837 5.41213 27.1622 6.11915 27.1622C6.82618 27.1622 7.40465 26.5837 7.40465 25.8767V24.5912H20.2596V25.8767C20.2596 26.5837 20.8381 27.1622 21.5451 27.1622C22.2521 27.1622 22.8306 26.5837 22.8306 25.8767V17.7652L20.6966 11.3249C20.5167 10.8107 20.0282 10.4508 19.4754 10.4508ZM9.97563 21.3775C9.26861 21.3775 8.69014 20.799 8.69014 20.092C8.69014 19.385 9.26861 18.8065 9.97563 18.8065C10.6827 18.8065 11.2611 19.385 11.2611 20.092C11.2611 20.799 10.6827 21.3775 9.97563 21.3775ZM17.6886 21.3775C16.9816 21.3775 16.4031 20.799 16.4031 20.092C16.4031 19.385 16.9816 18.8065 17.6886 18.8065C18.3956 18.8065 18.9741 19.385 18.9741 20.092C18.9741 20.799 18.3956 21.3775 17.6886 21.3775ZM8.26593 15.5928L9.11435 13.0218H18.5499L19.3983 15.5928H8.26593Z" fill="#BD0000"/>
</svg>
