<svg width="21" height="21" viewBox="0 0 21 21" fill="none" xmlns="http://www.w3.org/2000/svg">
<path d="M8.99792 20.4495H3.16492C2.61237 20.449 2.0826 20.2293 1.69189 19.8386C1.30118 19.4479 1.08145 18.9181 1.08092 18.3655V8.66554C0.686284 8.3855 0.408064 7.97045 0.298959 7.49901C0.189853 7.02757 0.25744 6.53249 0.488916 6.10754C1.38892 4.49954 2.30692 2.91454 3.20992 1.39554C3.38795 1.10403 3.63852 0.86364 3.93717 0.697841C4.23582 0.532043 4.57235 0.446494 4.91392 0.449542C5.33792 0.453542 5.74992 0.588542 6.09392 0.834542L6.11792 0.849542C6.52992 1.08954 10.5099 3.45854 13.7089 5.36154L16.5489 7.04954L16.6789 7.12654C17.5959 7.66529 18.5106 8.20796 19.4229 8.75454C19.8173 9.03374 20.0948 9.44857 20.2023 9.91962C20.3099 10.3907 20.24 10.8848 20.0059 11.3075C19.1229 12.8845 18.2059 14.4695 17.2859 16.0195C17.1101 16.308 16.8635 16.5468 16.5695 16.7133C16.2754 16.8797 15.9438 16.9683 15.6059 16.9705C15.4699 16.9705 15.3359 16.9555 15.2059 16.9255C15.0889 16.9945 14.4489 17.4055 13.6379 17.9255C12.1949 18.8505 10.2229 20.1155 9.99492 20.2325C9.68731 20.3909 9.34352 20.4657 8.99792 20.4495V20.4495ZM2.74792 11.4795V18.3655C2.74792 18.5955 2.93492 18.7825 3.16492 18.7825H6.98792C5.55345 16.3605 4.14006 13.9261 2.74792 11.4795V11.4795ZM4.10592 10.4795C4.50592 11.1665 8.82191 18.6115 8.85791 18.6615C8.90121 18.7181 8.96322 18.7574 9.03284 18.7724C9.10246 18.7874 9.17515 18.7772 9.23792 18.7435C9.37192 18.6675 13.4309 16.0595 13.4709 16.0335C13.1569 15.8485 10.8849 14.4945 8.47892 13.0615L4.08592 10.4495L4.09292 10.4605L4.10292 10.4775V10.4835L4.10592 10.4795V10.4795ZM4.57992 2.34954C3.77192 3.64954 1.96392 6.87754 1.93992 6.93654C1.91122 7.00511 1.90794 7.08166 1.93067 7.15243C1.95341 7.22319 2.00066 7.28352 2.06392 7.32254C2.19692 7.40154 15.4179 15.2785 15.5439 15.2985C15.5599 15.2997 15.5759 15.2997 15.5919 15.2985C15.6453 15.2987 15.6979 15.2851 15.7445 15.259C15.7911 15.2329 15.8302 15.1952 15.8579 15.1495C16.766 13.5997 17.664 12.044 18.5519 10.4825C18.58 10.4136 18.5828 10.3371 18.5599 10.2663C18.5371 10.1955 18.49 10.135 18.4269 10.0955C18.2999 10.0195 5.10392 2.17754 5.01892 2.14054C4.95144 2.11241 4.87626 2.1087 4.80634 2.13006C4.73643 2.15142 4.67615 2.1965 4.63592 2.25754L4.62892 2.26954L4.62092 2.28154L4.60892 2.30154V2.30654L4.59392 2.33054L4.57892 2.34954H4.57992V2.34954ZM5.93292 7.83954C5.60363 7.83934 5.28178 7.74157 5.00803 7.55856C4.73427 7.37555 4.52089 7.11553 4.39483 6.81132C4.26877 6.50711 4.23569 6.17237 4.29976 5.84938C4.36383 5.52638 4.52219 5.22961 4.75482 4.99656C4.98746 4.76351 5.28394 4.60462 5.60682 4.53997C5.9297 4.47532 6.2645 4.5078 6.56893 4.63331C6.87336 4.75882 7.13377 4.97173 7.31727 5.24516C7.50077 5.51858 7.59913 5.84025 7.59992 6.16954C7.59939 6.61149 7.42359 7.0352 7.11108 7.3477C6.79857 7.66021 6.37487 7.83601 5.93292 7.83654V7.83954Z" fill="#B0B0B0"/>
</svg>
