<svg width="29" height="29" viewBox="0 0 29 29" fill="none" xmlns="http://www.w3.org/2000/svg">
<g clip-path="url(#clip0)">
<path d="M9.40234 18.7483H24.7522C25.1323 18.7483 25.4657 18.4969 25.5686 18.1319L28.9673 6.23711C29.0403 5.98067 28.9903 5.70522 28.8294 5.49215C28.6683 5.27975 28.4179 5.1543 28.1506 5.1543H7.44094L6.8336 2.42139C6.74731 2.0322 6.40216 1.75586 6.00391 1.75586H0.849609C0.380112 1.75586 0 2.13597 0 2.60547C0 3.07519 0.380112 3.45508 0.849609 3.45508H5.32201L8.39011 17.2612C7.4874 17.6537 6.85352 18.5522 6.85352 19.5979C6.85352 21.0033 7.99695 22.1467 9.40234 22.1467H24.7522C25.2219 22.1467 25.6018 21.7668 25.6018 21.2971C25.6018 20.8276 25.2219 20.4475 24.7522 20.4475H9.40234C8.93439 20.4475 8.55273 20.0667 8.55273 19.5979C8.55273 19.129 8.93439 18.7483 9.40234 18.7483Z" fill="#BD0000"/>
<path d="M8.55273 24.6953C8.55273 26.1009 9.69617 27.2441 11.1018 27.2441C12.5072 27.2441 13.6506 26.1009 13.6506 24.6953C13.6506 23.2899 12.5072 22.1465 11.1018 22.1465C9.69617 22.1465 8.55273 23.2899 8.55273 24.6953Z" fill="#BD0000"/>
<path d="M20.5039 24.6953C20.5039 26.1009 21.6473 27.2441 23.0527 27.2441C24.4584 27.2441 25.6016 26.1009 25.6016 24.6953C25.6016 23.2899 24.4584 22.1465 23.0527 22.1465C21.6473 22.1465 20.5039 23.2899 20.5039 24.6953Z" fill="#BD0000"/>
</g>
<defs>
<clipPath id="clip0">
<rect width="29" height="29" fill="white"/>
</clipPath>
</defs>
</svg>
