<svg width="7" height="7" viewBox="0 0 7 7" fill="none" xmlns="http://www.w3.org/2000/svg">
<path d="M5.03823 2.03021L6.55108 2.25763C6.98006 2.32209 7.15194 2.87175 6.84199 3.18766L5.7487 4.30181C5.62557 4.42729 5.56959 4.60789 5.59884 4.78479L5.85901 6.35584C5.93276 6.80133 5.48483 7.14169 5.1009 6.93182L3.74719 6.19165C3.59474 6.10832 3.41272 6.10848 3.2605 6.19222L1.90845 6.93583C1.52506 7.14669 1.07627 6.8074 1.149 6.36174L1.40555 4.79004C1.43441 4.61305 1.37803 4.43254 1.25459 4.30739L0.158937 3.19595C-0.151793 2.88077 0.0188255 2.33071 0.447731 2.26518L1.96002 2.03406C2.13033 2.00807 2.27744 1.89628 2.35339 1.73521L3.02824 0.304649C3.21961 -0.100989 3.77385 -0.101727 3.96609 0.303501L4.64416 1.73234C4.72051 1.89316 4.86785 2.00462 5.03823 2.03021Z" fill="#FFA41B"/>
</svg>
