<svg width="20" height="22" viewBox="0 0 20 22" fill="none" xmlns="http://www.w3.org/2000/svg">
<path d="M14.5 11C15.9587 11 17.3576 11.5795 18.3891 12.6109C19.4205 13.6424 20 15.0413 20 16.5C20 17.9587 19.4205 19.3576 18.3891 20.3891C17.3576 21.4205 15.9587 22 14.5 22C13.0413 22 11.6424 21.4205 10.6109 20.3891C9.57946 19.3576 9 17.9587 9 16.5C9 15.0413 9.57946 13.6424 10.6109 12.6109C11.6424 11.5795 13.0413 11 14.5 11ZM10 0.5C10.9283 0.5 11.8185 0.868749 12.4749 1.52513C13.1313 2.1815 13.5 3.07174 13.5 4H18.5C18.7652 4 19.0196 4.10536 19.2071 4.29289C19.3946 4.48043 19.5 4.73478 19.5 5C19.5 5.26522 19.3946 5.51957 19.2071 5.70711C19.0196 5.89464 18.7652 6 18.5 6H17.655L17.204 10.587C15.8282 9.95683 14.2757 9.8264 12.8141 10.2182C11.3525 10.61 10.0734 11.4995 9.19729 12.7333C8.32119 13.9671 7.90302 15.4679 8.01487 16.977C8.12672 18.4861 8.76158 19.9088 9.81 21H6.312C5.62935 21.0001 4.97107 20.7462 4.4652 20.2879C3.95933 19.8295 3.64202 19.1994 3.575 18.52L2.345 6H1.5C1.23478 6 0.98043 5.89464 0.792893 5.70711C0.605357 5.51957 0.5 5.26522 0.5 5C0.5 4.73478 0.605357 4.48043 0.792893 4.29289C0.98043 4.10536 1.23478 4 1.5 4H6.5C6.5 3.07174 6.86875 2.1815 7.52513 1.52513C8.1815 0.868749 9.07174 0.5 10 0.5ZM11.716 13.589L11.646 13.646L11.589 13.716C11.5314 13.7995 11.5005 13.8985 11.5005 14C11.5005 14.1015 11.5314 14.2005 11.589 14.284L11.646 14.354L13.793 16.5L11.646 18.646L11.589 18.716C11.5314 18.7995 11.5005 18.8985 11.5005 19C11.5005 19.1015 11.5314 19.2005 11.589 19.284L11.646 19.354L11.716 19.411C11.7995 19.4686 11.8985 19.4995 12 19.4995C12.1015 19.4995 12.2005 19.4686 12.284 19.411L12.354 19.354L14.5 17.207L16.646 19.354L16.716 19.411C16.7995 19.4686 16.8985 19.4995 17 19.4995C17.1015 19.4995 17.2005 19.4686 17.284 19.411L17.354 19.354L17.411 19.284C17.4686 19.2005 17.4995 19.1015 17.4995 19C17.4995 18.8985 17.4686 18.7995 17.411 18.716L17.354 18.646L15.207 16.5L17.354 14.354L17.411 14.284C17.4686 14.2005 17.4995 14.1015 17.4995 14C17.4995 13.8985 17.4686 13.7995 17.411 13.716L17.354 13.646L17.284 13.589C17.2005 13.5314 17.1015 13.5005 17 13.5005C16.8985 13.5005 16.7995 13.5314 16.716 13.589L16.646 13.646L14.5 15.793L12.354 13.646L12.284 13.589C12.2128 13.5397 12.1301 13.5097 12.0438 13.502C11.9576 13.4943 11.8708 13.5091 11.792 13.545L11.716 13.589ZM10 2.5C9.60218 2.5 9.22064 2.65804 8.93934 2.93934C8.65804 3.22064 8.5 3.60218 8.5 4H11.5C11.5 3.60218 11.342 3.22064 11.0607 2.93934C10.7794 2.65804 10.3978 2.5 10 2.5Z" fill="url(#paint0_linear_991_460)"/>
<defs>
<linearGradient id="paint0_linear_991_460" x1="0.499741" y1="11.2508" x2="19.9994" y2="11.2508" gradientUnits="userSpaceOnUse">
<stop stop-color="#F90001"/>
<stop offset="1" stop-color="#A30000"/>
</linearGradient>
</defs>
</svg>
