<svg width="161" height="52" viewBox="0 0 161 52" fill="none" xmlns="http://www.w3.org/2000/svg">
<path d="M40.8369 13.5657C39.4419 12.9897 38.0223 12.4941 36.5245 12.2431C36.3679 12.2174 36.1753 12.1707 36.1704 11.9776C36.1655 11.7749 36.3711 11.7427 36.5212 11.7122C36.7333 11.6687 36.9569 11.6832 37.1674 11.6398C38.737 11.3164 40.3589 11.3759 41.922 11.0026C45.9636 11.0251 50.0133 10.684 54.0403 11.3115C56.0456 11.6237 58.0264 12.0243 59.9028 12.7966C61.727 13.548 63.5919 14.1642 65.5303 14.523C68.2438 15.025 70.9947 14.9285 73.7343 14.8464C75.1179 14.8046 76.4967 14.5729 77.877 14.4265C75.7069 14.1336 73.5466 14.2978 71.388 13.9502C68.4086 13.4707 65.532 12.7145 62.8202 11.4193C59.7608 9.95679 56.5481 8.96728 53.2065 8.46689C49.5238 7.91502 45.8069 7.77343 42.0852 8.12096C40.3654 8.02121 38.6783 8.35748 36.9879 8.56343C35.2975 8.76776 33.6071 9.0075 31.9412 9.384C30.6261 9.68004 29.2946 9.91495 27.9812 10.2142C26.4817 10.5569 25.0099 11.0477 23.4958 11.281C21.3028 11.6188 19.0985 11.9036 16.8762 12.0677C11.6598 12.4539 6.46133 12.441 1.27432 11.7105C0.86967 11.6526 0.447072 11.5513 0 11.7701C0.920251 12.9897 1.97919 13.9567 3.13603 14.8368C5.87231 16.9187 8.97244 17.7281 12.3973 17.5591C13.7744 17.4915 15.0552 17.0652 16.3475 16.7096C20.3434 15.6058 24.3866 14.7531 28.518 14.3782C31.468 14.1111 34.4197 14.0822 37.3778 14.4876C39.889 14.8319 42.2907 15.4707 44.5865 16.5069C46.0044 17.1472 47.2624 18.0563 48.7194 19.0748C48.5351 18.7964 48.4943 18.6999 48.4257 18.6339C46.1953 16.5101 43.7119 14.7531 40.8369 13.5657Z" fill="url(#paint0_linear)"/>
<path d="M153.101 17.0973C147.854 14.0998 142.089 12.7242 136.147 12.0146C132.234 11.5464 128.29 11.5561 124.347 11.6172C120.892 11.6719 117.469 12.0211 114.036 12.3203C111.967 12.5391 109.902 12.7982 107.851 13.1473C106.573 13.3645 105.305 13.4353 104.245 12.5102C100.365 9.12332 96.0651 6.39614 91.2958 4.38977C89.6674 3.70435 88.0472 2.9948 86.3062 2.62152C85.2767 2.09861 84.1525 1.90232 83.0332 1.69155C82.932 1.68028 82.8292 1.66741 82.728 1.65615C82.5339 1.56766 82.3462 1.4325 82.1423 1.3955C79.8792 0.990039 77.6259 0.558839 75.3269 0.343238C70.2769 -0.131404 65.2384 -0.116924 60.1966 0.405988C59.898 0.40277 59.5945 0.364155 59.3024 0.404379C57.0165 0.722952 54.7224 0.994866 52.4511 1.39871C49.0491 2.00207 45.6765 2.76633 42.3447 3.67056C38.786 4.63594 35.2519 5.69463 31.7846 6.94962C30.4646 7.20705 29.2719 7.80237 27.9258 8.26897C28.5572 8.62937 28.9749 8.22392 29.3975 8.09681C30.4238 7.7895 31.5056 7.64469 32.4667 7.13948C33.5631 6.86756 34.6563 6.58117 35.7577 6.32534C37.8593 5.83622 39.9608 5.34066 42.0722 4.89498C43.4722 4.59893 44.8868 4.36402 46.3014 4.13877C48.199 3.83629 50.0967 3.50806 52.0057 3.29889C54.5674 3.01894 57.1405 2.84356 59.7087 2.62313C64.0538 2.599 68.3923 2.66014 72.7048 3.26832C74.8178 3.56598 76.9226 3.88295 78.9932 4.40264C80.4535 4.76787 81.9106 5.13954 83.3693 5.5096C83.4688 5.52408 83.57 5.53856 83.6695 5.55304C85.0499 6.18697 86.4955 6.64392 87.933 7.12821C88.0945 7.22314 88.2463 7.34381 88.4176 7.41139C92.3123 8.95116 95.8808 11.0557 99.2648 13.4804C99.4312 13.5994 99.7119 13.6622 99.6548 13.9325C99.5977 14.2028 99.3186 14.1626 99.1196 14.1771C97.0115 14.3186 94.923 14.6227 92.8296 14.8866C92.0855 14.7981 91.3823 15.0636 90.6595 15.1344C86.489 15.535 82.3381 16.0821 78.1871 16.6452C74.9287 17.0877 71.641 16.8576 68.3662 16.7771C67.6255 16.465 66.8031 16.7852 66.0591 16.4924C64.5417 16.4972 63.0536 16.1947 61.5557 16.0177C59.743 15.8037 57.9449 15.4562 56.1403 15.165C55.2869 14.6919 54.3389 14.7804 53.4301 14.6372C54.0175 15.0041 54.6424 15.2197 55.2935 15.3596C56.5857 15.7201 57.8649 16.1319 59.1719 16.4296C61.701 17.0072 64.2512 17.4609 66.8243 17.8294C70.0534 18.2912 73.2971 18.5776 76.5457 18.6838C80.5367 18.8157 84.5343 18.7401 88.5285 18.7047C89.7996 18.6934 91.069 18.5164 92.3384 18.4167C94.3242 18.5277 96.2822 18.1753 98.2548 18.053C100.684 17.9018 103.107 17.6347 105.525 17.3548C107.723 17.0989 109.926 16.8351 112.098 16.4248C113.178 16.2204 114.318 16.3009 115.346 15.823C117.135 15.7281 118.9 15.4127 120.68 15.2744C125.644 14.8898 130.614 14.7981 135.577 15.2502C137.331 15.4095 139.089 15.5962 140.82 15.9003C143.156 16.3121 145.485 16.7707 147.782 17.3934C150.402 18.1045 152.989 18.8929 155.5 19.9162C156.356 20.2654 157.224 20.5871 158.087 20.9218C156.648 19.3193 154.924 18.1383 153.101 17.0973Z" fill="url(#paint1_linear)"/>
<path d="M5.16799 34.5024C4.82865 34.5024 4.72424 34.3327 4.85476 33.9934L5.93149 31.3309C6.0881 30.9785 6.32955 30.8023 6.65584 30.8023H18.9502C19.3156 30.8023 19.42 30.9785 19.2634 31.3309L18.1867 33.9934C18.0562 34.3327 17.8147 34.5024 17.4623 34.5024H5.16799ZM12.5094 35.3442C12.8487 35.3442 12.9531 35.5138 12.8226 35.8532L9.37704 44.3692C9.22042 44.7215 8.97897 44.8977 8.65269 44.8977H5.5791C5.21367 44.8977 5.10926 44.7215 5.26587 44.3692L8.71142 35.8532C8.84193 35.5138 9.08338 35.3442 9.43577 35.3442H12.5094ZM21.8075 39.0638L22.8842 36.4013C23.0147 36.062 23.2562 35.8923 23.6086 35.8923H27.1129C27.2434 35.8923 27.3347 35.8271 27.3869 35.6966L29.1489 31.3309C29.3055 30.9785 29.5469 30.8023 29.8732 30.8023H32.9468C33.3122 30.8023 33.4166 30.9785 33.26 31.3309L27.9938 44.3692C27.8372 44.7215 27.5892 44.8977 27.2499 44.8977H24.1763C23.8239 44.8977 23.726 44.7215 23.8827 44.3692L25.762 39.7686C25.8142 39.6381 25.7751 39.5728 25.6446 39.5728H22.1207C21.7814 39.5728 21.677 39.4031 21.8075 39.0638ZM14.6423 44.3692L19.9085 31.3309C20.0651 30.9785 20.3066 30.8023 20.6329 30.8023H23.726C24.0784 30.8023 24.1763 30.9785 24.0197 31.3309L18.7535 44.3692C18.5969 44.7215 18.3554 44.8977 18.0291 44.8977H14.936C14.5836 44.8977 14.4857 44.7215 14.6423 44.3692ZM38.3844 36.7929C38.5411 36.4405 38.7825 36.2643 39.1088 36.2643H44.0422C44.3946 36.2643 44.4925 36.4405 44.3358 36.7929L43.494 38.9072C43.3374 39.2596 43.096 39.4358 42.7697 39.4358H37.8363C37.4839 39.4358 37.386 39.2596 37.5426 38.9072L38.3844 36.7929ZM42.9067 41.1977C43.2461 41.1977 43.3505 41.3674 43.22 41.7067L42.1432 44.3692C41.9866 44.7215 41.7452 44.8977 41.4189 44.8977H30.632C30.2796 44.8977 30.1817 44.7215 30.3383 44.3692L35.6045 31.3309C35.7611 30.9785 36.0026 30.8023 36.3289 30.8023H47.1158C47.4682 30.8023 47.566 30.9785 47.4094 31.3309L46.3327 33.9934C46.2022 34.3327 45.9673 34.5024 45.6279 34.5024H38.5998C38.4562 34.5024 38.3649 34.5676 38.3257 34.6981L35.7611 41.0019C35.722 41.1324 35.7611 41.1977 35.8786 41.1977H42.9067ZM56.1492 41.1977C56.4885 41.1977 56.5929 41.3674 56.4624 41.7067L55.3857 44.3692C55.2291 44.7215 54.9876 44.8977 54.6613 44.8977H46.811C45.8843 44.8977 45.2252 44.578 44.8337 43.9385C44.4552 43.2989 44.4552 42.5159 44.8337 41.5892L47.8681 34.1108C48.3641 32.884 48.9514 32.0291 49.63 31.5462C50.3218 31.0503 51.281 30.8023 52.5079 30.8023H60.3582C60.6845 30.8023 60.7824 30.9785 60.6519 31.3309L59.5751 33.9934C59.4446 34.3327 59.2097 34.5024 58.8704 34.5024H52.2729C52.1555 34.5024 52.0641 34.5741 51.9989 34.7177L49.4538 41.0019C49.4147 41.1324 49.4538 41.1977 49.5713 41.1977H56.1492ZM55.5548 44.33L66.3613 31.233C66.5962 30.9459 66.8638 30.8023 67.164 30.8023H70.2571C70.5573 30.8023 70.7074 30.9459 70.7074 31.233L70.9423 44.33C70.9423 44.7085 70.74 44.8977 70.3354 44.8977H67.2423C66.929 44.8977 66.779 44.7542 66.792 44.467V42.7051C66.792 42.5877 66.7267 42.5289 66.5962 42.5289H63.3073C62.8897 42.5289 62.8375 42.3397 63.1507 41.9612L64.8735 39.7881C65.017 39.6054 65.1345 39.4945 65.2258 39.4553C65.3303 39.4031 65.4869 39.377 65.6957 39.377H66.6158C66.7463 39.377 66.8116 39.3183 66.8116 39.2008L66.792 36.2056L60.2141 44.467C60.0706 44.6498 59.9466 44.7672 59.8422 44.8194C59.7508 44.8716 59.6073 44.8977 59.4115 44.8977H55.6919C55.2873 44.8977 55.2416 44.7085 55.5548 44.33ZM71.6144 44.3692L76.8806 31.3309C77.0372 30.9785 77.2786 30.8023 77.6049 30.8023H86.8061C87.7327 30.8023 88.3853 31.1286 88.7638 31.7812C89.1553 32.4207 89.1619 33.1972 88.7834 34.1108L87.041 38.2611C86.7017 39.0573 86.2579 39.612 85.7098 39.9252C85.1747 40.2384 84.3785 40.395 83.3214 40.395L84.8288 44.3496C84.9854 44.715 84.8223 44.8977 84.3394 44.8977H81.0896C80.7633 44.8977 80.561 44.7868 80.4827 44.5649L78.9361 40.395H78.7404C78.401 40.395 78.2966 40.2254 78.4271 39.886L79.4451 37.3802C79.6018 37.0278 79.8432 36.8516 80.1695 36.8516H83.3605C83.4911 36.8516 83.5824 36.7863 83.6346 36.6558L84.4177 34.6981C84.4569 34.5676 84.4177 34.5024 84.3002 34.5024H79.915C79.7714 34.5024 79.6801 34.5676 79.6409 34.6981L75.7255 44.3692C75.5689 44.7215 75.3275 44.8977 75.0012 44.8977H71.908C71.5556 44.8977 71.4577 44.7215 71.6144 44.3692ZM86.8515 44.3887L92.1177 31.3309C92.2482 30.9916 92.4832 30.8219 92.8225 30.8219H101.417C102.343 30.8219 103.009 31.1155 103.414 31.7029C103.818 32.2771 103.812 33.0863 103.394 34.1304L102.963 35.2071C102.846 35.5073 102.663 35.8401 102.415 36.2056C102.18 36.5579 101.893 36.8647 101.554 37.1257C101.802 37.4128 101.952 37.8043 102.004 38.3003C102.056 38.7962 101.952 39.377 101.691 40.0426L101.064 41.5892C100.568 42.8161 99.9746 43.6774 99.2829 44.1734C98.6042 44.6563 97.6515 44.8977 96.4247 44.8977H92.196C91.8436 44.8977 91.7458 44.7281 91.9024 44.3887L92.9595 41.7263C93.1161 41.3739 93.3576 41.1977 93.6839 41.1977H96.4051C96.9141 41.1977 97.2665 40.9432 97.4622 40.4342L97.5993 40.0818C97.6906 39.873 97.6972 39.6903 97.6188 39.5336C97.5405 39.377 97.397 39.2987 97.1882 39.2987H94.2908C94.0558 39.2987 93.9841 39.1878 94.0754 38.9659L95.0347 36.5971C95.126 36.3752 95.2827 36.2643 95.5045 36.2643H97.7363C98.2192 36.2643 98.5781 36.0033 98.813 35.4812L98.9109 35.2659C98.9892 35.057 98.9892 34.8743 98.9109 34.7177C98.8326 34.5611 98.6825 34.4828 98.4607 34.4828H95.1717C95.0412 34.4828 94.9499 34.5415 94.8976 34.659L90.9627 44.3887C90.8322 44.7281 90.5842 44.8977 90.2188 44.8977H87.1452C86.7928 44.8977 86.6949 44.7281 86.8515 44.3887ZM102.955 41.5892L107.105 31.3309C107.262 30.9785 107.503 30.8023 107.829 30.8023H110.922C111.275 30.8023 111.373 30.9785 111.216 31.3309L107.32 41.0019C107.281 41.1324 107.32 41.1977 107.438 41.1977H112.136C112.28 41.1977 112.371 41.1324 112.41 41.0019L116.326 31.3309C116.482 30.9785 116.724 30.8023 117.05 30.8023H120.124C120.489 30.8023 120.593 30.9785 120.437 31.3309L116.287 41.5892C115.791 42.8161 115.197 43.6774 114.505 44.1734C113.826 44.6563 112.867 44.8977 111.627 44.8977H104.932C104.005 44.8977 103.346 44.578 102.955 43.9385C102.576 43.2989 102.576 42.5159 102.955 41.5892ZM129.754 41.1977C130.093 41.1977 130.198 41.3674 130.067 41.7067L128.99 44.3692C128.834 44.7215 128.592 44.8977 128.266 44.8977H120.416C119.489 44.8977 118.83 44.578 118.439 43.9385C118.06 43.2989 118.06 42.5159 118.439 41.5892L121.473 34.1108C121.969 32.884 122.556 32.0291 123.235 31.5462C123.927 31.0503 124.886 30.8023 126.113 30.8023H133.963C134.289 30.8023 134.387 30.9785 134.257 31.3309L133.18 33.9934C133.049 34.3327 132.815 34.5024 132.475 34.5024H125.878C125.76 34.5024 125.669 34.5741 125.604 34.7177L123.059 41.0019C123.02 41.1324 123.059 41.1977 123.176 41.1977H129.754ZM130.613 44.3692L135.879 31.3309C136.036 30.9785 136.277 30.8023 136.603 30.8023H139.697C140.049 30.8023 140.147 30.9785 139.99 31.3309L138.855 34.1304L142.907 31.096C143.168 30.9002 143.436 30.8023 143.71 30.8023H147.488C147.984 30.8023 147.991 30.985 147.508 31.3505L136.956 39.1617C136.825 39.253 136.741 39.364 136.701 39.4945L134.724 44.3692C134.567 44.7215 134.326 44.8977 134 44.8977H130.907C130.554 44.8977 130.456 44.7215 130.613 44.3692ZM137.837 39.4358L140.832 37.204C140.976 37.0996 141.1 37.0474 141.204 37.0474C141.348 37.0474 141.439 37.1322 141.478 37.3019L142.711 44.33C142.777 44.7085 142.588 44.8977 142.144 44.8977H138.522C138.235 44.8977 138.072 44.7672 138.033 44.5062L137.406 40.1797C137.367 39.9317 137.511 39.6837 137.837 39.4358ZM148.184 40.4342C148.419 40.4342 148.484 40.5451 148.38 40.767L148.203 41.2368C148.125 41.4065 148.171 41.4913 148.34 41.4913H153.019C153.202 41.4913 153.326 41.4065 153.391 41.2368L154.018 39.6707C154.096 39.501 154.044 39.4162 153.861 39.4162H148.301C147.401 39.4162 146.768 39.1095 146.402 38.4961C146.037 37.8696 146.03 37.1061 146.383 36.2056L147.283 34.0129C147.753 32.8514 148.327 32.0291 149.006 31.5462C149.698 31.0503 150.624 30.8023 151.786 30.8023H158.031C158.932 30.8023 159.565 31.1155 159.93 31.742C160.295 32.3554 160.302 33.1124 159.95 34.0129L159.578 34.9331C159.473 35.1549 159.317 35.2659 159.108 35.2659H155.936C155.701 35.2659 155.636 35.1549 155.741 34.9331L155.917 34.4632C155.995 34.2935 155.949 34.2087 155.78 34.2087H151.297C151.114 34.2087 150.99 34.2935 150.925 34.4632L150.298 36.0294C150.22 36.199 150.272 36.2839 150.455 36.2839H156.015C156.915 36.2839 157.548 36.5971 157.914 37.2236C158.279 37.837 158.286 38.594 157.933 39.4945L157.033 41.6871C156.55 42.8487 155.962 43.6774 155.271 44.1734C154.592 44.6563 153.678 44.8977 152.53 44.8977H146.089C145.189 44.8977 144.549 44.591 144.171 43.9776C143.805 43.3512 143.805 42.5877 144.171 41.6871L144.543 40.767C144.647 40.5451 144.804 40.4342 145.012 40.4342H148.184Z" fill="#727272"/>
<defs>
<linearGradient id="paint0_linear" x1="0" y1="13.5025" x2="77.8772" y2="13.5025" gradientUnits="userSpaceOnUse">
<stop stop-color="#F90001"/>
<stop offset="1" stop-color="#A30000"/>
</linearGradient>
<linearGradient id="paint1_linear" x1="27.9241" y1="10.4617" x2="158.083" y2="10.4617" gradientUnits="userSpaceOnUse">
<stop stop-color="#F90001"/>
<stop offset="1" stop-color="#A30000"/>
</linearGradient>
</defs>
</svg>
