<svg width="17" height="17" viewBox="0 0 17 17" fill="none" xmlns="http://www.w3.org/2000/svg">
<g clip-path="url(#clip0_101_949)">
<path d="M6.48934 7.78824L9.42773 10.7271L15.5725 4.58314L12.6341 1.64433L6.48934 7.78824Z" fill="#010101"/>
<path d="M16.6552 1.39251L15.7131 0.450331C15.1929 -0.0698693 14.3493 -0.0698693 13.8291 0.450331L13.168 1.11069L16.1063 4.04904L16.7671 3.38831C17.2876 2.86849 17.1758 1.91271 16.6552 1.39251Z" fill="#010101"/>
<path d="M6.04443 8.39764V11.3334H8.78181L6.04443 8.39764Z" fill="#010101"/>
<path d="M10.9556 15.1111H1.88889V6.04447H6.63189L8.52078 4.15558H1.32222C0.696244 4.15558 0 4.47405 0 5.10002V15.6778C0 16.3034 0.696244 17 1.32222 17H11.9C12.5256 17 12.8444 16.3034 12.8444 15.6778V8.91407L10.9556 10.803V15.1111Z" fill="#010101"/>
</g>
<defs>
<clipPath id="clip0_101_949">
<rect width="17" height="17" fill="white"/>
</clipPath>
</defs>
</svg>
