<svg width="18" height="17" viewBox="0 0 18 17" fill="none" xmlns="http://www.w3.org/2000/svg">
<path d="M12 13L8 17H16C17.1 17 18 16.1 18 15C18 13.9 17.1 13 16 13H12ZM9.06 4.19L0.29 12.96C0.11 13.14 0 13.4 0 13.66V16C0 16.55 0.45 17 1 17H3.34C3.61 17 3.86 16.89 4.05 16.71L12.82 7.94L9.06 4.19ZM15.71 5.04C15.8027 4.94749 15.8763 4.8376 15.9264 4.71663C15.9766 4.59565 16.0024 4.46597 16.0024 4.335C16.0024 4.20403 15.9766 4.07435 15.9264 3.95338C15.8763 3.83241 15.8027 3.72252 15.71 3.63L13.37 1.29C13.2775 1.1973 13.1676 1.12375 13.0466 1.07357C12.9257 1.02339 12.796 0.997559 12.665 0.997559C12.534 0.997559 12.4043 1.02339 12.2834 1.07357C12.1624 1.12375 12.0525 1.1973 11.96 1.29L10.13 3.12L13.88 6.87L15.71 5.04Z" fill="url(#paint0_linear)"/>
<defs>
<linearGradient id="paint0_linear" x1="-0.000239179" y1="8.99939" x2="17.9994" y2="8.99939" gradientUnits="userSpaceOnUse">
<stop stop-color="#F90001"/>
<stop offset="1" stop-color="#A30000"/>
</linearGradient>
</defs>
</svg>
