<svg width="27" height="27" viewBox="0 0 27 27" fill="none" xmlns="http://www.w3.org/2000/svg">
<path d="M10.3068 12.3696L14.9736 17.0371L24.733 7.27913L20.0661 2.61161L10.3068 12.3696Z" fill="#E20001"/>
<path d="M26.4522 2.21151L24.9558 0.715109C24.1296 -0.111091 22.7898 -0.111091 21.9636 0.715109L20.9136 1.76391L25.5804 6.43071L26.6298 5.38131C27.4566 4.55571 27.279 3.03771 26.4522 2.21151Z" fill="#E20001"/>
<path d="M9.6001 13.3374V18H13.9477L9.6001 13.3374Z" fill="#E20001"/>
<path d="M17.4 23.9999H3V9.59985H10.533L13.533 6.59985H2.1C1.1058 6.59985 0 7.10565 0 8.09985V24.8999C0 25.8935 1.1058 26.9999 2.1 26.9999H18.9C19.8936 26.9999 20.4 25.8935 20.4 24.8999V14.1575L17.4 17.1575V23.9999Z" fill="#E20001"/>
</svg>
