<svg width="21" height="15" viewBox="0 0 21 15" fill="none" xmlns="http://www.w3.org/2000/svg">
<path d="M20.9846 1.50541C20.9846 1.48142 21.0011 1.45806 21 1.43434L14.5915 7.60926L20.9923 13.5869C20.9961 13.5442 20.9846 13.5012 20.9846 13.4576V1.50541Z" fill="white" fill-opacity="0.48"/>
<path d="M13.6132 8.5595L10.9971 11.0766C10.8647 11.2039 10.6937 11.2678 10.5226 11.2678C10.3551 11.2678 10.1876 11.2067 10.0561 11.0841L7.44713 8.65293L1.00452 14.8629C1.16117 14.9192 1.32932 14.9629 1.50541 14.9629H19.54C19.8015 14.9629 20.0467 14.8832 20.2599 14.7644L13.6132 8.5595Z" fill="white" fill-opacity="0.48"/>
<path d="M10.5152 9.64121L20.2955 0.219973C20.074 0.0883174 19.8163 0 19.54 0H1.50545C1.14571 0 0.816067 0.139684 0.559326 0.352723L10.5152 9.64121Z" fill="white" fill-opacity="0.48"/>
<path d="M0 1.73487V13.4574C0 13.592 0.0309294 13.7217 0.0645046 13.8457L6.4272 7.71856L0 1.73487Z" fill="white" fill-opacity="0.48"/>
</svg>
