<svg width="28" height="27" viewBox="0 0 28 27" fill="none" xmlns="http://www.w3.org/2000/svg">
<g opacity="0.5">
<path d="M13.9121 2.37595C7.82462 2.37595 2.87207 7.32849 2.87207 13.4159C2.87207 19.5034 7.82462 24.4559 13.9121 24.4559C19.9995 24.4559 24.9521 19.5034 24.9521 13.4159C24.9521 7.32849 19.9995 2.37595 13.9121 2.37595ZM13.9121 22.2479C9.04233 22.2479 5.08007 18.2857 5.08007 13.4159C5.08007 8.5462 9.04233 4.58395 13.9121 4.58395C18.7818 4.58395 22.7441 8.5462 22.7441 13.4159C22.7441 18.2857 18.7818 22.2479 13.9121 22.2479Z" fill="#1B1A57"/>
<path d="M17.0357 16.5381C16.6321 16.9403 16.1555 17.2618 15.6314 17.4853C14.6878 17.8837 13.6351 17.9418 12.6534 17.6498C11.6716 17.3578 10.8219 16.7338 10.2494 15.8845L8.41895 17.1199C8.89635 17.8244 9.50373 18.4314 10.2085 18.9083C10.9257 19.3934 11.7316 19.7321 12.5799 19.9053C13.4596 20.0847 14.3664 20.0847 15.2461 19.9053C16.0943 19.7319 16.9001 19.3931 17.6175 18.9083C17.963 18.6743 18.2931 18.4027 18.5956 18.1013C18.8959 17.8021 19.1697 17.4709 19.406 17.1199L17.5755 15.8845C17.4169 16.1191 17.2361 16.3379 17.0357 16.5381Z" fill="#1B1A57"/>
<path d="M17.7684 13.4005C18.6787 13.4005 19.4167 12.6626 19.4167 11.7522C19.4167 10.8419 18.6787 10.104 17.7684 10.104C16.8581 10.104 16.1201 10.8419 16.1201 11.7522C16.1201 12.6626 16.8581 13.4005 17.7684 13.4005Z" fill="#1B1A57"/>
<path d="M10.0476 13.416C10.9622 13.416 11.7036 12.6746 11.7036 11.76C11.7036 10.8454 10.9622 10.104 10.0476 10.104C9.13302 10.104 8.3916 10.8454 8.3916 11.76C8.3916 12.6746 9.13302 13.416 10.0476 13.416Z" fill="#1B1A57"/>
</g>
</svg>
