<svg width="22" height="18" viewBox="0 0 22 18" fill="none" xmlns="http://www.w3.org/2000/svg">
<mask id="path-1-outside-1" maskUnits="userSpaceOnUse" x="-1" y="-0.25" width="24" height="18" fill="black">
<rect fill="white" x="-1" y="-0.25" width="24" height="18"/>
<path d="M20.625 7.16665C19.8668 7.16665 19.25 7.78343 19.25 8.54165V9.91665H18.3333V8.19434C18.3333 7.71184 18.1378 7.23918 17.7962 6.8981L16.7686 5.87041C16.4275 5.5289 15.9548 5.3333 15.4723 5.3333H12.8333V3.5H14.2083C14.9665 3.5 15.5833 2.88323 15.5833 2.125C15.5833 1.36677 14.9665 0.75 14.2083 0.75H8.7083C7.95008 0.75 7.3333 1.36677 7.3333 2.125C7.3333 2.88323 7.95008 3.5 8.7083 3.5H10.0833V5.33335H8.36099C7.87849 5.33335 7.40584 5.52894 7.06475 5.87046L5.76851 7.1667H5.04161C4.28338 7.1667 3.66661 7.78347 3.66661 8.5417V9.9167H2.75V8.5417C2.75 7.78347 2.13323 7.1667 1.375 7.1667C0.616773 7.1667 0 7.78347 0 8.5417V14.0417C0 14.7999 0.616773 15.4167 1.375 15.4167C2.13323 15.4167 2.75 14.7999 2.75 14.0417V12.6667H3.66665V14.0417C3.66665 14.7999 4.28343 15.4167 5.04165 15.4167H5.76855L7.06479 16.7129C7.40588 17.0544 7.87854 17.25 8.36103 17.25H14.5557C15.0382 17.25 15.5108 17.0544 15.8519 16.7129L17.7962 14.7686C18.1378 14.4275 18.3333 13.9549 18.3333 13.4724V12.6667H19.25V14.0417C19.25 14.7999 19.8668 15.4167 20.625 15.4167C21.3832 15.4167 22 14.7999 22 14.0417V8.5417C22 7.78347 21.3832 7.16665 20.625 7.16665ZM21.0834 14.0417C21.0833 14.2945 20.8779 14.5 20.625 14.5C20.3721 14.5 20.1667 14.2946 20.1667 14.0417V12.2083C20.1667 11.955 19.9616 11.75 19.7083 11.75H17.875C17.6217 11.75 17.4167 11.955 17.4167 12.2083V13.4723C17.4167 13.7136 17.3186 13.9499 17.1481 14.1204L15.2038 16.0647C15.0332 16.2353 14.7969 16.3333 14.5557 16.3333H8.36099C8.11972 16.3333 7.88339 16.2353 7.71289 16.0647L6.28237 14.6342C6.19644 14.5483 6.08008 14.5 5.9583 14.5H5.04165C4.78878 14.5 4.5833 14.2945 4.5833 14.0416V12.2083C4.5833 11.9549 4.3783 11.7499 4.12496 11.7499H2.29165C2.03831 11.7499 1.8333 11.9549 1.8333 12.2083V14.0416C1.83335 14.2946 1.62787 14.5 1.375 14.5C1.12213 14.5 0.916652 14.2946 0.916652 14.0417V8.54165C0.916652 8.28878 1.12209 8.0833 1.375 8.0833C1.62791 8.0833 1.83335 8.28874 1.83335 8.54165V10.375C1.83335 10.6283 2.03835 10.8333 2.2917 10.8333H4.125C4.37834 10.8333 4.58335 10.6283 4.58335 10.375V8.54165C4.58335 8.28878 4.78878 8.0833 5.0417 8.0833H5.95835C6.08008 8.0833 6.19648 8.03497 6.28242 7.94903L7.71289 6.51855C7.88343 6.34801 8.11976 6.25 8.36099 6.25H10.5417C10.795 6.25 11 6.045 11 5.79165V3.04165C11 2.78831 10.795 2.5833 10.5417 2.5833H8.7083C8.45543 2.58335 8.25 2.37787 8.25 2.125C8.25 1.87213 8.45543 1.66665 8.70835 1.66665H14.2083C14.4612 1.66665 14.6667 1.87209 14.6667 2.125C14.6667 2.37791 14.4613 2.58335 14.2083 2.58335H12.375C12.1217 2.58335 11.9167 2.78835 11.9167 3.0417V5.7917C11.9167 6.04504 12.1217 6.25004 12.375 6.25004H15.4723C15.7136 6.25004 15.9499 6.34805 16.1204 6.5186L17.1481 7.54628C17.3186 7.71682 17.4167 7.95315 17.4167 8.19438V10.375C17.4167 10.6283 17.6217 10.8333 17.875 10.8333H19.7083C19.9617 10.8333 20.1667 10.6283 20.1667 10.375V8.54165C20.1667 8.28878 20.3721 8.0833 20.625 8.0833C20.8779 8.0833 21.0834 8.28874 21.0834 8.54165V14.0417Z"/>
</mask>
<path d="M20.625 7.16665C19.8668 7.16665 19.25 7.78343 19.25 8.54165V9.91665H18.3333V8.19434C18.3333 7.71184 18.1378 7.23918 17.7962 6.8981L16.7686 5.87041C16.4275 5.5289 15.9548 5.3333 15.4723 5.3333H12.8333V3.5H14.2083C14.9665 3.5 15.5833 2.88323 15.5833 2.125C15.5833 1.36677 14.9665 0.75 14.2083 0.75H8.7083C7.95008 0.75 7.3333 1.36677 7.3333 2.125C7.3333 2.88323 7.95008 3.5 8.7083 3.5H10.0833V5.33335H8.36099C7.87849 5.33335 7.40584 5.52894 7.06475 5.87046L5.76851 7.1667H5.04161C4.28338 7.1667 3.66661 7.78347 3.66661 8.5417V9.9167H2.75V8.5417C2.75 7.78347 2.13323 7.1667 1.375 7.1667C0.616773 7.1667 0 7.78347 0 8.5417V14.0417C0 14.7999 0.616773 15.4167 1.375 15.4167C2.13323 15.4167 2.75 14.7999 2.75 14.0417V12.6667H3.66665V14.0417C3.66665 14.7999 4.28343 15.4167 5.04165 15.4167H5.76855L7.06479 16.7129C7.40588 17.0544 7.87854 17.25 8.36103 17.25H14.5557C15.0382 17.25 15.5108 17.0544 15.8519 16.7129L17.7962 14.7686C18.1378 14.4275 18.3333 13.9549 18.3333 13.4724V12.6667H19.25V14.0417C19.25 14.7999 19.8668 15.4167 20.625 15.4167C21.3832 15.4167 22 14.7999 22 14.0417V8.5417C22 7.78347 21.3832 7.16665 20.625 7.16665ZM21.0834 14.0417C21.0833 14.2945 20.8779 14.5 20.625 14.5C20.3721 14.5 20.1667 14.2946 20.1667 14.0417V12.2083C20.1667 11.955 19.9616 11.75 19.7083 11.75H17.875C17.6217 11.75 17.4167 11.955 17.4167 12.2083V13.4723C17.4167 13.7136 17.3186 13.9499 17.1481 14.1204L15.2038 16.0647C15.0332 16.2353 14.7969 16.3333 14.5557 16.3333H8.36099C8.11972 16.3333 7.88339 16.2353 7.71289 16.0647L6.28237 14.6342C6.19644 14.5483 6.08008 14.5 5.9583 14.5H5.04165C4.78878 14.5 4.5833 14.2945 4.5833 14.0416V12.2083C4.5833 11.9549 4.3783 11.7499 4.12496 11.7499H2.29165C2.03831 11.7499 1.8333 11.9549 1.8333 12.2083V14.0416C1.83335 14.2946 1.62787 14.5 1.375 14.5C1.12213 14.5 0.916652 14.2946 0.916652 14.0417V8.54165C0.916652 8.28878 1.12209 8.0833 1.375 8.0833C1.62791 8.0833 1.83335 8.28874 1.83335 8.54165V10.375C1.83335 10.6283 2.03835 10.8333 2.2917 10.8333H4.125C4.37834 10.8333 4.58335 10.6283 4.58335 10.375V8.54165C4.58335 8.28878 4.78878 8.0833 5.0417 8.0833H5.95835C6.08008 8.0833 6.19648 8.03497 6.28242 7.94903L7.71289 6.51855C7.88343 6.34801 8.11976 6.25 8.36099 6.25H10.5417C10.795 6.25 11 6.045 11 5.79165V3.04165C11 2.78831 10.795 2.5833 10.5417 2.5833H8.7083C8.45543 2.58335 8.25 2.37787 8.25 2.125C8.25 1.87213 8.45543 1.66665 8.70835 1.66665H14.2083C14.4612 1.66665 14.6667 1.87209 14.6667 2.125C14.6667 2.37791 14.4613 2.58335 14.2083 2.58335H12.375C12.1217 2.58335 11.9167 2.78835 11.9167 3.0417V5.7917C11.9167 6.04504 12.1217 6.25004 12.375 6.25004H15.4723C15.7136 6.25004 15.9499 6.34805 16.1204 6.5186L17.1481 7.54628C17.3186 7.71682 17.4167 7.95315 17.4167 8.19438V10.375C17.4167 10.6283 17.6217 10.8333 17.875 10.8333H19.7083C19.9617 10.8333 20.1667 10.6283 20.1667 10.375V8.54165C20.1667 8.28878 20.3721 8.0833 20.625 8.0833C20.8779 8.0833 21.0834 8.28874 21.0834 8.54165V14.0417Z" fill="#E20001"/>
<path d="M20.625 7.16665C19.8668 7.16665 19.25 7.78343 19.25 8.54165V9.91665H18.3333V8.19434C18.3333 7.71184 18.1378 7.23918 17.7962 6.8981L16.7686 5.87041C16.4275 5.5289 15.9548 5.3333 15.4723 5.3333H12.8333V3.5H14.2083C14.9665 3.5 15.5833 2.88323 15.5833 2.125C15.5833 1.36677 14.9665 0.75 14.2083 0.75H8.7083C7.95008 0.75 7.3333 1.36677 7.3333 2.125C7.3333 2.88323 7.95008 3.5 8.7083 3.5H10.0833V5.33335H8.36099C7.87849 5.33335 7.40584 5.52894 7.06475 5.87046L5.76851 7.1667H5.04161C4.28338 7.1667 3.66661 7.78347 3.66661 8.5417V9.9167H2.75V8.5417C2.75 7.78347 2.13323 7.1667 1.375 7.1667C0.616773 7.1667 0 7.78347 0 8.5417V14.0417C0 14.7999 0.616773 15.4167 1.375 15.4167C2.13323 15.4167 2.75 14.7999 2.75 14.0417V12.6667H3.66665V14.0417C3.66665 14.7999 4.28343 15.4167 5.04165 15.4167H5.76855L7.06479 16.7129C7.40588 17.0544 7.87854 17.25 8.36103 17.25H14.5557C15.0382 17.25 15.5108 17.0544 15.8519 16.7129L17.7962 14.7686C18.1378 14.4275 18.3333 13.9549 18.3333 13.4724V12.6667H19.25V14.0417C19.25 14.7999 19.8668 15.4167 20.625 15.4167C21.3832 15.4167 22 14.7999 22 14.0417V8.5417C22 7.78347 21.3832 7.16665 20.625 7.16665ZM21.0834 14.0417C21.0833 14.2945 20.8779 14.5 20.625 14.5C20.3721 14.5 20.1667 14.2946 20.1667 14.0417V12.2083C20.1667 11.955 19.9616 11.75 19.7083 11.75H17.875C17.6217 11.75 17.4167 11.955 17.4167 12.2083V13.4723C17.4167 13.7136 17.3186 13.9499 17.1481 14.1204L15.2038 16.0647C15.0332 16.2353 14.7969 16.3333 14.5557 16.3333H8.36099C8.11972 16.3333 7.88339 16.2353 7.71289 16.0647L6.28237 14.6342C6.19644 14.5483 6.08008 14.5 5.9583 14.5H5.04165C4.78878 14.5 4.5833 14.2945 4.5833 14.0416V12.2083C4.5833 11.9549 4.3783 11.7499 4.12496 11.7499H2.29165C2.03831 11.7499 1.8333 11.9549 1.8333 12.2083V14.0416C1.83335 14.2946 1.62787 14.5 1.375 14.5C1.12213 14.5 0.916652 14.2946 0.916652 14.0417V8.54165C0.916652 8.28878 1.12209 8.0833 1.375 8.0833C1.62791 8.0833 1.83335 8.28874 1.83335 8.54165V10.375C1.83335 10.6283 2.03835 10.8333 2.2917 10.8333H4.125C4.37834 10.8333 4.58335 10.6283 4.58335 10.375V8.54165C4.58335 8.28878 4.78878 8.0833 5.0417 8.0833H5.95835C6.08008 8.0833 6.19648 8.03497 6.28242 7.94903L7.71289 6.51855C7.88343 6.34801 8.11976 6.25 8.36099 6.25H10.5417C10.795 6.25 11 6.045 11 5.79165V3.04165C11 2.78831 10.795 2.5833 10.5417 2.5833H8.7083C8.45543 2.58335 8.25 2.37787 8.25 2.125C8.25 1.87213 8.45543 1.66665 8.70835 1.66665H14.2083C14.4612 1.66665 14.6667 1.87209 14.6667 2.125C14.6667 2.37791 14.4613 2.58335 14.2083 2.58335H12.375C12.1217 2.58335 11.9167 2.78835 11.9167 3.0417V5.7917C11.9167 6.04504 12.1217 6.25004 12.375 6.25004H15.4723C15.7136 6.25004 15.9499 6.34805 16.1204 6.5186L17.1481 7.54628C17.3186 7.71682 17.4167 7.95315 17.4167 8.19438V10.375C17.4167 10.6283 17.6217 10.8333 17.875 10.8333H19.7083C19.9617 10.8333 20.1667 10.6283 20.1667 10.375V8.54165C20.1667 8.28878 20.3721 8.0833 20.625 8.0833C20.8779 8.0833 21.0834 8.28874 21.0834 8.54165V14.0417Z" stroke="#E20001" stroke-width="0.4" mask="url(#path-1-outside-1)"/>
</svg>
