<svg width="29" height="29" viewBox="0 0 29 29" fill="none" xmlns="http://www.w3.org/2000/svg">
<path d="M14.0876 0C6.31943 0 0 6.31957 0 14.0874C0 21.8554 6.31943 28.1752 14.0876 28.1752C21.8553 28.1752 28.1752 21.8554 28.1752 14.0874C28.1752 6.31957 21.8553 0 14.0876 0ZM18.0692 8.89307C18.0692 8.95977 18.0427 9.02375 17.9955 9.07092C17.9483 9.11808 17.8844 9.14458 17.8176 9.14458L16.2162 9.14559C15.1596 9.14559 14.9664 9.55707 14.9664 10.3674V12.0486H17.713C17.7852 12.0486 17.8541 12.0798 17.9017 12.1341C17.9492 12.1884 17.9713 12.2606 17.9625 12.3323L17.5714 15.3588C17.5636 15.4194 17.5339 15.4751 17.488 15.5155C17.4421 15.5558 17.383 15.5781 17.3219 15.5781H14.9664V23.0931C14.9664 23.1598 14.9399 23.2238 14.8927 23.271C14.8456 23.3181 14.7816 23.3446 14.7149 23.3446H11.59C11.5233 23.3446 11.4593 23.3181 11.4122 23.271C11.365 23.2238 11.3385 23.1598 11.3385 23.0931V15.5781H8.97547C8.90877 15.5781 8.84479 15.5516 8.79762 15.5044C8.75045 15.4573 8.72395 15.3933 8.72395 15.3266V12.3001C8.72395 12.2334 8.75045 12.1694 8.79762 12.1222C8.84479 12.0751 8.90877 12.0486 8.97547 12.0486H11.3385V10.0679C11.3385 7.44459 12.9261 5.81528 15.4823 5.81528C16.5812 5.81528 17.5523 5.89702 17.8506 5.93651C17.9111 5.9445 17.9665 5.97418 18.0068 6.02003C18.047 6.06588 18.0691 6.12478 18.0692 6.18576V8.89307Z" fill="black"/>
</svg>
