<svg width="11" height="21" viewBox="0 0 11 21" fill="none" xmlns="http://www.w3.org/2000/svg">
<path d="M8.81552 4.99106V15.6625C8.81552 17.7132 7.15449 19.3743 5.10372 19.3743C3.05295 19.3743 1.39192 17.7132 1.39192 15.6625V4.06311C1.39192 3.44785 1.63634 2.85778 2.0714 2.42272C2.50646 1.98766 3.09653 1.74324 3.7118 1.74324C4.32706 1.74324 4.91713 1.98766 5.35219 2.42272C5.78725 2.85778 6.03167 3.44785 6.03167 4.06311V13.8066C6.03167 14.3169 5.61409 14.7345 5.10372 14.7345C4.59335 14.7345 4.17577 14.3169 4.17577 13.8066V4.99106H2.78385V13.8066C2.78385 14.4218 3.02826 15.0119 3.46332 15.447C3.89838 15.882 4.48845 16.1265 5.10372 16.1265C5.71899 16.1265 6.30906 15.882 6.74412 15.447C7.17918 15.0119 7.42359 14.4218 7.42359 13.8066V4.06311C7.42359 2.01235 5.76256 0.351318 3.7118 0.351318C1.66103 0.351318 0 2.01235 0 4.06311V15.6625C0 18.4834 2.28275 20.7662 5.10372 20.7662C7.92468 20.7662 10.2074 18.4834 10.2074 15.6625V4.99106H8.81552Z" fill="#A4A4A4"/>
</svg>
