<svg width="17" height="19" viewBox="0 0 17 19" fill="none" xmlns="http://www.w3.org/2000/svg">
<mask id="path-1-outside-1" maskUnits="userSpaceOnUse" x="0.0180664" y="-0.294922" width="17" height="19" fill="black">
<rect fill="white" x="0.0180664" y="-0.294922" width="17" height="19"/>
<path d="M15.9812 7.58412C15.9812 7.58268 15.9812 7.58125 15.9812 7.57981V5.45508C15.9812 5.41582 15.9723 5.37707 15.9552 5.34174C15.938 5.30642 15.9131 5.27543 15.8823 5.25112L14.0016 3.76675C13.9558 3.7306 13.8991 3.71094 13.8407 3.71094H12.5344V1.85547C12.5341 1.55047 12.4128 1.25807 12.1971 1.04241C11.9814 0.826747 11.689 0.705432 11.384 0.705078H2.98917C2.68417 0.705432 2.39177 0.826747 2.17611 1.04241C1.96045 1.25807 1.83913 1.55047 1.83878 1.85547V6.69349V6.70834V16.8848H1.27783C1.20894 16.8848 1.14287 16.9121 1.09415 16.9608C1.04543 17.0096 1.01807 17.0756 1.01807 17.1445V18.0352C1.01807 18.104 1.04543 18.1701 1.09415 18.2188C1.14287 18.2676 1.20894 18.2949 1.27783 18.2949H13.0958C13.1299 18.2949 13.1637 18.2882 13.1953 18.2752C13.2268 18.2621 13.2554 18.243 13.2796 18.2189C13.3037 18.1948 13.3228 18.1661 13.3359 18.1346C13.3489 18.1031 13.3556 18.0693 13.3556 18.0352V17.1445C13.3556 17.1104 13.3489 17.0766 13.3359 17.0451C13.3228 17.0136 13.3037 16.9849 13.2796 16.9608C13.2554 16.9367 13.2268 16.9175 13.1953 16.9045C13.1637 16.8915 13.1299 16.8847 13.0958 16.8848H12.5344V12.0027H12.8595C12.8863 12.0027 12.9119 12.0133 12.9308 12.0323C12.9498 12.0512 12.9604 12.0768 12.9605 12.1036V14.4177C12.9605 14.8183 13.1196 15.2025 13.4028 15.4857C13.6861 15.769 14.0702 15.9281 14.4708 15.9281C14.8714 15.9281 15.2555 15.769 15.5388 15.4857C15.822 15.2025 15.9812 14.8183 15.9812 14.4177V8.47905C15.9812 8.47761 15.9812 8.47618 15.9812 8.47474V7.58412ZM15.4616 7.9086V8.15976V8.16406V8.21498H15.0905V7.84388H15.4616V7.9043V7.9086ZM15.4616 5.5811V7.32435H15.0905V5.88703C15.0888 5.84702 15.0787 5.80783 15.0608 5.77201C15.0429 5.7362 15.0176 5.70457 14.9866 5.67922C14.9402 5.64086 14.8819 5.61987 14.8217 5.61984H13.5483V4.87573C13.5483 4.87083 13.5498 4.86623 13.5498 4.86088V4.23047H13.7506L15.4616 5.5811ZM12.8595 10.5925H12.5344V6.7021C12.5344 6.69913 12.5344 6.69631 12.5344 6.69349V5.12109H13.0287V5.87961C13.0287 5.91373 13.0354 5.94752 13.0485 5.97904C13.0615 6.01057 13.0807 6.03921 13.1048 6.06333C13.1289 6.08746 13.1575 6.10659 13.1891 6.11964C13.2206 6.13269 13.2544 6.13939 13.2885 6.13938H13.5052V6.53125C13.5055 6.71818 13.5798 6.89738 13.712 7.02955C13.8442 7.16173 14.0234 7.23609 14.2103 7.23633H14.571V7.9043V7.9086V8.15976V8.16406V14.4177C14.571 14.4443 14.5604 14.4698 14.5417 14.4886C14.5229 14.5074 14.4974 14.5179 14.4708 14.5179C14.4442 14.5179 14.4187 14.5074 14.4 14.4886C14.3812 14.4698 14.3706 14.4443 14.3706 14.4177V12.1036C14.3701 11.703 14.2108 11.3189 13.9275 11.0356C13.6442 10.7523 13.2601 10.593 12.8595 10.5925ZM14.571 6.13938V6.7168H14.2103C14.1611 6.71676 14.1139 6.6972 14.0791 6.66241C14.0444 6.62762 14.0248 6.58045 14.0248 6.53125V6.13938H14.571ZM13.0302 4.23047V4.60156H12.5349V4.23047H13.0302ZM2.98917 1.22461H11.3845C11.5517 1.22481 11.7121 1.29133 11.8304 1.4096C11.9486 1.52787 12.0152 1.68821 12.0154 1.85547V6.6978C12.0141 6.86425 11.9472 7.02347 11.8291 7.14082C11.711 7.25816 11.5514 7.32412 11.3849 7.32435H2.98917C2.82328 7.32409 2.66417 7.25853 2.54625 7.14186C2.42833 7.02519 2.36108 6.86679 2.35905 6.70091V4.02117C2.35905 4.01865 2.35905 4.01642 2.35905 4.01405V1.85547C2.35925 1.68834 2.42567 1.52811 2.54378 1.40986C2.66189 1.29162 2.82204 1.225 2.98917 1.22461ZM12.8361 17.7754H1.53819V17.4043H12.8361V17.7754ZM2.35905 16.8848V7.65477C2.54602 7.7782 2.76513 7.84396 2.98917 7.84388H11.3845C11.6086 7.84392 11.8278 7.77811 12.0149 7.65462V16.8848H2.35905ZM14.4715 15.4093C14.2087 15.409 13.9566 15.3044 13.7708 15.1185C13.5849 14.9326 13.4803 14.6806 13.48 14.4177V12.1036C13.4798 11.9391 13.4144 11.7814 13.298 11.6651C13.1817 11.5488 13.024 11.4833 12.8595 11.4831H12.5344V11.112H12.8595C13.1224 11.1123 13.3745 11.2169 13.5604 11.4028C13.7462 11.5887 13.8508 11.8407 13.8511 12.1036V14.4177C13.8511 14.4991 13.8671 14.5797 13.8983 14.6549C13.9294 14.7301 13.975 14.7984 14.0326 14.8559C14.0901 14.9135 14.1585 14.9591 14.2336 14.9903C14.3088 15.0214 14.3894 15.0375 14.4708 15.0375C14.5522 15.0375 14.6328 15.0214 14.708 14.9903C14.7832 14.9591 14.8515 14.9135 14.909 14.8559C14.9666 14.7984 15.0122 14.7301 15.0434 14.6549C15.0745 14.5797 15.0905 14.4991 15.0905 14.4177V8.73451H15.4616V14.4177C15.4615 14.6804 15.3572 14.9323 15.1716 15.1182C14.986 15.3041 14.7342 15.4088 14.4715 15.4093Z"/>
</mask>
<path d="M15.9812 7.58412C15.9812 7.58268 15.9812 7.58125 15.9812 7.57981V5.45508C15.9812 5.41582 15.9723 5.37707 15.9552 5.34174C15.938 5.30642 15.9131 5.27543 15.8823 5.25112L14.0016 3.76675C13.9558 3.7306 13.8991 3.71094 13.8407 3.71094H12.5344V1.85547C12.5341 1.55047 12.4128 1.25807 12.1971 1.04241C11.9814 0.826747 11.689 0.705432 11.384 0.705078H2.98917C2.68417 0.705432 2.39177 0.826747 2.17611 1.04241C1.96045 1.25807 1.83913 1.55047 1.83878 1.85547V6.69349V6.70834V16.8848H1.27783C1.20894 16.8848 1.14287 16.9121 1.09415 16.9608C1.04543 17.0096 1.01807 17.0756 1.01807 17.1445V18.0352C1.01807 18.104 1.04543 18.1701 1.09415 18.2188C1.14287 18.2676 1.20894 18.2949 1.27783 18.2949H13.0958C13.1299 18.2949 13.1637 18.2882 13.1953 18.2752C13.2268 18.2621 13.2554 18.243 13.2796 18.2189C13.3037 18.1948 13.3228 18.1661 13.3359 18.1346C13.3489 18.1031 13.3556 18.0693 13.3556 18.0352V17.1445C13.3556 17.1104 13.3489 17.0766 13.3359 17.0451C13.3228 17.0136 13.3037 16.9849 13.2796 16.9608C13.2554 16.9367 13.2268 16.9175 13.1953 16.9045C13.1637 16.8915 13.1299 16.8847 13.0958 16.8848H12.5344V12.0027H12.8595C12.8863 12.0027 12.9119 12.0133 12.9308 12.0323C12.9498 12.0512 12.9604 12.0768 12.9605 12.1036V14.4177C12.9605 14.8183 13.1196 15.2025 13.4028 15.4857C13.6861 15.769 14.0702 15.9281 14.4708 15.9281C14.8714 15.9281 15.2555 15.769 15.5388 15.4857C15.822 15.2025 15.9812 14.8183 15.9812 14.4177V8.47905C15.9812 8.47761 15.9812 8.47618 15.9812 8.47474V7.58412ZM15.4616 7.9086V8.15976V8.16406V8.21498H15.0905V7.84388H15.4616V7.9043V7.9086ZM15.4616 5.5811V7.32435H15.0905V5.88703C15.0888 5.84702 15.0787 5.80783 15.0608 5.77201C15.0429 5.7362 15.0176 5.70457 14.9866 5.67922C14.9402 5.64086 14.8819 5.61987 14.8217 5.61984H13.5483V4.87573C13.5483 4.87083 13.5498 4.86623 13.5498 4.86088V4.23047H13.7506L15.4616 5.5811ZM12.8595 10.5925H12.5344V6.7021C12.5344 6.69913 12.5344 6.69631 12.5344 6.69349V5.12109H13.0287V5.87961C13.0287 5.91373 13.0354 5.94752 13.0485 5.97904C13.0615 6.01057 13.0807 6.03921 13.1048 6.06333C13.1289 6.08746 13.1575 6.10659 13.1891 6.11964C13.2206 6.13269 13.2544 6.13939 13.2885 6.13938H13.5052V6.53125C13.5055 6.71818 13.5798 6.89738 13.712 7.02955C13.8442 7.16173 14.0234 7.23609 14.2103 7.23633H14.571V7.9043V7.9086V8.15976V8.16406V14.4177C14.571 14.4443 14.5604 14.4698 14.5417 14.4886C14.5229 14.5074 14.4974 14.5179 14.4708 14.5179C14.4442 14.5179 14.4187 14.5074 14.4 14.4886C14.3812 14.4698 14.3706 14.4443 14.3706 14.4177V12.1036C14.3701 11.703 14.2108 11.3189 13.9275 11.0356C13.6442 10.7523 13.2601 10.593 12.8595 10.5925ZM14.571 6.13938V6.7168H14.2103C14.1611 6.71676 14.1139 6.6972 14.0791 6.66241C14.0444 6.62762 14.0248 6.58045 14.0248 6.53125V6.13938H14.571ZM13.0302 4.23047V4.60156H12.5349V4.23047H13.0302ZM2.98917 1.22461H11.3845C11.5517 1.22481 11.7121 1.29133 11.8304 1.4096C11.9486 1.52787 12.0152 1.68821 12.0154 1.85547V6.6978C12.0141 6.86425 11.9472 7.02347 11.8291 7.14082C11.711 7.25816 11.5514 7.32412 11.3849 7.32435H2.98917C2.82328 7.32409 2.66417 7.25853 2.54625 7.14186C2.42833 7.02519 2.36108 6.86679 2.35905 6.70091V4.02117C2.35905 4.01865 2.35905 4.01642 2.35905 4.01405V1.85547C2.35925 1.68834 2.42567 1.52811 2.54378 1.40986C2.66189 1.29162 2.82204 1.225 2.98917 1.22461ZM12.8361 17.7754H1.53819V17.4043H12.8361V17.7754ZM2.35905 16.8848V7.65477C2.54602 7.7782 2.76513 7.84396 2.98917 7.84388H11.3845C11.6086 7.84392 11.8278 7.77811 12.0149 7.65462V16.8848H2.35905ZM14.4715 15.4093C14.2087 15.409 13.9566 15.3044 13.7708 15.1185C13.5849 14.9326 13.4803 14.6806 13.48 14.4177V12.1036C13.4798 11.9391 13.4144 11.7814 13.298 11.6651C13.1817 11.5488 13.024 11.4833 12.8595 11.4831H12.5344V11.112H12.8595C13.1224 11.1123 13.3745 11.2169 13.5604 11.4028C13.7462 11.5887 13.8508 11.8407 13.8511 12.1036V14.4177C13.8511 14.4991 13.8671 14.5797 13.8983 14.6549C13.9294 14.7301 13.975 14.7984 14.0326 14.8559C14.0901 14.9135 14.1585 14.9591 14.2336 14.9903C14.3088 15.0214 14.3894 15.0375 14.4708 15.0375C14.5522 15.0375 14.6328 15.0214 14.708 14.9903C14.7832 14.9591 14.8515 14.9135 14.909 14.8559C14.9666 14.7984 15.0122 14.7301 15.0434 14.6549C15.0745 14.5797 15.0905 14.4991 15.0905 14.4177V8.73451H15.4616V14.4177C15.4615 14.6804 15.3572 14.9323 15.1716 15.1182C14.986 15.3041 14.7342 15.4088 14.4715 15.4093Z" fill="#E20001"/>
<path d="M15.9812 7.58412C15.9812 7.58268 15.9812 7.58125 15.9812 7.57981V5.45508C15.9812 5.41582 15.9723 5.37707 15.9552 5.34174C15.938 5.30642 15.9131 5.27543 15.8823 5.25112L14.0016 3.76675C13.9558 3.7306 13.8991 3.71094 13.8407 3.71094H12.5344V1.85547C12.5341 1.55047 12.4128 1.25807 12.1971 1.04241C11.9814 0.826747 11.689 0.705432 11.384 0.705078H2.98917C2.68417 0.705432 2.39177 0.826747 2.17611 1.04241C1.96045 1.25807 1.83913 1.55047 1.83878 1.85547V6.69349V6.70834V16.8848H1.27783C1.20894 16.8848 1.14287 16.9121 1.09415 16.9608C1.04543 17.0096 1.01807 17.0756 1.01807 17.1445V18.0352C1.01807 18.104 1.04543 18.1701 1.09415 18.2188C1.14287 18.2676 1.20894 18.2949 1.27783 18.2949H13.0958C13.1299 18.2949 13.1637 18.2882 13.1953 18.2752C13.2268 18.2621 13.2554 18.243 13.2796 18.2189C13.3037 18.1948 13.3228 18.1661 13.3359 18.1346C13.3489 18.1031 13.3556 18.0693 13.3556 18.0352V17.1445C13.3556 17.1104 13.3489 17.0766 13.3359 17.0451C13.3228 17.0136 13.3037 16.9849 13.2796 16.9608C13.2554 16.9367 13.2268 16.9175 13.1953 16.9045C13.1637 16.8915 13.1299 16.8847 13.0958 16.8848H12.5344V12.0027H12.8595C12.8863 12.0027 12.9119 12.0133 12.9308 12.0323C12.9498 12.0512 12.9604 12.0768 12.9605 12.1036V14.4177C12.9605 14.8183 13.1196 15.2025 13.4028 15.4857C13.6861 15.769 14.0702 15.9281 14.4708 15.9281C14.8714 15.9281 15.2555 15.769 15.5388 15.4857C15.822 15.2025 15.9812 14.8183 15.9812 14.4177V8.47905C15.9812 8.47761 15.9812 8.47618 15.9812 8.47474V7.58412ZM15.4616 7.9086V8.15976V8.16406V8.21498H15.0905V7.84388H15.4616V7.9043V7.9086ZM15.4616 5.5811V7.32435H15.0905V5.88703C15.0888 5.84702 15.0787 5.80783 15.0608 5.77201C15.0429 5.7362 15.0176 5.70457 14.9866 5.67922C14.9402 5.64086 14.8819 5.61987 14.8217 5.61984H13.5483V4.87573C13.5483 4.87083 13.5498 4.86623 13.5498 4.86088V4.23047H13.7506L15.4616 5.5811ZM12.8595 10.5925H12.5344V6.7021C12.5344 6.69913 12.5344 6.69631 12.5344 6.69349V5.12109H13.0287V5.87961C13.0287 5.91373 13.0354 5.94752 13.0485 5.97904C13.0615 6.01057 13.0807 6.03921 13.1048 6.06333C13.1289 6.08746 13.1575 6.10659 13.1891 6.11964C13.2206 6.13269 13.2544 6.13939 13.2885 6.13938H13.5052V6.53125C13.5055 6.71818 13.5798 6.89738 13.712 7.02955C13.8442 7.16173 14.0234 7.23609 14.2103 7.23633H14.571V7.9043V7.9086V8.15976V8.16406V14.4177C14.571 14.4443 14.5604 14.4698 14.5417 14.4886C14.5229 14.5074 14.4974 14.5179 14.4708 14.5179C14.4442 14.5179 14.4187 14.5074 14.4 14.4886C14.3812 14.4698 14.3706 14.4443 14.3706 14.4177V12.1036C14.3701 11.703 14.2108 11.3189 13.9275 11.0356C13.6442 10.7523 13.2601 10.593 12.8595 10.5925ZM14.571 6.13938V6.7168H14.2103C14.1611 6.71676 14.1139 6.6972 14.0791 6.66241C14.0444 6.62762 14.0248 6.58045 14.0248 6.53125V6.13938H14.571ZM13.0302 4.23047V4.60156H12.5349V4.23047H13.0302ZM2.98917 1.22461H11.3845C11.5517 1.22481 11.7121 1.29133 11.8304 1.4096C11.9486 1.52787 12.0152 1.68821 12.0154 1.85547V6.6978C12.0141 6.86425 11.9472 7.02347 11.8291 7.14082C11.711 7.25816 11.5514 7.32412 11.3849 7.32435H2.98917C2.82328 7.32409 2.66417 7.25853 2.54625 7.14186C2.42833 7.02519 2.36108 6.86679 2.35905 6.70091V4.02117C2.35905 4.01865 2.35905 4.01642 2.35905 4.01405V1.85547C2.35925 1.68834 2.42567 1.52811 2.54378 1.40986C2.66189 1.29162 2.82204 1.225 2.98917 1.22461ZM12.8361 17.7754H1.53819V17.4043H12.8361V17.7754ZM2.35905 16.8848V7.65477C2.54602 7.7782 2.76513 7.84396 2.98917 7.84388H11.3845C11.6086 7.84392 11.8278 7.77811 12.0149 7.65462V16.8848H2.35905ZM14.4715 15.4093C14.2087 15.409 13.9566 15.3044 13.7708 15.1185C13.5849 14.9326 13.4803 14.6806 13.48 14.4177V12.1036C13.4798 11.9391 13.4144 11.7814 13.298 11.6651C13.1817 11.5488 13.024 11.4833 12.8595 11.4831H12.5344V11.112H12.8595C13.1224 11.1123 13.3745 11.2169 13.5604 11.4028C13.7462 11.5887 13.8508 11.8407 13.8511 12.1036V14.4177C13.8511 14.4991 13.8671 14.5797 13.8983 14.6549C13.9294 14.7301 13.975 14.7984 14.0326 14.8559C14.0901 14.9135 14.1585 14.9591 14.2336 14.9903C14.3088 15.0214 14.3894 15.0375 14.4708 15.0375C14.5522 15.0375 14.6328 15.0214 14.708 14.9903C14.7832 14.9591 14.8515 14.9135 14.909 14.8559C14.9666 14.7984 15.0122 14.7301 15.0434 14.6549C15.0745 14.5797 15.0905 14.4991 15.0905 14.4177V8.73451H15.4616V14.4177C15.4615 14.6804 15.3572 14.9323 15.1716 15.1182C14.986 15.3041 14.7342 15.4088 14.4715 15.4093Z" stroke="#E20001" stroke-width="0.4" mask="url(#path-1-outside-1)"/>
</svg>
