<svg width="12" height="12" viewBox="0 0 12 12" fill="none" xmlns="http://www.w3.org/2000/svg">
<path d="M6 5.14062H11.6641C11.7266 5.48958 11.7578 5.82292 11.7578 6.14062C11.7578 7.27083 11.5208 8.27995 11.0469 9.16797C10.5729 10.056 9.89714 10.75 9.01953 11.25C8.14193 11.75 7.13542 12 6 12C5.18229 12 4.40365 11.8424 3.66406 11.5273C2.92448 11.2122 2.28646 10.7865 1.75 10.25C1.21354 9.71354 0.78776 9.07552 0.472656 8.33594C0.157552 7.59635 0 6.81771 0 6C0 5.18229 0.157552 4.40365 0.472656 3.66406C0.78776 2.92448 1.21354 2.28646 1.75 1.75C2.28646 1.21354 2.92448 0.78776 3.66406 0.472656C4.40365 0.157552 5.18229 0 6 0C7.5625 0 8.90365 0.523438 10.0234 1.57031L8.39062 3.14062C7.75 2.52083 6.95312 2.21094 6 2.21094C5.32812 2.21094 4.70703 2.38021 4.13672 2.71875C3.56641 3.05729 3.11458 3.51693 2.78125 4.09766C2.44792 4.67839 2.28125 5.3125 2.28125 6C2.28125 6.6875 2.44792 7.32161 2.78125 7.90234C3.11458 8.48307 3.56641 8.94271 4.13672 9.28125C4.70703 9.61979 5.32812 9.78906 6 9.78906C6.45312 9.78906 6.86979 9.72656 7.25 9.60156C7.63021 9.47656 7.94271 9.32031 8.1875 9.13281C8.43229 8.94531 8.64583 8.73177 8.82812 8.49219C9.01042 8.2526 9.14453 8.02604 9.23047 7.8125C9.31641 7.59896 9.375 7.39583 9.40625 7.20312H6V5.14062Z" fill="#6B6B6B"/>
</svg>
