<svg width="287" height="91" viewBox="0 0 287 91" fill="none" xmlns="http://www.w3.org/2000/svg">
<path d="M74.1375 24.6278C71.6048 23.5821 69.0277 22.6824 66.3085 22.2268C66.0241 22.18 65.6746 22.0953 65.6657 21.7448C65.6568 21.3768 66.03 21.3183 66.3025 21.2628C66.6876 21.184 67.0934 21.2103 67.4756 21.1314C70.3252 20.5443 73.2696 20.6524 76.1074 19.9747C83.4447 20.0156 90.7968 19.3963 98.1075 20.5355C101.748 21.1022 105.344 21.8295 108.751 23.2316C112.062 24.5957 115.448 25.7144 118.967 26.3658C123.893 27.2772 128.888 27.1019 133.861 26.9529C136.373 26.877 138.876 26.4564 141.382 26.1905C137.442 25.6589 133.52 25.9569 129.601 25.3259C124.192 24.4555 118.97 23.0826 114.047 20.7312C108.493 18.076 102.66 16.2796 96.5938 15.3712C89.9082 14.3693 83.1603 14.1123 76.4036 14.7432C73.2814 14.5621 70.2185 15.1726 67.1497 15.5465C64.0809 15.9174 61.0121 16.3527 57.9877 17.0362C55.6002 17.5736 53.183 18.0001 50.7985 18.5434C48.0762 19.1656 45.4043 20.0565 42.6554 20.48C38.6743 21.0934 34.6723 21.6104 30.6379 21.9084C21.1678 22.6094 11.7302 22.5861 2.31346 21.2599C1.57884 21.1548 0.811638 20.9707 0 21.368C1.67067 23.5821 3.59313 25.3376 5.69332 26.9354C10.6609 30.7152 16.289 32.1844 22.5067 31.8777C25.0067 31.755 27.3321 30.981 29.6781 30.3354C36.9325 28.3316 44.2728 26.7835 51.773 26.1029C57.1287 25.618 62.4872 25.5655 67.8577 26.3015C72.4165 26.9266 76.7768 28.0863 80.9446 29.9674C83.5187 31.1299 85.8026 32.7803 88.4478 34.6293C88.1131 34.1239 88.039 33.9487 87.9146 33.8289C83.8653 29.9732 79.3569 26.7835 74.1375 24.6278Z" fill="url(#paint0_linear_0_13)"/>
<path d="M277.948 31.0394C268.421 25.5976 257.956 23.1002 247.168 21.812C240.064 20.962 232.905 20.9795 225.745 21.0905C219.474 21.1899 213.259 21.8237 207.027 22.367C203.271 22.7643 199.521 23.2345 195.797 23.8684C193.478 24.2627 191.176 24.3913 189.251 22.7117C182.207 16.563 174.402 11.6119 165.743 7.96947C162.787 6.72513 159.845 5.43697 156.685 4.75931C154.816 3.80998 152.775 3.45362 150.743 3.07098C150.559 3.05053 150.372 3.02716 150.189 3.00671C149.836 2.84606 149.495 2.6007 149.125 2.53351C145.017 1.79742 140.926 1.0146 136.752 0.623188C127.584 -0.238503 118.437 -0.212214 109.284 0.737107C108.742 0.731265 108.191 0.661161 107.661 0.734186C103.511 1.31254 99.3457 1.80619 95.2223 2.53936C89.0462 3.63473 82.9234 5.02219 76.8746 6.66379C70.414 8.41638 63.998 10.3384 57.7033 12.6168C55.3069 13.0841 53.1416 14.1649 50.6978 15.012C51.8441 15.6663 52.6024 14.9302 53.3696 14.6994C55.2329 14.1415 57.1968 13.8786 58.9415 12.9614C60.9321 12.4678 62.9168 11.9479 64.9162 11.4834C68.7315 10.5954 72.5468 9.69577 76.3799 8.88666C78.9214 8.3492 81.4897 7.92273 84.0579 7.5138C87.5029 6.96465 90.9479 6.36877 94.4137 5.98904C99.0643 5.48079 103.736 5.1624 108.398 4.76223C116.286 4.71841 124.163 4.82941 131.992 5.93354C135.828 6.47392 139.649 7.04936 143.408 7.99284C146.059 8.6559 148.705 9.33065 151.353 10.0025C151.533 10.0288 151.717 10.0551 151.898 10.0813C154.404 11.2322 157.028 12.0618 159.638 12.941C159.931 13.1133 160.207 13.3324 160.518 13.4551C167.589 16.2505 174.067 20.0711 180.21 24.473C180.512 24.6892 181.022 24.8031 180.918 25.2938C180.815 25.7846 180.308 25.7115 179.947 25.7378C176.12 25.9949 172.328 26.5469 168.528 27.026C167.177 26.8653 165.9 27.3473 164.588 27.4758C157.016 28.2031 149.481 29.1963 141.945 30.2186C136.029 31.0219 130.061 30.6042 124.115 30.4581C122.771 29.8915 121.278 30.4728 119.927 29.9411C117.172 29.9499 114.471 29.4008 111.751 29.0794C108.46 28.691 105.196 28.06 101.92 27.5313C100.371 26.6725 98.6496 26.8332 96.9996 26.5732C98.066 27.2392 99.2006 27.6306 100.382 27.8848C102.729 28.5391 105.051 29.2868 107.424 29.8272C112.015 30.8758 116.645 31.6996 121.316 32.3685C127.178 33.2068 133.067 33.7267 138.965 33.9195C146.21 34.159 153.468 34.0218 160.719 33.9575C163.027 33.937 165.331 33.6157 167.636 33.4346C171.241 33.6362 174.795 32.9965 178.377 32.7745C182.787 32.4999 187.186 32.015 191.576 31.5068C195.566 31.0423 199.565 30.5633 203.508 29.8185C205.469 29.4475 207.539 29.5935 209.406 28.726C212.652 28.5537 215.857 27.9811 219.089 27.7299C228.1 27.0318 237.123 26.8653 246.134 27.6861C249.318 27.9753 252.508 28.3141 255.651 28.8662C259.893 29.614 264.12 30.4465 268.291 31.5769C273.048 32.868 277.743 34.2992 282.302 36.157C283.857 36.7908 285.433 37.375 287 37.9826C284.387 35.0733 281.256 32.9293 277.948 31.0394Z" fill="url(#paint1_linear_0_13)"/>
<path d="M24.421 76.7083L49.0071 46.9111C49.5415 46.2578 50.1503 45.9312 50.8332 45.9312H57.8705C58.5535 45.9312 58.8949 46.2578 58.8949 46.9111L59.4294 76.7083C59.4294 77.5694 58.9692 78 58.0487 78H51.0114C50.2987 78 49.9572 77.6734 49.9869 77.0201V73.0115C49.9869 72.7443 49.8385 72.6107 49.5415 72.6107H42.0588C41.1086 72.6107 40.9899 72.1801 41.7025 71.319L45.622 66.3751C45.9486 65.9594 46.2159 65.707 46.4237 65.6179C46.6613 65.4991 47.0176 65.4397 47.4927 65.4397H49.5861C49.883 65.4397 50.0315 65.3061 50.0315 65.0389L49.9869 58.2242L35.0215 77.0201C34.6949 77.4358 34.4128 77.7031 34.1752 77.8218C33.9674 77.9406 33.6408 78 33.1954 78H24.7328C23.8123 78 23.7083 77.5694 24.421 76.7083ZM63.3636 70.4727L72.806 47.1338C73.1624 46.3321 73.7117 45.9312 74.454 45.9312H81.4913C82.2931 45.9312 82.5158 46.3321 82.1594 47.1338L73.296 69.1365C73.2069 69.4335 73.296 69.5819 73.5632 69.5819H84.2528C84.5794 69.5819 84.7873 69.4335 84.8764 69.1365L93.7844 47.1338C94.1407 46.3321 94.69 45.9312 95.4324 45.9312H102.425C103.257 45.9312 103.494 46.3321 103.138 47.1338L93.6953 70.4727C92.5669 73.2639 91.2159 75.2237 89.6422 76.352C88.0981 77.4507 85.9156 78 83.0948 78H67.8621C65.7539 78 64.2544 77.2725 63.3636 75.8175C62.5024 74.3626 62.5024 72.581 63.3636 70.4727ZM102.733 54.3493C101.961 54.3493 101.724 53.9632 102.021 53.1912L104.47 47.1338C104.827 46.3321 105.376 45.9312 106.118 45.9312H134.09C134.921 45.9312 135.159 46.3321 134.802 47.1338L132.353 53.1912C132.056 53.9632 131.506 54.3493 130.705 54.3493H102.733ZM119.436 56.2645C120.208 56.2645 120.446 56.6505 120.149 57.4225L112.31 76.7974C111.953 77.5991 111.404 78 110.662 78H103.669C102.837 78 102.6 77.5991 102.956 76.7974L110.795 57.4225C111.092 56.6505 111.641 56.2645 112.443 56.2645H119.436ZM126.516 70.4727L133.419 53.4585C134.548 50.6673 135.884 48.7224 137.428 47.6237C139.002 46.4954 141.184 45.9312 143.975 45.9312H159.074C161.212 45.9312 162.712 46.6587 163.573 48.1137C164.464 49.5686 164.479 51.3502 163.618 53.4585L156.714 70.4727C155.585 73.2639 154.234 75.2237 152.661 76.352C151.087 77.4507 148.904 78 146.113 78H140.813C140.011 78 139.789 77.5991 140.145 76.7974L142.595 70.74C142.892 69.968 143.426 69.5819 144.198 69.5819H147.271C147.598 69.5819 147.806 69.4335 147.895 69.1365L153.685 54.7947C153.774 54.4977 153.685 54.3493 153.418 54.3493H142.862C142.535 54.3493 142.327 54.4977 142.238 54.7947L136.448 69.1365C136.359 69.4335 136.448 69.5819 136.715 69.5819H139.789C140.561 69.5819 140.798 69.968 140.501 70.74L138.052 76.7974C137.695 77.5991 137.146 78 136.404 78H131.014C128.906 78 127.407 77.2725 126.516 75.8175C125.655 74.3626 125.655 72.581 126.516 70.4727ZM177.567 59.5604C177.893 58.7884 178.443 58.4024 179.215 58.4024H189.192C189.964 58.4024 190.186 58.7884 189.86 59.5604L187.9 64.4153C187.603 65.1873 187.068 65.5733 186.296 65.5733H176.319C175.547 65.5733 175.31 65.1873 175.607 64.4153L177.567 59.5604ZM168.569 76.842C168.273 77.614 167.708 78 166.877 78H159.884C159.082 78 158.86 77.614 159.216 76.842L171.197 47.1338C171.494 46.3618 172.029 45.9757 172.801 45.9757H196.273C197.045 45.9757 197.283 46.3618 196.986 47.1338L194.536 53.1912C194.239 53.9632 193.705 54.3493 192.933 54.3493H178.012C177.715 54.3493 177.507 54.4829 177.388 54.7501L168.569 76.842ZM200.862 47.1338C201.218 46.3321 201.767 45.9312 202.51 45.9312H209.547C210.349 45.9312 210.571 46.3321 210.215 47.1338L198.234 76.7974C197.877 77.5991 197.328 78 196.586 78H189.549C188.747 78 188.524 77.5991 188.88 76.7974L200.862 47.1338ZM200.464 76.7083L215.652 62.2774C215.89 62.0398 215.964 61.7874 215.875 61.5202L212.356 47.2674C212.149 46.4063 212.549 45.9757 213.559 45.9757H222.69C223.373 45.9757 223.788 46.2281 223.937 46.7329L231.241 76.7083C231.449 77.5694 231.034 78 229.994 78H220.953C220.299 78 219.928 77.7179 219.839 77.1537L218.681 69.5819L211.51 77.1537C210.946 77.7179 210.337 78 209.684 78H200.642C200.019 78 199.767 77.8515 199.885 77.5546C200.004 77.228 200.197 76.9459 200.464 76.7083ZM228.035 50.9197L231.999 46.822C232.533 46.2578 233.127 45.9757 233.78 45.9757H242.911C243.594 45.9757 243.876 46.1094 243.757 46.3766C243.668 46.6438 243.46 46.9408 243.134 47.2674L230.529 58.9369C230.143 59.3229 229.801 59.5159 229.504 59.5159C229.237 59.5159 229.059 59.3229 228.97 58.9369L227.411 52.6567C227.263 52.0629 227.47 51.4839 228.035 50.9197ZM242.195 54.3493C241.423 54.3493 241.185 53.9632 241.482 53.1912L243.932 47.1338C244.288 46.3321 244.837 45.9312 245.58 45.9312H271.279C272.081 45.9312 272.304 46.3321 271.948 47.1338L269.498 53.1912C269.201 53.9632 268.666 54.3493 267.894 54.3493H242.195ZM264.376 56.309C265.534 56.309 265.534 56.7247 264.376 57.5561L248.074 69.5819H261.703C262.475 69.5819 262.713 69.968 262.416 70.74L259.966 76.7974C259.729 77.3319 259.521 77.6734 259.343 77.8218C259.165 77.9406 258.823 78 258.318 78H232.619C231.817 78 231.594 77.5991 231.951 76.7974L234.4 70.74C234.578 70.3243 234.727 70.0422 234.846 69.8937C234.964 69.7453 235.247 69.5077 235.692 69.1811L252.305 56.9771C252.721 56.6505 253.018 56.4575 253.196 56.3981C253.374 56.3387 253.686 56.309 254.132 56.309H264.376Z" fill="#727272"/>
<defs>
<linearGradient id="paint0_linear_0_13" x1="0" y1="24.5131" x2="141.382" y2="24.5131" gradientUnits="userSpaceOnUse">
<stop stop-color="#F90001"/>
<stop offset="1" stop-color="#A30000"/>
</linearGradient>
<linearGradient id="paint1_linear_0_13" x1="50.6946" y1="18.9927" x2="286.993" y2="18.9927" gradientUnits="userSpaceOnUse">
<stop stop-color="#F90001"/>
<stop offset="1" stop-color="#A30000"/>
</linearGradient>
</defs>
</svg>
