<svg width="20" height="24" viewBox="0 0 20 24" fill="none" xmlns="http://www.w3.org/2000/svg">
<path d="M8.60355 1.41541C8.99743 1.09277 9.49089 0.916473 10 0.916473C10.5092 0.916473 11.0027 1.09277 11.3965 1.41541L19.082 7.68158C19.3435 7.89598 19.554 8.16584 19.6984 8.47164C19.8428 8.77743 19.9173 9.1115 19.9167 9.44966V20.8159C19.9167 22.0683 18.918 23.0833 17.6855 23.0833H14.7105C13.4779 23.0833 12.4792 22.0683 12.4792 20.8159V15.3542C12.4792 14.9371 12.1467 14.5987 11.7355 14.5987H8.26463C7.85396 14.5987 7.52088 14.9371 7.52088 15.3542V20.8165C7.52088 22.0689 6.52221 23.0839 5.28963 23.0839H2.31463C1.08263 23.0833 0.083378 22.0683 0.083378 20.8159V9.44966C0.0827457 9.1115 0.157315 8.77743 0.301687 8.47164C0.446058 8.16584 0.65662 7.89598 0.918128 7.68158L8.60355 1.41541Z" fill="url(#paint0_linear)"/>
<defs>
<linearGradient id="paint0_linear" x1="0.0831105" y1="12.001" x2="19.9161" y2="12.001" gradientUnits="userSpaceOnUse">
<stop stop-color="#F90001"/>
<stop offset="1" stop-color="#A30000"/>
</linearGradient>
</defs>
</svg>
