<svg width="20" height="24" viewBox="0 0 20 24" fill="none" xmlns="http://www.w3.org/2000/svg">
<path d="M8.60367 1.41544C8.99755 1.0928 9.49101 0.916504 10.0002 0.916504C10.5093 0.916504 11.0028 1.0928 11.3967 1.41544L19.0821 7.68161C19.3436 7.89601 19.5542 8.16587 19.6985 8.47167C19.8429 8.77746 19.9175 9.11153 19.9168 9.44969V20.8159C19.9168 22.0684 18.9182 23.0834 17.6856 23.0834H14.7106C13.478 23.0834 12.4793 22.0684 12.4793 20.8159V15.3542C12.4793 14.9371 12.1468 14.5988 11.7356 14.5988H8.26475C7.85408 14.5988 7.521 14.9371 7.521 15.3542V20.8165C7.521 22.0689 6.52233 23.0839 5.28975 23.0839H2.31475C1.08275 23.0834 0.0835001 22.0684 0.0835001 20.8159V9.44969C0.0828677 9.11153 0.157437 8.77746 0.301809 8.47167C0.44618 8.16587 0.656742 7.89601 0.91825 7.68161L8.60367 1.41544Z" fill="#B0B0B0"/>
</svg>
