<svg width="18" height="20" viewBox="0 0 18 20" fill="none" xmlns="http://www.w3.org/2000/svg">
<path d="M10.0305 0.892924C9.752 0.629619 9.38327 0.48291 9 0.48291C8.61673 0.48291 8.24801 0.629619 7.9695 0.892924L0.703501 7.75992C0.481023 7.97045 0.303873 8.22419 0.182905 8.50559C0.0619366 8.78699 -0.000302358 9.09013 1.10438e-06 9.39642V17.7514C0.000398756 18.3479 0.237627 18.9198 0.659541 19.3414C1.08145 19.7631 1.65352 19.9999 2.25 19.9999H4.5C5.09674 19.9999 5.66903 19.7629 6.09099 19.3409C6.51295 18.919 6.75 18.3467 6.75 17.7499V13.9999C6.75 13.801 6.82902 13.6102 6.96967 13.4696C7.11032 13.3289 7.30109 13.2499 7.5 13.2499H10.5C10.6989 13.2499 10.8897 13.3289 11.0303 13.4696C11.171 13.6102 11.25 13.801 11.25 13.9999V17.7499C11.25 18.3467 11.4871 18.919 11.909 19.3409C12.331 19.7629 12.9033 19.9999 13.5 19.9999H15.75C16.3467 19.9999 16.919 19.7629 17.341 19.3409C17.7629 18.919 18 18.3467 18 17.7499V9.39492C17.9999 9.08877 17.9373 8.78585 17.8161 8.50472C17.6949 8.22359 17.5176 7.97015 17.295 7.75992L10.0305 0.889924V0.892924Z" fill="white"/>
</svg>
