<svg width="21" height="23" viewBox="0 0 21 23" fill="none" xmlns="http://www.w3.org/2000/svg">
<path d="M14.8351 0.25C18.4501 0.25 20.6152 2.44536 20.625 6.11093V16.8891C20.625 20.5546 18.4697 22.75 14.8449 22.75H11.6315C11.2194 22.7039 10.9075 22.3509 10.9075 21.9305C10.9075 21.5101 11.2194 21.157 11.6315 21.1109H14.8351C17.5978 21.1109 18.9889 19.6904 18.9889 16.8891V6.11093C18.9889 3.3096 17.5978 1.88907 14.8351 1.88907H6.15512C3.39242 1.88907 1.99147 3.3096 1.99147 6.11093V16.8891C1.99147 19.6904 3.39242 21.1109 6.15512 21.1109C6.56721 21.157 6.87913 21.5101 6.87913 21.9305C6.87913 22.3509 6.56721 22.7039 6.15512 22.75C2.54009 22.75 0.375 20.5546 0.375 16.8891V6.11093C0.375 2.43543 2.54009 0.25 6.15512 0.25H14.8351ZM14.5412 15.4487C14.9849 15.4487 15.3445 15.8134 15.3445 16.2632C15.3445 16.7131 14.9849 17.0778 14.5412 17.0778H6.42943C5.98575 17.0778 5.62609 16.7131 5.62609 16.2632C5.62609 15.8134 5.98575 15.4487 6.42943 15.4487H14.5412ZM14.5412 10.6805C14.8512 10.6458 15.1534 10.794 15.3191 11.0619C15.4849 11.3298 15.4849 11.6702 15.3191 11.9381C15.1534 12.206 14.8512 12.3542 14.5412 12.3195H6.42943C6.01733 12.2735 5.70541 11.9204 5.70541 11.5C5.70541 11.0796 6.01733 10.7265 6.42943 10.6805H14.5412ZM9.52522 5.92219C9.93731 5.96826 10.2492 6.32133 10.2492 6.74172C10.2492 7.16211 9.93731 7.51518 9.52522 7.56126H6.43922C6.02713 7.51518 5.71521 7.16211 5.71521 6.74172C5.71521 6.32133 6.02713 5.96826 6.43922 5.92219H9.52522Z" fill="white"/>
</svg>
