<svg width="12" height="12" viewBox="0 0 12 12" fill="none" xmlns="http://www.w3.org/2000/svg">
<path d="M6.00008 4.55335C5.71396 4.55335 5.43426 4.6382 5.19636 4.79716C4.95845 4.95612 4.77303 5.18206 4.66354 5.44641C4.55404 5.71075 4.52539 6.00163 4.58121 6.28225C4.63703 6.56288 4.77481 6.82065 4.97713 7.02297C5.17945 7.22529 5.43723 7.36307 5.71785 7.41889C5.99848 7.47471 6.28935 7.44606 6.5537 7.33657C6.81804 7.22707 7.04398 7.04165 7.20294 6.80375C7.3619 6.56584 7.44675 6.28614 7.44675 6.00002C7.44675 5.81004 7.40933 5.62192 7.33663 5.44641C7.26393 5.27089 7.15737 5.11141 7.02303 4.97707C6.88869 4.84274 6.72921 4.73618 6.5537 4.66347C6.37818 4.59077 6.19006 4.55335 6.00008 4.55335ZM11.7926 3.12419C11.7895 2.67371 11.7066 2.22735 11.5476 1.80585C11.4305 1.49742 11.2493 1.21733 11.0161 0.984045C10.7828 0.750765 10.5027 0.569606 10.1942 0.45252C9.77275 0.293541 9.32639 0.210589 8.87592 0.20752C8.12342 0.166687 7.90175 0.166687 6.00008 0.166687C4.09841 0.166687 3.87675 0.166687 3.12425 0.20752C2.67377 0.210589 2.22741 0.293541 1.80591 0.45252C1.49748 0.569606 1.21739 0.750765 0.984106 0.984045C0.750826 1.21733 0.569667 1.49742 0.452581 1.80585C0.293602 2.22735 0.21065 2.67371 0.207581 3.12419C0.166748 3.87669 0.166748 4.09835 0.166748 6.00002C0.166748 7.90169 0.166748 8.12335 0.207581 8.87585C0.21386 9.32791 0.2967 9.77564 0.452581 10.2C0.569148 10.507 0.750157 10.7855 0.983415 11.0167C1.21569 11.2514 1.49639 11.4325 1.80591 11.5475C2.22741 11.7065 2.67377 11.7895 3.12425 11.7925C3.87675 11.8334 4.09841 11.8334 6.00008 11.8334C7.90175 11.8334 8.12342 11.8334 8.87592 11.7925C9.32639 11.7895 9.77275 11.7065 10.1942 11.5475C10.5038 11.4325 10.7845 11.2514 11.0167 11.0167C11.25 10.7855 11.431 10.507 11.5476 10.2C11.7064 9.77645 11.7893 9.32821 11.7926 8.87585C11.8334 8.12335 11.8334 7.90169 11.8334 6.00002C11.8334 4.09835 11.8334 3.87669 11.7926 3.12419ZM10.3109 7.79085C10.2922 8.15083 10.2154 8.50541 10.0834 8.84085C9.97017 9.12067 9.80182 9.37486 9.58837 9.58831C9.37492 9.80176 9.12073 9.97011 8.84092 10.0834C8.5023 10.208 8.14574 10.2769 7.78508 10.2875C7.32425 10.2875 7.20175 10.2875 6.00008 10.2875C4.79842 10.2875 4.67591 10.2875 4.21508 10.2875C3.85442 10.2769 3.49787 10.208 3.15925 10.0834C2.86998 9.97586 2.60874 9.80436 2.39508 9.58169C2.18372 9.37242 2.02049 9.11961 1.91675 8.84085C1.79166 8.50259 1.7246 8.14562 1.71841 7.78502C1.71841 7.32419 1.71841 7.20169 1.71841 6.00002C1.71841 4.79835 1.71841 4.67585 1.71841 4.21502C1.7246 3.85442 1.79166 3.49745 1.91675 3.15919C2.02425 2.86991 2.19574 2.60868 2.41841 2.39502C2.62861 2.1848 2.88115 2.02174 3.15925 1.91669C3.49787 1.79209 3.85442 1.72314 4.21508 1.71252C4.67591 1.71252 4.79842 1.71252 6.00008 1.71252C7.20175 1.71252 7.32425 1.71252 7.78508 1.71252C8.14574 1.72314 8.5023 1.79209 8.84092 1.91669C9.13019 2.02418 9.39142 2.19568 9.60508 2.41835C9.81644 2.62762 9.97967 2.88043 10.0834 3.15919C10.208 3.49781 10.277 3.85436 10.2876 4.21502C10.2876 4.67585 10.2876 4.79835 10.2876 6.00002C10.2876 7.20169 10.3284 7.32419 10.3109 7.78502V7.79085ZM9.37758 3.45085C9.30813 3.26243 9.19862 3.09131 9.05662 2.94931C8.91462 2.80731 8.74351 2.69781 8.55508 2.62835C8.29636 2.53867 8.02387 2.49523 7.75008 2.50002C7.29508 2.50002 7.16675 2.50002 6.00008 2.50002C4.83342 2.50002 4.70508 2.50002 4.25008 2.50002C3.9749 2.50271 3.70237 2.55406 3.44508 2.65169C3.25954 2.71799 3.09024 2.82302 2.94842 2.9598C2.80661 3.09659 2.69553 3.26199 2.62258 3.44502C2.53787 3.70482 2.49648 3.97678 2.50008 4.25002C2.50008 4.70502 2.50008 4.83335 2.50008 6.00002C2.50008 7.16669 2.50008 7.29502 2.50008 7.75002C2.50586 8.02489 2.55711 8.2969 2.65175 8.55502C2.7212 8.74345 2.83071 8.91456 2.97271 9.05656C3.11471 9.19856 3.28582 9.30807 3.47425 9.37752C3.72314 9.46905 3.98505 9.52025 4.25008 9.52919C4.70508 9.52919 4.83342 9.52919 6.00008 9.52919C7.16675 9.52919 7.29508 9.52919 7.75008 9.52919C8.02526 9.5265 8.29779 9.47515 8.55508 9.37752C8.74351 9.30807 8.91462 9.19856 9.05662 9.05656C9.19862 8.91456 9.30813 8.74345 9.37758 8.55502C9.47521 8.29773 9.52656 8.0252 9.52925 7.75002C9.52925 7.29502 9.52925 7.16669 9.52925 6.00002C9.52925 4.83335 9.52925 4.70502 9.52925 4.25002C9.52942 3.97457 9.47797 3.70153 9.37758 3.44502V3.45085ZM6.00008 8.22835C5.70773 8.22836 5.41825 8.17068 5.14822 8.05862C4.87819 7.94656 4.63293 7.78233 4.42647 7.57534C4.22002 7.36834 4.05643 7.12265 3.94508 6.85233C3.83373 6.58201 3.77681 6.29237 3.77758 6.00002C3.77758 5.55905 3.90842 5.12799 4.15353 4.76142C4.39864 4.39485 4.74701 4.10924 5.15452 3.94076C5.56204 3.77227 6.01038 3.72849 6.44279 3.81494C6.8752 3.9014 7.27224 4.1142 7.58365 4.42642C7.89505 4.73865 8.10682 5.13624 8.19214 5.56888C8.27746 6.00152 8.2325 6.44975 8.06295 6.85682C7.8934 7.26389 7.60688 7.6115 7.23966 7.85565C6.87245 8.0998 6.44105 8.22951 6.00008 8.22835ZM8.33342 4.20919C8.20446 4.19554 8.08513 4.13465 7.9984 4.03825C7.91167 3.94186 7.86368 3.81677 7.86368 3.6871C7.86368 3.55743 7.91167 3.43235 7.9984 3.33595C8.08513 3.23956 8.20446 3.17867 8.33342 3.16502C8.46237 3.17867 8.5817 3.23956 8.66843 3.33595C8.75516 3.43235 8.80315 3.55743 8.80315 3.6871C8.80315 3.81677 8.75516 3.94186 8.66843 4.03825C8.5817 4.13465 8.46237 4.19554 8.33342 4.20919Z" fill="#6B6B6B"/>
</svg>
