<svg width="293" height="233" viewBox="0 0 293 233" fill="none" xmlns="http://www.w3.org/2000/svg">
<path d="M172.352 177.895L188.568 172.442L184.456 200.518L185.677 224.875L185.725 225.038L185.687 225.042V225.093L182.514 225.305V225.302L182.396 225.311L175.948 203.456L172.865 180.285L172.352 177.895Z" fill="#C10206"/>
<path d="M182.646 226.419L185.934 226.429L186.69 229.23L186.607 229.252L186.629 229.255L181.11 232.322L178.521 232.534L178.277 229.57L178.989 229.079L182.646 226.419Z" fill="black"/>
<path d="M159.738 178.065L163.177 226.436L166.35 226.67L170.285 200.72L176.557 174.94L159.738 178.065Z" fill="#C10206"/>
<path d="M163.151 227.556L158.876 229.824L159.216 231.825L166.763 230.906L166.404 228.029L163.151 227.556Z" fill="black"/>
<path d="M192.99 186.008C193.33 177.831 186.043 151.83 186.043 151.83C185.273 149.385 184.684 146.9 184.331 144.411C184.081 142.638 178.777 122.478 179.13 122.453C175.477 122.719 168.433 121.855 165.725 124.454C165.648 124.528 165.574 124.605 165.504 124.685C163.395 127.097 162.299 131.978 161.299 134.985C159.988 138.932 158.982 142.981 158.296 147.083C157.694 150.67 157.338 154.293 157.085 157.922C156.867 161.04 157.04 164.14 156.934 167.207C156.816 170.601 155.8 174.285 155.043 177.587C154.281 180.914 153.31 184.199 151.97 187.344C155.598 188.953 159.636 189.386 163.603 189.402C167.571 189.418 171.532 189.033 175.496 189.094C178.851 189.145 182.245 189.512 185.53 188.837C188.145 188.298 190.558 187.132 192.99 186.008Z" fill="#DD4730"/>
<path d="M199.589 131.667C200.544 131.844 203.031 131.179 203.601 130.299C204.918 128.269 201.79 128.892 200.662 128.866C200.791 128.475 200.928 128.096 200.98 127.694C201.025 127.325 197.669 128.285 197.346 128.635C196.57 129.48 196.922 130.119 196.993 131.188C197.858 131.327 198.724 131.503 199.589 131.667Z" fill="#EAC5B0"/>
<path d="M174.467 139.333L188.199 145.654L199.582 131.837L196.224 129.066L188.699 136.661L179.624 127.823L170.977 128.198L174.467 139.333Z" fill="#DD4730"/>
<path d="M165.504 124.682L163.151 126.503L152.96 144.597L159.998 147.513L164.263 131.709L166.119 127.617L165.504 124.682Z" fill="#DD4730"/>
<path d="M170.91 137.3L164.956 130.267C164.818 130.103 164.584 130.061 164.398 130.17L159.671 132.884C159.405 133.035 159.37 133.404 159.6 133.604L166.862 139.886C167.003 140.008 167.208 140.027 167.372 139.934L170.91 137.3Z" fill="#C10206"/>
<path d="M165.347 139.102L166.667 134.824L164.866 134.178L163.315 136.908L162.603 136.205L161.917 140.004L163.699 140.929L165.347 139.102Z" fill="#EAC5B0"/>
<path d="M173.198 113.422C171.339 113.483 168.878 114.7 168.16 116.55C167.814 117.439 167.987 118.332 167.58 119.27C166.782 121.123 168.689 124.309 166.186 125.308C164.901 125.822 163.453 125.379 162.142 124.932C161.982 124.878 161.818 124.82 161.703 124.698C161.514 124.495 161.527 124.168 161.645 123.917C161.764 123.667 161.969 123.471 162.155 123.265C164.09 121.114 164.215 117.632 165.231 115.008C166.247 112.388 168.099 109.902 170.948 109.186C172.157 110.252 172.932 111.321 173.035 112.93L173.198 113.422Z" fill="black"/>
<path d="M169.199 124.762C167.567 123.757 166.676 121.81 166.574 119.893C166.468 117.979 167.058 116.087 167.84 114.334C170.445 108.508 177.8 111.379 178.806 116.842C179.684 121.605 173.942 127.685 169.199 124.762Z" fill="#EAC5B0"/>
<path d="M177.569 129.425C176.794 128.767 176.037 128.083 175.688 127.017C175.124 125.289 175.832 122.841 175.996 121.085C176.169 119.232 176.297 117.205 175.236 115.676C174.544 114.677 173.57 114.289 172.445 114.003C171.676 113.807 171.577 114.093 171.022 113.521C170.596 113.085 170.394 112.031 170.41 111.45C170.436 110.467 171.045 109.565 171.836 108.98C173.054 108.081 174.313 107.792 175.755 108.097C180.816 109.179 183.889 113.065 184.145 118.329C184.267 120.86 183.142 123.378 183.331 125.831C183.45 127.344 184.126 128.497 184.139 130.08C184.168 134.194 185.139 139.677 184.027 143.659C183.985 143.807 183.931 143.967 183.796 144.041C183.52 144.189 183.242 143.865 183.097 143.585C182.261 141.97 181.425 140.354 180.591 138.739C180.264 138.103 179.931 137.461 179.79 136.761C179.438 135.017 180.293 133.07 179.476 131.49C179.024 130.626 178.287 130.035 177.569 129.425Z" fill="black"/>
<path d="M161.866 138.382C159.867 140.142 157.838 141.88 155.976 143.788C155.136 144.652 152.47 144.6 152.96 144.597L156.915 150.031C159.998 149 162.062 145.56 164.667 140.875C163.731 140.043 162.799 139.211 161.866 138.382Z" fill="#F96858"/>
<path d="M138.888 46.5327L98.4036 94.9359L99.2632 95.658L139.748 47.2548L138.888 46.5327Z" fill="#C10206"/>
<path d="M24.4658 73.3521L24.1284 74.4241L98.5255 97.9398L98.8629 96.8678L24.4658 73.3521Z" fill="#C10206"/>
<path d="M25.3971 87.2916C32.7532 86.688 38.2284 80.2225 37.6261 72.8505C37.0239 65.4785 30.5723 59.9915 23.2161 60.5951C15.86 61.1986 10.3848 67.6641 10.9871 75.0362C11.5893 82.4082 18.0409 87.8951 25.3971 87.2916Z" fill="#C10206"/>
<path d="M70.7321 18.291L69.6834 18.6899L98.3731 94.4292L99.4217 94.0302L70.7321 18.291Z" fill="#C10206"/>
<path d="M71.7744 18.0618L71.3428 19.0993L139.1 47.4085L139.532 46.371L71.7744 18.0618Z" fill="#C10206"/>
<path d="M205.828 12.6547L137.65 46.292L138.145 47.3005L206.323 13.6633L205.828 12.6547Z" fill="#C10206"/>
<path d="M139.61 46.4104L139.022 47.368L210.693 91.5219L211.28 90.5643L139.61 46.4104Z" fill="#C10206"/>
<path d="M276.033 37.9257L210.631 90.5956L211.334 91.4718L276.736 38.8019L276.033 37.9257Z" fill="#C10206"/>
<path d="M147.857 66.5747C160.535 63.3808 168.229 50.492 165.041 37.7869C161.854 25.0817 148.993 17.3714 136.316 20.5654C123.638 23.7594 115.944 36.6481 119.131 49.3532C122.318 62.0584 135.179 69.7687 147.857 66.5747Z" fill="#C10206"/>
<path d="M277.5 54.9274C286.654 54.3068 293.573 46.3667 292.953 37.1928C292.334 28.019 284.411 21.0852 275.257 21.7059C266.103 22.3266 259.184 30.2666 259.803 39.4405C260.423 48.6143 268.346 55.5481 277.5 54.9274Z" fill="#C10206"/>
<path d="M89.8204 20.7271C90.8225 10.8643 83.6566 2.05483 73.815 1.0506C63.9735 0.0463779 55.183 7.22769 54.1809 17.0905C53.1788 26.9533 60.3447 35.7628 70.1862 36.767C80.0278 37.7713 88.8183 30.5899 89.8204 20.7271Z" fill="#C10206"/>
<path d="M217.17 20.166C221.031 14.0153 219.186 5.89213 213.048 2.02246C206.911 -1.8472 198.805 0.00199175 194.944 6.15276C191.083 12.3035 192.928 20.4267 199.065 24.2964C205.203 28.166 213.309 26.3168 217.17 20.166Z" fill="#DD4730"/>
<path d="M234.792 107.901C248.548 94.1148 248.548 71.7629 234.792 57.9767C221.035 44.1905 198.732 44.1905 184.975 57.9767C171.218 71.7629 171.218 94.1148 184.975 107.901C198.732 121.687 221.035 121.687 234.792 107.901Z" fill="#C10206"/>
<path d="M99.3105 108.384C110.212 106.976 117.91 96.979 116.505 86.0544C115.101 75.1299 105.125 67.4149 94.2238 68.8226C83.3228 70.2303 75.6245 80.2276 77.0291 91.1521C78.4338 102.077 88.4095 109.792 99.3105 108.384Z" fill="#DD4730"/>
<path d="M136.261 107.05C136.261 107.05 137.113 105.226 137.126 105.197C137.443 104.519 136.482 102.142 136.315 101.375C136.219 100.935 134.264 102.168 134.113 102.454C133.857 102.942 134.075 104.342 134.03 104.953L133.024 105.534L133.389 106.986L136.261 107.05Z" fill="#B97262"/>
<path d="M122.653 178.297L123.464 197.097L121.093 229.066L117.545 229.316L113.235 200.283L107.271 175.714L122.653 178.297Z" fill="#C10206"/>
<path d="M117.734 231.706H123.06L123.282 229.943L121.372 228.619L117.536 228.892L117.734 231.706Z" fill="black"/>
<path d="M97.5381 172.705L96.7594 186.917L99.07 229.172L102.624 229.348L107.947 201.635L112.642 171.241L97.5381 172.705Z" fill="#C10206"/>
<path d="M102.477 231.841L97.2914 232.059L96.7658 230.562L98.7816 228.732L102.624 228.925L102.477 231.841Z" fill="black"/>
<path d="M118.196 129.775L107.111 128.584C107.111 128.584 100.945 129.245 96.7594 143.923C94.4328 152.09 93.7213 164.955 93.5515 174.764C93.8143 176.164 95.3333 182.292 101.765 181.251C112.812 179.465 118.689 177.68 123.499 178.573C127.598 179.466 127.249 173.813 126.8 169.497L125.169 156.149L118.196 129.775Z" fill="#DD4730"/>
<path d="M116.055 115.946C113.26 115.329 110.386 114.777 107.588 115.329C106.976 115.451 106.319 115.663 105.986 116.193C105.858 116.399 105.79 116.637 105.726 116.871C105.021 119.501 104.124 123.397 105.851 125.822C106.181 126.284 106.623 126.65 107.098 126.949C107.732 127.347 108.437 127.617 109.165 127.762C109.014 128.417 108.806 129.056 108.54 129.673C109.181 130.639 112.164 130.755 112.716 129.83C112.748 129.027 112.777 128.227 112.809 127.424C113.171 127.277 113.523 127.1 113.853 126.882C115.129 126.04 115.968 124.762 116.456 123.333C116.988 121.775 117.734 120.298 118.221 118.711C118.398 118.133 118.539 117.475 118.234 116.951C117.91 116.396 117.215 116.206 116.587 116.065C116.407 116.026 116.231 115.988 116.055 115.946Z" fill="#B97262"/>
<path d="M117.279 123.249C118.622 121.868 120.192 119.935 120.314 118.181C120.413 116.73 120.215 114.751 119.404 113.499C118.644 112.327 116.706 111.681 115.549 111.003C114.459 110.364 113.373 109.722 112.283 109.083C112.055 108.951 111.825 108.813 111.565 108.768C111.261 108.714 110.947 108.794 110.649 108.871C108.078 109.536 105.505 110.204 102.935 110.868C102.441 110.997 101.877 111.183 101.695 111.662C101.582 111.951 101.65 112.278 101.714 112.58C102.006 113.92 102.566 115.284 102.704 116.64C102.919 117.709 102.877 118.666 103.656 119.45C104.39 120.185 105.367 120.587 105.954 121.489C106.377 122.141 106.54 122.925 106.873 123.625C108.38 126.808 114.475 125.96 116.587 123.93C116.808 123.725 117.039 123.493 117.279 123.249Z" fill="black"/>
<path d="M113.882 131.23L124.419 127.37L132.992 106.648L136.642 106.867L132.678 130.109L127.313 135.132L111.956 142.715L113.882 131.23Z" fill="#DD4730"/>
<path d="M77.5248 119.98C77.012 119.241 76.6242 116.887 77.1466 116.068C78.3516 114.18 79.0181 117.06 79.4732 118.005C79.7552 117.745 80.018 117.488 80.3385 117.292C80.6301 117.112 81.1044 120.314 80.9314 120.722C80.5147 121.701 79.8418 121.643 78.9156 121.994C78.4702 121.313 77.9894 120.648 77.5248 119.98Z" fill="#B97262"/>
<path d="M102.502 141.234L85.6102 137.936L78.233 121.839L81.4121 119.36L89.3757 130.585L98.0253 130.456L106.015 131.025L102.502 141.234Z" fill="#DD4730"/>
<path d="M61.2577 131.937C61.2577 131.937 62.1902 130.154 62.2063 130.125C62.5524 129.464 62.0877 125.876 61.9563 125.102C61.8794 124.659 59.4823 126.972 59.322 127.248C59.0432 127.723 59.2002 129.133 59.1265 129.74L58.0946 130.276L58.3927 131.741L61.2577 131.937Z" fill="#EAC5B0"/>
<path d="M20.4489 227.197L20.1701 229.387L24.2593 232.143L26.7238 230.232L24.8202 227.762L20.731 225.006L20.4489 227.197Z" fill="black"/>
<path d="M20.3111 226.461L23.4646 198.53L19.6702 167.261L20.5226 160.61L37.4755 159.965L38.0844 170.791L35.2419 198.575L24.5349 227.89L20.3111 226.461Z" fill="#DD4730"/>
<path d="M39.0651 129.059L45.1124 130.296L52.8998 138.476L58.0914 131.24L62.0268 131.5L53.826 147.998L43.5164 142.715L39.0651 129.059Z" fill="#C10206"/>
<path d="M49.913 163.096L49.9547 191.281L44.2952 227.566L40.2188 227.527L37.9787 193.969L32.739 160.385L49.913 163.096Z" fill="#DD4730"/>
<path d="M40.2252 229.249L44.6124 231.5L46.8365 229.313L44.6541 227.084L40.2476 227.039L40.2252 229.249Z" fill="black"/>
<path d="M17.9172 172.679C17.9557 171.459 18.023 170.438 18.0326 170.075C18.1191 166.799 18.4107 163.529 18.8209 160.276C19.1863 157.36 19.651 150.124 20.1477 147.224C20.5579 144.831 21.9904 138.861 23.0255 136.642C25.5989 131.124 24.8041 130.614 36.1103 128.976C41.0648 128.256 42.2377 131.352 46.2885 134.911C46.6891 135.261 46.6666 137.352 46.7596 137.904C46.923 138.877 47.0993 139.85 47.298 140.82C47.455 141.581 47.6281 142.339 47.8235 143.094C47.8235 143.094 51.2237 158.603 53.4734 161.898C55.7231 165.193 60.37 169.795 52.5953 172.609C51.2173 173.055 49.8329 173.479 48.3972 173.707C48.3972 173.707 42.0422 173.001 38.7734 173.023C35.7642 173.045 32.739 173.351 29.781 173.861C27.8005 174.192 25.7816 174.674 24.0126 175.602C22.3237 176.485 21.1059 177.786 19.3914 178.701C19.2279 178.788 19.0517 178.878 18.8658 178.852C17.882 178.717 17.8339 175.252 17.9172 172.679Z" fill="#C10206"/>
<path d="M35.0977 130.405C34.6362 130.842 33.3767 131.336 31.8737 131.224C31.5693 131.201 31.3065 130.996 31.2232 130.703C30.9828 129.885 30.7969 129.046 30.672 128.202C29.5567 128.157 28.23 127.983 27.73 126.981C27.573 126.666 27.5249 126.31 27.4801 125.96C27.2974 124.515 27.1115 123.069 26.9289 121.624C26.8648 121.123 26.8039 120.609 26.9353 120.121C27.1692 119.267 27.9512 118.686 28.7363 118.284C30.7425 117.263 33.1973 117.012 35.2675 117.896C35.8187 118.13 36.3507 118.454 36.7096 118.936C37.264 119.678 37.3217 120.667 37.3602 121.592C37.3954 122.446 37.4307 123.301 37.4659 124.155C37.5076 125.138 37.4787 126.278 36.7096 126.885C36.3026 127.209 35.7386 127.325 35.3989 127.723C34.7996 128.423 35.2387 129.496 35.0977 130.405Z" fill="#EAC5B0"/>
<path d="M43.1383 112.95C43.2408 112.542 43.3658 112.143 43.5196 111.755C43.8561 110.917 44.3496 110.133 44.5611 109.253C44.7695 108.373 44.6156 107.313 43.8785 106.79C43.4043 106.449 42.7857 106.398 42.2025 106.404C40.2829 106.427 38.3697 106.976 36.7321 107.978C35.1714 108.932 33.8735 110.114 31.9731 110.001C30.1848 109.895 29.1048 110.496 27.6115 111.61C25.9963 112.818 23.612 113.72 22.25 115.14C21.6827 115.734 21.3174 116.498 21.0931 117.289C20.3175 120.028 21.2757 123.182 23.4421 125.025C23.9292 125.44 24.4644 125.786 25.0156 126.111C26.1565 126.776 27.5313 127.611 28.8132 127.591C28.5184 126.528 26.5411 123.497 27.0827 122.385C27.9447 120.619 30.9924 120.205 32.6877 120.051C34.5368 119.883 36.4597 120.641 38.2607 120.372C39.5554 120.179 40.9494 119.084 41.8083 118.12C42.8659 116.929 42.7633 114.433 43.1383 112.95Z" fill="black"/>
<path d="M26.2238 131.404L17.3276 133.693L6.61743 117.009L2.09559 118.233L9.63306 142.252L26.9737 144.343L26.2238 131.404Z" fill="#C10206"/>
<path d="M56.4442 129.242L60.5462 130.141C60.9468 130.228 61.3538 130.007 61.4916 129.618L65.0905 119.594C65.2571 119.129 64.9783 118.621 64.4976 118.515L59.5399 117.414C59.1105 117.317 58.6843 117.578 58.5721 118.002L55.8321 128.227C55.7071 128.68 55.9891 129.143 56.4442 129.242Z" fill="#D67086"/>
<path d="M3.17557 118.098C3.17557 118.098 1.65334 116.306 1.6309 116.277C1.06367 115.609 1.12456 112.882 0.999577 112.028C0.929074 111.54 3.31658 112.494 3.57296 112.77C4.00559 113.242 4.31645 114.783 4.58885 115.429L5.80023 115.863L5.9829 117.484L3.17557 118.098Z" fill="#EAC5B0"/>
<path d="M23.612 82.8824C26.8808 83.0944 29.9285 81.9575 32.2102 79.9502C31.909 78.8165 31.5468 77.7085 31.1238 76.6647C30.4124 74.9079 29.0856 73.5045 27.4704 72.6951C27.4833 72.6759 27.4993 72.6566 27.5121 72.6373C28.2139 71.5068 28.4255 70.1933 28.4158 68.9118C28.4062 67.6946 28.1883 66.4389 27.4448 65.4112C26.7045 64.3835 25.3521 63.6319 23.9613 63.7572C22.4679 63.8921 21.2629 65.0001 20.7534 66.2334C20.2438 67.4666 20.2951 68.8155 20.3945 70.1194C20.4682 71.054 20.7213 72.0046 21.1668 72.7979C20.1829 73.3921 19.3145 74.2656 18.4812 75.3383C17.632 76.4367 17.6673 76.4881 17.1321 77.7856C16.8693 78.4215 16.6065 79.0831 16.3822 79.8057C18.3082 81.5656 20.8143 82.7026 23.612 82.8824Z" fill="white"/>
<path d="M71.3172 31.4611C75.6404 31.7405 79.6655 30.2375 82.6811 27.5847C82.2838 26.0881 81.8063 24.6204 81.2454 23.2426C80.3032 20.9174 78.5535 19.0675 76.4159 17.998C76.432 17.9723 76.4544 17.9466 76.4704 17.9209C77.3966 16.4275 77.6786 14.69 77.6658 12.9975C77.653 11.3885 77.3645 9.72807 76.3839 8.36955C75.4032 7.01104 73.6182 6.01543 71.7787 6.18244C69.8046 6.36229 68.2151 7.82358 67.5389 9.45508C66.8627 11.0866 66.9332 12.8658 67.0646 14.5905C67.1607 15.8269 67.4972 17.0827 68.0869 18.1297C66.789 18.9165 65.6385 20.0695 64.5393 21.489C63.4144 22.9439 63.4625 23.0113 62.7543 24.7231C62.405 25.5646 62.062 26.4381 61.764 27.3952C64.3053 29.7204 67.619 31.2235 71.3172 31.4611Z" fill="white"/>
<path d="M95.7531 102.493C100.403 102.791 104.733 101.176 107.976 98.3207C107.55 96.7085 107.034 95.1348 106.434 93.651C105.422 91.1523 103.537 89.1611 101.24 88.0082C101.259 87.9792 101.281 87.9536 101.297 87.9247C102.294 86.3188 102.598 84.4497 102.582 82.6319C102.57 80.9008 102.255 79.1152 101.204 77.6571C100.15 76.1958 98.2304 75.1263 96.2531 75.3062C94.1283 75.4989 92.4202 77.0726 91.6927 78.8261C90.9653 80.5797 91.039 82.4938 91.1832 84.3501C91.2858 85.6797 91.6511 87.0286 92.2824 88.1591C90.8852 89.0038 89.6481 90.2434 88.4656 91.7722C87.2574 93.3362 87.3055 93.4069 86.546 95.2504C86.171 96.156 85.8025 97.0938 85.4788 98.1248C88.2156 100.62 91.7793 102.239 95.7531 102.493Z" fill="white"/>
<path d="M275.55 49.0704C279.562 49.3274 283.299 47.9335 286.1 45.4702C285.731 44.0796 285.286 42.7179 284.77 41.4396C283.895 39.2814 282.27 37.5632 280.286 36.5708C280.303 36.5451 280.322 36.5226 280.338 36.5002C281.197 35.1127 281.459 33.5005 281.447 31.93C281.434 30.4366 281.165 28.895 280.258 27.6361C279.348 26.3771 277.691 25.4522 275.983 25.6063C274.149 25.7733 272.675 27.1318 272.047 28.6445C271.419 30.1572 271.483 31.8112 271.608 33.4106C271.698 34.5571 272.012 35.7229 272.557 36.6961C271.352 37.4251 270.285 38.4946 269.262 39.8145C268.218 41.1634 268.262 41.2277 267.605 42.8174C267.282 43.5978 266.961 44.4072 266.686 45.2968C269.041 47.455 272.118 48.8488 275.55 49.0704Z" fill="white"/>
<path d="M140.917 61.1397C146.528 61.4994 151.755 59.55 155.671 56.1071C155.159 54.1641 154.534 52.2596 153.81 50.4707C152.589 47.455 150.313 45.0495 147.541 43.6621C147.564 43.6267 147.589 43.5978 147.612 43.5625C148.813 41.6227 149.182 39.3681 149.163 37.1714C149.147 35.0806 148.769 32.9288 147.5 31.1657C146.227 29.4025 143.91 28.1114 141.523 28.3266C138.959 28.5578 136.895 30.4591 136.017 32.5756C135.142 34.692 135.229 37.0044 135.402 39.2429C135.527 40.8487 135.966 42.477 136.729 43.8387C135.043 44.86 133.549 46.3534 132.123 48.2001C130.665 50.0885 130.723 50.1753 129.806 52.4009C129.354 53.4929 128.906 54.6266 128.518 55.8695C131.816 58.8787 136.116 60.8314 140.917 61.1397Z" fill="white"/>
<path d="M205.393 21.2128C208.604 21.4184 211.594 20.3039 213.834 18.332C213.539 17.2208 213.183 16.132 212.77 15.1075C212.071 13.3829 210.77 12.0051 209.184 11.2118C209.197 11.1926 209.213 11.1733 209.225 11.154C209.914 10.0428 210.123 8.75495 210.113 7.4992C210.103 6.30448 209.889 5.07122 209.161 4.06277C208.434 3.05432 207.107 2.31564 205.742 2.43769C204.274 2.56936 203.095 3.6581 202.592 4.86888C202.092 6.07967 202.14 7.40286 202.239 8.68429C202.31 9.60282 202.563 10.5342 202.999 11.3146C202.034 11.8991 201.178 12.7534 200.364 13.81C199.531 14.8891 199.563 14.9405 199.038 16.2123C198.778 16.8386 198.522 17.4841 198.301 18.1971C200.185 19.9186 202.646 21.0362 205.393 21.2128Z" fill="white"/>
<path d="M207.985 111.867C217.058 112.452 225.505 109.298 231.838 103.729C231.008 100.585 230.001 97.5114 228.829 94.6177C226.854 89.7424 223.175 85.8532 218.692 83.6115C218.727 83.5569 218.772 83.5055 218.804 83.4509C220.75 80.3163 221.342 76.6711 221.31 73.1223C221.281 69.7437 220.676 66.2623 218.618 63.4136C216.564 60.5648 212.818 58.4741 208.956 58.8241C204.812 59.1999 201.476 62.2702 200.057 65.6938C198.64 69.1174 198.781 72.8525 199.063 76.472C199.265 79.067 199.973 81.7005 201.207 83.9005C198.48 85.5481 196.067 87.9696 193.763 90.95C191.404 94.0011 191.5 94.1424 190.016 97.7394C189.286 99.5058 188.561 101.336 187.936 103.347C193.272 108.212 200.227 111.37 207.985 111.867Z" fill="white"/>
<path d="M258.866 225.254C259.257 224.823 259.712 224.586 260.228 224.669C260.722 224.746 261.167 225.083 261.372 225.533C261.51 225.838 261.542 226.182 261.568 226.516C261.712 228.247 261.699 232.358 259.395 232.949C258.427 233.196 257.629 232.509 257.37 231.638C256.982 230.328 257.559 226.696 258.866 225.254Z" fill="black"/>
<path d="M258.046 199.134L258.168 209.693C258.027 214.385 258.757 219.1 258.62 223.792C258.587 224.871 258.305 226.008 258.578 227.078C258.844 228.125 259.69 228.308 260.562 227.778C261.728 227.068 261.539 225.411 261.734 224.203C262.266 220.883 262.895 217.575 263.452 214.257C263.725 212.632 263.164 210.352 263.286 208.704L264.987 199.853L258.046 199.134Z" fill="#EAC5B0"/>
<path d="M270.086 182.07L265.5 202.486L264.526 221.769L257.254 221.605L255.277 167.672L269.374 167.929L270.086 182.07Z" fill="#DD4730"/>
<path d="M248.464 224.868C248.871 224.46 249.335 224.252 249.845 224.364C250.335 224.47 250.765 224.833 250.947 225.295C251.072 225.61 251.088 225.954 251.101 226.291C251.169 228.032 250.983 232.146 248.662 232.602C247.688 232.795 246.919 232.056 246.701 231.169C246.371 229.837 247.099 226.233 248.464 224.868Z" fill="black"/>
<path d="M252.297 200.617L251.678 211.161C251.627 214.09 251.239 217 250.935 219.909C250.653 222.614 251.092 225.427 249.682 227.887C249.239 228.658 248.345 229.172 247.72 228.234C247.24 227.511 247.525 226.307 247.432 225.488C247.054 222.145 246.586 218.814 246.185 215.474C245.99 213.836 246.66 211.585 246.615 209.937L245.33 201.019L252.297 200.617Z" fill="#EAC5B0"/>
<path d="M243.096 180.824L242.503 200.64L245.605 220.684L253.005 220.905L252.678 199.214L256.591 181.229L257.905 169.452L246.169 168.064L243.096 180.824Z" fill="#DD4730"/>
<path d="M252.38 127.505L265.026 127.203L272.358 140.868L269.753 153.667L269.288 168.986L251.249 169.23L245.314 168.267L246.89 151.9L245.987 130.039L252.38 127.505Z" fill="#C10206"/>
<path d="M265.446 128.147L275.71 143.813L274.166 152.543L258.27 163.581L255.277 160.96L265.907 147.494L265.494 138.986L265.446 128.147Z" fill="#C10206"/>
<path d="M254.037 115.68C256.527 110.361 263.577 113.216 264.548 118.297C265.183 121.611 262.263 125.507 258.847 126.069C258.818 126.194 258.453 127.273 258.443 127.373C258.386 127.887 258.267 128.388 258.136 128.895C258.088 129.085 255.245 128.211 254.928 128.112C254.816 128.076 254.694 128.031 254.642 127.932C254.546 127.736 255.136 126.259 255.178 126.056C255.229 125.819 255.28 125.581 255.331 125.346C253.78 124.37 252.934 122.552 252.832 120.786C252.729 119.01 253.29 117.279 254.037 115.68Z" fill="#EAC5B0"/>
<path d="M259.321 111.203C259.667 111.643 259.764 112.211 259.818 112.757C259.85 113.081 259.872 113.415 259.773 113.724C259.369 114.947 258.136 114.748 257.132 115.05C255.895 115.419 254.777 116.229 254.001 117.211C252.787 118.753 253.024 120.934 253.248 122.803C253.328 123.461 253.524 124.45 252.963 124.971C252.396 125.497 251.236 125.282 250.662 124.916C250.14 124.582 249.739 124.027 249.14 123.86C248.509 123.683 247.608 123.872 247.374 123.249C247.31 123.076 247.323 122.874 247.233 122.713C246.932 122.164 245.983 122.665 245.522 122.254C245.237 122 245.291 121.528 245.435 121.168C245.58 120.808 245.794 120.449 245.762 120.063C245.733 119.733 245.528 119.45 245.416 119.135C245.192 118.519 245.374 117.767 245.852 117.321C246.743 116.489 248.255 116.826 249.198 116.055C249.688 115.654 249.928 115.021 250.159 114.427C250.39 113.83 250.659 113.203 251.175 112.837C251.813 112.384 252.649 112.564 253.29 112.015C253.668 111.694 253.944 111.251 254.357 110.981C254.902 110.624 255.915 110.412 256.559 110.271C257.581 110.04 258.661 110.371 259.321 111.203Z" fill="black"/>
<path d="M262.975 120.513C262.814 122.334 261.699 124.203 262.363 125.892C263.032 127.598 265.103 128.115 266.884 128.394C267.176 128.439 270.922 129.175 270.948 129.104C271.368 127.868 271.8 126.609 272.579 125.568C273.358 124.528 274.563 123.725 275.835 123.782C275.476 123.68 275.342 123.211 275.425 122.838C275.508 122.466 275.739 122.148 275.89 121.794C276.261 120.934 276.104 119.864 275.502 119.167C274.3 117.773 271.82 118.03 270.826 116.473C270.211 115.506 270.435 114.225 270.179 113.097C269.685 110.92 267.439 110.233 265.824 109.099C264.122 107.901 262.475 107.169 260.35 107.294C257.713 107.448 255.505 109.883 256.235 112.478C257.174 115.805 262.324 116.084 262.936 119.424C263 119.784 263.007 120.147 262.975 120.513Z" fill="black"/>
<path d="M261.286 127.434L258.075 154.874H255.19L252.444 127.203L261.286 127.434Z" fill="white"/>
<path d="M255.197 162.691L255.264 164.827L251.502 166.202L249.332 164.554L249.329 162.065L251.425 161.949L251.489 161.4L252.175 160.96L255.197 162.691Z" fill="#EAC5B0"/>
<path d="M252.444 127.203L245.314 127.591C245.314 127.591 237.311 131.535 236.779 131.24C236.251 130.944 227.601 113.592 227.601 113.592L223.365 114.97L228.659 134.818L233.777 140.12L248.249 137.705L252.444 127.203Z" fill="#C10206"/>
<path d="M227.258 113.736C227.258 113.736 227.258 111.723 227.258 111.691C227.258 110.942 225.383 109.198 224.906 108.572C224.634 108.216 223.384 110.162 223.368 110.486C223.342 111.035 224.134 112.214 224.348 112.783L223.682 113.736L224.627 114.896L227.258 113.736Z" fill="#EAC5B0"/>
</svg>
