<svg width="21" height="19" viewBox="0 0 21 19" fill="none" xmlns="http://www.w3.org/2000/svg">
<path d="M19.03 3.3889L20.464 1.9549L19.05 0.540897L17.617 1.9739C16.0469 0.71571 14.1001 0.0206548 12.0882 -1.36644e-05C10.0763 -0.0206821 8.11561 0.634231 6.52 1.8599L7.94 3.2999C9.1264 2.45726 10.5448 2.00308 12 1.9999L12.01 2.0009V8.9809L16.963 13.9389C15.9852 14.9213 14.7378 15.5913 13.3788 15.8641C12.0199 16.1369 10.6105 16.0001 9.32933 15.4712C8.04816 14.9423 6.95282 14.0449 6.1821 12.8929C5.41139 11.7409 4.99998 10.386 5 8.9999H8L4 4.9999L0 8.9999H3C2.99864 10.4381 3.34194 11.8556 4.00116 13.1338C4.66038 14.412 5.6163 15.5136 6.78886 16.3463C7.96142 17.179 9.31646 17.7186 10.7405 17.9198C12.1645 18.1211 13.616 17.9782 14.9734 17.5031C16.3308 17.0279 17.5546 16.2344 18.5422 15.189C19.5298 14.1436 20.2526 12.8767 20.6498 11.4945C21.0471 10.1123 21.1073 8.65502 20.8255 7.24474C20.5437 5.83446 19.928 4.51226 19.03 3.3889Z" fill="white"/>
</svg>
