<svg width="29" height="29" viewBox="0 0 29 29" fill="none" xmlns="http://www.w3.org/2000/svg">
<g clip-path="url(#clip0_1_6269)">
<path d="M14.0047 0.166016C6.26975 0.166016 0 6.43576 0 14.1708C0 21.9049 6.26975 28.1755 14.0047 28.1755C21.7397 28.1755 28.0095 21.9049 28.0095 14.1708C28.0095 6.43576 21.7397 0.166016 14.0047 0.166016Z" fill="black"/>
<path d="M21.2645 20.247V14.8753C21.2645 11.9974 19.7284 10.6582 17.6793 10.6582C16.0258 10.6582 15.2853 11.5676 14.8731 12.2057V10.8779H11.7588C11.7999 11.7575 11.7588 20.247 11.7588 20.247H14.8731V15.0145C14.8731 14.7353 14.8932 14.4552 14.9755 14.2556C15.2004 13.6963 15.7125 13.1169 16.5729 13.1169C17.7003 13.1169 18.1511 13.9755 18.1511 15.2351V20.2479L21.2645 20.247ZM8.47729 9.59905C9.56266 9.59905 10.2393 8.87868 10.2393 7.97975C10.2191 7.06069 9.56266 6.36133 8.49742 6.36133C7.43219 6.36133 6.73633 7.06069 6.73633 7.97975C6.73633 8.87956 7.41206 9.59905 8.45804 9.59905H8.47729ZM10.0344 20.247V10.8779H6.92102V20.247H10.0344Z" fill="white"/>
</g>
<defs>
<clipPath id="clip0_1_6269">
<rect width="28.0095" height="28.0095" fill="white" transform="translate(0 0.166016)"/>
</clipPath>
</defs>
</svg>
