<svg width="12" height="12" viewBox="0 0 12 12" fill="none" xmlns="http://www.w3.org/2000/svg">
<path d="M11.0404 0H1.02527C0.478249 0 0 0.393853 0 0.934618V10.9716C0 11.5155 0.478249 12 1.02527 12H11.0372C11.5874 12 12 11.5124 12 10.9716V0.934618C12.0031 0.393853 11.5874 0 11.0404 0ZM3.71971 10.0026H2.00052V4.65746H3.71971V10.0026ZM2.91951 3.84475H2.907C2.35686 3.84475 2.00052 3.43527 2.00052 2.92264C2.00052 2.40062 2.36624 2.00052 2.92888 2.00052C3.49153 2.00052 3.83537 2.3975 3.84787 2.92264C3.84787 3.43527 3.49153 3.84475 2.91951 3.84475ZM10.0026 10.0026H8.28339V7.07997C8.28339 6.37979 8.03333 5.90154 7.41129 5.90154C6.93617 5.90154 6.65485 6.2235 6.52982 6.53608C6.48293 6.64861 6.47043 6.80177 6.47043 6.95806V10.0026H4.75123V4.65746H6.47043V5.40141C6.72049 5.04506 7.11122 4.53243 8.02083 4.53243C9.14924 4.53243 10.0026 5.27637 10.0026 6.87992V10.0026Z" fill="#6B6B6B"/>
</svg>
