<svg width="10" height="15" viewBox="0 0 10 15" fill="none" xmlns="http://www.w3.org/2000/svg">
<path d="M4.79766 0.490968C4.17483 0.490573 3.55802 0.61296 2.98251 0.851128C2.40701 1.0893 1.8841 1.43857 1.44368 1.87899C1.00327 2.3194 0.653993 2.84231 0.415825 3.41782C0.177657 3.99332 0.0552706 4.61013 0.055665 5.23297C0.055665 8.78997 4.79766 14.04 4.79766 14.04C4.79766 14.04 9.53966 8.78897 9.53966 5.23297C9.54006 4.61013 9.41767 3.99332 9.17951 3.41782C8.94134 2.84231 8.59206 2.3194 8.15164 1.87899C7.71123 1.43857 7.18832 1.0893 6.61282 0.851128C6.03731 0.61296 5.4205 0.490573 4.79766 0.490968ZM4.79766 6.92697C4.46262 6.92697 4.13511 6.82762 3.85653 6.64148C3.57795 6.45534 3.36083 6.19077 3.23261 5.88123C3.1044 5.5717 3.07085 5.23109 3.13622 4.90248C3.20158 4.57388 3.36292 4.27204 3.59983 4.03513C3.83674 3.79822 4.13858 3.63688 4.46718 3.57152C4.79579 3.50615 5.13639 3.5397 5.44593 3.66792C5.75547 3.79613 6.02004 4.01326 6.20617 4.29183C6.39231 4.57041 6.49166 4.89793 6.49166 5.23297C6.49166 5.68224 6.31319 6.11312 5.9955 6.43081C5.67782 6.74849 5.24694 6.92697 4.79766 6.92697Z" fill="black"/>
</svg>
