<svg width="360" height="294" viewBox="0 0 360 294" fill="none" xmlns="http://www.w3.org/2000/svg">
<g style="mix-blend-mode:multiply">
<g style="mix-blend-mode:multiply">
<path d="M360 0.0793762C345.593 8.47169 332.086 16.5759 319.479 24.3919C325.098 36.9984 330.775 49.7444 336.511 62.63C344.066 58.9832 351.896 55.3048 360 51.5949V0.0793762Z" fill="#E82634"/>
</g>
<g style="mix-blend-mode:multiply">
<path d="M323.72 68.6676C303.919 78.1225 285.658 87.0641 268.733 95.533C264.402 85.3127 260.193 75.3536 256.104 65.6556C271.529 54.9851 288.521 43.7744 307.228 31.9828C312.649 44.004 318.146 56.2323 323.72 68.6676Z" fill="#E82634"/>
</g>
<g style="mix-blend-mode:multiply">
<path d="M261.129 100.666C244.799 108.77 229.644 116.59 215.543 123.992C213.031 115.537 210.618 107.401 208.303 99.585C220.46 90.1302 233.818 80.135 248.406 69.7617C252.539 79.7433 256.753 90.0356 261.129 100.666Z" fill="#DB2938"/>
</g>
<g style="mix-blend-mode:multiply">
<path d="M197.741 125.951C192.757 128.963 187.921 131.948 183.208 134.865C182.829 132.092 182.46 129.39 182.1 126.761C186.494 123.501 191.024 120.192 195.688 116.833C196.363 119.778 197.039 122.844 197.741 125.951Z" fill="#FF5F56"/>
</g>
<g style="mix-blend-mode:multiply">
<path d="M157.747 149.237L152.817 152.6C152.952 151.776 153.101 150.952 153.249 150.128L158.017 146.603C157.923 147.481 157.841 148.359 157.747 149.237Z" fill="#FFDCE8"/>
</g>
<g style="mix-blend-mode:multiply">
<path d="M128.68 169.416L123.723 172.874C124.223 172.306 124.722 171.739 125.236 171.185L130.017 167.511L128.68 169.416Z" fill="#FFCFE0"/>
</g>
<g style="mix-blend-mode:multiply">
<path d="M102.976 187.421L99.3159 190.041L101.234 189.528L104.867 186.826L102.976 187.421Z" fill="#FFD5E4"/>
</g>
<g style="mix-blend-mode:multiply">
<path d="M80.9736 201.508C78.2722 203.309 75.5708 205.056 72.8694 206.749L78.5018 207.87C81.1041 205.907 83.7245 203.908 86.3628 201.873L80.9736 201.508Z" fill="#FF91B7"/>
</g>
<g style="mix-blend-mode:multiply">
<path d="M59.6326 214.988C57.0663 216.555 54.5135 218.108 51.9877 219.608L58.0928 222.674C60.6051 220.931 63.1309 219.162 65.6567 217.339L59.6326 214.988Z" fill="#FF8DB4"/>
</g>
<g style="mix-blend-mode:multiply">
<path d="M360 63.0758C354.03 65.6961 348.177 68.2759 342.441 70.8152C348.006 83.3497 353.652 96.0462 359.379 108.905L359.986 108.689L360 63.0758Z" fill="#F31725"/>
</g>
<g style="mix-blend-mode:multiply">
<path d="M342.333 114.78C322.721 121.498 304.126 127.743 286.549 133.514C281.993 122.781 277.554 112.327 273.231 102.151C289.575 94.5875 307.08 86.6184 325.908 78.19C331.284 90.2022 336.759 102.399 342.333 114.78Z" fill="#F31725"/>
</g>
<g style="mix-blend-mode:multiply">
<path d="M276 138.85C258.162 144.541 241.26 149.795 225.295 154.612C222.468 145.121 219.766 136.009 217.191 127.274C231.211 120.359 246.253 113.078 262.318 105.434C266.721 116.212 271.282 127.351 276 138.85Z" fill="#E4191C"/>
</g>
<g style="mix-blend-mode:multiply">
<path d="M217.123 156.449C203.022 160.735 189.587 164.72 176.819 168.403C176.332 161.532 175.882 154.954 175.468 148.669C186.436 143.104 198.061 137.296 210.343 131.245C212.495 139.313 214.755 147.715 217.123 156.449Z" fill="#E92530"/>
</g>
<g style="mix-blend-mode:multiply">
<path d="M163.609 169.159C155.964 171.609 148.562 173.954 141.404 176.196L143.997 166.742C150.426 163.671 157.076 160.519 163.947 157.287C163.839 161.069 163.717 165.053 163.609 169.159Z" fill="#FF4F71"/>
</g>
<g style="mix-blend-mode:multiply">
<path d="M127.748 181.532C119.221 183.99 111.026 186.336 103.165 188.569L111.27 182.153C118.194 178.614 125.398 174.958 132.881 171.185C131.215 174.499 129.504 177.948 127.748 181.532Z" fill="#F0305C"/>
</g>
<g style="mix-blend-mode:multiply">
<path d="M93.9131 191.054L75.4626 196.457L85.2822 195.106L102.112 186.826L93.9131 191.054Z" fill="#F34884"/>
</g>
<g style="mix-blend-mode:multiply">
<path d="M66.4131 199.064L49.6375 203.953L61.7937 207.006C66.9263 204.466 72.1895 201.846 77.5833 199.145L66.4131 199.064Z" fill="#F16576"/>
</g>
<g style="mix-blend-mode:multiply">
<path d="M42.9244 205.142C36.9453 206.799 31.2319 208.42 25.7841 210.004L40.7497 218.46C46.2696 215.758 51.929 212.926 57.728 209.964L42.9244 205.142Z" fill="#E73240"/>
</g>
<g style="mix-blend-mode:multiply">
<path d="M360 148.656C356.137 140.065 352.319 131.56 348.546 123.141C327.304 129.985 307.152 136.288 288.089 142.051C293.167 154.054 298.404 166.44 303.797 179.208C321.933 175.67 340.667 171.546 360 166.836V148.656Z" fill="#E91826"/>
</g>
<g style="mix-blend-mode:multiply">
<path d="M286.387 179.114C270.53 182.103 255.155 184.688 240.261 186.867C237.433 177.862 234.732 169.159 232.157 160.758C245.664 157.156 259.733 153.302 274.366 149.196C278.247 158.885 282.254 168.858 286.387 179.114Z" fill="#FB1C39"/>
</g>
<g style="mix-blend-mode:multiply">
<path d="M219.325 188.285C207.223 189.915 195.485 191.311 184.113 192.472C183.478 186.205 182.87 180.181 182.276 174.36C192.46 172.018 203.018 169.506 213.949 166.823C215.665 173.738 217.475 180.883 219.325 188.285Z" fill="#FF224E"/>
</g>
<g style="mix-blend-mode:multiply">
<path d="M163.001 193.661C153.722 194.498 144.713 195.187 135.987 195.781C137.068 191.819 138.108 187.997 139.107 184.314C146.941 182.747 155.046 181.077 163.42 179.303C163.258 183.922 163.136 188.704 163.001 193.661Z" fill="#FF2360"/>
</g>
<g style="mix-blend-mode:multiply">
<path d="M117.712 197.267C109.212 197.663 101.031 197.97 93.1703 198.186L101.058 191.432C108.136 190.082 115.47 188.654 123.061 187.151L117.712 197.267Z" fill="#FF3959"/>
</g>
<g style="mix-blend-mode:multiply">
<path d="M80.4062 199.077C71.6807 199.077 63.4279 199.077 55.6074 199.077L69.1144 197.537L91.4143 192.945L80.4062 199.077Z" fill="#EF455A"/>
</g>
<g style="mix-blend-mode:multiply">
<path d="M48.2461 198.983C41.1144 198.902 34.397 198.843 28.0938 198.807L43.6537 202.859C49.6868 201.553 56.0216 200.203 62.658 198.807L48.2461 198.983Z" fill="#F0354A"/>
</g>
<g style="mix-blend-mode:multiply">
<path d="M22.61 198.875C17.2072 198.875 12.2097 199.01 7.49573 199.185L22.4749 207.452C27.3284 206.299 32.416 205.151 37.7378 204.007L22.61 198.875Z" fill="#F3394F"/>
</g>
<g style="mix-blend-mode:multiply">
<path d="M360 174.522C341.09 178.889 322.694 182.671 304.811 185.867C310.772 199.969 316.926 214.588 323.275 229.724C335.431 228.428 347.673 226.807 360 224.862V174.522Z" fill="#DC2333"/>
</g>
<g style="mix-blend-mode:multiply">
<path d="M311.983 229.454C290.817 231.399 270.003 232.358 249.662 232.466L238.856 196.578C257.037 194.588 275.856 191.986 295.315 188.771C300.691 201.882 306.247 215.443 311.983 229.454Z" fill="#E62238"/>
</g>
<g style="mix-blend-mode:multiply">
<path d="M236.236 231.548C217.704 231.345 199.686 230.44 182.208 228.982C181.497 219.455 180.808 210.41 180.141 201.846C195.283 201.157 211.032 200.09 227.416 198.55C230.261 209.041 233.201 220.04 236.236 231.548Z" fill="#ED2739"/>
</g>
<g style="mix-blend-mode:multiply">
<path d="M172.794 230.049C153.884 228.05 135.839 225.402 118.766 222.323L126.33 201.684C140.728 201.684 155.91 201.346 171.848 200.59C172.253 209.788 172.483 219.621 172.794 230.049Z" fill="#E11813"/>
</g>
<g style="mix-blend-mode:multiply">
<path d="M109.203 218C97.3574 215.92 86.1062 213.665 75.4357 211.247L86.5924 202.197C96.0473 202.738 105.988 203.21 116.375 203.548C114.093 208.154 111.702 212.949 109.203 218Z" fill="#F93146"/>
</g>
<g style="mix-blend-mode:multiply">
<path d="M62.2798 208.208C53.0681 206.02 44.4057 203.845 36.2925 201.684L51.0286 199.793C58.4844 200.423 66.3589 201.036 74.6522 201.63L62.2798 208.208Z" fill="#F9354D"/>
</g>
<g style="mix-blend-mode:multiply">
<path d="M26.1353 198.983C18.8415 196.903 12.1016 194.931 5.87488 193.026L22.9477 197.389C28.9988 197.862 35.4416 198.415 42.3166 198.983H26.1353Z" fill="#F33252"/>
</g>
<g style="mix-blend-mode:multiply">
<path d="M360 230.535C348.006 232.336 336.075 233.817 324.207 234.979C331.095 251.412 338.272 268.521 345.737 286.305C350.505 286.008 355.259 285.63 360 285.197V230.535Z" fill="#D41F30"/>
</g>
<g style="mix-blend-mode:multiply">
<path d="M340.78 287.588C314.131 288.864 287.425 288.201 260.873 285.603C255.902 268.575 251.224 252.493 246.839 237.356C270.855 237.651 294.871 236.708 318.79 234.533C325.823 251.489 333.153 269.174 340.78 287.588Z" fill="#BF212A"/>
</g>
<g style="mix-blend-mode:multiply">
<path d="M251.175 281.497C228.586 279.069 206.145 275.421 183.95 270.569C183.05 258.269 182.231 246.676 181.492 235.789C200.334 237.91 219.838 239.355 239.883 239.949C243.449 253.01 247.217 266.896 251.175 281.497Z" fill="#E72334"/>
</g>
<g style="mix-blend-mode:multiply">
<path d="M166.486 263.816C148.994 259.629 132.151 254.847 116.024 249.634C118.329 242.196 120.522 235.15 122.602 228.495C136.663 231.399 151.331 233.993 166.554 236.181C166.526 244.906 166.504 254.118 166.486 263.816Z" fill="#F3465C"/>
</g>
<g style="mix-blend-mode:multiply">
<path d="M99.7886 245.906C82.6483 239.747 66.6561 233.209 51.839 226.51L68.4255 214.043C81.2976 217.622 95.0477 221.08 109.662 224.254C106.583 231.021 103.287 238.22 99.7886 245.906Z" fill="#EE1925"/>
</g>
<g style="mix-blend-mode:multiply" opacity="0.4">
<g style="mix-blend-mode:multiply" opacity="0.4">
<path d="M66.2915 213.557C80.0146 217.433 94.7507 221.175 110.473 224.592C107.204 231.94 103.692 239.819 99.9373 248.229C81.2572 241.354 63.9278 234.101 47.9896 226.537L66.2915 213.557Z" fill="#FB617C"/>
</g>
<g style="mix-blend-mode:multiply" opacity="0.4">
<path d="M139.837 225.618C164.905 229.391 190.152 231.866 215.476 233.034C219.001 250.228 222.796 268.814 226.916 288.952C194.972 283.489 163.485 275.633 132.719 265.45L139.837 225.618Z" fill="#ED314B"/>
</g>
<g style="mix-blend-mode:multiply" opacity="0.4">
<path d="M241.422 234.844C269.843 235.194 298.258 233.841 326.516 230.791C335.089 251.052 344.093 272.289 353.53 294.504C321.46 296.575 289.268 295.743 257.347 292.018C251.665 271.596 246.357 252.538 241.422 234.844Z" fill="#F23149"/>
</g>
<g style="mix-blend-mode:multiply" opacity="0.4">
<path d="M360 217.176C353.463 218.284 346.957 219.297 340.482 220.216L360 264.788V217.176Z" fill="#D02717"/>
</g>
<g style="mix-blend-mode:multiply" opacity="0.4">
<path d="M11.6424 205.858C19.625 204.385 28.3369 203.035 37.8728 201.684L9.65684 194.026C0.0263844 191.743 -8.23987 189.811 -15.3175 188.542L11.6424 205.858Z" fill="#EA1419"/>
</g>
<g style="mix-blend-mode:multiply" opacity="0.4">
<path d="M43.3432 201.211C54.9861 199.415 67.7367 197.578 81.6488 195.498L57.4444 205.29C40.6283 201.698 25.8922 198.037 13.0741 194.822L43.3432 201.211Z" fill="#D21913"/>
</g>
<g style="mix-blend-mode:multiply" opacity="0.4">
<path d="M85.8766 194.823C101.599 192.432 118.712 189.717 137.284 186.475L128.288 217.541C104.084 214.489 82.1082 210.585 62.3745 206.452L85.8766 194.823Z" fill="#D80904"/>
</g>
<g style="mix-blend-mode:multiply" opacity="0.4">
<path d="M142.727 185.746C162.988 182.18 185.004 177.979 208.682 172.86C212.18 188.339 215.962 205.061 220.068 223.174C191.817 223.004 163.595 221.304 135.528 218.081L142.727 185.746Z" fill="#DD1010"/>
</g>
<g style="mix-blend-mode:multiply" opacity="0.4">
<path d="M215.314 170.794C242.152 164.797 271.178 157.638 302.568 149.047C311.852 170.488 321.604 193.026 331.825 216.663C297.654 221.383 263.207 223.811 228.712 223.93C223.891 204.791 219.447 187.124 215.314 170.794Z" fill="#D9140B"/>
</g>
<g style="mix-blend-mode:multiply" opacity="0.4">
<path d="M360 144.604C349.834 147.449 339.875 150.151 330.123 152.708C337.2 168.52 344.471 184.796 351.936 201.535C354.638 201.049 357.339 200.536 360.04 200.009L360 144.604Z" fill="#FE2F4C"/>
</g>
<g style="mix-blend-mode:multiply" opacity="0.4">
<path d="M39.3451 222.444C47.044 218.401 54.9681 214.088 63.1173 209.505L42.3571 203.494C33.7937 205.452 25.7976 207.357 18.3688 209.261L39.3451 222.444Z" fill="#F0454A"/>
</g>
<g style="mix-blend-mode:multiply" opacity="0.4">
<path d="M71.5051 203.453C78.7088 199.608 86.1377 195.583 93.7916 191.378L80.4062 194.931C71.6807 197.128 63.392 199.23 55.5399 201.238L71.5051 203.453Z" fill="#FD4860"/>
</g>
<g style="mix-blend-mode:multiply" opacity="0.4">
<path d="M109.352 182.909C117.726 178.407 126.487 173.698 135.636 168.781C133.799 172.995 131.854 177.426 129.801 182.112C118.996 184.985 108.699 187.686 98.9108 190.217C102.567 187.668 106.047 185.233 109.352 182.909Z" fill="#FD5170"/>
</g>
<g style="mix-blend-mode:multiply" opacity="0.4">
<path d="M156.167 157.949C166.797 152.357 178.034 146.508 189.934 140.39C191.231 147.971 192.581 155.909 193.986 164.202C180.011 168.236 166.716 171.982 154.1 175.44C154.838 169.317 155.527 163.486 156.167 157.949Z" fill="#FE3266"/>
</g>
<g style="mix-blend-mode:multiply" opacity="0.4">
<path d="M209.627 125.802C227.983 115.915 248.163 105.38 270.516 94.1552C276.991 109.346 283.744 125.185 290.777 141.673C265.343 149.291 241.666 156.004 219.582 161.933C216.061 149.183 212.743 137.139 209.627 125.802Z" fill="#EC4F40"/>
</g>
<g style="mix-blend-mode:multiply" opacity="0.4">
<path d="M360 46.084C350.095 50.7664 340.6 55.3588 331.514 59.8611C314.819 67.9653 299.196 75.7543 284.645 83.2281C292.65 101.408 300.984 120.345 309.646 140.038C325.719 135.284 342.504 130.138 360 124.6V46.084Z" fill="#E3271F"/>
</g>
<g style="mix-blend-mode:multiply" opacity="0.4">
<path d="M64.9948 228.185C67.8223 225.861 70.6362 223.484 73.4367 221.053L66.9668 218.473C64.1034 220.607 61.2489 222.696 58.4034 224.74L64.9948 228.185Z" fill="#FFB7D0"/>
</g>
<g style="mix-blend-mode:multiply" opacity="0.4">
<path d="M95.1693 200.806C97.8707 198.195 100.572 195.543 103.273 192.85L98.438 193.499C95.561 195.903 92.711 198.28 89.8881 200.603L95.1693 200.806Z" fill="#FFADCB"/>
</g>
<g style="mix-blend-mode:multiply" opacity="0.4">
<path d="M123.358 173.549C130.328 165.539 137.487 157.219 144.969 148.615C143.457 152.334 141.858 156.238 140.174 160.326C131.084 166.998 122.44 173.441 114.147 179.6L123.358 173.549Z" fill="#FF2F3F"/>
</g>
<g style="mix-blend-mode:multiply" opacity="0.4">
<path d="M165.243 130.327C169.16 126.509 173.212 122.619 177.4 118.657C177.679 121.286 177.967 123.988 178.264 126.761C173.739 130.34 169.363 133.852 165.095 137.323C165.135 134.919 165.189 132.61 165.243 130.327Z" fill="#FFA9C8"/>
</g>
<g style="mix-blend-mode:multiply" opacity="0.4">
<path d="M217.61 83.3362C222.742 79.014 228.091 74.6152 233.656 70.1399C235.115 73.8813 236.573 77.6768 238.073 81.5263C232.211 85.6144 226.556 89.6394 221.108 93.6015C219.919 90.1302 218.758 86.6994 217.61 83.3362Z" fill="#FFACCA"/>
</g>
<g style="mix-blend-mode:multiply" opacity="0.4">
<path d="M309.43 21.6635C312.014 19.9616 314.635 18.2552 317.291 16.5443C318.02 18.1382 318.723 19.759 319.439 21.3663L311.524 26.3504C310.835 24.7431 310.132 23.2168 309.43 21.6635Z" fill="white"/>
</g>
</g>
</g>
</svg>
