<svg width="18" height="21" viewBox="0 0 18 21" fill="none" xmlns="http://www.w3.org/2000/svg">
<path fill-rule="evenodd" clip-rule="evenodd" d="M3 0C2.20435 0 1.44129 0.355579 0.87868 0.988515C0.316071 1.62145 0 2.47989 0 3.375V16.875C0 17.7701 0.316071 18.6286 0.87868 19.2615C1.44129 19.8944 2.20435 20.25 3 20.25H7C7.79565 20.25 8.55871 19.8944 9.12132 19.2615C9.68393 18.6286 10 17.7701 10 16.875V11.25H14.586L12.293 13.8296C12.1108 14.0418 12.01 14.326 12.0123 14.621C12.0146 14.9159 12.1198 15.1981 12.3052 15.4067C12.4906 15.6153 12.7414 15.7336 13.0036 15.7361C13.2658 15.7387 13.5184 15.6253 13.707 15.4204L17.707 10.9204C17.8945 10.7094 17.9998 10.4233 17.9998 10.125C17.9998 9.82669 17.8945 9.54059 17.707 9.32963L13.707 4.82963C13.6148 4.72218 13.5044 4.63647 13.3824 4.57751C13.2604 4.51855 13.1292 4.48752 12.9964 4.48622C12.8636 4.48492 12.7319 4.51338 12.609 4.56995C12.4861 4.62652 12.3745 4.71005 12.2806 4.81568C12.1867 4.92131 12.1125 5.04692 12.0622 5.18518C12.0119 5.32344 11.9866 5.47157 11.9877 5.62095C11.9889 5.77033 12.0165 5.91795 12.0689 6.0552C12.1213 6.19246 12.1975 6.3166 12.293 6.42037L14.586 9H10V3.375C10 2.47989 9.68393 1.62145 9.12132 0.988515C8.55871 0.355579 7.79565 0 7 0H3ZM10 9H5C4.73478 9 4.48043 9.11853 4.29289 9.3295C4.10536 9.54048 4 9.82663 4 10.125C4 10.4234 4.10536 10.7095 4.29289 10.9205C4.48043 11.1315 4.73478 11.25 5 11.25H10V9Z" fill="#B1B1B1"/>
</svg>
