<svg width="18" height="21" viewBox="0 0 18 21" fill="none" xmlns="http://www.w3.org/2000/svg">
<path fill-rule="evenodd" clip-rule="evenodd" d="M3 0.375C2.20435 0.375 1.44129 0.730579 0.87868 1.36351C0.316071 1.99645 0 2.85489 0 3.75V17.25C0 18.1451 0.316071 19.0036 0.87868 19.6365C1.44129 20.2694 2.20435 20.625 3 20.625H7C7.79565 20.625 8.55871 20.2694 9.12132 19.6365C9.68393 19.0036 10 18.1451 10 17.25V11.625H14.586L12.293 14.2046C12.1108 14.4168 12.01 14.701 12.0123 14.996C12.0146 15.2909 12.1198 15.5731 12.3052 15.7817C12.4906 15.9903 12.7414 16.1086 13.0036 16.1111C13.2658 16.1137 13.5184 16.0003 13.707 15.7954L17.707 11.2954C17.8945 11.0844 17.9998 10.7983 17.9998 10.5C17.9998 10.2017 17.8945 9.91559 17.707 9.70463L13.707 5.20463C13.6148 5.09718 13.5044 5.01147 13.3824 4.95251C13.2604 4.89355 13.1292 4.86252 12.9964 4.86122C12.8636 4.85992 12.7319 4.88838 12.609 4.94495C12.4861 5.00152 12.3745 5.08505 12.2806 5.19068C12.1867 5.29631 12.1125 5.42192 12.0622 5.56018C12.0119 5.69844 11.9866 5.84657 11.9877 5.99595C11.9889 6.14533 12.0165 6.29295 12.0689 6.4302C12.1213 6.56746 12.1975 6.6916 12.293 6.79537L14.586 9.375H10V3.75C10 2.85489 9.68393 1.99645 9.12132 1.36351C8.55871 0.730579 7.79565 0.375 7 0.375H3ZM10 9.375H5C4.73478 9.375 4.48043 9.49353 4.29289 9.7045C4.10536 9.91548 4 10.2016 4 10.5C4 10.7984 4.10536 11.0845 4.29289 11.2955C4.48043 11.5065 4.73478 11.625 5 11.625H10V9.375Z" fill="url(#paint0_linear)"/>
<defs>
<linearGradient id="paint0_linear" x1="-0.000239176" y1="10.5008" x2="17.9992" y2="10.5008" gradientUnits="userSpaceOnUse">
<stop stop-color="#F90001"/>
<stop offset="1" stop-color="#A30000"/>
</linearGradient>
</defs>
</svg>
