<svg width="18" height="20" viewBox="0 0 18 20" fill="none" xmlns="http://www.w3.org/2000/svg">
<path d="M7.66772 9.54562C7.66772 9.81687 7.76466 10.077 7.93721 10.2688C8.10977 10.4606 8.3438 10.5684 8.58783 10.5684C8.83186 10.5684 9.06589 10.4606 9.23845 10.2688C9.411 10.077 9.50794 9.81687 9.50794 9.54562C9.50794 9.27437 9.411 9.01424 9.23845 8.82243C9.06589 8.63063 8.83186 8.52288 8.58783 8.52288C8.3438 8.52288 8.10977 8.63063 7.93721 8.82243C7.76466 9.01424 7.66772 9.27437 7.66772 9.54562ZM11.5015 9.54562C11.5015 9.81687 11.5985 10.077 11.771 10.2688C11.9436 10.4606 12.1776 10.5684 12.4216 10.5684C12.6657 10.5684 12.8997 10.4606 13.0723 10.2688C13.2448 10.077 13.3417 9.81687 13.3417 9.54562C13.3417 9.27437 13.2448 9.01424 13.0723 8.82243C12.8997 8.63063 12.6657 8.52288 12.4216 8.52288C12.1776 8.52288 11.9436 8.63063 11.771 8.82243C11.5985 9.01424 11.5015 9.27437 11.5015 9.54562ZM3.83391 9.54562C3.83391 9.81687 3.93085 10.077 4.10341 10.2688C4.27596 10.4606 4.51 10.5684 4.75403 10.5684C4.99806 10.5684 5.23209 10.4606 5.40464 10.2688C5.5772 10.077 5.67414 9.81687 5.67414 9.54562C5.67414 9.27437 5.5772 9.01424 5.40464 8.82243C5.23209 8.63063 4.99806 8.52288 4.75403 8.52288C4.51 8.52288 4.27596 8.63063 4.10341 8.82243C3.93085 9.01424 3.83391 9.27437 3.83391 9.54562ZM16.5085 5.84669C16.0753 4.7025 15.4542 3.67549 14.6625 2.79337C13.8764 1.91636 12.9431 1.21924 11.9156 0.74149C10.8613 0.249294 9.74181 0 8.58783 0H8.54949C7.38785 0.00639216 6.26263 0.262079 5.2045 0.764928C4.18577 1.24758 3.26126 1.94594 2.4825 2.82107C1.69848 3.70106 1.08316 4.72381 0.657606 5.86374C0.216719 7.04416 -0.00564196 8.29915 0.000108751 9.59037C0.00661328 11.0701 0.321558 12.528 0.920222 13.8497V17.0884C0.920222 17.3483 1.01312 17.5976 1.17849 17.7814C1.34385 17.9652 1.56814 18.0685 1.802 18.0685H4.71761C5.90665 18.7339 7.21826 19.084 8.54949 19.0912H8.58975C9.73797 19.0912 10.8517 18.8441 11.9002 18.3604C12.9226 17.8884 13.8523 17.1994 14.6376 16.332C15.4293 15.4605 16.0522 14.442 16.4874 13.3063C16.9398 12.1302 17.1698 10.8795 17.1756 9.58824C17.1813 8.29063 16.9551 7.03137 16.5085 5.84669ZM13.612 15.1792C12.2683 16.658 10.4856 17.4719 8.58783 17.4719H8.55524C7.39935 17.4655 6.25113 17.1459 5.23709 16.545L5.07607 16.4492H2.37707V13.4491L2.29081 13.2701C1.75024 12.143 1.46271 10.8667 1.45695 9.58185C1.44929 7.45752 2.17963 5.46316 3.51954 3.96101C4.85754 2.45885 6.64601 1.62787 8.55716 1.61935H8.58975C9.5482 1.61935 10.4779 1.82603 11.3539 2.23512C12.2089 2.63357 12.9756 3.20673 13.635 3.9397C14.2925 4.67054 14.8101 5.52496 15.1686 6.47526C15.5404 7.45965 15.7264 8.5037 15.7225 9.58185C15.711 11.704 14.9615 13.692 13.612 15.1792Z" fill="#FEFEFE"/>
</svg>
