<svg width="21" height="21" viewBox="0 0 21 21" fill="none" xmlns="http://www.w3.org/2000/svg">
<mask id="path-1-outside-1" maskUnits="userSpaceOnUse" x="-1" y="0.13623" width="23" height="21" fill="black">
<rect fill="white" x="-1" y="0.13623" width="23" height="21"/>
<path d="M10.1478 4.87456L10.1476 4.03746V2.36272H10.8521V4.87456H10.4997H10.1478ZM1.65794 13.3341L3.41498 13.0234L4.12367 12.8981L4.06197 12.5472L4.00153 12.2027L1.53543 12.6381L1.65794 13.3341ZM17.2382 7.11636L15.9712 7.84959L16.1666 8.19012L16.3232 8.46142L18.4915 7.20563L18.1392 6.59384L17.2382 7.11636ZM6.2973 16.4385L6.01969 16.2049L4.41008 18.1286L4.9499 18.583L5.6503 17.7454L6.55931 16.6587L6.2973 16.4385ZM18.1308 16.2655L18.4826 15.6533L17.7262 15.2151L16.3148 14.3969L16.1203 14.7349L15.963 15.0089L18.1308 16.2655ZM1.5384 10.1881L2.41778 10.3431L4.00384 10.6244L4.10888 10.0261L4.12585 9.92819L1.66012 9.49112L1.5384 10.1881ZM19.3244 9.51004L18.6543 9.62833L16.8586 9.94547L16.949 10.4613L16.9807 10.6413L19.4468 10.2058L19.3244 9.51004ZM7.93642 5.38682L8.50797 5.17817L8.5978 5.14537L7.74206 2.78465L7.08018 3.02674L7.2022 3.36327L7.93642 5.38682ZM2.84242 16.2496L5.01047 14.994L4.73932 14.5225L4.65842 14.3818L2.49 15.6374L2.84242 16.2496ZM14.4096 16.6701L16.019 18.5949L16.5581 18.1406L14.9492 16.2157L14.5748 16.5309L14.4096 16.6701ZM2.49918 7.19028L4.66748 8.44658L4.97245 7.9162L5.01939 7.83479L2.85109 6.57849L2.49918 7.19028ZM19.4434 12.656L16.9778 12.2196L16.9515 12.3688L16.8554 12.9156L19.3212 13.352L19.4434 12.656ZM4.96306 4.24919L4.4237 4.70341L5.01508 5.41028L6.03323 6.62756L6.35183 6.35911L6.5723 6.17358L4.96306 4.24919ZM13.046 3.37256L12.4004 5.15117L12.8418 5.31222L13.0624 5.39262L13.9191 3.0325L13.2571 2.79104L13.046 3.37256ZM14.8258 6.52429L14.9626 6.63913L16.5722 4.7146L16.0326 4.26088L14.423 6.18477L14.8258 6.52429ZM10.5 1.13623C4.71048 1.13623 0 5.86157 0 11.6703C0 15.0163 1.56481 18.0004 3.99705 19.9316H5.06001C2.39066 18.1565 0.626167 15.1167 0.626167 11.6703C0.626167 6.20811 5.05544 1.76455 10.4999 1.76455C15.9446 1.76455 20.3739 6.20811 20.3739 11.6703C20.3739 15.1167 18.6094 18.1565 15.9399 19.9316H17.003C19.4349 18.0004 20.9999 15.0163 20.9999 11.6703C21 5.86178 16.2895 1.13623 10.5 1.13623ZM8.45034 16.2834C8.6706 16.2834 8.78046 16.0632 8.78046 15.6233C8.78046 15.1679 8.67282 14.9397 8.45717 14.9397C8.22987 14.9397 8.11603 15.1711 8.11603 15.6344C8.11603 16.0672 8.22764 16.2834 8.45034 16.2834ZM7.50914 14.1588H9.37658V17.0897H7.50914V14.1588ZM7.92934 15.6431C7.92934 15.9007 7.97343 16.097 8.062 16.2332C8.15044 16.3691 8.27358 16.4375 8.43165 16.4375C8.6006 16.4375 8.73192 16.3659 8.82606 16.2237C8.92021 16.0808 8.9674 15.8748 8.9674 15.6041C8.9674 15.0581 8.80066 14.7849 8.46731 14.7849C8.29303 14.7849 8.16008 14.8567 8.06782 15.0024C7.9754 15.147 7.92934 15.3608 7.92934 15.6431ZM9.62199 14.1588H11.4559V17.0897H9.62199V14.1588ZM10.1037 16.3714C10.1766 16.4151 10.2864 16.4375 10.4338 16.4375C10.6085 16.4375 10.7464 16.3903 10.8465 16.2958C10.9466 16.2014 10.9971 16.0766 10.9971 15.922C10.9971 15.7728 10.9506 15.655 10.8574 15.569C10.7638 15.4835 10.632 15.4402 10.4615 15.4402C10.4199 15.4402 10.3749 15.4417 10.326 15.4447V14.9764H10.9248V14.8114H10.1535V15.6133C10.2759 15.6044 10.3592 15.5999 10.4034 15.5999C10.5349 15.5999 10.6356 15.6292 10.7058 15.6879C10.7762 15.7466 10.8116 15.8286 10.8116 15.933C10.8116 16.0389 10.7772 16.1233 10.708 16.1875C10.6391 16.2516 10.5485 16.2834 10.4359 16.2834C10.3232 16.2834 10.2127 16.2481 10.1035 16.1775L10.1037 16.3714ZM11.646 14.1588H13.4905V17.0897H11.646V14.1588ZM12.1045 15.6431C12.1045 15.9007 12.1487 16.097 12.2373 16.2332C12.3258 16.3691 12.4489 16.4375 12.607 16.4375C12.7759 16.4375 12.9075 16.3659 13.0014 16.2237C13.0955 16.0808 13.1426 15.8748 13.1426 15.6041C13.1426 15.0581 12.9756 14.7849 12.6423 14.7849C12.4682 14.7849 12.3351 14.8567 12.2428 15.0024C12.1506 15.147 12.1045 15.3608 12.1045 15.6431ZM12.6258 16.2834C12.8458 16.2834 12.9561 16.0632 12.9561 15.6233C12.9561 15.1679 12.8483 14.9397 12.6327 14.9397C12.4053 14.9397 12.2916 15.1711 12.2916 15.6344C12.2913 16.0672 12.4028 16.2834 12.6258 16.2834ZM10.8063 12.6456C10.7622 12.6456 10.7236 12.6616 10.6829 12.67L5.87077 8.41084L10.1514 13.2446C10.1486 13.269 10.1364 13.2909 10.1364 13.315C10.1364 13.6871 10.4358 13.9878 10.8063 13.9878C11.1745 13.9878 11.4737 13.6871 11.4737 13.315C11.4742 12.9464 11.1745 12.6456 10.8063 12.6456Z"/>
</mask>
<path d="M10.1478 4.87456L10.1476 4.03746V2.36272H10.8521V4.87456H10.4997H10.1478ZM1.65794 13.3341L3.41498 13.0234L4.12367 12.8981L4.06197 12.5472L4.00153 12.2027L1.53543 12.6381L1.65794 13.3341ZM17.2382 7.11636L15.9712 7.84959L16.1666 8.19012L16.3232 8.46142L18.4915 7.20563L18.1392 6.59384L17.2382 7.11636ZM6.2973 16.4385L6.01969 16.2049L4.41008 18.1286L4.9499 18.583L5.6503 17.7454L6.55931 16.6587L6.2973 16.4385ZM18.1308 16.2655L18.4826 15.6533L17.7262 15.2151L16.3148 14.3969L16.1203 14.7349L15.963 15.0089L18.1308 16.2655ZM1.5384 10.1881L2.41778 10.3431L4.00384 10.6244L4.10888 10.0261L4.12585 9.92819L1.66012 9.49112L1.5384 10.1881ZM19.3244 9.51004L18.6543 9.62833L16.8586 9.94547L16.949 10.4613L16.9807 10.6413L19.4468 10.2058L19.3244 9.51004ZM7.93642 5.38682L8.50797 5.17817L8.5978 5.14537L7.74206 2.78465L7.08018 3.02674L7.2022 3.36327L7.93642 5.38682ZM2.84242 16.2496L5.01047 14.994L4.73932 14.5225L4.65842 14.3818L2.49 15.6374L2.84242 16.2496ZM14.4096 16.6701L16.019 18.5949L16.5581 18.1406L14.9492 16.2157L14.5748 16.5309L14.4096 16.6701ZM2.49918 7.19028L4.66748 8.44658L4.97245 7.9162L5.01939 7.83479L2.85109 6.57849L2.49918 7.19028ZM19.4434 12.656L16.9778 12.2196L16.9515 12.3688L16.8554 12.9156L19.3212 13.352L19.4434 12.656ZM4.96306 4.24919L4.4237 4.70341L5.01508 5.41028L6.03323 6.62756L6.35183 6.35911L6.5723 6.17358L4.96306 4.24919ZM13.046 3.37256L12.4004 5.15117L12.8418 5.31222L13.0624 5.39262L13.9191 3.0325L13.2571 2.79104L13.046 3.37256ZM14.8258 6.52429L14.9626 6.63913L16.5722 4.7146L16.0326 4.26088L14.423 6.18477L14.8258 6.52429ZM10.5 1.13623C4.71048 1.13623 0 5.86157 0 11.6703C0 15.0163 1.56481 18.0004 3.99705 19.9316H5.06001C2.39066 18.1565 0.626167 15.1167 0.626167 11.6703C0.626167 6.20811 5.05544 1.76455 10.4999 1.76455C15.9446 1.76455 20.3739 6.20811 20.3739 11.6703C20.3739 15.1167 18.6094 18.1565 15.9399 19.9316H17.003C19.4349 18.0004 20.9999 15.0163 20.9999 11.6703C21 5.86178 16.2895 1.13623 10.5 1.13623ZM8.45034 16.2834C8.6706 16.2834 8.78046 16.0632 8.78046 15.6233C8.78046 15.1679 8.67282 14.9397 8.45717 14.9397C8.22987 14.9397 8.11603 15.1711 8.11603 15.6344C8.11603 16.0672 8.22764 16.2834 8.45034 16.2834ZM7.50914 14.1588H9.37658V17.0897H7.50914V14.1588ZM7.92934 15.6431C7.92934 15.9007 7.97343 16.097 8.062 16.2332C8.15044 16.3691 8.27358 16.4375 8.43165 16.4375C8.6006 16.4375 8.73192 16.3659 8.82606 16.2237C8.92021 16.0808 8.9674 15.8748 8.9674 15.6041C8.9674 15.0581 8.80066 14.7849 8.46731 14.7849C8.29303 14.7849 8.16008 14.8567 8.06782 15.0024C7.9754 15.147 7.92934 15.3608 7.92934 15.6431ZM9.62199 14.1588H11.4559V17.0897H9.62199V14.1588ZM10.1037 16.3714C10.1766 16.4151 10.2864 16.4375 10.4338 16.4375C10.6085 16.4375 10.7464 16.3903 10.8465 16.2958C10.9466 16.2014 10.9971 16.0766 10.9971 15.922C10.9971 15.7728 10.9506 15.655 10.8574 15.569C10.7638 15.4835 10.632 15.4402 10.4615 15.4402C10.4199 15.4402 10.3749 15.4417 10.326 15.4447V14.9764H10.9248V14.8114H10.1535V15.6133C10.2759 15.6044 10.3592 15.5999 10.4034 15.5999C10.5349 15.5999 10.6356 15.6292 10.7058 15.6879C10.7762 15.7466 10.8116 15.8286 10.8116 15.933C10.8116 16.0389 10.7772 16.1233 10.708 16.1875C10.6391 16.2516 10.5485 16.2834 10.4359 16.2834C10.3232 16.2834 10.2127 16.2481 10.1035 16.1775L10.1037 16.3714ZM11.646 14.1588H13.4905V17.0897H11.646V14.1588ZM12.1045 15.6431C12.1045 15.9007 12.1487 16.097 12.2373 16.2332C12.3258 16.3691 12.4489 16.4375 12.607 16.4375C12.7759 16.4375 12.9075 16.3659 13.0014 16.2237C13.0955 16.0808 13.1426 15.8748 13.1426 15.6041C13.1426 15.0581 12.9756 14.7849 12.6423 14.7849C12.4682 14.7849 12.3351 14.8567 12.2428 15.0024C12.1506 15.147 12.1045 15.3608 12.1045 15.6431ZM12.6258 16.2834C12.8458 16.2834 12.9561 16.0632 12.9561 15.6233C12.9561 15.1679 12.8483 14.9397 12.6327 14.9397C12.4053 14.9397 12.2916 15.1711 12.2916 15.6344C12.2913 16.0672 12.4028 16.2834 12.6258 16.2834ZM10.8063 12.6456C10.7622 12.6456 10.7236 12.6616 10.6829 12.67L5.87077 8.41084L10.1514 13.2446C10.1486 13.269 10.1364 13.2909 10.1364 13.315C10.1364 13.6871 10.4358 13.9878 10.8063 13.9878C11.1745 13.9878 11.4737 13.6871 11.4737 13.315C11.4742 12.9464 11.1745 12.6456 10.8063 12.6456Z" fill="#E20001"/>
<path d="M10.1478 4.87456L10.1476 4.03746V2.36272H10.8521V4.87456H10.4997H10.1478ZM1.65794 13.3341L3.41498 13.0234L4.12367 12.8981L4.06197 12.5472L4.00153 12.2027L1.53543 12.6381L1.65794 13.3341ZM17.2382 7.11636L15.9712 7.84959L16.1666 8.19012L16.3232 8.46142L18.4915 7.20563L18.1392 6.59384L17.2382 7.11636ZM6.2973 16.4385L6.01969 16.2049L4.41008 18.1286L4.9499 18.583L5.6503 17.7454L6.55931 16.6587L6.2973 16.4385ZM18.1308 16.2655L18.4826 15.6533L17.7262 15.2151L16.3148 14.3969L16.1203 14.7349L15.963 15.0089L18.1308 16.2655ZM1.5384 10.1881L2.41778 10.3431L4.00384 10.6244L4.10888 10.0261L4.12585 9.92819L1.66012 9.49112L1.5384 10.1881ZM19.3244 9.51004L18.6543 9.62833L16.8586 9.94547L16.949 10.4613L16.9807 10.6413L19.4468 10.2058L19.3244 9.51004ZM7.93642 5.38682L8.50797 5.17817L8.5978 5.14537L7.74206 2.78465L7.08018 3.02674L7.2022 3.36327L7.93642 5.38682ZM2.84242 16.2496L5.01047 14.994L4.73932 14.5225L4.65842 14.3818L2.49 15.6374L2.84242 16.2496ZM14.4096 16.6701L16.019 18.5949L16.5581 18.1406L14.9492 16.2157L14.5748 16.5309L14.4096 16.6701ZM2.49918 7.19028L4.66748 8.44658L4.97245 7.9162L5.01939 7.83479L2.85109 6.57849L2.49918 7.19028ZM19.4434 12.656L16.9778 12.2196L16.9515 12.3688L16.8554 12.9156L19.3212 13.352L19.4434 12.656ZM4.96306 4.24919L4.4237 4.70341L5.01508 5.41028L6.03323 6.62756L6.35183 6.35911L6.5723 6.17358L4.96306 4.24919ZM13.046 3.37256L12.4004 5.15117L12.8418 5.31222L13.0624 5.39262L13.9191 3.0325L13.2571 2.79104L13.046 3.37256ZM14.8258 6.52429L14.9626 6.63913L16.5722 4.7146L16.0326 4.26088L14.423 6.18477L14.8258 6.52429ZM10.5 1.13623C4.71048 1.13623 0 5.86157 0 11.6703C0 15.0163 1.56481 18.0004 3.99705 19.9316H5.06001C2.39066 18.1565 0.626167 15.1167 0.626167 11.6703C0.626167 6.20811 5.05544 1.76455 10.4999 1.76455C15.9446 1.76455 20.3739 6.20811 20.3739 11.6703C20.3739 15.1167 18.6094 18.1565 15.9399 19.9316H17.003C19.4349 18.0004 20.9999 15.0163 20.9999 11.6703C21 5.86178 16.2895 1.13623 10.5 1.13623ZM8.45034 16.2834C8.6706 16.2834 8.78046 16.0632 8.78046 15.6233C8.78046 15.1679 8.67282 14.9397 8.45717 14.9397C8.22987 14.9397 8.11603 15.1711 8.11603 15.6344C8.11603 16.0672 8.22764 16.2834 8.45034 16.2834ZM7.50914 14.1588H9.37658V17.0897H7.50914V14.1588ZM7.92934 15.6431C7.92934 15.9007 7.97343 16.097 8.062 16.2332C8.15044 16.3691 8.27358 16.4375 8.43165 16.4375C8.6006 16.4375 8.73192 16.3659 8.82606 16.2237C8.92021 16.0808 8.9674 15.8748 8.9674 15.6041C8.9674 15.0581 8.80066 14.7849 8.46731 14.7849C8.29303 14.7849 8.16008 14.8567 8.06782 15.0024C7.9754 15.147 7.92934 15.3608 7.92934 15.6431ZM9.62199 14.1588H11.4559V17.0897H9.62199V14.1588ZM10.1037 16.3714C10.1766 16.4151 10.2864 16.4375 10.4338 16.4375C10.6085 16.4375 10.7464 16.3903 10.8465 16.2958C10.9466 16.2014 10.9971 16.0766 10.9971 15.922C10.9971 15.7728 10.9506 15.655 10.8574 15.569C10.7638 15.4835 10.632 15.4402 10.4615 15.4402C10.4199 15.4402 10.3749 15.4417 10.326 15.4447V14.9764H10.9248V14.8114H10.1535V15.6133C10.2759 15.6044 10.3592 15.5999 10.4034 15.5999C10.5349 15.5999 10.6356 15.6292 10.7058 15.6879C10.7762 15.7466 10.8116 15.8286 10.8116 15.933C10.8116 16.0389 10.7772 16.1233 10.708 16.1875C10.6391 16.2516 10.5485 16.2834 10.4359 16.2834C10.3232 16.2834 10.2127 16.2481 10.1035 16.1775L10.1037 16.3714ZM11.646 14.1588H13.4905V17.0897H11.646V14.1588ZM12.1045 15.6431C12.1045 15.9007 12.1487 16.097 12.2373 16.2332C12.3258 16.3691 12.4489 16.4375 12.607 16.4375C12.7759 16.4375 12.9075 16.3659 13.0014 16.2237C13.0955 16.0808 13.1426 15.8748 13.1426 15.6041C13.1426 15.0581 12.9756 14.7849 12.6423 14.7849C12.4682 14.7849 12.3351 14.8567 12.2428 15.0024C12.1506 15.147 12.1045 15.3608 12.1045 15.6431ZM12.6258 16.2834C12.8458 16.2834 12.9561 16.0632 12.9561 15.6233C12.9561 15.1679 12.8483 14.9397 12.6327 14.9397C12.4053 14.9397 12.2916 15.1711 12.2916 15.6344C12.2913 16.0672 12.4028 16.2834 12.6258 16.2834ZM10.8063 12.6456C10.7622 12.6456 10.7236 12.6616 10.6829 12.67L5.87077 8.41084L10.1514 13.2446C10.1486 13.269 10.1364 13.2909 10.1364 13.315C10.1364 13.6871 10.4358 13.9878 10.8063 13.9878C11.1745 13.9878 11.4737 13.6871 11.4737 13.315C11.4742 12.9464 11.1745 12.6456 10.8063 12.6456Z" stroke="#E20001" stroke-width="0.6" mask="url(#path-1-outside-1)"/>
</svg>
