<svg width="48" height="27" viewBox="0 0 48 27" fill="none" xmlns="http://www.w3.org/2000/svg">
<path d="M46.3619 22.2389H44.1524C43.7465 24.7924 41.5448 26.6715 38.9595 26.6715C36.3741 26.6715 34.1723 24.7924 33.7664 22.2389H15.0164C14.6108 24.7924 12.4087 26.6715 9.82377 26.6715C7.2383 26.6715 5.03677 24.7924 4.63064 22.2389H1.76099C0.824512 22.2389 0.0653267 21.4799 0.0653267 20.5432V9.52966C0.0653267 9.52966 0.0653267 9.52966 0.0653267 9.47277C0.0653267 9.41562 0.0653267 9.47277 0.0653267 9.41562C0.114307 9.05669 1.3939 0.578613 6.45667 0.578613H28.6878C28.7942 0.579889 28.8993 0.602083 28.9978 0.64392C33.1338 2.49928 36.8024 5.25694 39.734 8.7146H41.9598C44.7721 8.7146 48.0654 10.0842 48.0654 13.9317V20.5432C48.0654 20.9945 47.8861 21.4269 47.5657 21.7452C47.246 22.0634 46.8126 22.2412 46.3619 22.2389ZM38.919 25.0595C40.9266 25.0595 42.5547 23.432 42.5547 21.4238C42.5547 19.4159 40.9266 17.7876 38.919 17.7876C36.9108 17.7876 35.283 19.4159 35.283 21.4238C35.283 23.432 36.9108 25.0595 38.919 25.0595ZM14.9998 20.6085H23.2585V10.345H10.6631V16.2228C12.9192 16.5807 14.6873 18.3519 15.0411 20.6085H14.9998ZM23.2585 8.07047V2.20923H10.6631V8.73067H23.2585V8.07047ZM9.848 25.0595C11.8562 25.0595 13.4837 23.432 13.4837 21.4238C13.4837 19.4159 11.8562 17.7876 9.848 17.7876C7.83983 17.7876 6.21228 19.4159 6.21228 21.4238C6.21228 23.432 7.83983 25.0595 9.848 25.0595ZM1.69569 20.5432C1.69569 20.5792 1.72477 20.6085 1.76099 20.6085H4.67937C5.03039 18.3595 6.78626 16.5901 9.03269 16.2228V10.345H1.69569V20.5432ZM6.50539 2.20923C3.84799 2.20923 2.42936 6.28526 1.89161 8.73067H9.03269V2.20923H6.50539ZM28.5164 2.20923H24.8888V8.73067H37.5981C35.0095 6.00337 31.9284 3.7901 28.5164 2.20923ZM46.4514 13.9317C46.4514 10.6707 43.321 10.345 41.9759 10.345H24.8888V20.6085H33.7664C34.1613 18.0432 36.3687 16.1498 38.9636 16.1498C41.5588 16.1498 43.7659 18.0432 44.1603 20.6085H46.3619C46.3976 20.6085 46.4272 20.5792 46.4272 20.5432L46.4514 13.9317Z" fill="#8D8EA6"/>
</svg>
