<svg width="20" height="20" viewBox="0 0 20 20" fill="none" xmlns="http://www.w3.org/2000/svg">
<path d="M19.8999 17.7533L19.6732 17.5533C19.0302 16.9804 18.4673 16.3234 17.9999 15.6C17.4894 14.6017 17.1834 13.5115 17.0999 12.3933V9.1C17.1043 7.34374 16.4672 5.64632 15.3084 4.32665C14.1495 3.00698 12.5486 2.15591 10.8065 1.93333V1.07333C10.8065 0.837291 10.7128 0.610916 10.5459 0.444008C10.379 0.277101 10.1526 0.183333 9.91654 0.183333C9.68049 0.183333 9.45412 0.277101 9.28721 0.444008C9.1203 0.610916 9.02654 0.837291 9.02654 1.07333V1.94667C7.30004 2.18529 5.71852 3.0415 4.57489 4.35674C3.43126 5.67197 2.80302 7.3571 2.80654 9.1V12.3933C2.72304 13.5115 2.41705 14.6017 1.90654 15.6C1.44712 16.3216 0.893333 16.9785 0.25987 17.5533L0.0332031 17.7533V19.6333H19.8999V17.7533Z" fill="url(#paint0_linear)"/>
<defs>
<linearGradient id="paint0_linear" x1="0.0329391" y1="9.90907" x2="19.8993" y2="9.90907" gradientUnits="userSpaceOnUse">
<stop stop-color="#F90001"/>
<stop offset="1" stop-color="#A30000"/>
</linearGradient>
</defs>
</svg>
