<svg width="14" height="16" viewBox="0 0 14 16" fill="none" xmlns="http://www.w3.org/2000/svg">
<path d="M9.39062 9.39844C10.099 9.64323 10.737 9.98698 11.3047 10.4297C11.8776 10.8672 12.362 11.375 12.7578 11.9531C13.1589 12.5312 13.4661 13.1641 13.6797 13.8516C13.8932 14.5391 14 15.2552 14 16H13C13 15.1458 12.8464 14.3542 12.5391 13.625C12.237 12.8906 11.8177 12.2552 11.2812 11.7188C10.7448 11.1823 10.1094 10.763 9.375 10.4609C8.64583 10.1536 7.85417 10 7 10C6.44271 10 5.90625 10.0703 5.39062 10.2109C4.875 10.3516 4.39323 10.5521 3.94531 10.8125C3.5026 11.0677 3.09896 11.3776 2.73438 11.7422C2.375 12.1016 2.0651 12.5052 1.80469 12.9531C1.54948 13.3958 1.35156 13.875 1.21094 14.3906C1.07031 14.9062 1 15.4427 1 16H0C0 15.25 0.109375 14.5339 0.328125 13.8516C0.546875 13.1641 0.856771 12.5339 1.25781 11.9609C1.65885 11.388 2.14323 10.8828 2.71094 10.4453C3.28385 10.0078 3.92188 9.66146 4.625 9.40625C4.21875 9.1875 3.85417 8.92188 3.53125 8.60938C3.20833 8.29688 2.93229 7.95052 2.70312 7.57031C2.47917 7.1849 2.30469 6.77604 2.17969 6.34375C2.0599 5.90625 2 5.45833 2 5C2 4.30729 2.13021 3.65885 2.39062 3.05469C2.65104 2.44531 3.00781 1.91406 3.46094 1.46094C3.91406 1.00781 4.44271 0.651042 5.04688 0.390625C5.65625 0.130208 6.30729 0 7 0C7.69271 0 8.34115 0.130208 8.94531 0.390625C9.55469 0.651042 10.0859 1.00781 10.5391 1.46094C10.9922 1.91406 11.349 2.44531 11.6094 3.05469C11.8698 3.65885 12 4.30729 12 5C12 5.45833 11.9375 5.90365 11.8125 6.33594C11.6927 6.76823 11.5182 7.17448 11.2891 7.55469C11.0651 7.9349 10.7917 8.28385 10.4688 8.60156C10.151 8.91406 9.79167 9.17969 9.39062 9.39844ZM3 5C3 5.55208 3.10417 6.07031 3.3125 6.55469C3.52604 7.03906 3.8125 7.46354 4.17188 7.82812C4.53646 8.1875 4.96094 8.47396 5.44531 8.6875C5.92969 8.89583 6.44792 9 7 9C7.55208 9 8.07031 8.89583 8.55469 8.6875C9.03906 8.47396 9.46094 8.1875 9.82031 7.82812C10.1849 7.46354 10.4714 7.03906 10.6797 6.55469C10.8932 6.07031 11 5.55208 11 5C11 4.44792 10.8932 3.92969 10.6797 3.44531C10.4714 2.96094 10.1849 2.53906 9.82031 2.17969C9.46094 1.8151 9.03906 1.52865 8.55469 1.32031C8.07031 1.10677 7.55208 1 7 1C6.44792 1 5.92969 1.10677 5.44531 1.32031C4.96094 1.52865 4.53646 1.8151 4.17188 2.17969C3.8125 2.53906 3.52604 2.96094 3.3125 3.44531C3.10417 3.92969 3 4.44792 3 5Z" fill="black"/>
</svg>
