<svg width="19" height="20" viewBox="0 0 19 20" fill="none" xmlns="http://www.w3.org/2000/svg">
<mask id="path-1-outside-1_6_158" maskUnits="userSpaceOnUse" x="1.01807" y="0.205078" width="17" height="19" fill="black">
<rect fill="white" x="1.01807" y="0.205078" width="17" height="19"/>
<path d="M16.9812 8.08412C16.9812 8.08268 16.9812 8.08125 16.9812 8.07981V5.95508C16.9812 5.91582 16.9723 5.87707 16.9552 5.84174C16.938 5.80642 16.9131 5.77543 16.8823 5.75112L15.0016 4.26675C14.9558 4.2306 14.8991 4.21094 14.8407 4.21094H13.5344V2.35547C13.5341 2.05047 13.4128 1.75807 13.1971 1.54241C12.9814 1.32675 12.689 1.20543 12.384 1.20508H3.98917C3.68417 1.20543 3.39177 1.32675 3.17611 1.54241C2.96045 1.75807 2.83913 2.05047 2.83878 2.35547V7.19349V7.20834V17.3848H2.27783C2.20894 17.3848 2.14287 17.4121 2.09415 17.4608C2.04543 17.5096 2.01807 17.5756 2.01807 17.6445V18.5352C2.01807 18.604 2.04543 18.6701 2.09415 18.7188C2.14287 18.7676 2.20894 18.7949 2.27783 18.7949H14.0958C14.1299 18.7949 14.1637 18.7882 14.1953 18.7752C14.2268 18.7621 14.2554 18.743 14.2796 18.7189C14.3037 18.6948 14.3228 18.6661 14.3359 18.6346C14.3489 18.6031 14.3556 18.5693 14.3556 18.5352V17.6445C14.3556 17.6104 14.3489 17.5766 14.3359 17.5451C14.3228 17.5136 14.3037 17.4849 14.2796 17.4608C14.2554 17.4367 14.2268 17.4175 14.1953 17.4045C14.1637 17.3915 14.1299 17.3847 14.0958 17.3848H13.5344V12.5027H13.8595C13.8863 12.5027 13.9119 12.5133 13.9308 12.5323C13.9498 12.5512 13.9604 12.5768 13.9605 12.6036V14.9177C13.9605 15.3183 14.1196 15.7025 14.4028 15.9857C14.6861 16.269 15.0702 16.4281 15.4708 16.4281C15.8714 16.4281 16.2555 16.269 16.5388 15.9857C16.822 15.7025 16.9812 15.3183 16.9812 14.9177V8.97905C16.9812 8.97761 16.9812 8.97618 16.9812 8.97474V8.08412ZM16.4616 8.4086V8.65976V8.66406V8.71498H16.0905V8.34388H16.4616V8.4043V8.4086ZM16.4616 6.0811V7.82435H16.0905V6.38703C16.0888 6.34702 16.0787 6.30783 16.0608 6.27201C16.0429 6.2362 16.0176 6.20457 15.9866 6.17922C15.9402 6.14086 15.8819 6.11987 15.8217 6.11984H14.5483V5.37573C14.5483 5.37083 14.5498 5.36623 14.5498 5.36088V4.73047H14.7506L16.4616 6.0811ZM13.8595 11.0925H13.5344V7.2021C13.5344 7.19913 13.5344 7.19631 13.5344 7.19349V5.62109H14.0287V6.37961C14.0287 6.41373 14.0354 6.44752 14.0485 6.47904C14.0615 6.51057 14.0807 6.53921 14.1048 6.56333C14.1289 6.58746 14.1575 6.60659 14.1891 6.61964C14.2206 6.63269 14.2544 6.63939 14.2885 6.63938H14.5052V7.03125C14.5055 7.21818 14.5798 7.39738 14.712 7.52955C14.8442 7.66173 15.0234 7.73609 15.2103 7.73633H15.571V8.4043V8.4086V8.65976V8.66406V14.9177C15.571 14.9443 15.5604 14.9698 15.5417 14.9886C15.5229 15.0074 15.4974 15.0179 15.4708 15.0179C15.4442 15.0179 15.4187 15.0074 15.4 14.9886C15.3812 14.9698 15.3706 14.9443 15.3706 14.9177V12.6036C15.3701 12.203 15.2108 11.8189 14.9275 11.5356C14.6442 11.2523 14.2601 11.093 13.8595 11.0925ZM15.571 6.63938V7.2168H15.2103C15.1611 7.21676 15.1139 7.1972 15.0791 7.16241C15.0444 7.12762 15.0248 7.08045 15.0248 7.03125V6.63938H15.571ZM14.0302 4.73047V5.10156H13.5349V4.73047H14.0302ZM3.98917 1.72461H12.3845C12.5517 1.72481 12.7121 1.79133 12.8304 1.9096C12.9486 2.02787 13.0152 2.18821 13.0154 2.35547V7.1978C13.0141 7.36425 12.9472 7.52347 12.8291 7.64082C12.711 7.75816 12.5514 7.82412 12.3849 7.82435H3.98917C3.82328 7.82409 3.66417 7.75853 3.54625 7.64186C3.42833 7.52519 3.36108 7.36679 3.35905 7.20091V4.52117C3.35905 4.51865 3.35905 4.51642 3.35905 4.51405V2.35547C3.35925 2.18834 3.42567 2.02811 3.54378 1.90986C3.66189 1.79162 3.82204 1.725 3.98917 1.72461ZM13.8361 18.2754H2.53819V17.9043H13.8361V18.2754ZM3.35905 17.3848V8.15477C3.54602 8.2782 3.76513 8.34396 3.98917 8.34388H12.3845C12.6086 8.34392 12.8278 8.27811 13.0149 8.15462V17.3848H3.35905ZM15.4715 15.9093C15.2087 15.909 14.9566 15.8044 14.7708 15.6185C14.5849 15.4326 14.4803 15.1806 14.48 14.9177V12.6036C14.4798 12.4391 14.4144 12.2814 14.298 12.1651C14.1817 12.0488 14.024 11.9833 13.8595 11.9831H13.5344V11.612H13.8595C14.1224 11.6123 14.3745 11.7169 14.5604 11.9028C14.7462 12.0887 14.8508 12.3407 14.8511 12.6036V14.9177C14.8511 14.9991 14.8671 15.0797 14.8983 15.1549C14.9294 15.2301 14.975 15.2984 15.0326 15.3559C15.0901 15.4135 15.1585 15.4591 15.2336 15.4903C15.3088 15.5214 15.3894 15.5375 15.4708 15.5375C15.5522 15.5375 15.6328 15.5214 15.708 15.4903C15.7832 15.4591 15.8515 15.4135 15.909 15.3559C15.9666 15.2984 16.0122 15.2301 16.0434 15.1549C16.0745 15.0797 16.0905 14.9991 16.0905 14.9177V9.23451H16.4616V14.9177C16.4615 15.1804 16.3572 15.4323 16.1716 15.6182C15.986 15.8041 15.7342 15.9088 15.4715 15.9093Z"/>
</mask>
<path d="M16.9812 8.08412C16.9812 8.08268 16.9812 8.08125 16.9812 8.07981V5.95508C16.9812 5.91582 16.9723 5.87707 16.9552 5.84174C16.938 5.80642 16.9131 5.77543 16.8823 5.75112L15.0016 4.26675C14.9558 4.2306 14.8991 4.21094 14.8407 4.21094H13.5344V2.35547C13.5341 2.05047 13.4128 1.75807 13.1971 1.54241C12.9814 1.32675 12.689 1.20543 12.384 1.20508H3.98917C3.68417 1.20543 3.39177 1.32675 3.17611 1.54241C2.96045 1.75807 2.83913 2.05047 2.83878 2.35547V7.19349V7.20834V17.3848H2.27783C2.20894 17.3848 2.14287 17.4121 2.09415 17.4608C2.04543 17.5096 2.01807 17.5756 2.01807 17.6445V18.5352C2.01807 18.604 2.04543 18.6701 2.09415 18.7188C2.14287 18.7676 2.20894 18.7949 2.27783 18.7949H14.0958C14.1299 18.7949 14.1637 18.7882 14.1953 18.7752C14.2268 18.7621 14.2554 18.743 14.2796 18.7189C14.3037 18.6948 14.3228 18.6661 14.3359 18.6346C14.3489 18.6031 14.3556 18.5693 14.3556 18.5352V17.6445C14.3556 17.6104 14.3489 17.5766 14.3359 17.5451C14.3228 17.5136 14.3037 17.4849 14.2796 17.4608C14.2554 17.4367 14.2268 17.4175 14.1953 17.4045C14.1637 17.3915 14.1299 17.3847 14.0958 17.3848H13.5344V12.5027H13.8595C13.8863 12.5027 13.9119 12.5133 13.9308 12.5323C13.9498 12.5512 13.9604 12.5768 13.9605 12.6036V14.9177C13.9605 15.3183 14.1196 15.7025 14.4028 15.9857C14.6861 16.269 15.0702 16.4281 15.4708 16.4281C15.8714 16.4281 16.2555 16.269 16.5388 15.9857C16.822 15.7025 16.9812 15.3183 16.9812 14.9177V8.97905C16.9812 8.97761 16.9812 8.97618 16.9812 8.97474V8.08412ZM16.4616 8.4086V8.65976V8.66406V8.71498H16.0905V8.34388H16.4616V8.4043V8.4086ZM16.4616 6.0811V7.82435H16.0905V6.38703C16.0888 6.34702 16.0787 6.30783 16.0608 6.27201C16.0429 6.2362 16.0176 6.20457 15.9866 6.17922C15.9402 6.14086 15.8819 6.11987 15.8217 6.11984H14.5483V5.37573C14.5483 5.37083 14.5498 5.36623 14.5498 5.36088V4.73047H14.7506L16.4616 6.0811ZM13.8595 11.0925H13.5344V7.2021C13.5344 7.19913 13.5344 7.19631 13.5344 7.19349V5.62109H14.0287V6.37961C14.0287 6.41373 14.0354 6.44752 14.0485 6.47904C14.0615 6.51057 14.0807 6.53921 14.1048 6.56333C14.1289 6.58746 14.1575 6.60659 14.1891 6.61964C14.2206 6.63269 14.2544 6.63939 14.2885 6.63938H14.5052V7.03125C14.5055 7.21818 14.5798 7.39738 14.712 7.52955C14.8442 7.66173 15.0234 7.73609 15.2103 7.73633H15.571V8.4043V8.4086V8.65976V8.66406V14.9177C15.571 14.9443 15.5604 14.9698 15.5417 14.9886C15.5229 15.0074 15.4974 15.0179 15.4708 15.0179C15.4442 15.0179 15.4187 15.0074 15.4 14.9886C15.3812 14.9698 15.3706 14.9443 15.3706 14.9177V12.6036C15.3701 12.203 15.2108 11.8189 14.9275 11.5356C14.6442 11.2523 14.2601 11.093 13.8595 11.0925ZM15.571 6.63938V7.2168H15.2103C15.1611 7.21676 15.1139 7.1972 15.0791 7.16241C15.0444 7.12762 15.0248 7.08045 15.0248 7.03125V6.63938H15.571ZM14.0302 4.73047V5.10156H13.5349V4.73047H14.0302ZM3.98917 1.72461H12.3845C12.5517 1.72481 12.7121 1.79133 12.8304 1.9096C12.9486 2.02787 13.0152 2.18821 13.0154 2.35547V7.1978C13.0141 7.36425 12.9472 7.52347 12.8291 7.64082C12.711 7.75816 12.5514 7.82412 12.3849 7.82435H3.98917C3.82328 7.82409 3.66417 7.75853 3.54625 7.64186C3.42833 7.52519 3.36108 7.36679 3.35905 7.20091V4.52117C3.35905 4.51865 3.35905 4.51642 3.35905 4.51405V2.35547C3.35925 2.18834 3.42567 2.02811 3.54378 1.90986C3.66189 1.79162 3.82204 1.725 3.98917 1.72461ZM13.8361 18.2754H2.53819V17.9043H13.8361V18.2754ZM3.35905 17.3848V8.15477C3.54602 8.2782 3.76513 8.34396 3.98917 8.34388H12.3845C12.6086 8.34392 12.8278 8.27811 13.0149 8.15462V17.3848H3.35905ZM15.4715 15.9093C15.2087 15.909 14.9566 15.8044 14.7708 15.6185C14.5849 15.4326 14.4803 15.1806 14.48 14.9177V12.6036C14.4798 12.4391 14.4144 12.2814 14.298 12.1651C14.1817 12.0488 14.024 11.9833 13.8595 11.9831H13.5344V11.612H13.8595C14.1224 11.6123 14.3745 11.7169 14.5604 11.9028C14.7462 12.0887 14.8508 12.3407 14.8511 12.6036V14.9177C14.8511 14.9991 14.8671 15.0797 14.8983 15.1549C14.9294 15.2301 14.975 15.2984 15.0326 15.3559C15.0901 15.4135 15.1585 15.4591 15.2336 15.4903C15.3088 15.5214 15.3894 15.5375 15.4708 15.5375C15.5522 15.5375 15.6328 15.5214 15.708 15.4903C15.7832 15.4591 15.8515 15.4135 15.909 15.3559C15.9666 15.2984 16.0122 15.2301 16.0434 15.1549C16.0745 15.0797 16.0905 14.9991 16.0905 14.9177V9.23451H16.4616V14.9177C16.4615 15.1804 16.3572 15.4323 16.1716 15.6182C15.986 15.8041 15.7342 15.9088 15.4715 15.9093Z" fill="#E20001"/>
<path d="M16.9812 8.08412C16.9812 8.08268 16.9812 8.08125 16.9812 8.07981V5.95508C16.9812 5.91582 16.9723 5.87707 16.9552 5.84174C16.938 5.80642 16.9131 5.77543 16.8823 5.75112L15.0016 4.26675C14.9558 4.2306 14.8991 4.21094 14.8407 4.21094H13.5344V2.35547C13.5341 2.05047 13.4128 1.75807 13.1971 1.54241C12.9814 1.32675 12.689 1.20543 12.384 1.20508H3.98917C3.68417 1.20543 3.39177 1.32675 3.17611 1.54241C2.96045 1.75807 2.83913 2.05047 2.83878 2.35547V7.19349V7.20834V17.3848H2.27783C2.20894 17.3848 2.14287 17.4121 2.09415 17.4608C2.04543 17.5096 2.01807 17.5756 2.01807 17.6445V18.5352C2.01807 18.604 2.04543 18.6701 2.09415 18.7188C2.14287 18.7676 2.20894 18.7949 2.27783 18.7949H14.0958C14.1299 18.7949 14.1637 18.7882 14.1953 18.7752C14.2268 18.7621 14.2554 18.743 14.2796 18.7189C14.3037 18.6948 14.3228 18.6661 14.3359 18.6346C14.3489 18.6031 14.3556 18.5693 14.3556 18.5352V17.6445C14.3556 17.6104 14.3489 17.5766 14.3359 17.5451C14.3228 17.5136 14.3037 17.4849 14.2796 17.4608C14.2554 17.4367 14.2268 17.4175 14.1953 17.4045C14.1637 17.3915 14.1299 17.3847 14.0958 17.3848H13.5344V12.5027H13.8595C13.8863 12.5027 13.9119 12.5133 13.9308 12.5323C13.9498 12.5512 13.9604 12.5768 13.9605 12.6036V14.9177C13.9605 15.3183 14.1196 15.7025 14.4028 15.9857C14.6861 16.269 15.0702 16.4281 15.4708 16.4281C15.8714 16.4281 16.2555 16.269 16.5388 15.9857C16.822 15.7025 16.9812 15.3183 16.9812 14.9177V8.97905C16.9812 8.97761 16.9812 8.97618 16.9812 8.97474V8.08412ZM16.4616 8.4086V8.65976V8.66406V8.71498H16.0905V8.34388H16.4616V8.4043V8.4086ZM16.4616 6.0811V7.82435H16.0905V6.38703C16.0888 6.34702 16.0787 6.30783 16.0608 6.27201C16.0429 6.2362 16.0176 6.20457 15.9866 6.17922C15.9402 6.14086 15.8819 6.11987 15.8217 6.11984H14.5483V5.37573C14.5483 5.37083 14.5498 5.36623 14.5498 5.36088V4.73047H14.7506L16.4616 6.0811ZM13.8595 11.0925H13.5344V7.2021C13.5344 7.19913 13.5344 7.19631 13.5344 7.19349V5.62109H14.0287V6.37961C14.0287 6.41373 14.0354 6.44752 14.0485 6.47904C14.0615 6.51057 14.0807 6.53921 14.1048 6.56333C14.1289 6.58746 14.1575 6.60659 14.1891 6.61964C14.2206 6.63269 14.2544 6.63939 14.2885 6.63938H14.5052V7.03125C14.5055 7.21818 14.5798 7.39738 14.712 7.52955C14.8442 7.66173 15.0234 7.73609 15.2103 7.73633H15.571V8.4043V8.4086V8.65976V8.66406V14.9177C15.571 14.9443 15.5604 14.9698 15.5417 14.9886C15.5229 15.0074 15.4974 15.0179 15.4708 15.0179C15.4442 15.0179 15.4187 15.0074 15.4 14.9886C15.3812 14.9698 15.3706 14.9443 15.3706 14.9177V12.6036C15.3701 12.203 15.2108 11.8189 14.9275 11.5356C14.6442 11.2523 14.2601 11.093 13.8595 11.0925ZM15.571 6.63938V7.2168H15.2103C15.1611 7.21676 15.1139 7.1972 15.0791 7.16241C15.0444 7.12762 15.0248 7.08045 15.0248 7.03125V6.63938H15.571ZM14.0302 4.73047V5.10156H13.5349V4.73047H14.0302ZM3.98917 1.72461H12.3845C12.5517 1.72481 12.7121 1.79133 12.8304 1.9096C12.9486 2.02787 13.0152 2.18821 13.0154 2.35547V7.1978C13.0141 7.36425 12.9472 7.52347 12.8291 7.64082C12.711 7.75816 12.5514 7.82412 12.3849 7.82435H3.98917C3.82328 7.82409 3.66417 7.75853 3.54625 7.64186C3.42833 7.52519 3.36108 7.36679 3.35905 7.20091V4.52117C3.35905 4.51865 3.35905 4.51642 3.35905 4.51405V2.35547C3.35925 2.18834 3.42567 2.02811 3.54378 1.90986C3.66189 1.79162 3.82204 1.725 3.98917 1.72461ZM13.8361 18.2754H2.53819V17.9043H13.8361V18.2754ZM3.35905 17.3848V8.15477C3.54602 8.2782 3.76513 8.34396 3.98917 8.34388H12.3845C12.6086 8.34392 12.8278 8.27811 13.0149 8.15462V17.3848H3.35905ZM15.4715 15.9093C15.2087 15.909 14.9566 15.8044 14.7708 15.6185C14.5849 15.4326 14.4803 15.1806 14.48 14.9177V12.6036C14.4798 12.4391 14.4144 12.2814 14.298 12.1651C14.1817 12.0488 14.024 11.9833 13.8595 11.9831H13.5344V11.612H13.8595C14.1224 11.6123 14.3745 11.7169 14.5604 11.9028C14.7462 12.0887 14.8508 12.3407 14.8511 12.6036V14.9177C14.8511 14.9991 14.8671 15.0797 14.8983 15.1549C14.9294 15.2301 14.975 15.2984 15.0326 15.3559C15.0901 15.4135 15.1585 15.4591 15.2336 15.4903C15.3088 15.5214 15.3894 15.5375 15.4708 15.5375C15.5522 15.5375 15.6328 15.5214 15.708 15.4903C15.7832 15.4591 15.8515 15.4135 15.909 15.3559C15.9666 15.2984 16.0122 15.2301 16.0434 15.1549C16.0745 15.0797 16.0905 14.9991 16.0905 14.9177V9.23451H16.4616V14.9177C16.4615 15.1804 16.3572 15.4323 16.1716 15.6182C15.986 15.8041 15.7342 15.9088 15.4715 15.9093Z" stroke="#E20001" stroke-width="0.4" mask="url(#path-1-outside-1_6_158)"/>
<path d="M3.77022 12.0012C3.82831 11.9431 3.90708 11.9105 3.98923 11.9104L3.77022 12.0012ZM3.77022 12.0012C3.71213 12.0593 3.67949 12.1381 3.67949 12.2202M3.77022 12.0012L3.67949 12.2202M3.67949 12.2202V13.2593M3.67949 12.2202V13.2593M3.67949 13.2593C3.67949 13.3414 3.71213 13.4202 3.77022 13.4783M3.67949 13.2593L3.77022 13.4783M3.77022 13.4783C3.82831 13.5364 3.9071 13.569 3.98926 13.569M3.77022 13.4783L3.98926 13.569M3.98926 13.569C4.07141 13.569 4.1502 13.5364 4.2083 13.4783M3.98926 13.569L4.2083 13.4783M4.2083 13.4783C4.26639 13.4202 4.29902 13.3414 4.29902 13.2593M4.2083 13.4783L4.29902 13.2593M4.29902 13.2593V12.2202M4.29902 13.2593V12.2202M4.29902 12.2202C4.29905 12.1796 4.29105 12.1393 4.27549 12.1017C4.25993 12.0641 4.23711 12.0299 4.20834 12.0011C4.17957 11.9724 4.14541 11.9495 4.10781 11.934C4.07022 11.9184 4.02994 11.9104 3.98926 11.9104L4.29902 12.2202Z" fill="#E20001" stroke="#E20001" stroke-width="0.1"/>
<path d="M4.87988 6.61263H11.494C11.5761 6.61263 11.6549 6.58 11.713 6.5219C11.7711 6.46381 11.8037 6.38502 11.8037 6.30287V3.24609C11.8037 3.16394 11.7711 3.08515 11.713 3.02706C11.6549 2.96896 11.5761 2.93633 11.494 2.93633H4.87988C4.79773 2.93633 4.71894 2.96896 4.66085 3.02706C4.60275 3.08515 4.57012 3.16394 4.57012 3.24609V6.30287C4.57012 6.38502 4.60275 6.46381 4.66085 6.5219C4.71894 6.58 4.79773 6.61263 4.87988 6.61263ZM5.18965 3.55586H11.1842V5.9931H5.18965V3.55586Z" fill="#E20001" stroke="#E20001" stroke-width="0.1"/>
<path d="M8.18698 10.8546H8.18692C7.71746 10.8546 7.25854 10.9938 6.8682 11.2546C6.47786 11.5155 6.17362 11.8862 5.99396 12.3199C5.81431 12.7536 5.7673 13.2309 5.85889 13.6913C5.95048 14.1518 6.17655 14.5747 6.5085 14.9067C6.84046 15.2386 7.26341 15.4647 7.72385 15.5563C8.18429 15.6479 8.66155 15.6009 9.09527 15.4212C9.529 15.2415 9.89971 14.9373 10.1605 14.547C10.4213 14.1566 10.5606 13.6977 10.5606 13.2282V13.2282C10.5599 12.5989 10.3096 11.9955 9.8646 11.5506C9.41961 11.1056 8.81628 10.8553 8.18698 10.8546ZM8.1659 14.9821C7.8263 14.978 7.49501 14.8754 7.21238 14.6866C6.92391 14.4938 6.69908 14.2199 6.56632 13.8993C6.43356 13.5788 6.39883 13.2261 6.46653 12.8858C6.53422 12.5456 6.7013 12.233 6.94663 11.9877C7.19196 11.7424 7.50453 11.5753 7.8448 11.5077C8.18507 11.44 8.53777 11.4748 8.85829 11.6075C9.17881 11.7403 9.45275 11.9652 9.64548 12.2537C9.8382 12.5421 9.94105 12.8813 9.94103 13.2282C9.94046 13.6932 9.75545 14.139 9.4266 14.4678C9.09774 14.7966 8.6519 14.9816 8.18687 14.9821L8.1659 14.9821Z" fill="#E20001" stroke="#E20001" stroke-width="0.1"/>
<path d="M7.55615 13.5822H7.60615C7.60615 13.4104 7.69152 13.1974 7.815 12.9829C7.9258 12.7905 8.06387 12.6027 8.18697 12.4518C8.31005 12.6029 8.44814 12.7907 8.55898 12.9831C8.68247 13.1975 8.76785 13.4104 8.76787 13.5822C8.76769 13.7362 8.70641 13.8839 8.59748 13.9928C8.48858 14.1017 8.34094 14.1629 8.18696 14.1631C8.03298 14.1629 7.88538 14.1016 7.7765 13.9927C7.66759 13.8838 7.60633 13.7362 7.60615 13.5822L7.55615 13.5822ZM7.55615 13.5822C7.55635 13.7495 7.62288 13.9098 7.74114 14.0281C7.85937 14.1463 8.01965 14.2128 8.18684 14.2131L8.15457 12.4124C7.89198 12.733 7.55615 13.226 7.55615 13.5822ZM7.96593 11.7666L7.96592 11.7665L7.9649 11.7676C7.91456 11.8193 7.6713 12.075 7.4403 12.4149C7.21068 12.7528 6.98662 13.1831 6.98662 13.5822C6.98662 13.9006 7.11309 14.2059 7.33821 14.431C7.56332 14.6562 7.86865 14.7826 8.18701 14.7826C8.50538 14.7826 8.8107 14.6562 9.03582 14.431C9.26093 14.2059 9.3874 13.9006 9.3874 13.5822C9.3874 13.1831 9.16331 12.7528 8.93357 12.4149C8.70246 12.075 8.45902 11.8193 8.40828 11.7675L8.40829 11.7675L8.40735 11.7666C8.34818 11.7092 8.26903 11.6772 8.18664 11.6772C8.10425 11.6772 8.0251 11.7092 7.96593 11.7666Z" fill="#E20001" stroke="#E20001" stroke-width="0.1"/>
</svg>
