<svg width="20" height="20" viewBox="0 0 20 20" fill="none" xmlns="http://www.w3.org/2000/svg">
<g clip-path="url(#clip0_17:283)">
<mask id="path-1-outside-1_17:283" maskUnits="userSpaceOnUse" x="1.26611" y="-0.139648" width="17" height="19" fill="black">
<rect fill="white" x="1.26611" y="-0.139648" width="17" height="19"/>
<path d="M17.2292 7.73939C17.2293 7.73796 17.2293 7.73652 17.2292 7.73509V5.61035C17.2292 5.57109 17.2203 5.53234 17.2032 5.49702C17.1861 5.46169 17.1612 5.43071 17.1303 5.4064L15.2496 3.92202C15.2038 3.88588 15.1471 3.86622 15.0887 3.86621H13.7825V2.01074C13.7821 1.70575 13.6608 1.41335 13.4452 1.19768C13.2295 0.98202 12.9371 0.860705 12.6321 0.860352H4.23721C3.93222 0.860705 3.63982 0.98202 3.42416 1.19768C3.20849 1.41335 3.08718 1.70575 3.08682 2.01074V6.84877V6.86361V17.04H2.52588C2.45698 17.04 2.39091 17.0674 2.3422 17.1161C2.29348 17.1648 2.26611 17.2309 2.26611 17.2998V18.1904C2.26611 18.2593 2.29348 18.3254 2.3422 18.3741C2.39091 18.4228 2.45698 18.4502 2.52588 18.4502H14.3439C14.378 18.4502 14.4118 18.4435 14.4433 18.4305C14.4748 18.4174 14.5035 18.3983 14.5276 18.3742C14.5517 18.35 14.5709 18.3214 14.5839 18.2899C14.597 18.2583 14.6037 18.2245 14.6036 18.1904V17.2998C14.6037 17.2657 14.597 17.2319 14.5839 17.2004C14.5709 17.1688 14.5517 17.1402 14.5276 17.1161C14.5035 17.092 14.4748 17.0728 14.4433 17.0598C14.4118 17.0467 14.378 17.04 14.3439 17.04H13.7825V12.1579H14.1076C14.1343 12.158 14.16 12.1686 14.1789 12.1875C14.1978 12.2065 14.2085 12.2321 14.2085 12.2589V14.573C14.2085 14.9736 14.3676 15.3577 14.6509 15.641C14.9341 15.9242 15.3183 16.0834 15.7189 16.0834C16.1194 16.0834 16.5036 15.9242 16.7868 15.641C17.0701 15.3577 17.2292 14.9736 17.2292 14.573V8.63432C17.2293 8.63289 17.2293 8.63145 17.2292 8.63002V7.73939ZM16.7097 8.06387V8.31503V8.31934V8.37025H16.3386V7.99916H16.7097V8.05957V8.06387ZM16.7097 5.73637V7.47962H16.3386V6.0423C16.3369 6.0023 16.3268 5.9631 16.3089 5.92729C16.2909 5.89147 16.2657 5.85985 16.2347 5.83449C16.1883 5.79614 16.13 5.77514 16.0698 5.77512H14.7963V5.031C14.7963 5.0261 14.7978 5.0215 14.7978 5.01616V4.38574H14.9986L16.7097 5.73637ZM14.1076 10.7478H13.7825V6.85738C13.7825 6.85441 13.7825 6.85159 13.7825 6.84877V5.27637H14.2768V6.03488C14.2768 6.069 14.2835 6.10279 14.2965 6.13431C14.3096 6.16584 14.3287 6.19448 14.3528 6.21861C14.3769 6.24273 14.4056 6.26187 14.4371 6.27491C14.4686 6.28796 14.5024 6.29467 14.5365 6.29465H14.7533V6.68652C14.7535 6.87345 14.8279 7.05265 14.96 7.18483C15.0922 7.31701 15.2714 7.39137 15.4583 7.3916H15.819V8.05957V8.06387V8.31503V8.31934V14.573C15.819 14.5996 15.8085 14.6251 15.7897 14.6439C15.7709 14.6626 15.7454 14.6732 15.7189 14.6732C15.6923 14.6732 15.6668 14.6626 15.648 14.6439C15.6292 14.6251 15.6187 14.5996 15.6187 14.573V12.2589C15.6182 11.8582 15.4588 11.4742 15.1755 11.1909C14.8923 10.9076 14.5082 10.7482 14.1076 10.7478ZM15.819 6.29465V6.87207H15.4583C15.4091 6.87203 15.362 6.85247 15.3272 6.81768C15.2924 6.78289 15.2728 6.73572 15.2728 6.68652V6.29465H15.819ZM14.2783 4.38574V4.75684H13.7829V4.38574H14.2783ZM4.23721 1.37988H12.6325C12.7998 1.38008 12.9601 1.44661 13.0784 1.56487C13.1967 1.68314 13.2632 1.84349 13.2634 2.01074V6.85307C13.2621 7.01952 13.1952 7.17875 13.0771 7.29609C12.9591 7.41343 12.7994 7.47939 12.633 7.47962H4.23721C4.07133 7.47936 3.91222 7.41381 3.7943 7.29714C3.67637 7.18046 3.60913 7.02206 3.6071 6.85619V4.17645C3.6071 4.17392 3.6071 4.1717 3.6071 4.16932V2.01074C3.60729 1.84362 3.67372 1.68338 3.79183 1.56514C3.90993 1.44689 4.07009 1.38028 4.23721 1.37988ZM14.0841 17.9307H2.78624V17.5596H14.0841V17.9307ZM3.6071 17.04V7.81005C3.79406 7.93348 4.01318 7.99924 4.23721 7.99916H12.6325C12.8567 7.99919 13.0759 7.93338 13.263 7.8099V17.04H3.6071ZM15.7196 15.5646C15.4567 15.5643 15.2047 15.4597 15.0188 15.2738C14.8329 15.0879 14.7283 14.8359 14.728 14.573V12.2589C14.7278 12.0944 14.6624 11.9367 14.5461 11.8203C14.4298 11.704 14.2721 11.6386 14.1076 11.6384H13.7825V11.2673H14.1076C14.3705 11.2676 14.6225 11.3721 14.8084 11.558C14.9943 11.7439 15.0989 11.996 15.0991 12.2589V14.573C15.0991 14.6544 15.1152 14.735 15.1463 14.8102C15.1774 14.8854 15.2231 14.9537 15.2806 15.0112C15.3382 15.0688 15.4065 15.1144 15.4817 15.1456C15.5569 15.1767 15.6375 15.1927 15.7189 15.1927C15.8002 15.1927 15.8808 15.1767 15.956 15.1456C16.0312 15.1144 16.0995 15.0688 16.1571 15.0112C16.2146 14.9537 16.2603 14.8854 16.2914 14.8102C16.3226 14.735 16.3386 14.6544 16.3386 14.573V8.88978H16.7097V14.573C16.7096 14.8357 16.6053 15.0876 16.4196 15.2735C16.234 15.4594 15.9823 15.5641 15.7196 15.5646Z"/>
</mask>
<path d="M17.2292 7.73939C17.2293 7.73796 17.2293 7.73652 17.2292 7.73509V5.61035C17.2292 5.57109 17.2203 5.53234 17.2032 5.49702C17.1861 5.46169 17.1612 5.43071 17.1303 5.4064L15.2496 3.92202C15.2038 3.88588 15.1471 3.86622 15.0887 3.86621H13.7825V2.01074C13.7821 1.70575 13.6608 1.41335 13.4452 1.19768C13.2295 0.98202 12.9371 0.860705 12.6321 0.860352H4.23721C3.93222 0.860705 3.63982 0.98202 3.42416 1.19768C3.20849 1.41335 3.08718 1.70575 3.08682 2.01074V6.84877V6.86361V17.04H2.52588C2.45698 17.04 2.39091 17.0674 2.3422 17.1161C2.29348 17.1648 2.26611 17.2309 2.26611 17.2998V18.1904C2.26611 18.2593 2.29348 18.3254 2.3422 18.3741C2.39091 18.4228 2.45698 18.4502 2.52588 18.4502H14.3439C14.378 18.4502 14.4118 18.4435 14.4433 18.4305C14.4748 18.4174 14.5035 18.3983 14.5276 18.3742C14.5517 18.35 14.5709 18.3214 14.5839 18.2899C14.597 18.2583 14.6037 18.2245 14.6036 18.1904V17.2998C14.6037 17.2657 14.597 17.2319 14.5839 17.2004C14.5709 17.1688 14.5517 17.1402 14.5276 17.1161C14.5035 17.092 14.4748 17.0728 14.4433 17.0598C14.4118 17.0467 14.378 17.04 14.3439 17.04H13.7825V12.1579H14.1076C14.1343 12.158 14.16 12.1686 14.1789 12.1875C14.1978 12.2065 14.2085 12.2321 14.2085 12.2589V14.573C14.2085 14.9736 14.3676 15.3577 14.6509 15.641C14.9341 15.9242 15.3183 16.0834 15.7189 16.0834C16.1194 16.0834 16.5036 15.9242 16.7868 15.641C17.0701 15.3577 17.2292 14.9736 17.2292 14.573V8.63432C17.2293 8.63289 17.2293 8.63145 17.2292 8.63002V7.73939ZM16.7097 8.06387V8.31503V8.31934V8.37025H16.3386V7.99916H16.7097V8.05957V8.06387ZM16.7097 5.73637V7.47962H16.3386V6.0423C16.3369 6.0023 16.3268 5.9631 16.3089 5.92729C16.2909 5.89147 16.2657 5.85985 16.2347 5.83449C16.1883 5.79614 16.13 5.77514 16.0698 5.77512H14.7963V5.031C14.7963 5.0261 14.7978 5.0215 14.7978 5.01616V4.38574H14.9986L16.7097 5.73637ZM14.1076 10.7478H13.7825V6.85738C13.7825 6.85441 13.7825 6.85159 13.7825 6.84877V5.27637H14.2768V6.03488C14.2768 6.069 14.2835 6.10279 14.2965 6.13431C14.3096 6.16584 14.3287 6.19448 14.3528 6.21861C14.3769 6.24273 14.4056 6.26187 14.4371 6.27491C14.4686 6.28796 14.5024 6.29467 14.5365 6.29465H14.7533V6.68652C14.7535 6.87345 14.8279 7.05265 14.96 7.18483C15.0922 7.31701 15.2714 7.39137 15.4583 7.3916H15.819V8.05957V8.06387V8.31503V8.31934V14.573C15.819 14.5996 15.8085 14.6251 15.7897 14.6439C15.7709 14.6626 15.7454 14.6732 15.7189 14.6732C15.6923 14.6732 15.6668 14.6626 15.648 14.6439C15.6292 14.6251 15.6187 14.5996 15.6187 14.573V12.2589C15.6182 11.8582 15.4588 11.4742 15.1755 11.1909C14.8923 10.9076 14.5082 10.7482 14.1076 10.7478ZM15.819 6.29465V6.87207H15.4583C15.4091 6.87203 15.362 6.85247 15.3272 6.81768C15.2924 6.78289 15.2728 6.73572 15.2728 6.68652V6.29465H15.819ZM14.2783 4.38574V4.75684H13.7829V4.38574H14.2783ZM4.23721 1.37988H12.6325C12.7998 1.38008 12.9601 1.44661 13.0784 1.56487C13.1967 1.68314 13.2632 1.84349 13.2634 2.01074V6.85307C13.2621 7.01952 13.1952 7.17875 13.0771 7.29609C12.9591 7.41343 12.7994 7.47939 12.633 7.47962H4.23721C4.07133 7.47936 3.91222 7.41381 3.7943 7.29714C3.67637 7.18046 3.60913 7.02206 3.6071 6.85619V4.17645C3.6071 4.17392 3.6071 4.1717 3.6071 4.16932V2.01074C3.60729 1.84362 3.67372 1.68338 3.79183 1.56514C3.90993 1.44689 4.07009 1.38028 4.23721 1.37988ZM14.0841 17.9307H2.78624V17.5596H14.0841V17.9307ZM3.6071 17.04V7.81005C3.79406 7.93348 4.01318 7.99924 4.23721 7.99916H12.6325C12.8567 7.99919 13.0759 7.93338 13.263 7.8099V17.04H3.6071ZM15.7196 15.5646C15.4567 15.5643 15.2047 15.4597 15.0188 15.2738C14.8329 15.0879 14.7283 14.8359 14.728 14.573V12.2589C14.7278 12.0944 14.6624 11.9367 14.5461 11.8203C14.4298 11.704 14.2721 11.6386 14.1076 11.6384H13.7825V11.2673H14.1076C14.3705 11.2676 14.6225 11.3721 14.8084 11.558C14.9943 11.7439 15.0989 11.996 15.0991 12.2589V14.573C15.0991 14.6544 15.1152 14.735 15.1463 14.8102C15.1774 14.8854 15.2231 14.9537 15.2806 15.0112C15.3382 15.0688 15.4065 15.1144 15.4817 15.1456C15.5569 15.1767 15.6375 15.1927 15.7189 15.1927C15.8002 15.1927 15.8808 15.1767 15.956 15.1456C16.0312 15.1144 16.0995 15.0688 16.1571 15.0112C16.2146 14.9537 16.2603 14.8854 16.2914 14.8102C16.3226 14.735 16.3386 14.6544 16.3386 14.573V8.88978H16.7097V14.573C16.7096 14.8357 16.6053 15.0876 16.4196 15.2735C16.234 15.4594 15.9823 15.5641 15.7196 15.5646Z" fill="#E20001"/>
<path d="M17.2292 7.73939C17.2293 7.73796 17.2293 7.73652 17.2292 7.73509V5.61035C17.2292 5.57109 17.2203 5.53234 17.2032 5.49702C17.1861 5.46169 17.1612 5.43071 17.1303 5.4064L15.2496 3.92202C15.2038 3.88588 15.1471 3.86622 15.0887 3.86621H13.7825V2.01074C13.7821 1.70575 13.6608 1.41335 13.4452 1.19768C13.2295 0.98202 12.9371 0.860705 12.6321 0.860352H4.23721C3.93222 0.860705 3.63982 0.98202 3.42416 1.19768C3.20849 1.41335 3.08718 1.70575 3.08682 2.01074V6.84877V6.86361V17.04H2.52588C2.45698 17.04 2.39091 17.0674 2.3422 17.1161C2.29348 17.1648 2.26611 17.2309 2.26611 17.2998V18.1904C2.26611 18.2593 2.29348 18.3254 2.3422 18.3741C2.39091 18.4228 2.45698 18.4502 2.52588 18.4502H14.3439C14.378 18.4502 14.4118 18.4435 14.4433 18.4305C14.4748 18.4174 14.5035 18.3983 14.5276 18.3742C14.5517 18.35 14.5709 18.3214 14.5839 18.2899C14.597 18.2583 14.6037 18.2245 14.6036 18.1904V17.2998C14.6037 17.2657 14.597 17.2319 14.5839 17.2004C14.5709 17.1688 14.5517 17.1402 14.5276 17.1161C14.5035 17.092 14.4748 17.0728 14.4433 17.0598C14.4118 17.0467 14.378 17.04 14.3439 17.04H13.7825V12.1579H14.1076C14.1343 12.158 14.16 12.1686 14.1789 12.1875C14.1978 12.2065 14.2085 12.2321 14.2085 12.2589V14.573C14.2085 14.9736 14.3676 15.3577 14.6509 15.641C14.9341 15.9242 15.3183 16.0834 15.7189 16.0834C16.1194 16.0834 16.5036 15.9242 16.7868 15.641C17.0701 15.3577 17.2292 14.9736 17.2292 14.573V8.63432C17.2293 8.63289 17.2293 8.63145 17.2292 8.63002V7.73939ZM16.7097 8.06387V8.31503V8.31934V8.37025H16.3386V7.99916H16.7097V8.05957V8.06387ZM16.7097 5.73637V7.47962H16.3386V6.0423C16.3369 6.0023 16.3268 5.9631 16.3089 5.92729C16.2909 5.89147 16.2657 5.85985 16.2347 5.83449C16.1883 5.79614 16.13 5.77514 16.0698 5.77512H14.7963V5.031C14.7963 5.0261 14.7978 5.0215 14.7978 5.01616V4.38574H14.9986L16.7097 5.73637ZM14.1076 10.7478H13.7825V6.85738C13.7825 6.85441 13.7825 6.85159 13.7825 6.84877V5.27637H14.2768V6.03488C14.2768 6.069 14.2835 6.10279 14.2965 6.13431C14.3096 6.16584 14.3287 6.19448 14.3528 6.21861C14.3769 6.24273 14.4056 6.26187 14.4371 6.27491C14.4686 6.28796 14.5024 6.29467 14.5365 6.29465H14.7533V6.68652C14.7535 6.87345 14.8279 7.05265 14.96 7.18483C15.0922 7.31701 15.2714 7.39137 15.4583 7.3916H15.819V8.05957V8.06387V8.31503V8.31934V14.573C15.819 14.5996 15.8085 14.6251 15.7897 14.6439C15.7709 14.6626 15.7454 14.6732 15.7189 14.6732C15.6923 14.6732 15.6668 14.6626 15.648 14.6439C15.6292 14.6251 15.6187 14.5996 15.6187 14.573V12.2589C15.6182 11.8582 15.4588 11.4742 15.1755 11.1909C14.8923 10.9076 14.5082 10.7482 14.1076 10.7478ZM15.819 6.29465V6.87207H15.4583C15.4091 6.87203 15.362 6.85247 15.3272 6.81768C15.2924 6.78289 15.2728 6.73572 15.2728 6.68652V6.29465H15.819ZM14.2783 4.38574V4.75684H13.7829V4.38574H14.2783ZM4.23721 1.37988H12.6325C12.7998 1.38008 12.9601 1.44661 13.0784 1.56487C13.1967 1.68314 13.2632 1.84349 13.2634 2.01074V6.85307C13.2621 7.01952 13.1952 7.17875 13.0771 7.29609C12.9591 7.41343 12.7994 7.47939 12.633 7.47962H4.23721C4.07133 7.47936 3.91222 7.41381 3.7943 7.29714C3.67637 7.18046 3.60913 7.02206 3.6071 6.85619V4.17645C3.6071 4.17392 3.6071 4.1717 3.6071 4.16932V2.01074C3.60729 1.84362 3.67372 1.68338 3.79183 1.56514C3.90993 1.44689 4.07009 1.38028 4.23721 1.37988ZM14.0841 17.9307H2.78624V17.5596H14.0841V17.9307ZM3.6071 17.04V7.81005C3.79406 7.93348 4.01318 7.99924 4.23721 7.99916H12.6325C12.8567 7.99919 13.0759 7.93338 13.263 7.8099V17.04H3.6071ZM15.7196 15.5646C15.4567 15.5643 15.2047 15.4597 15.0188 15.2738C14.8329 15.0879 14.7283 14.8359 14.728 14.573V12.2589C14.7278 12.0944 14.6624 11.9367 14.5461 11.8203C14.4298 11.704 14.2721 11.6386 14.1076 11.6384H13.7825V11.2673H14.1076C14.3705 11.2676 14.6225 11.3721 14.8084 11.558C14.9943 11.7439 15.0989 11.996 15.0991 12.2589V14.573C15.0991 14.6544 15.1152 14.735 15.1463 14.8102C15.1774 14.8854 15.2231 14.9537 15.2806 15.0112C15.3382 15.0688 15.4065 15.1144 15.4817 15.1456C15.5569 15.1767 15.6375 15.1927 15.7189 15.1927C15.8002 15.1927 15.8808 15.1767 15.956 15.1456C16.0312 15.1144 16.0995 15.0688 16.1571 15.0112C16.2146 14.9537 16.2603 14.8854 16.2914 14.8102C16.3226 14.735 16.3386 14.6544 16.3386 14.573V8.88978H16.7097V14.573C16.7096 14.8357 16.6053 15.0876 16.4196 15.2735C16.234 15.4594 15.9823 15.5641 15.7196 15.5646Z" stroke="#E20001" stroke-width="0.4" mask="url(#path-1-outside-1_17:283)"/>
<path d="M4.01827 11.6565C4.07635 11.5984 4.15513 11.5657 4.23728 11.5657L4.01827 11.6565ZM4.01827 11.6565C3.96018 11.7145 3.92754 11.7933 3.92754 11.8755M4.01827 11.6565L3.92754 11.8755M3.92754 11.8755V12.9146M3.92754 11.8755V12.9146M3.92754 12.9146C3.92754 12.9967 3.96018 13.0755 4.01827 13.1336M3.92754 12.9146L4.01827 13.1336M4.01827 13.1336C4.07636 13.1917 4.15515 13.2243 4.2373 13.2243M4.01827 13.1336L4.2373 13.2243M4.2373 13.2243C4.31946 13.2243 4.39825 13.1917 4.45634 13.1336M4.2373 13.2243L4.45634 13.1336M4.45634 13.1336C4.51443 13.0755 4.54707 12.9967 4.54707 12.9146M4.45634 13.1336L4.54707 12.9146M4.54707 12.9146V11.8755M4.54707 12.9146V11.8755M4.54707 11.8755C4.54709 11.8348 4.5391 11.7945 4.52354 11.7569C4.50798 11.7193 4.48516 11.6852 4.45639 11.6564C4.42761 11.6276 4.39345 11.6048 4.35586 11.5893C4.31827 11.5737 4.27798 11.5657 4.2373 11.5657L4.54707 11.8755Z" fill="#E20001" stroke="#E20001" stroke-width="0.1"/>
<path d="M5.12793 6.26791H11.742C11.8242 6.26791 11.903 6.23527 11.961 6.17718C12.0191 6.11909 12.0518 6.04029 12.0518 5.95814V2.90137C12.0518 2.81921 12.0191 2.74042 11.961 2.68233C11.903 2.62424 11.8242 2.5916 11.742 2.5916H5.12793C5.04577 2.5916 4.96698 2.62424 4.90889 2.68233C4.8508 2.74042 4.81816 2.81921 4.81816 2.90137V5.95814C4.81816 6.0403 4.8508 6.11909 4.90889 6.17718C4.96698 6.23527 5.04577 6.26791 5.12793 6.26791ZM5.4377 3.21113H11.4322V5.64837H5.4377V3.21113Z" fill="#E20001" stroke="#E20001" stroke-width="0.1"/>
<path d="M8.43502 10.5098H8.43497C7.96551 10.5098 7.50659 10.649 7.11624 10.9098C6.7259 11.1707 6.42167 11.5414 6.24201 11.9751C6.06236 12.4088 6.01535 12.8861 6.10694 13.3465C6.19853 13.807 6.42459 14.2299 6.75655 14.5619C7.08851 14.8938 7.51145 15.1199 7.97189 15.2115C8.43233 15.3031 8.90959 15.2561 9.34332 15.0764C9.77705 14.8968 10.1478 14.5925 10.4086 14.2022C10.6694 13.8118 10.8086 13.3529 10.8086 12.8835V12.8834C10.8079 12.2541 10.5576 11.6508 10.1126 11.2058C9.66766 10.7608 9.06433 10.5105 8.43502 10.5098ZM8.41395 14.6373C8.07435 14.6332 7.74306 14.5306 7.46042 14.3418C7.17196 14.149 6.94713 13.8751 6.81437 13.5545C6.68161 13.234 6.64688 12.8813 6.71458 12.541C6.78227 12.2008 6.94935 11.8882 7.19468 11.6429C7.44001 11.3976 7.75257 11.2306 8.09285 11.1629C8.43312 11.0952 8.78582 11.13 9.10634 11.2628C9.42686 11.3955 9.7008 11.6204 9.89353 11.9089C10.0862 12.1973 10.1891 12.5365 10.1891 12.8834C10.1885 13.3484 10.0035 13.7942 9.67464 14.123C9.34579 14.4518 8.89994 14.6368 8.43491 14.6373L8.41395 14.6373Z" fill="#E20001" stroke="#E20001" stroke-width="0.1"/>
<path d="M7.8042 13.2376H7.8542C7.8542 13.0658 7.93956 12.8528 8.06304 12.6383C8.17385 12.4459 8.31191 12.2581 8.43502 12.1072C8.5581 12.2583 8.69619 12.4461 8.80702 12.6385C8.93051 12.8529 9.0159 13.0658 9.01592 13.2376C9.01574 13.3916 8.95446 13.5393 8.84552 13.6482C8.73662 13.7571 8.58899 13.8183 8.435 13.8185C8.28103 13.8183 8.13342 13.757 8.02455 13.6481C7.91564 13.5392 7.85438 13.3916 7.8542 13.2376L7.8042 13.2376ZM7.8042 13.2376C7.8044 13.4049 7.87092 13.5652 7.98919 13.6835C8.10742 13.8017 8.26769 13.8682 8.43489 13.8685L8.40262 12.0678C8.14002 12.3884 7.8042 12.8814 7.8042 13.2376ZM8.21398 11.422L8.21396 11.4219L8.21295 11.423C8.1626 11.4747 7.91935 11.7304 7.68835 12.0703C7.45872 12.4082 7.23467 12.8385 7.23467 13.2376C7.23467 13.556 7.36114 13.8613 7.58625 14.0864C7.81137 14.3115 8.1167 14.438 8.43506 14.438C8.75342 14.438 9.05875 14.3115 9.28386 14.0864C9.50898 13.8613 9.63545 13.556 9.63545 13.2376C9.63545 12.8385 9.41135 12.4082 9.18161 12.0703C8.95051 11.7304 8.70707 11.4747 8.65632 11.4229L8.65634 11.4229L8.6554 11.422C8.59623 11.3646 8.51707 11.3326 8.43469 11.3326C8.3523 11.3326 8.27315 11.3646 8.21398 11.422Z" fill="#E20001" stroke="#E20001" stroke-width="0.1"/>
</g>
<defs>
<clipPath id="clip0_17:283">
<rect width="19" height="19" fill="white" transform="translate(0.248047 0.155273)"/>
</clipPath>
</defs>
</svg>
