<svg width="18" height="18" viewBox="0 0 18 18" fill="none" xmlns="http://www.w3.org/2000/svg">
<path d="M17.487 14.14L13.422 10.444C13.2298 10.2694 12.9773 10.1762 12.7178 10.1842C12.4582 10.1923 12.212 10.3008 12.031 10.487L9.63798 12.948C9.06198 12.838 7.90398 12.477 6.71198 11.288C5.51998 10.095 5.15898 8.934 5.05198 8.362L7.51098 5.968C7.69739 5.78713 7.80611 5.54082 7.81414 5.28121C7.82216 5.02159 7.72886 4.76904 7.55398 4.577L3.85898 0.513002C3.68402 0.320359 3.44086 0.203507 3.18113 0.187262C2.9214 0.171018 2.66557 0.256661 2.46798 0.426003L0.297977 2.287C0.125088 2.46052 0.0218963 2.69145 0.00797679 2.936C-0.00702321 3.186 -0.293023 9.108 4.29898 13.702C8.30498 17.707 13.323 18 14.705 18C14.907 18 15.031 17.994 15.064 17.992C15.3085 17.9783 15.5393 17.8747 15.712 17.701L17.572 15.53C17.742 15.333 17.8283 15.0774 17.8124 14.8177C17.7965 14.558 17.6797 14.3148 17.487 14.14Z" fill="#E7E7E7"/>
</svg>
