<svg width="14" height="14" viewBox="0 0 14 14" fill="none" xmlns="http://www.w3.org/2000/svg">
<path d="M13.4856 9.54696L10.5936 8.30296C10.4701 8.25034 10.3328 8.23924 10.2024 8.27134C10.072 8.30344 9.95561 8.377 9.87063 8.48096L8.58963 10.05C6.57929 9.10214 4.96144 7.48429 4.01363 5.47396L5.57863 4.19396C5.68286 4.10918 5.75661 3.99274 5.78873 3.86227C5.82085 3.73181 5.80958 3.59444 5.75663 3.47096L4.51663 0.577958C4.45855 0.444847 4.35586 0.336162 4.22626 0.27063C4.09666 0.205098 3.94826 0.186825 3.80663 0.218958L1.12063 0.838958C0.98481 0.870436 0.863567 0.946771 0.776475 1.05564C0.689382 1.1645 0.641523 1.29954 0.640626 1.43896C0.639969 3.01296 0.949441 4.57167 1.55136 6.02604C2.15328 7.4804 3.03585 8.80192 4.14866 9.9151C5.26146 11.0283 6.58269 11.9113 8.03685 12.5137C9.49102 13.1161 11.0496 13.4261 12.6236 13.426C12.763 13.4251 12.8981 13.3772 13.0069 13.2901C13.1158 13.203 13.1921 13.0818 13.2236 12.946L13.8436 10.26C13.8757 10.1176 13.8571 9.96842 13.791 9.83826C13.725 9.7081 13.6155 9.60508 13.4816 9.54696H13.4856Z" fill="black"/>
</svg>
