<svg width="15" height="20" viewBox="0 0 15 20" fill="none" xmlns="http://www.w3.org/2000/svg">
<path d="M1.39124 5.53804C1.13315 3.72845 2.33485 2.09888 4.17061 1.50265C4.49647 1.39656 4.84812 1.42659 5.15387 1.58662C5.45962 1.74665 5.69643 2.02463 5.81601 2.36388L6.40467 4.03449C6.49947 4.30332 6.51651 4.59612 6.45363 4.87532C6.39074 5.15452 6.25079 5.40737 6.05175 5.60141L4.30067 7.30803C4.21431 7.39237 4.14996 7.49904 4.11387 7.61765C4.07778 7.73627 4.07119 7.86279 4.09474 7.98492L4.11032 8.05981L4.15367 8.24775C4.19229 8.40689 4.25054 8.63012 4.33251 8.89583C4.49508 9.4251 4.75453 10.1366 5.14065 10.8473C5.52676 11.5587 5.97656 12.1528 6.3261 12.5676C6.50814 12.7832 6.69842 12.9907 6.89647 13.1897L6.95066 13.2423C7.03818 13.3249 7.14433 13.382 7.25878 13.408C7.37322 13.434 7.49204 13.428 7.60367 13.3906L9.87025 12.6324C10.1277 12.5463 10.4035 12.5438 10.6623 12.6254C10.921 12.707 11.151 12.8689 11.3226 13.0904L12.3949 14.4751C12.842 15.0512 12.7892 15.8973 12.275 16.4064C10.8701 17.7991 8.93815 18.0842 7.59419 16.9357C5.94679 15.5231 4.55802 13.8002 3.49727 11.8533C2.42768 9.90782 1.71316 7.76524 1.39124 5.53804ZM5.51389 8.07997L6.96759 6.66283C7.36543 6.27472 7.64512 5.76911 7.77076 5.21086C7.89641 4.65262 7.86228 4.06719 7.67277 3.5297L7.08343 1.85909C6.843 1.17654 6.36675 0.617145 5.75175 0.294951C5.13676 -0.0272437 4.42932 -0.0879851 3.77365 0.125108C1.49488 0.867523 -0.335456 3.03932 0.0520173 5.75407C0.322977 7.64935 0.948218 10.0602 2.32605 12.5777C3.47022 14.677 4.96806 16.5346 6.74473 18.0576C8.75999 19.7793 11.452 19.1917 13.199 17.4599C13.6987 16.9646 14.0019 16.2855 14.0468 15.5608C14.0918 14.8362 13.875 14.1206 13.4408 13.5599L12.3685 12.1751C12.0253 11.732 11.5653 11.408 11.0477 11.2446C10.53 11.0813 9.97821 11.0861 9.46313 11.2585L7.582 11.8878C7.51019 11.8086 7.42619 11.7143 7.33474 11.6055C6.94812 11.1509 6.60607 10.6555 6.3139 10.1272C6.0295 9.59416 5.79685 9.03176 5.61957 8.44866C5.58198 8.32654 5.54675 8.20362 5.51389 8.07997Z" fill="#FEFEFE"/>
</svg>
