<svg width="7" height="16" viewBox="0 0 7 16" fill="none" xmlns="http://www.w3.org/2000/svg">
<path d="M7 3.5C7 3.93229 6.92448 4.34635 6.77344 4.74219C6.6224 5.13281 6.41406 5.48438 6.14844 5.79688C5.88281 6.10417 5.5651 6.36198 5.19531 6.57031C4.83073 6.77344 4.43229 6.90365 4 6.96094V15L3.5 16L3 15V6.96094C2.56771 6.90365 2.16667 6.77344 1.79688 6.57031C1.43229 6.36198 1.11719 6.10417 0.851562 5.79688C0.585938 5.48438 0.377604 5.13281 0.226562 4.74219C0.0755208 4.34635 0 3.93229 0 3.5C0 3.01562 0.0911458 2.5625 0.273438 2.14062C0.455729 1.71354 0.705729 1.34115 1.02344 1.02344C1.34115 0.705729 1.71094 0.455729 2.13281 0.273438C2.5599 0.0911458 3.01562 0 3.5 0C3.98438 0 4.4375 0.0911458 4.85938 0.273438C5.28646 0.455729 5.65885 0.705729 5.97656 1.02344C6.29427 1.34115 6.54427 1.71354 6.72656 2.14062C6.90885 2.5625 7 3.01562 7 3.5ZM3.5 6C3.84375 6 4.16667 5.9349 4.46875 5.80469C4.77083 5.67448 5.03385 5.4974 5.25781 5.27344C5.48698 5.04427 5.66667 4.77865 5.79688 4.47656C5.93229 4.16927 6 3.84375 6 3.5C6 3.15625 5.93229 2.83333 5.79688 2.53125C5.66667 2.22917 5.48698 1.96615 5.25781 1.74219C5.03385 1.51302 4.77083 1.33333 4.46875 1.20312C4.16667 1.06771 3.84375 1 3.5 1C3.15625 1 2.83073 1.06771 2.52344 1.20312C2.22135 1.33333 1.95573 1.51302 1.72656 1.74219C1.5026 1.96615 1.32552 2.22917 1.19531 2.53125C1.0651 2.83333 1 3.15625 1 3.5C1 3.84375 1.0651 4.16927 1.19531 4.47656C1.32552 4.77865 1.5026 5.04427 1.72656 5.27344C1.95573 5.4974 2.22135 5.67448 2.52344 5.80469C2.83073 5.9349 3.15625 6 3.5 6Z" fill="black"/>
</svg>
