<svg width="21" height="20" viewBox="0 0 21 20" fill="none" xmlns="http://www.w3.org/2000/svg">
<path d="M10.6281 16.8C6.86812 16.8 3.82812 13.76 3.82812 10C3.82812 6.24001 6.86812 3.20001 10.6281 3.20001C14.3881 3.20001 17.4281 6.24001 17.4281 10C17.4281 13.76 14.3881 16.8 10.6281 16.8ZM10.6281 4.00001C7.30812 4.00001 4.62812 6.68001 4.62812 10C4.62812 13.32 7.30812 16 10.6281 16C13.9481 16 16.6281 13.32 16.6281 10C16.6281 6.68001 13.9481 4.00001 10.6281 4.00001Z" fill="#E20001"/>
<path d="M7.02783 9.59998H14.2278V10.4H7.02783V9.59998Z" fill="#E20001"/>
<path d="M10.228 6.39996H11.028V13.6H10.228V6.39996Z" fill="#E20001"/>
</svg>
