<svg width="29" height="24" viewBox="0 0 29 24" fill="none" xmlns="http://www.w3.org/2000/svg">
<path fill-rule="evenodd" clip-rule="evenodd" d="M19.3638 0.626345L18.7298 1.25262V5.68777V10.1229L18.9274 10.2785C19.1224 10.4321 19.1837 10.4341 23.8038 10.4341C28.7511 10.4341 28.8246 10.4292 28.9535 10.0929C28.979 10.0261 29 8.03492 29 5.66803V1.36469L28.6992 0.983581C28.5337 0.773999 28.227 0.466906 28.0177 0.301237L27.6371 0H23.8175H19.9978L19.3638 0.626345ZM26.718 1.83294C26.8514 1.93045 26.8655 2.05506 26.8868 3.3296C26.909 4.65015 26.9024 4.72769 26.7556 4.87467C26.6053 5.02525 26.5284 5.02938 23.8521 5.02938C21.3993 5.02938 21.0882 5.01602 20.966 4.90514C20.8424 4.79322 20.8288 4.64159 20.8288 3.37058C20.8288 1.99824 20.8333 1.95703 20.9955 1.84338C21.2334 1.67643 26.4909 1.66683 26.718 1.83294ZM12.0205 2.97672C10.0836 3.04968 7.98454 3.17226 7.63588 3.23291C7.40956 3.27225 7.11915 3.38004 6.99036 3.47252C6.86164 3.565 6.15233 4.38381 5.414 5.29211L4.07168 6.94354L2.40934 6.96373L0.746997 6.98393L0.531098 7.20012C0.374347 7.35708 0.268272 7.59413 0.143756 8.06622C0.0494501 8.42375 -0.0140453 8.72987 0.0026718 8.74669C0.0193889 8.76343 0.436118 8.9667 0.928711 9.1985C1.42123 9.43023 1.83668 9.63223 1.85183 9.6474C1.86697 9.66256 1.686 9.90322 1.44964 10.1821C0.98471 10.731 0.804945 11.0816 0.673082 11.6973C0.615209 11.9674 0.588371 13.5762 0.588371 16.7706V21.4482L0.785979 21.6461L0.98366 21.844H3.54873H6.11387L6.31223 21.6599C6.49297 21.4922 6.51058 21.4255 6.51058 20.9093V20.3427H13.4823H20.454V17.1813V14.0198L20.1944 13.6656C19.9424 13.3218 19.9341 13.2887 19.9133 12.5296L19.8918 11.7477L19.3296 11.7054C18.672 11.6558 18.2666 11.4728 17.9075 11.0633C17.5472 10.6523 17.4442 10.3372 17.3985 9.50515L17.3574 8.75982L13.3396 8.80847C11.1298 8.83519 8.73141 8.88856 8.00988 8.92707C4.55326 9.11143 4.41157 9.11353 4.41157 8.98119C4.41157 8.91378 5.16999 7.91534 6.09685 6.76256C7.39989 5.14205 7.82929 4.65653 7.98971 4.62215C8.51094 4.51037 12.489 4.35401 14.8129 4.35394L17.3805 4.35379V3.68698C17.3805 3.05891 17.3706 3.01748 17.2118 2.97484C17.0532 2.93228 13.1634 2.9337 12.0205 2.97672ZM21.2037 11.9412V12.8498L21.5035 13.2779L21.8034 13.706V18.1928C21.8034 21.149 21.8299 22.7293 21.8812 22.8251C21.9239 22.9052 22.1601 23.0724 22.406 23.1966L22.8529 23.4226V18.5851C22.8529 13.1806 22.8223 13.4809 23.3682 13.5265L23.64 13.5493L23.6595 18.6537L23.6789 23.7582L24.0163 23.8973C24.2019 23.9738 24.4038 24.0171 24.4652 23.9936C24.7032 23.9021 25.6976 23.1887 25.809 23.0294C25.9125 22.8814 25.9264 22.3153 25.9264 18.2497V13.638L26.2287 13.2372L26.5309 12.8363L26.5098 11.9542L26.4887 11.0721L23.8462 11.0524L21.2037 11.0327V11.9412ZM5.02666 11.5176C7.21338 11.7905 7.39802 11.8464 7.64533 12.3095C7.82644 12.6487 7.84188 13.5211 7.66931 13.6646C7.57636 13.7418 7.12042 13.7454 5.34946 13.6832C2.82472 13.5945 2.71624 13.5688 2.40926 12.9874C2.27253 12.7286 2.2376 12.5426 2.2376 12.0737C2.2376 11.3662 2.36444 11.1679 2.77704 11.2303C2.91325 11.2509 3.92558 11.3802 5.02666 11.5176Z" fill="url(#paint0_linear)"/>
<defs>
<linearGradient id="paint0_linear" x1="-0.000385343" y1="12.0009" x2="28.9991" y2="12.0009" gradientUnits="userSpaceOnUse">
<stop stop-color="#F90001"/>
<stop offset="1" stop-color="#A30000"/>
</linearGradient>
</defs>
</svg>
