<svg width="11" height="11" viewBox="0 0 11 11" fill="none" xmlns="http://www.w3.org/2000/svg">
<path d="M10.3729 3.60455L7.15946 3.13753L5.72296 0.225289C5.68372 0.145554 5.61917 0.0810058 5.53944 0.0417709C5.33947 -0.0569492 5.09646 0.0253175 4.99648 0.225289L3.55998 3.13753L0.346513 3.60455C0.257918 3.61721 0.176917 3.65898 0.1149 3.72226C0.039926 3.79932 -0.00138829 3.90299 3.56226e-05 4.0105C0.00145954 4.118 0.0455052 4.22055 0.122494 4.29559L2.44748 6.56236L1.89819 9.76317C1.88531 9.83762 1.89355 9.9142 1.92197 9.98422C1.9504 10.0542 1.99787 10.1149 2.05901 10.1593C2.12015 10.2037 2.19251 10.2301 2.26788 10.2354C2.34325 10.2408 2.41863 10.225 2.48545 10.1897L5.35972 8.67851L8.23399 10.1897C8.31246 10.2315 8.40359 10.2454 8.49092 10.2302C8.71114 10.1922 8.85922 9.98339 8.82125 9.76317L8.27196 6.56236L10.5969 4.29559C10.6602 4.23358 10.702 4.15258 10.7146 4.06398C10.7488 3.84249 10.5944 3.63746 10.3729 3.60455Z" fill="#FDB900"/>
</svg>
