<svg width="22" height="16" viewBox="0 0 22 16" fill="none" xmlns="http://www.w3.org/2000/svg">
<path d="M21.005 6.29973L15.2075 4.21473L12.7775 1.16973C12.5666 0.91202 12.3011 0.70434 12.0002 0.561673C11.6993 0.419006 11.3705 0.344908 11.0375 0.344727H5.0375C4.67148 0.346618 4.31145 0.437776 3.98864 0.610292C3.66582 0.782809 3.38997 1.03148 3.185 1.33473L1.1525 4.33473C0.73146 4.95168 0.504253 5.68031 0.5 6.42723V12.3447C0.5 12.5436 0.579018 12.7344 0.71967 12.8751C0.860322 13.0157 1.05109 13.0947 1.25 13.0947H2.855C3.02771 13.7303 3.40475 14.2913 3.92795 14.6913C4.45114 15.0913 5.09142 15.308 5.75 15.308C6.40858 15.308 7.04886 15.0913 7.57205 14.6913C8.09525 14.2913 8.47229 13.7303 8.645 13.0947H13.355C13.5277 13.7303 13.9048 14.2913 14.4279 14.6913C14.9511 15.0913 15.5914 15.308 16.25 15.308C16.9086 15.308 17.5489 15.0913 18.0721 14.6913C18.5952 14.2913 18.9723 13.7303 19.145 13.0947H20.75C20.9489 13.0947 21.1397 13.0157 21.2803 12.8751C21.421 12.7344 21.5 12.5436 21.5 12.3447V7.00473C21.4999 6.85059 21.4524 6.70022 21.3638 6.57407C21.2752 6.44793 21.15 6.35213 21.005 6.29973ZM5.75 13.8447C5.45333 13.8447 5.16332 13.7568 4.91665 13.5919C4.66997 13.4271 4.47771 13.1928 4.36418 12.9188C4.25065 12.6447 4.22094 12.3431 4.27882 12.0521C4.3367 11.7611 4.47956 11.4938 4.68934 11.2841C4.89912 11.0743 5.16639 10.9314 5.45736 10.8735C5.74834 10.8157 6.04994 10.8454 6.32403 10.9589C6.59811 11.0724 6.83238 11.2647 6.9972 11.5114C7.16203 11.758 7.25 12.0481 7.25 12.3447C7.25 12.7425 7.09196 13.1241 6.81066 13.4054C6.52936 13.6867 6.14782 13.8447 5.75 13.8447ZM16.25 13.8447C15.9533 13.8447 15.6633 13.7568 15.4166 13.5919C15.17 13.4271 14.9777 13.1928 14.8642 12.9188C14.7506 12.6447 14.7209 12.3431 14.7788 12.0521C14.8367 11.7611 14.9796 11.4938 15.1893 11.2841C15.3991 11.0743 15.6664 10.9314 15.9574 10.8735C16.2483 10.8157 16.5499 10.8454 16.824 10.9589C17.0981 11.0724 17.3324 11.2647 17.4972 11.5114C17.662 11.758 17.75 12.0481 17.75 12.3447C17.75 12.7425 17.592 13.1241 17.3107 13.4054C17.0294 13.6867 16.6478 13.8447 16.25 13.8447ZM20 11.5947H19.145C18.9723 10.9592 18.5952 10.3982 18.0721 9.99817C17.5489 9.59819 16.9086 9.38148 16.25 9.38148C15.5914 9.38148 14.9511 9.59819 14.4279 9.99817C13.9048 10.3982 13.5277 10.9592 13.355 11.5947H8.645C8.47229 10.9592 8.09525 10.3982 7.57205 9.99817C7.04886 9.59819 6.40858 9.38148 5.75 9.38148C5.09142 9.38148 4.45114 9.59819 3.92795 9.99817C3.40475 10.3982 3.02771 10.9592 2.855 11.5947H2V6.42723C1.99971 5.97514 2.13561 5.53345 2.39 5.15973L4.4225 2.15973C4.49297 2.06071 4.58645 1.98031 4.69489 1.92544C4.80333 1.87057 4.92348 1.84287 5.045 1.84473H11.045C11.1552 1.84455 11.2641 1.86865 11.3639 1.91531C11.4637 1.96198 11.552 2.03006 11.6225 2.11473L14.1725 5.31723C14.2604 5.42383 14.374 5.50641 14.5025 5.55723L20 7.52973V11.5947Z" fill="#E20001"/>
</svg>
