<svg width="21" height="21" viewBox="0 0 21 21" fill="none" xmlns="http://www.w3.org/2000/svg">
<path d="M8.74987 20.7943H2.91687C2.36432 20.7937 1.83455 20.574 1.44384 20.1833C1.05313 19.7926 0.833398 19.2628 0.832869 18.7103V9.01027C0.438237 8.73022 0.160017 8.31517 0.0509118 7.84373C-0.0581936 7.37229 0.00939299 6.87721 0.240869 6.45227C1.14087 4.84427 2.05887 3.25927 2.96187 1.74027C3.13991 1.44875 3.39048 1.20837 3.68912 1.04257C3.98777 0.876769 4.3243 0.79122 4.66587 0.794268C5.08987 0.798268 5.50187 0.933268 5.84587 1.17927L5.86987 1.19427C6.28187 1.43427 10.2619 3.80327 13.4609 5.70627L16.3009 7.39427L16.4309 7.47127C17.3479 8.01001 18.2625 8.55268 19.1749 9.09927C19.5692 9.37847 19.8467 9.7933 19.9543 10.2643C20.0619 10.7354 19.9919 11.2296 19.7579 11.6523C18.8749 13.2293 17.9579 14.8143 17.0379 16.3643C16.862 16.6528 16.6154 16.8916 16.3214 17.058C16.0274 17.2244 15.6957 17.313 15.3579 17.3153C15.2219 17.3153 15.0879 17.3003 14.9579 17.2703C14.8409 17.3393 14.2009 17.7503 13.3899 18.2703C11.9469 19.1953 9.97487 20.4603 9.74687 20.5773C9.43926 20.7356 9.09547 20.8105 8.74987 20.7943ZM2.49987 11.8243V18.7103C2.49987 18.9403 2.68687 19.1273 2.91687 19.1273H6.73987C5.3054 16.7053 3.89201 14.2708 2.49987 11.8243ZM3.85787 10.8243C4.25787 11.5113 8.57387 18.9563 8.60987 19.0063C8.65316 19.0628 8.71517 19.1021 8.78479 19.1171C8.85441 19.1322 8.9271 19.1219 8.98987 19.0883C9.12387 19.0123 13.1829 16.4043 13.2229 16.3783C12.9089 16.1933 10.6369 14.8393 8.23087 13.4063L3.83787 10.7943L3.84487 10.8053L3.85487 10.8223V10.8283L3.85787 10.8243ZM4.33187 2.69427C3.52387 3.99427 1.71587 7.22227 1.69187 7.28127C1.66317 7.34983 1.65989 7.42639 1.68263 7.49715C1.70536 7.56792 1.75261 7.62824 1.81587 7.66727C1.94887 7.74627 15.1699 15.6233 15.2959 15.6433C15.3118 15.6445 15.3279 15.6445 15.3439 15.6433C15.3973 15.6435 15.4498 15.6298 15.4965 15.6037C15.5431 15.5776 15.5821 15.5399 15.6099 15.4943C16.518 13.9445 17.416 12.3888 18.3039 10.8273C18.3319 10.7584 18.3348 10.6818 18.3119 10.611C18.289 10.5402 18.2419 10.4797 18.1789 10.4403C18.0519 10.3643 4.85587 2.52227 4.77087 2.48527C4.70339 2.45713 4.62821 2.45343 4.5583 2.47479C4.48838 2.49614 4.42811 2.54123 4.38787 2.60227L4.38087 2.61427L4.37287 2.62627L4.36087 2.64627V2.65127L4.34587 2.67527L4.33087 2.69427H4.33187ZM5.68487 8.18427C5.35558 8.18407 5.03373 8.08629 4.75998 7.90329C4.48622 7.72028 4.27284 7.46025 4.14678 7.15605C4.02073 6.85184 3.98764 6.5171 4.05172 6.1941C4.11579 5.87111 4.27414 5.57434 4.50678 5.34129C4.73941 5.10824 5.03589 4.94935 5.35877 4.8847C5.68165 4.82004 6.01645 4.85252 6.32088 4.97804C6.62532 5.10355 6.88573 5.31646 7.06922 5.58988C7.25272 5.86331 7.35108 6.18498 7.35187 6.51427C7.35134 6.95622 7.17554 7.37992 6.86303 7.69243C6.55052 8.00494 6.12682 8.18074 5.68487 8.18127V8.18427Z" fill="#E20001"/>
</svg>
