<svg width="22" height="16" viewBox="0 0 22 16" fill="none" xmlns="http://www.w3.org/2000/svg">
<path d="M5.1733 3.00154L4.3179 5.56774H8.3999V1.66774H7.0232C6.61388 1.66778 6.21495 1.79662 5.88294 2.036C5.55092 2.27539 5.30265 2.61319 5.1733 3.00154ZM3.885 6.86774L3.8811 6.88074L3.5353 6.96654L3.3767 7.00554C2.95469 7.1111 2.58009 7.35475 2.31249 7.69773C2.04489 8.04071 1.89966 8.46332 1.8999 8.89834V11.0927C1.8999 11.3007 1.9649 11.4957 2.078 11.6543C2.31065 10.9806 2.75837 10.4019 3.3522 10.0076C3.94603 9.61331 4.65302 9.42516 5.36429 9.47215C6.07556 9.51915 6.75165 9.79868 7.28844 10.2677C7.82522 10.7367 8.19292 11.3692 8.3349 12.0677H13.6649C13.8069 11.3692 14.1746 10.7367 14.7114 10.2677C15.2482 9.79868 15.9242 9.51915 16.6355 9.47215C17.3468 9.42516 18.0538 9.61331 18.6476 10.0076C19.2414 10.4019 19.6891 10.9806 19.9218 11.6543C20.0379 11.4901 20.1001 11.2939 20.0999 11.0927V9.51584C20.1001 9.08595 19.9581 8.66806 19.6962 8.32716C19.4343 7.98626 19.0671 7.74146 18.6517 7.63084L15.7891 6.86774H3.885ZM14.7335 5.56774L13.1241 2.67134C12.9554 2.36747 12.7086 2.11421 12.4092 1.93776C12.1098 1.76131 11.7686 1.66808 11.4211 1.66774H9.6999V5.56774H14.7335ZM21.3999 11.0927C21.3999 12.0118 20.8539 12.8035 20.07 13.1623C19.9659 13.9229 19.5959 14.6221 19.0256 15.136C18.4553 15.6499 17.7215 15.9453 16.9542 15.9699C16.1869 15.9945 15.4357 15.7467 14.8336 15.2704C14.2315 14.7941 13.8175 14.1201 13.6649 13.3677H8.3349C8.18228 14.1201 7.76826 14.7941 7.16619 15.2704C6.56413 15.7467 5.8129 15.9945 5.04561 15.9699C4.27832 15.9453 3.54451 15.6499 2.97421 15.136C2.4039 14.6221 2.03391 13.9229 1.9298 13.1623C1.53307 12.9811 1.19677 12.6897 0.960987 12.3228C0.725203 11.9559 0.599865 11.5289 0.599903 11.0927V8.89834C0.599876 8.20742 0.820034 7.53448 1.22842 6.97718C1.63681 6.41989 2.21218 6.00724 2.871 5.79914L3.9409 2.58944C4.15658 1.94279 4.57013 1.38032 5.12304 0.981622C5.67595 0.58292 6.34023 0.368164 7.0219 0.367737H11.4198C11.9998 0.367379 12.5692 0.522217 13.0692 0.816187C13.5691 1.11016 13.9813 1.53255 14.2629 2.03954L16.2649 5.64964L18.9858 6.37504C19.6781 6.55929 20.2901 6.96713 20.7267 7.53512C21.1633 8.10312 21.3999 8.79945 21.3999 9.51584V11.0927ZM5.1499 10.7677C4.63273 10.7677 4.13674 10.9732 3.77104 11.3389C3.40535 11.7046 3.1999 12.2006 3.1999 12.7177C3.1999 13.2349 3.40535 13.7309 3.77104 14.0966C4.13674 14.4623 4.63273 14.6677 5.1499 14.6677C5.66708 14.6677 6.16307 14.4623 6.52876 14.0966C6.89446 13.7309 7.0999 13.2349 7.0999 12.7177C7.0999 12.2006 6.89446 11.7046 6.52876 11.3389C6.16307 10.9732 5.66708 10.7677 5.1499 10.7677ZM16.8499 10.7677C16.3327 10.7677 15.8367 10.9732 15.471 11.3389C15.1053 11.7046 14.8999 12.2006 14.8999 12.7177C14.8999 13.2349 15.1053 13.7309 15.471 14.0966C15.8367 14.4623 16.3327 14.6677 16.8499 14.6677C17.3671 14.6677 17.8631 14.4623 18.2288 14.0966C18.5945 13.7309 18.7999 13.2349 18.7999 12.7177C18.7999 12.2006 18.5945 11.7046 18.2288 11.3389C17.8631 10.9732 17.3671 10.7677 16.8499 10.7677Z" fill="#E20001"/>
</svg>
