<svg width="19" height="20" viewBox="0 0 19 20" fill="none" xmlns="http://www.w3.org/2000/svg">
<path d="M3.7607 4.13582L3.67972 4.19449L3.6798 4.19459L5.70946 6.99625H4.625C4.61719 6.99625 4.61004 6.9971 4.60368 6.9984C4.5264 7.00505 4.44931 7.02996 4.37956 7.07519C4.37955 7.07519 4.37954 7.07519 4.37954 7.0752L3.37026 7.72936L1.36563 3.82594V1.99078C1.36563 1.37906 1.86343 0.88125 2.47515 0.88125C3.08688 0.88125 3.58469 1.37906 3.58469 1.99078V3.90383C3.58469 3.99029 3.60755 4.07522 3.65092 4.14998C3.65333 4.15419 3.65628 4.1591 3.65898 4.16341L3.74367 4.11023C3.74902 4.11898 3.75469 4.12754 3.7607 4.13582ZM3.7607 4.13582L5.83295 6.99625L3.7607 4.13582ZM9.8444 16.1938L9.34848 17.5562H14C14.7014 17.5562 15.2719 18.1267 15.2719 18.8281C15.2719 18.9281 15.2602 19.0254 15.2382 19.1187H18.6094C18.8798 19.1187 19.1 19.3389 19.1 19.6094C19.1 19.8798 18.8798 20.1 18.6094 20.1H0.953125C0.682661 20.1 0.4625 19.8798 0.4625 19.6094C0.4625 19.3389 0.682661 19.1187 0.953125 19.1187H6.51181C6.48983 19.0254 6.47812 18.9281 6.47812 18.8281V18.0469C6.47812 17.989 6.48838 17.9316 6.50839 17.8772L6.50839 17.8772L7.12869 16.1938H6.96875H6.96871C6.78666 16.1938 6.61864 16.0927 6.53376 15.93L6.53364 15.9298L0.439419 4.17109C0.403267 4.10134 0.384375 4.02392 0.384375 3.94531C0.384375 3.93751 0.384476 3.92993 0.384645 3.92249C0.384476 3.91724 0.384375 3.91181 0.384375 3.90625V1.99078C0.384375 0.837818 1.32219 -0.1 2.47515 -0.1C3.62812 -0.1 4.56594 0.837818 4.56594 1.99078V3.74524L6.92116 6.99625H12.4375C13.1389 6.99625 13.7094 7.56672 13.7094 8.26813C13.7094 8.96953 13.1389 9.54 12.4375 9.54H8.76398L9.47756 10.525H14.7812C16.3442 10.525 17.6156 11.7964 17.6156 13.3594C17.6156 14.9223 16.3442 16.1938 14.7812 16.1938H9.8444ZM14.0663 15.2125H14.7812C15.803 15.2125 16.6344 14.3811 16.6344 13.3594C16.6344 12.3377 15.803 11.5063 14.7812 11.5063H9.22715C9.06985 11.5063 8.92212 11.4308 8.82984 11.3035L8.82984 11.3035L7.55228 9.54H6.65008L8.39797 12.0875H12.0469C13.1791 12.0875 14.1 13.0084 14.1 14.1406V14.9219C14.1 15.0218 14.0883 15.1191 14.0663 15.2125ZM8.18672 17.8791L8.18673 17.8791L8.80015 16.1938H8.17441L7.45938 18.1344V18.8281C7.45938 18.9883 7.58984 19.1187 7.75 19.1187H14C14.1602 19.1187 14.2906 18.9883 14.2906 18.8281C14.2906 18.668 14.1602 18.5375 14 18.5375H8.64777C8.48768 18.5375 8.33769 18.4594 8.2459 18.3283C8.15405 18.1971 8.13203 18.0295 8.18672 17.8791ZM12.4375 8.55871C12.5977 8.55871 12.7281 8.42825 12.7281 8.26809C12.7281 8.10792 12.5977 7.97746 12.4375 7.97746H5.57801L5.9768 8.55871H12.4375ZM12.8281 15.2125C12.9883 15.2125 13.1188 15.082 13.1188 14.9219V14.1406C13.1188 13.5497 12.6378 13.0688 12.0469 13.0688H8.51118L8.28687 13.65H10.4844C10.7548 13.65 10.975 13.8702 10.975 14.1406C10.975 14.4111 10.7548 14.6313 10.4844 14.6313H7.90825L7.68394 15.2125H12.8281ZM3.82117 8.60646L6.90183 14.5138L7.6113 12.6753L4.51226 8.15854L3.82117 8.60646Z" fill="#E20001" stroke="#E20001" stroke-width="0.2"/>
</svg>
