<svg width="24" height="25" viewBox="0 0 24 25" fill="none" xmlns="http://www.w3.org/2000/svg">
<path fill-rule="evenodd" clip-rule="evenodd" d="M10.6392 0.0620718C10.5887 0.112757 10.5473 0.470052 10.5473 0.85631C10.5473 1.2581 10.4884 1.55839 10.4096 1.55839C10.3338 1.55839 10.0424 1.66937 9.76212 1.8051L9.2525 2.05168L8.82291 1.60763C8.5865 1.36329 8.29963 1.16345 8.18543 1.16345C7.94613 1.16345 6.21069 2.86883 6.21069 3.10395C6.21069 3.19018 6.39335 3.46915 6.61662 3.72389L7.02256 4.18703L6.79587 4.78155C6.58022 5.34725 6.54408 5.37621 6.05273 5.37621C5.10445 5.37621 5.02797 5.48746 5.02797 6.86845C5.02797 7.64163 5.08566 8.14597 5.18567 8.24616C5.2724 8.33305 5.61552 8.40414 5.94812 8.40414C6.54776 8.40414 6.55499 8.40954 6.82596 9.05185L7.09904 9.69956L6.65486 10.1308C6.41057 10.3681 6.21069 10.6593 6.21069 10.778C6.21069 10.973 7.91577 12.7486 8.10303 12.7486C8.14601 12.7486 8.41107 12.5404 8.69216 12.2861L9.20322 11.8235L9.80956 12.0839C10.4011 12.3378 10.4159 12.3586 10.4159 12.9319C10.4159 13.7999 10.6153 13.9334 11.9114 13.9334C13.2342 13.9334 13.4138 13.8214 13.4656 12.965C13.5038 12.3295 13.5079 12.3242 14.1574 12.0781L14.8106 11.8304L15.2926 12.3019C15.8699 12.8666 15.9271 12.8476 17.0331 11.7201C17.8871 10.8496 17.9101 10.6839 17.2633 10.0632L16.886 9.70101L17.1595 9.05251C17.4307 8.4094 17.4378 8.40414 18.0376 8.40414C18.3702 8.40414 18.7133 8.33305 18.8 8.24616C18.8986 8.14742 18.9577 7.65729 18.9577 6.93902C18.9577 5.57395 18.8326 5.37621 17.9689 5.37621C17.4094 5.37621 17.3854 5.3587 17.1209 4.7597L16.8487 4.14332L17.3118 3.66807C17.5666 3.40674 17.775 3.13463 17.775 3.06327C17.775 2.85303 16.0128 1.16345 15.7935 1.16345C15.6829 1.16345 15.3992 1.36329 15.1628 1.60763L14.7332 2.05168L14.2236 1.8051C13.9433 1.66937 13.6548 1.55839 13.5827 1.55839C13.5105 1.55839 13.4338 1.21769 13.4121 0.801412L13.3727 0.0444308L12.0519 0.0071742C11.3255 -0.0132314 10.6898 0.0113869 10.6392 0.0620718ZM13.5856 3.87318C14.291 4.22784 14.8198 4.80881 15.1834 5.62858C15.4946 6.33027 15.4513 7.82278 15.1 8.50077C14.7981 9.08345 14.1078 9.7517 13.4914 10.058C12.7802 10.4117 11.2056 10.4117 10.4944 10.058C9.26946 9.4493 8.5819 8.33397 8.5819 6.956C8.5819 4.28866 11.2015 2.67464 13.5856 3.87318ZM12.4126 6.17032L11.5542 7.09621L11.143 6.69691C10.5434 6.11463 9.88736 6.21245 9.89222 6.88359C9.89446 7.18994 11.2039 8.66744 11.473 8.66744C11.5698 8.66744 12.1996 8.11609 12.8723 7.44205C14.1647 6.14728 14.3875 5.67361 13.8413 5.38082C13.4128 5.15109 13.2998 5.21349 12.4126 6.17032ZM0.514725 10.1331C0.381472 10.2106 0.192501 10.4658 0.0948609 10.7001C-0.254303 11.5371 0.413406 15.946 1.23303 18.215C1.57628 19.1654 1.78194 19.5046 2.45004 20.2223C2.89212 20.6973 3.80097 21.5231 4.46947 22.0573L5.68504 23.0289V23.8523C5.68504 24.3175 5.75363 24.7447 5.84273 24.8339C6.06377 25.0554 10.1686 25.0554 10.3896 24.8339C10.7564 24.4665 10.4786 20.8276 9.94071 18.9524C9.56369 17.6384 8.97351 16.6827 7.44176 14.9069C6.87301 14.2476 6.18309 13.4331 5.90844 13.0968C5.29198 12.3418 4.82034 12.278 4.22938 12.8701C3.50687 13.5939 3.78862 14.5296 5.21786 16.1544C5.92841 16.9622 6.04931 17.1663 5.93932 17.3722C5.71539 17.7914 5.4728 17.6568 4.55778 16.6057C3.43144 15.312 3.00277 14.411 3.08858 13.5171C3.14128 12.9672 3.06952 12.671 2.63718 11.654C2.35438 10.9889 2.0014 10.3411 1.85264 10.2143C1.55118 9.95759 0.885441 9.91718 0.514725 10.1331ZM22.1291 10.2143C21.9781 10.3411 21.6266 11.0075 21.348 11.6954C20.936 12.7125 20.8522 13.0644 20.8991 13.5798C20.977 14.4371 20.4222 15.5428 19.3014 16.7638C18.5857 17.5435 18.4195 17.6637 18.2216 17.5444C18.093 17.4667 17.9664 17.3389 17.9402 17.2602C17.9139 17.1814 18.28 16.6862 18.7537 16.1593C20.1875 14.5644 20.4823 13.5974 19.7563 12.8701C19.381 12.4941 18.8061 12.3649 18.4916 12.586C18.4161 12.6392 18.0798 13.0382 17.7445 13.4726C17.4093 13.9071 16.7449 14.7068 16.268 15.2499C14.2258 17.5757 13.6827 19.0461 13.4937 22.7597C13.3739 25.1149 13.2456 24.9919 15.8218 24.9919C16.9289 24.9919 17.9037 24.9321 18.0465 24.8556C18.2494 24.7468 18.3007 24.5765 18.3007 24.0107C18.3007 23.6209 18.3366 23.2082 18.3804 23.0937C18.4243 22.9791 18.9418 22.5074 19.5303 22.0456C21.051 20.8523 22.1904 19.615 22.5791 18.7342C23.2641 17.1822 23.9434 13.7695 23.9936 11.6261C24.0158 10.6752 23.9974 10.6044 23.6484 10.3026C23.2075 9.92152 22.5252 9.88177 22.1291 10.2143Z" fill="white"/>
</svg>
