<svg width="25" height="15" viewBox="0 0 25 15" fill="none" xmlns="http://www.w3.org/2000/svg">
<path d="M12.1284 0C7.4939 0 3.29106 2.5356 0.189797 6.65408C-0.0632658 6.99149 -0.0632658 7.46289 0.189797 7.80031C3.29106 11.9237 7.4939 14.4593 12.1284 14.4593C16.763 14.4593 20.9658 11.9237 24.0671 7.80527C24.3201 7.46785 24.3201 6.99646 24.0671 6.65904C20.9658 2.5356 16.763 0 12.1284 0ZM12.4609 12.3207C9.38443 12.5142 6.84387 9.97863 7.03739 6.89722C7.19618 4.35666 9.25542 2.29742 11.796 2.13863C14.8724 1.94511 17.413 4.48071 17.2195 7.56213C17.0557 10.0977 14.9965 12.157 12.4609 12.3207ZM12.3071 9.96871C10.6497 10.0729 9.28023 8.70836 9.38939 7.05104C9.47375 5.68152 10.5852 4.57499 11.9548 4.48567C13.6121 4.38147 14.9816 5.74603 14.8724 7.40334C14.7831 8.77782 13.6716 9.88436 12.3071 9.96871Z" fill="#FFFFFF"/>
</svg>
