<svg width="21" height="21" viewBox="0 0 21 21" fill="none" xmlns="http://www.w3.org/2000/svg">
<path d="M10.5 0C4.70156 0 0 4.70156 0 10.5C0 16.2984 4.70156 21 10.5 21C16.2984 21 21 16.2984 21 10.5C21 4.70156 16.2984 0 10.5 0ZM10.5 16.5938C9.98203 16.5938 9.5625 16.1742 9.5625 15.6562C9.5625 15.1383 9.98203 14.7188 10.5 14.7188C11.018 14.7188 11.4375 15.1383 11.4375 15.6562C11.4375 16.1742 11.018 16.5938 10.5 16.5938ZM11.9742 11.4492C11.762 11.5312 11.5793 11.6752 11.4501 11.8625C11.321 12.0498 11.2512 12.2717 11.25 12.4992V13.0312C11.25 13.1344 11.1656 13.2188 11.0625 13.2188H9.9375C9.83438 13.2188 9.75 13.1344 9.75 13.0312V12.5273C9.75 11.9859 9.90703 11.4516 10.2164 11.0062C10.5188 10.5703 10.9406 10.2375 11.4375 10.0477C12.2344 9.74063 12.75 9.07266 12.75 8.34375C12.75 7.31016 11.7398 6.46875 10.5 6.46875C9.26016 6.46875 8.25 7.31016 8.25 8.34375V8.52188C8.25 8.625 8.16562 8.70938 8.0625 8.70938H6.9375C6.83437 8.70938 6.75 8.625 6.75 8.52188V8.34375C6.75 7.42266 7.15312 6.5625 7.88437 5.92266C8.5875 5.30625 9.51562 4.96875 10.5 4.96875C11.4844 4.96875 12.4125 5.30859 13.1156 5.92266C13.8469 6.5625 14.25 7.42266 14.25 8.34375C14.25 9.69844 13.357 10.9172 11.9742 11.4492Z" fill="#B1B1B1"/>
</svg>
