<svg width="274" height="201" viewBox="0 0 274 201" fill="none" xmlns="http://www.w3.org/2000/svg">
<g clip-path="url(#clip0_1_5349)">
<path d="M269.385 141.26C264.593 151.176 256.297 158.762 246.805 164.535C242.912 166.883 238.864 168.962 234.688 170.757C231.957 171.943 229.188 173.025 226.382 174.004C212.462 178.879 197.734 181.261 182.98 181.269C180.569 181.271 178.158 181.209 175.747 181.083C175.055 181.047 174.363 181.006 173.671 180.96C170.027 180.718 166.394 180.329 162.773 179.794C162.702 179.784 162.628 179.774 162.557 179.761C154.983 178.64 147.516 176.884 140.234 174.514C138.822 174.055 137.419 173.573 136.025 173.068C135.648 172.935 135.272 172.795 134.898 172.657C133.326 172.073 131.766 171.46 130.218 170.818C128.916 170.279 127.622 169.721 126.335 169.142C125.068 168.568 123.81 167.975 122.56 167.364C120.516 166.359 118.493 165.305 116.492 164.203C114.948 163.346 113.425 162.457 111.922 161.535C108.194 159.251 104.587 156.775 101.115 154.117C99.8891 153.178 98.6802 152.215 97.4882 151.229C96.6616 150.545 95.8426 149.847 95.0109 149.168C93.2561 147.737 91.4503 146.377 89.436 145.359C88.8281 145.052 88.2051 144.776 87.5692 144.533C85.1924 143.651 82.6884 143.162 80.1553 143.087C75.8342 142.916 71.3732 143.722 67.1944 144.916C65.2082 145.479 63.2447 146.127 61.2812 146.791C60.475 147.063 59.6696 147.337 58.865 147.612C57.2017 148.181 55.5384 148.737 53.8598 149.245C53.3002 149.413 52.7407 149.579 52.1786 149.734C49.9345 150.382 47.6474 150.87 45.3345 151.193C40.1694 151.852 34.9236 151.394 29.9498 149.849L29.5251 149.716C28.813 149.492 28.1085 149.247 27.4065 148.979L26.9818 148.816C26.3053 148.553 25.6415 148.272 24.9903 147.972L24.5656 147.778C23.9399 147.484 23.327 147.178 22.7243 146.854C22.6734 146.829 22.6251 146.803 22.5742 146.775C22.3402 146.653 22.1088 146.52 21.8798 146.395C18.1871 144.322 14.8291 141.7 11.9202 138.617C11.8363 138.533 11.7574 138.446 11.6659 138.362C11.2614 137.923 10.8646 137.477 10.4806 137.02C10.3382 136.852 10.1958 136.684 10.0559 136.51C9.60065 135.952 9.16066 135.381 8.73594 134.799C8.67236 134.714 8.61126 134.628 8.55028 134.544C6.81343 132.132 5.37281 129.52 4.25964 126.763C4.224 126.679 4.19097 126.592 4.16041 126.508C3.82213 125.633 3.5127 124.743 3.23212 123.837C3.11762 123.46 3.00834 123.072 2.9116 122.694C2.87856 122.582 2.84801 122.467 2.82007 122.355C1.42894 116.815 1.27881 111.052 1.27881 105.323V103.32C1.31954 94.0525 1.46198 84.6269 2.82517 75.4869C2.83059 75.4234 2.83992 75.3604 2.85312 75.2981C3.31095 72.2214 3.93155 69.1713 4.71231 66.1607C5.53221 63.0024 6.57855 59.9077 7.84316 56.9008C10.9791 49.5031 15.5394 42.7711 20.6031 36.5316C33.3452 20.8408 50.0727 7.64991 69.6513 2.72916C90.7483 -2.58443 114.195 2.50723 131.213 16.096C136.231 20.101 140.755 24.8202 146.318 27.9987C146.506 28.1084 146.697 28.2155 146.89 28.3201C147.625 28.7206 148.376 29.0845 149.143 29.4119C150.16 29.8475 151.206 30.2098 152.274 30.4961C155.654 31.4067 159.187 31.4884 162.557 30.3583C162.832 30.2639 163.106 30.1644 163.378 30.0548C163.956 29.8252 164.508 29.6109 165.039 29.4119C168.666 28.0574 171.459 27.3992 175.866 27.6365C186.333 28.2279 196.652 30.3941 206.478 34.0623C206.874 34.2077 207.271 34.3582 207.665 34.5087C233.279 44.3425 255.302 63.8699 266.742 88.9634C267.047 89.6267 267.341 90.295 267.625 90.9685C274.448 106.942 276.91 125.684 269.385 141.26Z" fill="#F2F2F2"/>
<path d="M16.1776 131.426V131.528L16.1394 131.574L16.1776 131.426Z" fill="#CACACA"/>
<path d="M61.2812 146.791C60.4749 147.063 59.6696 147.337 58.865 147.612V146.791H61.2812Z" fill="white"/>
<path d="M152.274 15.6523H146.317V30.5893H152.274V15.6523Z" fill="#E4E4E4"/>
<path d="M162.557 29.4121V179.762C154.983 178.64 147.516 176.885 140.234 174.514C138.822 174.055 137.419 173.573 136.025 173.068C135.648 172.935 135.272 172.795 134.898 172.657C133.326 172.073 131.766 171.46 130.218 170.818C128.916 170.28 127.622 169.721 126.335 169.142C125.068 168.568 123.81 167.975 122.56 167.364C120.516 166.359 118.493 165.305 116.492 164.203C114.948 163.346 113.425 162.457 111.922 161.535V29.4121H162.557Z" fill="#E4E4E4"/>
<path d="M182.98 29.4121V181.269C180.569 181.272 178.158 181.21 175.747 181.083C175.055 181.047 174.363 181.006 173.671 180.96C170.027 180.718 166.394 180.33 162.773 179.795C162.702 179.784 162.628 179.774 162.557 179.762V29.4121H182.98Z" fill="#CACACA"/>
<path d="M128.729 44.3481H121.07V52.03H128.729V44.3481Z" fill="white"/>
<path d="M141.069 44.3481H133.41V52.03H141.069V44.3481Z" fill="white"/>
<path d="M153.408 44.3481H145.749V52.03H153.408V44.3481Z" fill="white"/>
<path d="M128.942 61.8457H121.283V69.5275H128.942V61.8457Z" fill="white"/>
<path d="M141.281 61.8457H133.622V69.5275H141.281V61.8457Z" fill="white"/>
<path d="M153.621 61.8457H145.962V69.5275H153.621V61.8457Z" fill="white"/>
<path d="M129.155 79.3433H121.496V87.0251H129.155V79.3433Z" fill="white"/>
<path d="M141.494 79.3433H133.835V87.0251H141.494V79.3433Z" fill="white"/>
<path d="M153.834 79.3433H146.175V87.0251H153.834V79.3433Z" fill="white"/>
<path d="M129.367 96.8408H121.708V104.523H129.367V96.8408Z" fill="white"/>
<path d="M141.707 96.8408H134.048V104.523H141.707V96.8408Z" fill="white"/>
<path d="M154.046 96.8408H146.387V104.523H154.046V96.8408Z" fill="white"/>
<path d="M129.58 114.338H121.921V122.02H129.58V114.338Z" fill="white"/>
<path d="M141.919 114.338H134.26V122.02H141.919V114.338Z" fill="white"/>
<path d="M154.259 114.338H146.6V122.02H154.259V114.338Z" fill="white"/>
<path d="M129.793 131.836H122.134V139.518H129.793V131.836Z" fill="white"/>
<path d="M142.132 131.836H134.473V139.518H142.132V131.836Z" fill="white"/>
<path d="M154.472 131.836H146.813V139.518H154.472V131.836Z" fill="white"/>
<path d="M130.006 149.333H122.347V157.015H130.006V149.333Z" fill="white"/>
<path d="M142.345 149.333H134.686V157.015H142.345V149.333Z" fill="white"/>
<path d="M154.685 149.333H147.026V157.015H154.685V149.333Z" fill="white"/>
<path d="M130.218 166.831V170.818C128.916 170.279 127.621 169.721 126.335 169.142C125.068 168.568 123.81 167.975 122.56 167.364V166.831H130.218Z" fill="white"/>
<path d="M142.559 166.831V174.514H140.234C138.822 174.055 137.419 173.573 136.025 173.068C135.648 172.935 135.272 172.795 134.898 172.657V166.831L142.559 166.831Z" fill="white"/>
<path d="M154.897 166.831H147.238V174.513H154.897V166.831Z" fill="white"/>
<path d="M221.701 91.7197H215.744V100.573H221.701V91.7197Z" fill="#E4E4E4"/>
<path d="M226.382 99.8125V174.004C212.462 178.879 197.734 181.261 182.98 181.269C180.569 181.271 178.158 181.209 175.747 181.083V99.8125H226.382Z" fill="#E4E4E4"/>
<path d="M246.805 99.8125V164.535C242.912 166.883 238.864 168.962 234.688 170.756C231.957 171.943 229.188 173.025 226.382 174.004V99.8125H246.805Z" fill="#CACACA"/>
<path d="M193.405 114.338H185.746V122.02H193.405V114.338Z" fill="white"/>
<path d="M205.744 114.338H198.085V122.02H205.744V114.338Z" fill="white"/>
<path d="M218.084 114.338H210.425V122.02H218.084V114.338Z" fill="white"/>
<path d="M193.618 131.836H185.959V139.518H193.618V131.836Z" fill="white"/>
<path d="M205.957 131.836H198.298V139.518H205.957V131.836Z" fill="white"/>
<path d="M218.296 131.836H210.637V139.518H218.296V131.836Z" fill="white"/>
<path d="M193.83 149.333H186.171V157.015H193.83V149.333Z" fill="white"/>
<path d="M206.17 149.333H198.511V157.015H206.17V149.333Z" fill="white"/>
<path d="M218.509 149.333H210.85V157.015H218.509V149.333Z" fill="white"/>
<path d="M194.043 166.831H186.384V174.513H194.043V166.831Z" fill="white"/>
<path d="M206.383 166.831H198.724V174.513H206.383V166.831Z" fill="white"/>
<path d="M218.722 166.831H211.063V174.513H218.722V166.831Z" fill="white"/>
<path d="M181.74 183.609C181.74 183.609 184.465 193.328 195.876 192.886C207.286 192.444 212.219 183.432 212.219 183.432L181.74 183.609Z" fill="#FF452B"/>
<path d="M24.5003 145.706L21.2402 151.694L21.7695 162.934L99.8898 186.216L133.908 190.412L127.257 149.722L103.985 145.589L69.0735 146.589L39.4754 141.111L24.5003 145.706Z" fill="black"/>
<path d="M35.375 185.111H33.3583C31.4088 185.118 29.498 184.565 27.8519 183.518C26.2057 182.47 24.893 180.972 24.069 179.2C20.96 172.392 21.881 162.979 21.8946 162.845C22.5991 154.709 27.0449 149.4 32.9583 149.641C39.4864 149.905 45.053 172.552 45.2868 173.516C45.6747 175.142 45.5726 176.846 44.9936 178.414C44.2731 180.388 42.9625 182.09 41.2409 183.289C39.5194 184.488 37.4707 185.124 35.375 185.111Z" fill="#FF452B"/>
<path d="M117.611 200.661C117.266 200.653 116.922 200.62 116.582 200.562C113.972 200.149 111.506 199.093 109.404 197.488C107.302 195.884 105.631 193.78 104.54 191.367C103.722 189.584 102.935 187.758 102.202 185.939C99.2554 178.638 101.725 165.875 105.739 160.935C109.281 156.575 112.846 156.609 118.243 156.66C118.797 156.666 119.371 156.671 119.967 156.672C125.959 156.682 132.294 178.791 134.376 186.056C134.542 186.635 134.679 187.113 134.785 187.472C135.111 188.576 135.072 189.896 134.67 191.396C133.399 196.128 129.213 199.638 124.253 200.13C120.69 200.482 118.455 200.661 117.611 200.661Z" fill="#FF452B"/>
<path d="M21.7693 162.934C21.7693 162.934 19.479 152.685 22.9145 145.706L26.3771 137.312L39.4615 149.505L42.4493 168.583L93.6505 176.364C93.6505 176.364 90.4793 145.087 110.388 143.85C130.296 142.613 139.742 176.364 139.742 176.364L149.676 183.609L218.914 178.484C218.914 178.484 220.136 181.842 218.38 183.609C216.624 185.376 132.586 190.854 132.586 190.854C132.586 190.854 128.358 148.975 111.621 152.862C94.8838 156.75 99.8896 186.216 99.8896 186.216L40.092 175.657C40.092 175.657 38.154 147.208 28.288 147.208C18.4219 147.208 21.7693 162.934 21.7693 162.934Z" fill="#FF452B"/>
<path d="M33.5685 127.304L44.849 109.569L92.946 106.742L146.328 107.449L171.17 130.598L94.3553 135.015L32.5164 131.658L33.5685 127.304Z" fill="#FF452B"/>
<path d="M33.5685 127.304C33.5685 127.304 23.9716 127.505 22.9146 145.706C22.9146 145.706 33.133 127.152 41.9419 168.501L94.5315 177.071C94.5315 177.071 92.5935 142.613 112.502 145.264C132.41 147.914 137.167 179.545 137.167 179.545C137.167 179.545 141.043 187.32 162.361 186.083C183.678 184.846 215.567 182.902 218.914 178.485C218.914 178.485 226.666 152.155 202.529 135.192L171.169 130.597L100.169 132.011L33.5685 127.304Z" fill="#E20001"/>
<path d="M57.6218 139.698H51.6318C51.4694 139.698 51.3085 139.667 51.1584 139.605C51.0082 139.543 50.8717 139.452 50.7567 139.337C50.6417 139.222 50.5504 139.085 50.4881 138.935C50.4259 138.785 50.3938 138.623 50.3938 138.461C50.3938 138.298 50.4259 138.137 50.4881 137.986C50.5504 137.836 50.6417 137.699 50.7567 137.584C50.8717 137.469 51.0082 137.378 51.1584 137.316C51.3085 137.255 51.4694 137.223 51.6318 137.224H57.6218C57.9481 137.225 58.2606 137.356 58.4909 137.588C58.7211 137.819 58.8504 138.133 58.8504 138.461C58.8504 138.788 58.7211 139.102 58.4909 139.334C58.2606 139.565 57.9481 139.696 57.6218 139.698Z" fill="#CACACA"/>
<path d="M148.795 178.131C150.935 178.131 152.671 176.391 152.671 174.243C152.671 172.096 150.935 170.356 148.795 170.356C146.654 170.356 144.919 172.096 144.919 174.243C144.919 176.391 146.654 178.131 148.795 178.131Z" fill="white"/>
<path d="M146.874 155.168C144.221 155.168 141.053 154.032 138.217 151.841C133.213 147.975 131.111 142.266 133.531 139.116C135.951 135.965 141.99 136.548 146.994 140.414C149.412 142.282 151.233 144.63 152.121 147.026C153.014 149.435 152.857 151.606 151.68 153.139C150.632 154.504 148.903 155.168 146.874 155.168Z" fill="white"/>
<path d="M215.751 150.232C213.799 150.232 210.292 148.25 206.82 145.032C204.739 143.103 203.015 141.036 201.965 139.211C200.899 137.357 200.656 135.962 201.281 135.283C201.907 134.605 203.312 134.738 205.239 135.657C207.136 136.562 209.327 138.123 211.408 140.052C215.8 144.122 218.233 148.404 216.946 149.8C216.788 149.952 216.6 150.07 216.395 150.144C216.189 150.218 215.969 150.248 215.751 150.232Z" fill="white"/>
<path d="M52.0177 127.301C51.9758 127.301 51.9337 127.299 51.8913 127.295L39.152 126.107C38.9195 126.085 38.6964 126.004 38.5039 125.872C38.3113 125.739 38.1557 125.56 38.0518 125.35C37.9478 125.14 37.899 124.908 37.91 124.674C37.9209 124.44 37.9912 124.213 38.1143 124.014L45.2981 112.397C45.4155 112.207 45.5775 112.049 45.7699 111.935C45.9624 111.822 46.1794 111.758 46.4022 111.748L55.9039 111.328C56.1223 111.318 56.3399 111.361 56.5385 111.453C56.737 111.545 56.9107 111.683 57.0452 111.856C57.1796 112.029 57.2708 112.232 57.3111 112.448C57.3515 112.663 57.3398 112.885 57.2771 113.095L53.331 126.32C53.2458 126.603 53.0721 126.851 52.8357 127.028C52.5992 127.204 52.3124 127.3 52.0177 127.301Z" fill="white"/>
<path d="M85.5882 130.022C85.4625 130.022 85.336 130.016 85.2085 130.004L63.1847 127.829C62.628 127.774 62.09 127.598 61.6082 127.313C61.1264 127.028 60.7124 126.641 60.3951 126.179C60.0777 125.717 59.8647 125.192 59.7708 124.638C59.677 124.085 59.7045 123.519 59.8516 122.977L63.02 111.317C63.2332 110.521 63.696 109.816 64.3399 109.304C64.9837 108.793 65.7746 108.503 66.5956 108.477L84.3697 107.854C85.3341 107.825 86.2744 108.159 87.0059 108.79C87.7375 109.421 88.2074 110.304 88.3234 111.264L89.79 123.954C89.8391 124.378 89.8178 124.806 89.7268 125.223L89.3414 126.99C89.1539 127.849 88.6796 128.617 87.997 129.169C87.3145 129.72 86.4646 130.021 85.5882 130.022Z" fill="white"/>
<path d="M102.777 130.636C102.132 130.634 101.507 130.414 101.002 130.012C100.498 129.609 100.143 129.048 99.9959 128.419L96.1105 111.575C96.0138 111.155 96.0126 110.719 96.1073 110.299C96.2019 109.879 96.3898 109.486 96.6571 109.148C96.9243 108.811 97.264 108.539 97.6508 108.352C98.0375 108.165 98.4614 108.067 98.8909 108.067H144.964C145.346 108.068 145.724 108.146 146.076 108.295C146.428 108.444 146.746 108.662 147.013 108.937L162.062 124.499C162.448 124.899 162.71 125.403 162.815 125.95C162.92 126.497 162.864 127.063 162.653 127.578C162.443 128.093 162.087 128.536 161.629 128.851C161.171 129.166 160.632 129.341 160.077 129.354L102.84 130.635C102.819 130.636 102.798 130.636 102.777 130.636Z" fill="white"/>
<path d="M44.4556 110.188L44.8488 109.569C44.8488 109.569 47.1392 103.208 78.6753 102.148C110.211 101.088 139.633 101.618 146.328 107.449L91.8887 107.272L45.9059 110.453L44.4556 110.188Z" fill="#E20001"/>
<path d="M29.5213 155.513C26.2131 155.513 23.5312 161.051 23.5312 167.882C23.5312 174.713 26.2131 180.251 29.5213 180.251C32.8296 180.251 35.5114 174.713 35.5114 167.882C35.5114 161.051 32.8296 155.513 29.5213 155.513ZM29.7856 158.163C30.5154 158.163 31.107 159.587 31.107 161.344C31.107 163.101 30.5154 164.525 29.7856 164.525C29.0559 164.525 28.4643 163.101 28.4643 161.344C28.4643 159.587 29.0559 158.163 29.7856 158.163ZM30.5784 167.882C30.5784 168.468 30.184 168.942 29.6975 168.942C29.2111 168.942 28.8166 168.468 28.8166 167.882C28.8166 167.297 29.2111 166.822 29.6975 166.822C30.184 166.822 30.5784 167.297 30.5784 167.882V167.882ZM25.9757 168.563C24.8429 168.65 23.8951 168.338 23.8586 167.864C23.8221 167.391 24.7108 166.936 25.8437 166.848C26.9765 166.76 27.9243 167.073 27.9608 167.546C27.9972 168.02 27.1085 168.475 25.9757 168.563L25.9757 168.563ZM29.7856 177.601C29.0559 177.601 28.4643 176.177 28.4643 174.42C28.4643 172.664 29.0559 171.239 29.7856 171.239C30.5154 171.239 31.107 172.664 31.107 174.42C31.107 176.177 30.5154 177.601 29.7856 177.601H29.7856ZM33.1991 168.563C32.0662 168.65 31.1184 168.338 31.0819 167.864C31.0455 167.391 31.9342 166.936 33.067 166.848C34.1998 166.76 35.1476 167.073 35.1841 167.546C35.2206 168.02 34.3319 168.475 33.1991 168.563L33.1991 168.563Z" fill="#E4E4E4"/>
<path d="M113.207 163.818C107.952 163.818 103.693 170.899 103.693 179.633C103.693 188.367 107.952 195.448 113.207 195.448C118.461 195.448 122.72 188.367 122.72 179.633C122.72 170.899 118.461 163.818 113.207 163.818ZM107.523 180.82C105.988 180.939 104.705 180.515 104.655 179.874C104.606 179.233 105.81 178.617 107.344 178.498C108.878 178.379 110.162 178.802 110.212 179.443C110.261 180.085 109.057 180.701 107.523 180.82ZM113.212 192.886C112.224 192.886 111.422 190.957 111.422 188.578C111.422 186.198 112.224 184.269 113.212 184.269C114.201 184.269 115.002 186.198 115.002 188.578C115.002 190.957 114.201 192.886 113.212 192.886ZM111.797 179.721C111.797 178.784 112.428 178.025 113.207 178.025C113.985 178.025 114.616 178.784 114.616 179.721C114.616 180.658 113.985 181.418 113.207 181.418C112.428 181.418 111.797 180.658 111.797 179.721ZM113.212 175.174C112.224 175.174 111.422 173.245 111.422 170.865C111.422 168.486 112.224 166.557 113.212 166.557C114.201 166.557 115.002 168.486 115.002 170.865C115.002 173.245 114.201 175.174 113.212 175.174ZM119.245 180.466C117.711 180.585 116.427 180.162 116.377 179.521C116.328 178.879 117.532 178.263 119.066 178.144C120.601 178.025 121.885 178.449 121.934 179.09C121.984 179.731 120.78 180.348 119.245 180.466Z" fill="#E4E4E4"/>
<path d="M79.9087 132.188L82.0228 137.135C82.0228 137.135 85.5464 138.549 87.8368 133.778L83.1958 129.123L79.9087 132.188Z" fill="#CACACA"/>
<path d="M77.0016 133.336C73.2129 133.336 70.1306 131.275 70.1306 128.742C70.1306 126.208 73.2129 124.147 77.0016 124.147C80.7903 124.147 83.8726 126.208 83.8726 128.742C83.8726 131.275 80.7903 133.336 77.0016 133.336Z" fill="#CACACA"/>
<path d="M209.489 149.505L170.099 150.66C170.099 150.66 161.478 153.085 160.599 160.014C160.599 160.014 161.83 165.673 164.997 165.673C168.164 165.673 216.719 163.133 216.719 163.133C216.719 163.133 219.886 158.282 217.247 154.817C214.608 151.353 209.489 149.505 209.489 149.505Z" fill="#FF452B"/>
<path d="M212.899 151.713L166.706 153.245L166.723 153.774L212.917 152.243L212.899 151.713Z" fill="#E4E4E4"/>
<path d="M214.579 153.392L164.34 155.675L164.364 156.205L214.603 153.922L214.579 153.392Z" fill="#E4E4E4"/>
<path d="M216.338 155.673L162.461 158.575L162.489 159.105L216.366 156.203L216.338 155.673Z" fill="#E4E4E4"/>
<path d="M29.2412 143.93C29.026 143.653 28.874 143.332 28.796 142.989C28.718 142.646 28.7158 142.291 28.7896 141.947C28.8634 141.604 29.0114 141.281 29.2231 141.001C29.4349 140.721 29.7052 140.491 30.0151 140.327L29.5147 134.858L32.7544 133.742L33.353 141.476C33.593 142.017 33.6269 142.627 33.4483 143.191C33.2696 143.755 32.891 144.233 32.384 144.536C31.877 144.838 31.2769 144.944 30.6976 144.832C30.1182 144.721 29.5998 144.4 29.2407 143.93L29.2412 143.93Z" fill="#FFB8B8"/>
<path d="M32.7193 112.538C32.7193 112.538 34.9424 107.858 36.918 109.503C38.8936 111.148 34.2096 124.986 34.2096 124.986L33.4973 138.42L29.7428 138.043L28.6812 124.956L32.7193 112.538Z" fill="#E6E6E6"/>
<path d="M2.89795 181.772L5.68497 184.035L15.7133 174.328L11.6 170.99L2.89795 181.772Z" fill="#FFB8B8"/>
<path d="M2.92341 180.282L8.41218 184.738C9.33978 185.491 9.93107 186.583 10.056 187.774C10.1809 188.964 9.82924 190.156 9.07831 191.086L8.98635 191.2L0 183.905L2.92341 180.282Z" fill="black"/>
<path d="M41.6321 188.053H45.2178L46.9227 174.18H41.6313L41.6321 188.053Z" fill="#FFB8B8"/>
<path d="M40.717 186.879H47.7789C48.9724 186.879 50.1171 187.355 50.961 188.201C51.805 189.048 52.2792 190.196 52.2793 191.393V191.54H40.7173L40.717 186.879Z" fill="black"/>
<path d="M47.924 123.019C47.924 123.019 54.6511 131.232 53.1887 139.447C51.7263 147.662 50.5564 153.822 50.5564 153.822L48.2177 172.303C48.2177 172.303 49.0951 177.337 47.9252 178.633C47.9252 178.633 49.6801 181.691 46.4628 182.864C43.2455 184.037 41.5083 182.459 41.5083 182.459C41.5083 182.459 39.1494 179.051 40.6119 178.172L41.2281 141.9L17.7983 172.596C17.7983 172.596 17.3677 176.33 14.3655 176.37L10.7786 179.05L6.68384 176.703L8.73122 174.063C8.73122 174.063 7.56129 171.129 10.1936 170.542L25.4029 150.595L29.2052 140.327C29.2052 140.327 31.2526 132.406 36.8098 129.179V125.746L47.924 123.019Z" fill="black"/>
<path d="M36.3709 108.791C37.2565 107.742 38.4961 107.055 39.8537 106.863C41.2112 106.671 42.5918 106.986 43.7325 107.749L43.9755 107.912C46.5717 110.86 48.3165 114.464 49.0222 118.333L50.1175 124.34L36.3707 127.326L33.148 116.179C32.739 114.764 32.8375 113.25 33.4263 111.9C34.0151 110.55 35.0569 109.45 36.3707 108.792L36.3709 108.791Z" fill="#E6E6E6"/>
<path d="M58.9559 145.207C58.5748 145.082 58.2256 144.874 57.933 144.599C57.6404 144.325 57.4114 143.989 57.2623 143.615C57.1131 143.242 57.0474 142.84 57.0697 142.439C57.092 142.037 57.2018 141.646 57.3914 141.291L53.4258 136.424L55.7873 133.285L61.2912 140.238C61.8635 140.597 62.2846 141.154 62.4748 141.804C62.665 142.453 62.6111 143.15 62.3233 143.763C62.0355 144.375 61.5337 144.86 60.9131 145.126C60.2925 145.392 59.5961 145.421 58.9559 145.207H58.9559Z" fill="#FFB8B8"/>
<path d="M42.2203 113.191C42.2203 113.191 41.3429 107.324 44.2677 107.618C47.1925 107.911 51.5798 124.046 51.5798 124.046L59.4769 137.247L55.6746 139.3L46.3151 127.566L42.2203 113.191Z" fill="#E6E6E6"/>
<path d="M47.5766 104.614H33.6487C33.3622 104.614 33.0876 104.5 32.885 104.296C32.6824 104.093 32.5684 103.818 32.5681 103.53V97.509C32.5681 95.3691 33.4157 93.3168 34.9243 91.8037C36.4329 90.2905 38.4791 89.4404 40.6127 89.4404C42.7462 89.4404 44.7924 90.2905 46.301 91.8037C47.8096 93.3168 48.6572 95.3691 48.6572 97.509V103.53C48.6569 103.818 48.5429 104.093 48.3403 104.296C48.1377 104.5 47.8631 104.614 47.5766 104.614Z" fill="black"/>
<path d="M42.2659 104.474C45.5232 104.474 48.1639 101.825 48.1639 98.5582C48.1639 95.2911 45.5232 92.6426 42.2659 92.6426C39.0085 92.6426 36.3679 95.2911 36.3679 98.5582C36.3679 101.825 39.0085 104.474 42.2659 104.474Z" fill="#FFB8B8"/>
<path d="M50.5602 98.1109H43.1376L43.0615 96.8845L42.6809 98.1109H41.5381L41.3873 95.6802L40.633 98.1109H38.4216V97.9905C38.4216 94.4712 40.9097 91.6079 43.9688 91.6079H45.0153C48.0734 91.6079 50.5624 94.4712 50.5624 97.9905L50.5602 98.1109Z" fill="black"/>
<path d="M43.4451 105.738C43.3544 105.738 43.2638 105.731 43.1742 105.717L34.3394 104.352V95.1229C34.3394 94.18 34.7128 93.2758 35.3775 92.6091C36.0422 91.9424 36.9437 91.5679 37.8838 91.5679H44.0649L43.8247 91.8138C40.4748 95.2339 42.9986 100.781 44.8011 103.784C44.9334 104 44.9931 104.253 44.9715 104.505C44.9499 104.757 44.8481 104.996 44.681 105.186C44.5276 105.363 44.3376 105.504 44.1242 105.6C43.9108 105.695 43.6792 105.743 43.4455 105.739L43.4451 105.738Z" fill="black"/>
</g>
<defs>
<clipPath id="clip0_1_5349">
<rect width="274" height="200" fill="white" transform="translate(0 0.661133)"/>
</clipPath>
</defs>
</svg>
