<svg width="304" height="226" viewBox="0 0 304 226" fill="none" xmlns="http://www.w3.org/2000/svg">
<g clip-path="url(#clip0)">
<path d="M273.989 53.511H274.596V53.7638H273.989V53.511Z" fill="black"/>
<path d="M275.002 54.3184L275.147 54.1372L275.004 53.9585L274.859 54.1396C274.701 53.9806 274.504 53.8928 274.301 53.8902C274.097 53.8876 273.899 53.9703 273.738 54.1252L273.881 54.3072C274.001 54.2007 274.144 54.1433 274.292 54.1429L274.293 54.143V55.0252L274.793 55.6517C274.695 55.7759 274.568 55.8606 274.431 55.895C274.294 55.9295 274.151 55.9122 274.022 55.8454C273.892 55.7785 273.781 55.6651 273.703 55.5195C273.625 55.374 273.584 55.2027 273.584 55.0276H273.887L273.483 54.522L273.078 55.0276H273.382C273.382 55.2093 273.416 55.3885 273.483 55.55C273.55 55.7115 273.646 55.8507 273.765 55.956C273.883 56.0612 274.02 56.1294 274.164 56.1548C274.308 56.1803 274.455 56.1622 274.592 56.1022C274.729 56.0421 274.853 55.9418 274.953 55.8097C275.053 55.6776 275.126 55.5175 275.166 55.3428C275.206 55.1681 275.212 54.984 275.184 54.8057C275.155 54.6275 275.093 54.4604 275.002 54.3184Z" fill="black"/>
</g>
<path d="M303.307 198.605H0V198.757H303.307V198.605Z" fill="#EBEBEB"/>
<path d="M272.916 208.366H252.824V208.517H272.916V208.366Z" fill="#EBEBEB"/>
<path d="M200.923 210.016H195.651V210.167H200.923V210.016Z" fill="#EBEBEB"/>
<path d="M252.218 202.736H240.577V202.888H252.218V202.736Z" fill="#EBEBEB"/>
<path d="M58.0224 203.755H31.8228V203.907H58.0224V203.755Z" fill="#EBEBEB"/>
<path d="M67.2676 203.755H63.4277V203.907H67.2676V203.755Z" fill="#EBEBEB"/>
<path d="M136.579 206.315H79.7515V206.467H136.579V206.315Z" fill="#EBEBEB"/>
<path d="M143.767 171.55H26.6364C25.7188 171.549 24.8393 171.183 24.1911 170.534C23.5428 169.884 23.1787 169.004 23.1787 168.087V3.43343C23.1867 2.5211 23.5543 1.64876 24.2017 1.0059C24.8491 0.363033 25.724 0.00156287 26.6364 0H143.767C144.686 0 145.567 0.364931 146.217 1.01451C146.866 1.66409 147.231 2.54512 147.231 3.46376V168.087C147.231 169.005 146.866 169.886 146.217 170.536C145.567 171.185 144.686 171.55 143.767 171.55ZM26.6364 0.121323C25.759 0.12293 24.9181 0.472592 24.2983 1.09356C23.6785 1.71453 23.3304 2.55606 23.3304 3.43343V168.087C23.3304 168.964 23.6785 169.805 24.2983 170.426C24.9181 171.047 25.759 171.397 26.6364 171.399H143.767C144.645 171.397 145.487 171.048 146.108 170.427C146.728 169.806 147.078 168.965 147.08 168.087V3.43343C147.078 2.5555 146.728 1.71398 146.108 1.09319C145.487 0.472395 144.645 0.122927 143.767 0.121323H26.6364Z" fill="#EBEBEB"/>
<path d="M274.984 171.55H157.847C156.929 171.549 156.049 171.183 155.399 170.534C154.75 169.885 154.385 169.005 154.383 168.087V3.43343C154.393 2.52055 154.762 1.64822 155.41 1.00552C156.058 0.362821 156.934 0.00154583 157.847 0H274.984C275.895 0.00315712 276.769 0.365333 277.415 1.00803C278.061 1.65072 278.428 2.52215 278.436 3.43343V168.087C278.436 169.003 278.072 169.882 277.425 170.532C276.778 171.181 275.9 171.547 274.984 171.55ZM157.847 0.121323C156.969 0.122927 156.127 0.472395 155.507 1.09319C154.886 1.71398 154.536 2.5555 154.535 3.43343V168.087C154.536 168.965 154.886 169.806 155.507 170.427C156.127 171.048 156.969 171.397 157.847 171.399H274.984C275.862 171.397 276.703 171.048 277.324 170.427C277.945 169.806 278.294 168.965 278.296 168.087V3.43343C278.294 2.5555 277.945 1.71398 277.324 1.09319C276.703 0.472395 275.862 0.122927 274.984 0.121323H157.847Z" fill="#EBEBEB"/>
<path d="M234.098 74.3553C239.105 61.3666 232.634 46.7785 219.645 41.7718C206.657 36.7651 192.068 43.2357 187.062 56.2244C182.055 69.2131 188.526 83.8012 201.514 88.8079C214.503 93.8146 229.091 87.3439 234.098 74.3553Z" fill="#FAFAFA"/>
<path d="M255.554 60.3156C255.554 59.2275 255.122 58.1838 254.354 57.4138C253.585 56.6438 252.542 56.2104 251.454 56.2088C251.053 56.2081 250.654 56.2674 250.271 56.3848C250.475 55.0152 250.349 53.6166 249.902 52.3058C249.455 50.9951 248.701 49.8104 247.703 48.8507C246.705 47.8911 245.491 47.1843 244.164 46.7896C242.836 46.3949 241.434 46.3236 240.073 46.5819C239.216 45.1742 237.924 44.0834 236.393 43.4737C234.862 42.8641 233.174 42.7688 231.584 43.2021C229.993 43.6355 228.587 44.574 227.577 45.8762C226.566 47.1784 226.007 48.7737 225.982 50.4217H225.854C224.033 50.4754 222.304 51.2367 221.034 52.5443C219.764 53.8518 219.054 55.6026 219.054 57.4251C219.054 59.2476 219.764 60.9984 221.034 62.3059C222.304 63.6135 224.033 64.3748 225.854 64.4285H251.569C252.638 64.3969 253.652 63.9494 254.397 63.1814C255.141 62.4133 255.556 61.3851 255.554 60.3156Z" fill="#F5F5F5"/>
<path d="M200.789 86.5517C200.789 85.4625 200.356 84.4179 199.586 83.6477C198.816 82.8776 197.771 82.4449 196.682 82.4449C196.284 82.4467 195.887 82.5059 195.505 82.6208C195.714 81.246 195.59 79.8412 195.143 78.5245C194.696 77.2077 193.939 76.0177 192.936 75.0545C191.933 74.0914 190.713 73.3833 189.379 72.9898C188.046 72.5964 186.637 72.5291 185.272 72.7937C184.414 71.386 183.123 70.2951 181.591 69.6855C180.06 69.0759 178.372 68.9806 176.782 69.4139C175.192 69.8473 173.785 70.7858 172.775 72.088C171.765 73.3902 171.205 74.9855 171.18 76.6335H171.065C169.243 76.6872 167.514 77.4485 166.244 78.7561C164.975 80.0636 164.265 81.8144 164.265 83.6369C164.265 85.4594 164.975 87.2102 166.244 88.5177C167.514 89.8253 169.243 90.5866 171.065 90.6402H196.779C197.848 90.615 198.865 90.1737 199.614 89.4101C200.363 88.6466 200.785 87.6211 200.789 86.5517Z" fill="#F5F5F5"/>
<path d="M113.23 109.093C113.229 108.005 112.795 106.962 112.025 106.193C111.255 105.425 110.212 104.993 109.124 104.993C108.725 104.994 108.329 105.051 107.947 105.163C108.122 103.93 108.031 102.674 107.679 101.48C107.328 100.285 106.724 99.1806 105.908 98.2398C105.093 97.299 104.085 96.5442 102.953 96.0264C101.82 95.5086 100.59 95.2399 99.3451 95.2384C98.8077 95.2396 98.2716 95.2904 97.7436 95.39C96.8878 93.9809 95.5967 92.8884 94.0653 92.2778C92.5338 91.6671 90.8453 91.5713 89.2546 92.005C87.664 92.4386 86.2576 93.378 85.248 94.6814C84.2384 95.9848 83.6803 97.5814 83.658 99.2299H83.5306C82.5936 99.2023 81.6606 99.3631 80.7868 99.7026C79.913 100.042 79.1162 100.554 78.4437 101.207C77.7711 101.86 77.2364 102.641 76.8713 103.504C76.5062 104.368 76.3181 105.296 76.3181 106.233C76.3181 107.171 76.5062 108.099 76.8713 108.962C77.2364 109.825 77.7711 110.607 78.4437 111.26C79.1162 111.913 79.913 112.424 80.7868 112.764C81.6606 113.103 82.5936 113.264 83.5306 113.237H109.239C110.315 113.208 111.336 112.758 112.083 111.982C112.83 111.207 113.242 110.17 113.23 109.093Z" fill="#F5F5F5"/>
<path d="M253.182 110.264C253.182 109.606 252.921 108.975 252.456 108.51C251.99 108.044 251.359 107.783 250.701 107.783C250.461 107.783 250.222 107.818 249.992 107.886C250.1 107.14 250.047 106.379 249.836 105.655C249.625 104.931 249.26 104.26 248.767 103.69C248.274 103.119 247.664 102.661 246.978 102.347C246.293 102.032 245.547 101.869 244.793 101.869C244.467 101.871 244.143 101.901 243.822 101.96C243.303 101.114 242.523 100.46 241.601 100.096C240.678 99.7309 239.662 99.6753 238.705 99.9371C237.748 100.199 236.902 100.764 236.293 101.548C235.685 102.331 235.347 103.291 235.33 104.283H235.251C234.125 104.283 233.045 104.73 232.248 105.527C231.452 106.323 231.005 107.403 231.005 108.529C231.005 109.655 231.452 110.735 232.248 111.532C233.045 112.328 234.125 112.776 235.251 112.776H250.774C251.425 112.758 252.043 112.485 252.494 112.014C252.945 111.544 253.192 110.915 253.182 110.264Z" fill="#F5F5F5"/>
<path d="M152.575 35.9601C152.575 35.6343 152.511 35.3116 152.386 35.0106C152.262 34.7096 152.079 34.4361 151.849 34.2057C151.618 33.9753 151.345 33.7926 151.044 33.6679C150.743 33.5432 150.42 33.479 150.094 33.479C149.851 33.4783 149.61 33.5151 149.378 33.5882C149.494 32.8409 149.445 32.0774 149.236 31.3507C149.027 30.6239 148.663 29.9512 148.169 29.379C147.674 28.8068 147.062 28.3487 146.373 28.0365C145.684 27.7243 144.936 27.5653 144.18 27.5706C143.856 27.5702 143.533 27.6007 143.215 27.6616C142.693 26.8209 141.914 26.1712 140.993 25.8093C140.072 25.4474 139.059 25.3926 138.105 25.653C137.15 25.9135 136.305 26.4753 135.696 27.2547C135.086 28.0342 134.745 28.9897 134.723 29.9789H134.65C133.524 29.9789 132.444 30.4263 131.647 31.2226C130.851 32.0189 130.404 33.099 130.404 34.2252C130.404 35.3514 130.851 36.4314 131.647 37.2278C132.444 38.0241 133.524 38.4715 134.65 38.4715H150.185C150.833 38.4478 151.445 38.1718 151.892 37.7025C152.338 37.2332 152.584 36.6079 152.575 35.9601Z" fill="#EBEBEB"/>
<path d="M64.9744 37.3249C64.9744 36.6669 64.713 36.0358 64.2477 35.5706C63.7825 35.1053 63.1514 34.8439 62.4934 34.8439C62.2511 34.8437 62.01 34.8784 61.7776 34.947C61.8863 34.2006 61.8332 33.4396 61.622 32.7155C61.4107 31.9914 61.0461 31.3213 60.553 30.7505C60.0599 30.1797 59.4498 29.7217 58.7641 29.4075C58.0784 29.0933 57.3332 28.9302 56.5789 28.9294C56.2554 28.9318 55.9326 28.9622 55.6144 29.0204C55.0923 28.1793 54.3125 27.5295 53.391 27.1677C52.4696 26.8059 51.4559 26.7516 50.5011 27.0128C49.5462 27.274 48.7014 27.8368 48.0924 28.6172C47.4835 29.3977 47.143 30.354 47.1218 31.3437H47.0429C45.9167 31.3437 44.8367 31.7911 44.0403 32.5874C43.244 33.3838 42.7966 34.4638 42.7966 35.59C42.7966 36.7162 43.244 37.7963 44.0403 38.5926C44.8367 39.3889 45.9167 39.8363 47.0429 39.8363H62.5844C63.2323 39.8141 63.8456 39.5386 64.2926 39.069C64.7395 38.5994 64.9843 37.9731 64.9744 37.3249Z" fill="#EBEBEB"/>
<path d="M264.993 198.672C258.32 190.307 200.959 118.678 192.97 118.66C184.477 118.66 168.329 138.478 168.329 138.478C168.329 138.478 140.225 103.646 128.184 104.592C116.785 105.484 42.9483 189.609 35.0259 198.672H264.993Z" fill="#F0F0F0"/>
<path d="M151.653 226C216.611 226 269.27 222.926 269.27 219.133C269.27 215.341 216.611 212.266 151.653 212.266C86.6957 212.266 34.0371 215.341 34.0371 219.133C34.0371 222.926 86.6957 226 151.653 226Z" fill="#F5F5F5"/>
<path d="M233.619 192.09C233.619 192.09 229.907 140.455 250.392 88.8082L247.923 86.6002C247.923 86.6002 225.509 125.163 223.477 192.8L233.619 192.09Z" fill="#FF452B"/>
<g opacity="0.5">
<path opacity="0.5" d="M233.619 192.09C233.619 192.09 229.907 140.455 250.392 88.8082L247.923 86.6002C247.923 86.6002 225.509 125.163 223.477 192.8L233.619 192.09Z" fill="white"/>
</g>
<path d="M255.93 75.2564C262.324 71.6956 270.908 78.7202 271.429 88.7657C270.573 88.1808 269.67 87.6675 268.73 87.231C268.433 84.6954 268.123 82.4448 268.123 82.4448V86.9641C267.596 86.7275 267.025 86.497 266.401 86.2786L266.152 83.8522L265.794 86.0966C264.943 85.8262 264.076 85.6094 263.198 85.4476L262.591 78.3017L261.499 85.1988C260.596 85.105 259.688 85.0787 258.781 85.12L258.43 80.2671L258.066 85.1625C257.284 85.2327 256.508 85.3543 255.742 85.5264L255.384 78.2531C255.384 78.2531 255.118 82.2871 254.826 85.6963C252.608 86.3227 250.523 87.3508 248.675 88.7293V87.8437C248.675 87.8437 250.089 78.5079 255.93 75.2564Z" fill="#FF452B"/>
<path d="M247.717 71.4469C243.264 65.6356 232.594 68.6687 228.123 77.6829C229.143 77.4874 230.178 77.3758 231.217 77.3493C232.497 75.1352 233.643 73.1879 233.643 73.1879L231.823 77.3372C232.394 77.3372 233.037 77.3372 233.643 77.3978L234.856 75.2443L234.292 77.4464C235.182 77.5369 236.065 77.6807 236.937 77.8771L240.413 71.5804L238.672 78.3441C239.539 78.6175 240.384 78.9541 241.202 79.3511L243.452 75.0381L241.839 79.6787C242.529 80.0528 243.194 80.4723 243.828 80.9344L246.995 74.4315C246.995 74.4315 245.636 78.235 244.568 81.4864C246.353 82.9453 247.854 84.7198 248.997 86.7215L249.348 85.9086C249.348 85.9086 251.781 76.7548 247.717 71.4469Z" fill="#FF452B"/>
<path d="M242.106 84.0645C247.311 79.6666 250.665 84.0645 250.665 84.0645C248.74 84.4989 246.973 85.4609 245.564 86.8428L244.957 85.9389V87.4069C244.593 87.777 244.235 88.1591 243.895 88.5534L242.961 85.9389L243.192 89.4027C242.694 90.0093 242.227 90.6705 241.796 91.3135L241.487 88.7658L241.281 92.1021C240.826 92.824 240.407 93.5337 240.068 94.2071L239.867 89.5544L239.37 95.5113C238.46 97.2947 237.963 98.5444 237.963 98.5444C237.963 98.5444 236.901 88.4564 242.106 84.0645Z" fill="#FF452B"/>
<path d="M254.426 96.221L253.377 96.7306C253.286 95.9481 253.176 95.1231 253.043 94.3041L253.819 93.0909L252.922 93.558C252.873 93.279 252.818 93.006 252.764 92.7269L253.819 90.3429L252.436 91.2225C251.89 88.9599 251.126 86.9762 250.064 85.945C250.064 85.945 260.983 90.3126 253.789 101.881C253.789 101.881 253.728 99.9638 253.455 97.4343L254.426 96.221Z" fill="#FF452B"/>
<path d="M244.168 85.5993L242.646 82.1113L243.125 85.66L242.579 85.7206L240.474 82.6875L240.808 86.0421C239.992 86.229 239.188 86.464 238.399 86.7458C237.549 87.0503 236.715 87.3985 235.9 87.7892L234.984 84.7561L235.275 88.0864C234.475 88.4868 233.698 88.9175 232.946 89.3664L232.576 86.7458L232.418 89.7061C231.496 90.2763 230.598 90.8586 229.81 91.4349L230.222 86.7458L229.161 91.9081C228.336 92.5147 227.59 93.1213 226.947 93.6248L227.098 90.3673L225.976 94.4437C225.054 95.2323 224.526 95.7419 224.526 95.7419C225.794 84.3193 230.513 80.1276 237.944 79.4664C245.375 78.8052 250.077 86.7458 250.077 86.7458C250.077 86.7458 247.899 85.4901 244.168 85.5993Z" fill="#FF452B"/>
<path d="M264.484 101.074L263.568 104.422C263.307 103.555 262.961 102.439 262.482 101.195L263.44 96.2635L262.057 100.091C261.33 98.2449 260.46 96.4581 259.455 94.747L260.747 91.3742L258.873 93.8007C258.569 93.3275 258.266 92.8725 257.914 92.4297L258.666 90.3066L257.623 92.0536C257.393 91.7624 257.156 91.4834 256.913 91.2165L257.841 88.3715L256.519 90.7979C255.851 90.0964 255.106 89.4718 254.299 88.9356L255.718 85.4779C255.718 85.4779 254.79 86.861 253.662 88.5595C252.556 87.9376 251.32 87.5844 250.052 87.5283C251.725 85.405 254.051 83.8931 256.671 83.2274C260.832 82.3053 269.046 90.2944 264.071 106.279C264.071 106.279 263.98 105.897 263.804 105.254L264.484 101.074Z" fill="#FF452B"/>
<path d="M260.068 69.0508L260.607 71.1618C260.352 71.1609 260.096 71.1792 259.843 71.2164L259.2 68.4745L259.558 71.271C259.016 71.3888 258.493 71.5829 258.005 71.8473L257.113 68.1409L257.508 72.1385C257.313 72.2598 257.113 72.3932 256.901 72.5449L255.845 69.0508L256.598 72.7936C255.568 73.6864 254.67 74.7197 253.929 75.8631V70.8524L252.843 77.6465C251.732 79.7032 250.802 81.8526 250.064 84.0706C250.064 84.0706 250.671 65.9085 255.178 64.1736C259.685 62.4387 261.657 71.3438 261.657 71.3438C261.461 71.2714 261.258 71.2246 261.05 71.2043L260.068 69.0508Z" fill="#FF452B"/>
<path d="M252.351 88.7658L251.745 92.2053L250.671 88.7961L248.712 91.2287L248.19 88.7658L246.024 90.3369C246.024 90.3369 246.589 85.9693 248.038 84.0646C249.488 82.1598 253.286 83.8401 252.351 88.7658Z" fill="#FF452B"/>
<g opacity="0.3">
<path opacity="0.3" d="M255.931 75.2564C262.324 71.6956 270.908 78.7202 271.43 88.7657C270.574 88.1808 269.671 87.6675 268.73 87.231C268.433 84.6954 268.124 82.4448 268.124 82.4448V86.9641C267.596 86.7275 267.026 86.497 266.401 86.2786L266.152 83.8522L265.794 86.0966C264.943 85.8262 264.076 85.6094 263.198 85.4476L262.591 78.3017L261.499 85.1988C260.597 85.105 259.688 85.0787 258.782 85.12L258.43 80.2671L258.066 85.1625C257.284 85.2327 256.508 85.3543 255.743 85.5264L255.385 78.2531C255.385 78.2531 255.118 82.2871 254.827 85.6963C252.608 86.3227 250.523 87.3508 248.676 88.7293V87.8437C248.676 87.8437 250.089 78.5079 255.931 75.2564Z" fill="white"/>
<path opacity="0.3" d="M247.717 71.4469C243.265 65.6356 232.594 68.6687 228.124 77.6829C229.144 77.4874 230.179 77.3758 231.217 77.3493C232.497 75.1352 233.644 73.1879 233.644 73.1879L231.824 77.3372C232.394 77.3372 233.037 77.3372 233.644 77.3978L234.857 75.2443L234.293 77.4464C235.182 77.5369 236.065 77.6807 236.938 77.8771L240.414 71.5804L238.673 78.3441C239.539 78.6175 240.385 78.9541 241.202 79.3511L243.453 75.0381L241.839 79.6787C242.529 80.0528 243.194 80.4723 243.829 80.9344L246.995 74.4315C246.995 74.4315 245.636 78.235 244.569 81.4864C246.353 82.9453 247.854 84.7198 248.997 86.7215L249.349 85.9086C249.349 85.9086 251.781 76.7548 247.717 71.4469Z" fill="white"/>
<path opacity="0.3" d="M242.106 84.0645C247.311 79.6666 250.665 84.0645 250.665 84.0645C248.74 84.4989 246.973 85.4609 245.564 86.8428L244.957 85.9389V87.4069C244.593 87.777 244.235 88.1591 243.895 88.5534L242.961 85.9389L243.192 89.4027C242.694 90.0093 242.227 90.6705 241.796 91.3135L241.487 88.7658L241.281 92.1021C240.826 92.824 240.407 93.5337 240.068 94.2071L239.867 89.5544L239.37 95.5113C238.46 97.2947 237.963 98.5444 237.963 98.5444C237.963 98.5444 236.901 88.4564 242.106 84.0645Z" fill="white"/>
<path opacity="0.3" d="M254.426 96.221L253.377 96.7306C253.286 95.9481 253.177 95.1231 253.043 94.3041L253.82 93.0909L252.922 93.558C252.873 93.279 252.819 93.006 252.764 92.7269L253.82 90.3429L252.437 91.2225C251.891 88.9599 251.126 86.9762 250.065 85.945C250.065 85.945 260.984 90.3126 253.789 101.881C253.789 101.881 253.729 99.9638 253.456 97.4343L254.426 96.221Z" fill="white"/>
<path opacity="0.3" d="M244.168 85.5992L242.646 82.1112L243.125 85.6599L242.579 85.7205L240.474 82.6875L240.808 86.042C239.992 86.2289 239.188 86.4639 238.399 86.7457C237.549 87.0502 236.715 87.3985 235.9 87.7891L234.984 84.756L235.275 88.0863C234.475 88.4867 233.698 88.9174 232.946 89.3663L232.576 86.7457L232.418 89.706C231.496 90.2762 230.598 90.8585 229.81 91.4348L230.222 86.7457L229.161 91.908C228.336 92.5146 227.59 93.1212 226.947 93.6247L227.098 90.3672L225.976 94.4436C225.054 95.2322 224.526 95.7418 224.526 95.7418C225.794 84.3193 230.513 80.1276 237.944 79.4663C245.375 78.8051 250.077 86.7457 250.077 86.7457C250.077 86.7457 247.899 85.49 244.168 85.5992Z" fill="white"/>
<path opacity="0.3" d="M264.484 101.074L263.568 104.422C263.307 103.555 262.961 102.439 262.482 101.195L263.44 96.2635L262.057 100.091C261.33 98.2449 260.46 96.4581 259.455 94.747L260.747 91.3742L258.873 93.8007C258.569 93.3275 258.266 92.8726 257.914 92.4297L258.666 90.3066L257.623 92.0536C257.393 91.7625 257.156 91.4834 256.913 91.2165L257.841 88.3715L256.519 90.7979C255.851 90.0964 255.106 89.4718 254.299 88.9356L255.718 85.4779C255.718 85.4779 254.79 86.861 253.662 88.5595C252.556 87.9376 251.32 87.5844 250.052 87.5283C251.725 85.405 254.051 83.8931 256.671 83.2274C260.832 82.3053 269.046 90.2944 264.071 106.279C264.071 106.279 263.98 105.897 263.804 105.254L264.484 101.074Z" fill="white"/>
<path opacity="0.3" d="M260.068 69.0508L260.608 71.1618C260.352 71.1609 260.096 71.1792 259.843 71.2164L259.2 68.4745L259.558 71.271C259.016 71.3888 258.493 71.5829 258.005 71.8473L257.114 68.1409L257.508 72.1385C257.314 72.2598 257.114 72.3932 256.901 72.5449L255.846 69.0508L256.598 72.7936C255.569 73.6864 254.67 74.7197 253.929 75.8631V70.8524L252.843 77.6465C251.732 79.7032 250.803 81.8526 250.065 84.0706C250.065 84.0706 250.671 65.9085 255.178 64.1736C259.686 62.4387 261.657 71.3438 261.657 71.3438C261.462 71.2714 261.258 71.2246 261.05 71.2043L260.068 69.0508Z" fill="white"/>
<path opacity="0.3" d="M252.352 88.7657L251.745 92.2052L250.671 88.7961L248.712 91.2286L248.19 88.7657L246.025 90.3369C246.025 90.3369 246.589 85.9692 248.039 84.0645C249.488 82.1597 253.286 83.84 252.352 88.7657Z" fill="white"/>
</g>
<path d="M72.005 199.321C72.005 199.321 68.8263 149.876 52.4841 85.4779L55.8084 82.9726C55.8084 82.9726 70.1366 106.242 84.5133 196.409L72.005 199.321Z" fill="#FF452B"/>
<g opacity="0.5">
<path opacity="0.5" d="M72.005 199.321C72.005 199.321 68.8263 149.876 52.4841 85.4779L55.8084 82.9726C55.8084 82.9726 70.1366 106.242 84.5133 196.409L72.005 199.321Z" fill="white"/>
</g>
<path d="M48.2744 70.4824C40.5886 66.1998 30.2762 74.6377 29.6514 86.7033C30.6849 86.0109 31.7722 85.4023 32.9028 84.8834C33.2547 81.8504 33.6126 79.1328 33.6126 79.1328V84.5923C34.2192 84.3132 34.9289 84.0403 35.675 83.7734L35.9723 80.8313L36.409 83.5307C37.4307 83.2023 38.4721 82.9389 39.527 82.7421L40.2792 74.1646L41.5956 82.4449C42.6796 82.3317 43.7706 82.3013 44.8592 82.3539L45.2838 76.5243L45.7145 82.4085C46.6557 82.4859 47.5901 82.6298 48.511 82.8392L48.8992 74.1646C48.8992 74.1646 49.2147 79.0175 49.5665 83.1061C52.2318 83.8558 54.7363 85.0895 56.955 86.7458V85.6842C56.955 85.6842 55.2869 74.383 48.2744 70.4824Z" fill="#FF452B"/>
<path d="M58.1377 65.9025C63.488 58.9204 76.3361 62.5661 81.6743 73.3881C80.4474 73.1568 79.2039 73.0249 77.9557 72.9938C76.421 70.3308 75.0197 67.9953 75.0197 67.9953L77.1793 72.9756C76.4938 72.9756 75.7477 72.9756 74.9591 73.0484L73.5153 70.4643L74.1887 73.1091C73.1217 73.2171 72.0623 73.3893 71.0161 73.6247L66.9093 66.0542L68.9961 74.1767C67.9578 74.5095 66.9443 74.9149 65.963 75.39L63.2575 70.2095L65.1987 75.7782C64.3679 76.2279 63.5693 76.7346 62.8086 77.2947L59.0051 69.4815C59.0051 69.4815 60.6369 74.0493 61.9472 77.9741C59.8016 79.7295 57.9963 81.8637 56.6211 84.2708L56.1965 83.2941C56.1965 83.2941 53.2484 72.278 58.1377 65.9025Z" fill="#FF452B"/>
<path d="M64.9076 81.0557C58.6535 75.7721 54.5952 81.0557 54.5952 81.0557C56.9076 81.5811 59.0286 82.7382 60.722 84.3982L61.4378 83.3123V85.0776C61.8806 85.5143 62.3053 85.9753 62.7178 86.4485L63.8339 83.3123L63.561 87.4737C64.1676 88.2259 64.7135 88.9963 65.2352 89.7667L65.6053 86.7336L65.8479 90.7433C66.3999 91.6108 66.9034 92.4661 67.3523 93.2668L67.5889 87.686L68.1955 94.844C69.2874 96.9854 69.8879 98.4837 69.8879 98.4837C69.8879 98.4837 71.1315 86.3333 64.9076 81.0557Z" fill="#FF452B"/>
<path d="M50.0759 95.663L51.3377 96.2696C51.4469 95.3294 51.5742 94.3406 51.738 93.3336L50.8099 91.8959L51.8836 92.454C51.9443 92.1204 52.0049 91.7867 52.0717 91.4592L50.8099 88.5656L52.466 89.6211C53.1272 86.9096 54.0432 84.5013 55.3171 83.2881C55.3171 83.2881 42.2263 88.5353 50.8402 102.433C50.8402 102.433 50.9191 100.128 51.2406 97.0885L50.0759 95.663Z" fill="#FF452B"/>
<path d="M62.4025 82.8998L64.2223 78.7081L63.6157 82.9544L64.2708 83.0272L66.7944 79.3875L66.4001 83.4154C67.3704 83.6343 68.3265 83.9119 69.2633 84.2465C70.295 84.6109 71.3073 85.028 72.2963 85.4961L73.3943 81.8564L73.0485 85.854C74.007 86.3332 74.9412 86.8549 75.845 87.3948L76.2939 84.2343L76.488 87.783C77.5921 88.4685 78.6476 89.1722 79.6121 89.8637L79.1268 84.2343L80.3946 90.4339C81.3956 91.1679 82.2873 91.8716 83.0577 92.4964L82.8757 88.5777L84.2224 93.4731C85.3325 94.4254 85.9694 95.0381 85.9694 95.0381C84.4408 81.3772 78.7447 76.318 69.8517 75.487C60.9587 74.6559 55.293 84.2343 55.293 84.2343C55.293 84.2343 57.9196 82.7724 62.4025 82.8998Z" fill="#FF452B"/>
<path d="M37.9861 101.493L39.0902 105.514C39.3995 104.471 39.8302 103.136 40.3883 101.638L39.2418 95.7115L40.8979 100.328C41.7692 98.1098 42.8138 95.9638 44.0219 93.9098L42.4629 89.8577L44.7195 92.8119C45.0896 92.2477 45.4717 91.7018 45.8721 91.1679L44.9743 88.5656L46.2239 90.6645C46.503 90.3187 46.7881 89.985 47.0793 89.6575L45.9631 86.2422L47.5524 89.1722C48.354 88.331 49.2473 87.5823 50.2155 86.9398L48.5291 82.7845L50.998 86.4849C52.3296 85.7483 53.8148 85.3329 55.3353 85.2717C53.3277 82.7063 50.5269 80.8782 47.3704 80.073C42.3659 78.9568 32.5023 88.5656 38.4775 107.728C38.4775 107.728 38.5806 107.274 38.799 106.515L37.9861 101.493Z" fill="#FF452B"/>
<path d="M43.3063 63.0271L42.6512 65.5628C42.9597 65.5582 43.268 65.5785 43.5733 65.6234L44.3437 62.3295L43.913 65.6841C44.5632 65.8285 45.1901 66.0633 45.7753 66.3817L46.849 61.9291L46.3758 66.7275C46.6212 66.8803 46.8581 67.0464 47.0855 67.2249L48.3534 63.0271L47.498 67.5464C48.7357 68.6172 49.8142 69.8591 50.701 71.2346V65.217L51.9809 73.3395C53.3119 75.8113 54.4282 78.3928 55.3173 81.0557C55.3173 81.0557 54.5954 59.2176 49.1723 57.1551C43.7492 55.0926 41.3955 65.769 41.3955 65.769C41.6233 65.6874 41.8592 65.6304 42.0992 65.5992L43.3063 63.0271Z" fill="#FF452B"/>
<path d="M52.5448 86.7032L53.3092 90.7979L54.5952 86.7032L56.9549 89.6696L57.5615 86.7032L60.17 88.5898C60.17 88.5898 59.4906 83.3487 57.7435 81.0557C55.9965 78.7627 51.4469 80.7888 52.5448 86.7032Z" fill="#FF452B"/>
<g opacity="0.3">
<path opacity="0.3" d="M48.2744 70.4825C40.5886 66.1998 30.2762 74.6378 29.6514 86.7033C30.6849 86.0109 31.7722 85.4024 32.9028 84.8835C33.2547 81.8504 33.6126 79.1328 33.6126 79.1328V84.5923C34.2192 84.3133 34.9289 84.0403 35.675 83.7734L35.9723 80.8313L36.409 83.5307C37.4307 83.2023 38.4721 82.9389 39.527 82.7421L40.2792 74.1646L41.5956 82.4449C42.6796 82.3317 43.7706 82.3013 44.8592 82.3539L45.2838 76.5243L45.7145 82.4085C46.6557 82.4859 47.5901 82.6298 48.511 82.8392L48.8992 74.1646C48.8992 74.1646 49.2147 79.0175 49.5665 83.1061C52.2318 83.8558 54.7363 85.0896 56.955 86.7458V85.6842C56.955 85.6842 55.2869 74.383 48.2744 70.4825Z" fill="white"/>
<path opacity="0.3" d="M58.1377 65.9026C63.488 58.9204 76.3361 62.5662 81.6743 73.3882C80.4474 73.1568 79.2039 73.0249 77.9557 72.9939C76.421 70.3308 75.0197 67.9954 75.0197 67.9954L77.1793 72.9757C76.4938 72.9757 75.7477 72.9757 74.9591 73.0485L73.5153 70.4643L74.1887 73.1091C73.1217 73.2171 72.0623 73.3893 71.0161 73.6247L66.9093 66.0542L68.9961 74.1768C67.9578 74.5095 66.9443 74.9149 65.963 75.39L63.2575 70.2095L65.1987 75.7782C64.3679 76.2279 63.5693 76.7346 62.8086 77.2948L59.0051 69.4816C59.0051 69.4816 60.6369 74.0494 61.9472 77.9742C59.8016 79.7295 57.9963 81.8638 56.6211 84.2708L56.1965 83.2942C56.1965 83.2942 53.2484 72.2781 58.1377 65.9026Z" fill="white"/>
<path opacity="0.3" d="M64.9076 81.0557C58.6535 75.7721 54.5952 81.0557 54.5952 81.0557C56.9076 81.5811 59.0286 82.7383 60.722 84.3982L61.4378 83.3123V85.0776C61.8806 85.5144 62.3053 85.9754 62.7178 86.4485L63.8339 83.3123L63.561 87.4737C64.1676 88.2259 64.7135 88.9963 65.2352 89.7667L65.6053 86.7336L65.8479 90.7434C66.3999 91.6108 66.9034 92.4661 67.3523 93.2669L67.5889 87.686L68.1955 94.8441C69.2874 96.9854 69.8879 98.4838 69.8879 98.4838C69.8879 98.4838 71.1315 86.3333 64.9076 81.0557Z" fill="white"/>
<path opacity="0.3" d="M50.0759 95.663L51.3377 96.2696C51.4469 95.3294 51.5742 94.3406 51.738 93.3336L50.8099 91.896L51.8836 92.454C51.9443 92.1204 52.0049 91.7868 52.0717 91.4592L50.8099 88.5657L52.466 89.6212C53.1272 86.9096 54.0432 84.5013 55.3171 83.2881C55.3171 83.2881 42.2263 88.5353 50.8402 102.433C50.8402 102.433 50.9191 100.128 51.2406 97.0886L50.0759 95.663Z" fill="white"/>
<path opacity="0.3" d="M62.4025 82.8998L64.2223 78.7081L63.6157 82.9544L64.2708 83.0272L66.7944 79.3875L66.4001 83.4154C67.3704 83.6344 68.3265 83.9119 69.2633 84.2465C70.295 84.611 71.3073 85.0281 72.2963 85.4961L73.3943 81.8564L73.0485 85.854C74.007 86.3332 74.9412 86.8549 75.845 87.3948L76.2939 84.2344L76.488 87.7831C77.5921 88.4685 78.6476 89.1722 79.6121 89.8637L79.1268 84.2344L80.3946 90.434C81.3956 91.168 82.2873 91.8716 83.0577 92.4964L82.8757 88.5777L84.2224 93.4731C85.3325 94.4255 85.9694 95.0382 85.9694 95.0382C84.4408 81.3772 78.7447 76.3181 69.8517 75.487C60.9587 74.6559 55.293 84.2344 55.293 84.2344C55.293 84.2344 57.9196 82.7724 62.4025 82.8998Z" fill="white"/>
<path opacity="0.3" d="M37.9861 101.493L39.0902 105.514C39.3995 104.471 39.8302 103.136 40.3883 101.638L39.2418 95.7115L40.8979 100.328C41.7692 98.1098 42.8138 95.9639 44.0219 93.9099L42.4629 89.8577L44.7195 92.8119C45.0896 92.2477 45.4717 91.7018 45.8721 91.168L44.9743 88.5656L46.2239 90.6645C46.503 90.3187 46.7881 89.9851 47.0793 89.6575L45.9631 86.2423L47.5524 89.1722C48.354 88.3311 49.2473 87.5823 50.2155 86.9399L48.5291 82.7846L50.998 86.4849C52.3296 85.7483 53.8148 85.3329 55.3353 85.2717C53.3277 82.7063 50.5269 80.8782 47.3704 80.073C42.3659 78.9568 32.5023 88.5656 38.4775 107.729C38.4775 107.729 38.5806 107.274 38.799 106.515L37.9861 101.493Z" fill="white"/>
<path opacity="0.3" d="M43.3063 63.0271L42.6512 65.5628C42.9597 65.5583 43.268 65.5785 43.5733 65.6234L44.3437 62.3295L43.913 65.6841C44.5632 65.8285 45.1901 66.0634 45.7753 66.3817L46.849 61.9292L46.3758 66.7275C46.6212 66.8803 46.8581 67.0464 47.0855 67.2249L48.3534 63.0271L47.498 67.5464C48.7357 68.6172 49.8142 69.8591 50.701 71.2346V65.217L51.9809 73.3396C53.3119 75.8113 54.4282 78.3929 55.3173 81.0557C55.3173 81.0557 54.5954 59.2176 49.1723 57.1551C43.7492 55.0926 41.3955 65.769 41.3955 65.769C41.6233 65.6874 41.8592 65.6304 42.0992 65.5992L43.3063 63.0271Z" fill="white"/>
<path opacity="0.3" d="M52.5448 86.7033L53.3092 90.7979L54.5952 86.7033L56.9549 89.6696L57.5615 86.7033L60.17 88.5898C60.17 88.5898 59.4906 83.3487 57.7435 81.0557C55.9965 78.7627 51.4469 80.7888 52.5448 86.7033Z" fill="white"/>
</g>
<path d="M271.763 207.632C271.763 207.632 227.213 176.118 154.226 176.118C81.2378 176.118 34.3223 206.704 34.3223 206.704L271.763 207.632Z" fill="#FF452B"/>
<path opacity="0.7" d="M271.763 207.632C271.763 207.632 227.213 176.118 154.226 176.118C81.2378 176.118 34.3223 206.704 34.3223 206.704L271.763 207.632Z" fill="white"/>
<path d="M83.3605 191.981C83.3605 191.981 73.5394 121.826 96.7485 49.4268L93.1755 46.6425C93.1755 46.6425 66.1205 101.347 69.5782 193.886L83.3605 191.981Z" fill="#FF452B"/>
<g opacity="0.6">
<path opacity="0.6" d="M83.3605 191.981C83.3605 191.981 73.5394 121.826 96.7485 49.4268L93.1755 46.6425C93.1755 46.6425 66.1205 101.347 69.5782 193.886L83.3605 191.981Z" fill="white"/>
</g>
<path d="M103.064 30.4156C111.471 24.9561 123.834 33.7641 125.472 47.4008C124.243 46.691 122.959 46.0824 121.632 45.5809C121.025 42.1414 120.419 39.0962 120.419 39.0962L120.831 45.2655C120.097 44.9986 119.29 44.7378 118.405 44.4951L117.841 41.1769L117.556 44.2707C116.369 43.9804 115.165 43.7616 113.952 43.6155L112.436 33.9097L111.574 43.4214C110.333 43.3827 109.09 43.4334 107.856 43.573L106.916 37.0034L106.879 43.7247C105.815 43.8935 104.763 44.1327 103.731 44.4405L102.633 34.577C102.633 34.577 102.633 40.1032 102.554 44.7923C99.5818 45.8541 96.8304 47.4539 94.4375 49.5118L94.3525 48.2986C94.3525 48.2986 95.3838 35.3898 103.064 30.4156Z" fill="#FF452B"/>
<path d="M91.5015 25.9691C84.8834 18.4411 70.5976 23.5427 65.3201 36.2816C66.6963 35.9185 68.1004 35.671 69.5178 35.5415C71.0586 32.4053 72.472 29.6392 72.472 29.6392L70.3974 35.4626C71.18 35.4081 72.0231 35.3717 72.927 35.3777L74.3707 32.3447L73.8066 35.3777C75.0258 35.4173 76.2414 35.5328 77.4463 35.7235L81.5349 26.8002L79.7817 36.1906C80.9892 36.4852 82.1733 36.8684 83.3244 37.3371L85.9995 31.271L84.2221 37.7556C85.2004 38.2018 86.1469 38.7146 87.055 39.2904L90.7796 30.1184C90.7796 30.1184 89.2752 35.4384 88.0863 39.9698C90.6612 41.7979 92.8795 44.0821 94.6316 46.7093L95.0381 45.5688C95.0381 45.5688 97.5434 32.836 91.5015 25.9691Z" fill="#FF452B"/>
<path d="M84.9987 43.7065C91.6715 37.2218 96.6882 42.9179 96.6882 42.9179C94.1768 43.5245 91.9384 45.1502 89.979 47.1642L89.0812 45.9873L89.2208 47.9952C88.7476 48.5291 88.2987 49.0811 87.868 49.6574L86.3575 46.1693L86.9642 50.8827C86.3575 51.7805 85.7509 52.7026 85.2353 53.6185L84.5802 50.1669L84.6105 54.7347C84.0463 55.766 83.5429 56.7729 83.1 57.7253L82.4024 51.3983L82.269 59.5755C81.1892 62.0929 80.625 63.8643 80.625 63.8643C80.625 63.8643 78.2956 50.1851 84.9987 43.7065Z" fill="#FF452B"/>
<path d="M102.942 59.1751L101.559 59.9637C101.359 58.9021 101.135 57.7859 100.874 56.6576L101.82 54.947L100.637 55.6689C100.546 55.2928 100.449 54.9167 100.352 54.5466L101.565 51.1921L99.7454 52.5205C98.793 49.4875 97.5616 46.8184 96.0208 45.5323C96.0208 45.5323 111.301 50.4944 102.572 66.9519C102.572 66.9519 102.311 64.3374 101.711 60.8857L102.942 59.1751Z" fill="#FF452B"/>
<path d="M87.9588 45.6112L85.5323 40.9888L86.515 45.7932L85.775 45.9267L82.6206 41.9594L83.3788 46.5151C82.2943 46.8351 81.2307 47.2221 80.1941 47.6737C79.0604 48.1663 77.9529 48.717 76.8759 49.3237L75.3473 45.2837L76.0449 49.8029C74.9954 50.4096 73.9703 51.0829 73.0118 51.7684L72.2596 48.2075L72.3081 52.2597C71.0949 53.1211 69.9666 54.0068 68.9172 54.8682L69.0446 48.4259L68.0679 55.5718C66.9942 56.4818 66.0297 57.3492 65.2047 58.1196L65.1076 53.6489L63.9551 59.3207C62.7418 60.4854 62.0928 61.2255 62.0928 61.2255C62.7843 45.587 68.8686 39.3874 78.9142 37.7738C88.9597 36.1602 96.1359 46.6 96.1359 46.6C96.1359 46.6 93.0361 45.1259 87.9588 45.6112Z" fill="#FF452B"/>
<path d="M117.125 64.8712L116.185 69.53C115.754 68.3653 115.159 66.8791 114.407 65.2231L115.257 58.3986L113.728 63.7732C112.564 61.3217 111.213 58.9631 109.688 56.7183L111.138 51.9928L108.802 55.493C108.341 54.8863 107.868 54.2797 107.371 53.7156L108.196 50.7432L106.934 53.2242C106.588 52.8542 106.242 52.4963 105.884 52.1445L106.891 48.1772L105.308 51.6046C104.331 50.7085 103.257 49.9251 102.105 49.2691L103.725 44.4162L101.201 48.802C99.6353 48.0588 97.9176 47.6912 96.1846 47.7283C96.1846 47.7283 99.2176 42.8754 104.817 41.2497C110.416 39.624 122.372 49.7423 117.046 72.005C117.046 72.005 116.888 71.4954 116.585 70.634L117.125 64.8712Z" fill="#FF452B"/>
<path d="M108.135 21.5591L109.075 24.3919C108.724 24.4073 108.375 24.454 108.032 24.5315L106.898 20.8493L107.65 24.6285C106.92 24.8407 106.223 25.1552 105.581 25.5627L104.028 20.5824L104.944 26.0055C104.696 26.1875 104.441 26.3938 104.18 26.6122L102.415 21.9412L103.731 27.0186C102.405 28.331 101.273 29.8263 100.37 31.459L99.9094 24.6164L99.0662 33.9704C97.7342 36.8723 96.6564 39.8843 95.8451 42.9725C95.8451 42.9725 94.9898 18.1014 100.989 15.3352C106.989 12.569 110.495 24.5315 110.495 24.5315C110.228 24.453 109.953 24.4082 109.676 24.398L108.135 21.5591Z" fill="#FF452B"/>
<path d="M99.4846 49.1843L98.9265 53.8916L97.1492 49.342L94.7227 52.8846L93.7885 49.5664L90.9678 51.908C90.9678 51.908 91.3439 45.9025 93.1455 43.1606C94.9472 40.4187 100.243 42.3781 99.4846 49.1843Z" fill="#FF452B"/>
<g opacity="0.4">
<path opacity="0.4" d="M103.064 30.4156C111.471 24.9561 123.834 33.7641 125.472 47.4008C124.243 46.691 122.959 46.0824 121.632 45.5809C121.025 42.1414 120.419 39.0962 120.419 39.0962L120.831 45.2655C120.097 44.9986 119.29 44.7378 118.405 44.4951L117.841 41.1769L117.556 44.2707C116.369 43.9804 115.165 43.7616 113.952 43.6155L112.436 33.9097L111.574 43.4214C110.333 43.3827 109.09 43.4334 107.856 43.573L106.916 37.0034L106.879 43.7247C105.815 43.8935 104.763 44.1327 103.731 44.4405L102.633 34.577C102.633 34.577 102.633 40.1032 102.554 44.7923C99.5818 45.8541 96.8304 47.4539 94.4375 49.5118L94.3525 48.2986C94.3525 48.2986 95.3838 35.3898 103.064 30.4156Z" fill="white"/>
<path opacity="0.4" d="M91.5015 25.9691C84.8834 18.4411 70.5976 23.5427 65.3201 36.2816C66.6963 35.9185 68.1004 35.671 69.5178 35.5415C71.0586 32.4053 72.472 29.6392 72.472 29.6392L70.3974 35.4626C71.18 35.4081 72.0231 35.3717 72.927 35.3777L74.3707 32.3447L73.8066 35.3777C75.0258 35.4173 76.2414 35.5328 77.4463 35.7235L81.5349 26.8002L79.7817 36.1906C80.9892 36.4852 82.1733 36.8684 83.3244 37.3371L85.9995 31.271L84.2221 37.7556C85.2004 38.2018 86.1469 38.7146 87.055 39.2904L90.7796 30.1184C90.7796 30.1184 89.2752 35.4384 88.0863 39.9698C90.6612 41.7979 92.8795 44.0821 94.6316 46.7093L95.0381 45.5688C95.0381 45.5688 97.5434 32.836 91.5015 25.9691Z" fill="white"/>
<path opacity="0.4" d="M84.9987 43.7065C91.6715 37.2218 96.6882 42.9179 96.6882 42.9179C94.1768 43.5245 91.9384 45.1502 89.979 47.1642L89.0812 45.9873L89.2208 47.9952C88.7476 48.5291 88.2987 49.0811 87.868 49.6574L86.3575 46.1693L86.9642 50.8827C86.3575 51.7805 85.7509 52.7026 85.2353 53.6185L84.5802 50.1669L84.6105 54.7347C84.0463 55.766 83.5429 56.7729 83.1 57.7253L82.4024 51.3983L82.269 59.5755C81.1892 62.0929 80.625 63.8643 80.625 63.8643C80.625 63.8643 78.2956 50.1851 84.9987 43.7065Z" fill="white"/>
<path opacity="0.4" d="M102.942 59.1751L101.559 59.9637C101.359 58.9021 101.135 57.7859 100.874 56.6576L101.82 54.947L100.637 55.6689C100.546 55.2928 100.449 54.9167 100.352 54.5466L101.565 51.1921L99.7454 52.5205C98.793 49.4875 97.5616 46.8184 96.0208 45.5323C96.0208 45.5323 111.301 50.4944 102.572 66.9519C102.572 66.9519 102.311 64.3374 101.711 60.8857L102.942 59.1751Z" fill="white"/>
<path opacity="0.4" d="M87.9588 45.6112L85.5323 40.9888L86.515 45.7932L85.775 45.9267L82.6206 41.9594L83.3788 46.5151C82.2943 46.8351 81.2307 47.2221 80.1941 47.6737C79.0604 48.1663 77.9529 48.717 76.8759 49.3237L75.3473 45.2837L76.0449 49.8029C74.9954 50.4096 73.9703 51.0829 73.0118 51.7684L72.2596 48.2075L72.3081 52.2597C71.0949 53.1211 69.9666 54.0068 68.9172 54.8682L69.0446 48.4259L68.0679 55.5718C66.9942 56.4818 66.0297 57.3492 65.2047 58.1196L65.1076 53.6489L63.9551 59.3207C62.7418 60.4854 62.0928 61.2255 62.0928 61.2255C62.7843 45.587 68.8686 39.3874 78.9142 37.7738C88.9597 36.1602 96.1359 46.6 96.1359 46.6C96.1359 46.6 93.0361 45.1259 87.9588 45.6112Z" fill="white"/>
<path opacity="0.4" d="M117.125 64.8712L116.185 69.53C115.754 68.3653 115.159 66.8791 114.407 65.2231L115.257 58.3986L113.728 63.7732C112.564 61.3217 111.213 58.9631 109.688 56.7183L111.138 51.9928L108.802 55.493C108.341 54.8863 107.868 54.2797 107.371 53.7156L108.196 50.7432L106.934 53.2242C106.588 52.8542 106.242 52.4963 105.884 52.1445L106.891 48.1772L105.308 51.6046C104.331 50.7085 103.257 49.9251 102.105 49.2691L103.725 44.4162L101.201 48.802C99.6353 48.0588 97.9176 47.6912 96.1846 47.7283C96.1846 47.7283 99.2176 42.8754 104.817 41.2497C110.416 39.624 122.372 49.7423 117.046 72.005C117.046 72.005 116.888 71.4954 116.585 70.634L117.125 64.8712Z" fill="white"/>
<path opacity="0.4" d="M108.135 21.5591L109.075 24.3919C108.724 24.4073 108.375 24.454 108.032 24.5315L106.898 20.8493L107.65 24.6285C106.92 24.8407 106.223 25.1552 105.581 25.5627L104.028 20.5824L104.944 26.0055C104.696 26.1875 104.441 26.3938 104.18 26.6122L102.415 21.9412L103.731 27.0186C102.405 28.331 101.273 29.8263 100.37 31.459L99.9094 24.6164L99.0662 33.9704C97.7342 36.8723 96.6564 39.8843 95.8451 42.9725C95.8451 42.9725 94.9898 18.1014 100.989 15.3352C106.989 12.569 110.495 24.5315 110.495 24.5315C110.228 24.453 109.953 24.4082 109.676 24.398L108.135 21.5591Z" fill="white"/>
<path opacity="0.4" d="M99.4846 49.1843L98.9265 53.8916L97.1492 49.342L94.7227 52.8846L93.7885 49.5664L90.9678 51.908C90.9678 51.908 91.3439 45.9025 93.1455 43.1606C94.9472 40.4187 100.243 42.3781 99.4846 49.1843Z" fill="white"/>
</g>
<path d="M161.517 192.163C161.517 192.163 178.83 136.597 224.447 99.0236C224.447 99.0236 209.173 147.183 161.517 192.163Z" fill="#FF452B"/>
<path opacity="0.6" d="M224.411 99.0298C224.077 100.067 208.639 147.662 161.517 192.151C161.517 192.163 178.824 136.603 224.411 99.0298Z" fill="white"/>
<path opacity="0.2" d="M224.411 99.0419C224.077 100.079 208.639 147.674 161.517 192.163C190.732 164.241 223.841 100.207 224.411 99.0419Z" fill="black"/>
<path d="M213.698 111.854C213.698 111.854 209.567 106.436 208.354 101.353C208.354 101.353 204.338 110.592 206.674 118.654C208.25 118.065 209.687 117.157 210.896 115.987C212.105 114.817 213.059 113.41 213.698 111.854Z" fill="#FF452B"/>
<path opacity="0.4" d="M213.698 111.854C213.698 111.854 209.567 106.436 208.354 101.353C208.354 101.353 204.338 110.592 206.674 118.654C208.25 118.065 209.687 117.157 210.896 115.987C212.105 114.817 213.059 113.41 213.698 111.854Z" fill="white"/>
<path d="M184.897 125.987L180.004 124.964L176.205 143.133L181.098 144.156L184.897 125.987Z" stroke="#282D38" stroke-width="3" stroke-miterlimit="10"/>
<path d="M170.204 176.919L169.428 176.755C169.218 176.698 169 176.685 168.785 176.715C168.571 176.746 168.365 176.82 168.18 176.933C167.995 177.046 167.835 177.196 167.711 177.373C167.586 177.55 167.499 177.751 167.454 177.963C167.41 178.176 167.409 178.395 167.453 178.607C167.496 178.819 167.583 179.02 167.707 179.198C167.831 179.376 167.99 179.526 168.174 179.64C168.358 179.754 168.564 179.829 168.779 179.861L169.555 180.025C169.764 180.082 169.983 180.095 170.197 180.065C170.412 180.034 170.618 179.96 170.803 179.847C170.987 179.734 171.147 179.584 171.272 179.407C171.397 179.229 171.484 179.029 171.528 178.816C171.573 178.604 171.573 178.385 171.53 178.173C171.486 177.961 171.4 177.759 171.276 177.582C171.152 177.404 170.993 177.254 170.809 177.14C170.624 177.026 170.418 176.95 170.204 176.919Z" fill="#282D38"/>
<path opacity="0.1" d="M171.472 178.775C171.406 179.089 171.249 179.376 171.021 179.6C170.792 179.824 170.502 179.976 170.187 180.035C169.873 180.095 169.547 180.06 169.253 179.935C168.958 179.809 168.707 179.599 168.531 179.331C168.356 179.064 168.264 178.75 168.267 178.429C168.27 178.109 168.367 177.797 168.548 177.532C168.728 177.267 168.983 177.062 169.28 176.942C169.577 176.822 169.902 176.793 170.216 176.858C170.636 176.947 171.004 177.199 171.239 177.558C171.474 177.917 171.558 178.355 171.472 178.775Z" fill="white"/>
<path d="M174.48 177.811L173.704 177.647C173.5 177.604 173.289 177.602 173.084 177.641C172.879 177.68 172.683 177.759 172.509 177.873C172.334 177.987 172.184 178.135 172.066 178.308C171.949 178.48 171.866 178.674 171.824 178.878C171.781 179.083 171.779 179.293 171.818 179.498C171.857 179.704 171.935 179.899 172.05 180.074C172.164 180.248 172.312 180.399 172.484 180.516C172.657 180.634 172.851 180.716 173.055 180.759L173.831 180.916C174.041 180.973 174.259 180.987 174.474 180.956C174.688 180.926 174.894 180.852 175.079 180.738C175.264 180.625 175.424 180.475 175.548 180.298C175.673 180.121 175.76 179.92 175.805 179.708C175.849 179.496 175.85 179.277 175.806 179.065C175.763 178.852 175.676 178.651 175.552 178.473C175.428 178.296 175.269 178.145 175.085 178.031C174.901 177.917 174.695 177.842 174.48 177.811Z" fill="#282D38"/>
<path opacity="0.2" d="M175.742 179.667C175.636 180.068 175.38 180.413 175.027 180.631C174.674 180.849 174.251 180.923 173.845 180.838C173.439 180.753 173.081 180.516 172.845 180.175C172.609 179.834 172.512 179.416 172.576 179.006C172.609 178.788 172.687 178.58 172.803 178.394C172.92 178.207 173.073 178.047 173.254 177.921C173.435 177.796 173.639 177.709 173.854 177.665C174.07 177.622 174.292 177.622 174.507 177.667C174.723 177.712 174.926 177.8 175.106 177.927C175.286 178.053 175.439 178.215 175.554 178.402C175.67 178.589 175.746 178.797 175.778 179.015C175.811 179.232 175.798 179.454 175.742 179.667Z" fill="white"/>
<path d="M195.566 148.081L189.822 175.578C189.246 178.314 186.51 180.322 183.756 179.752L170.052 176.889L177.938 139.182L191.642 142.051C192.959 142.333 194.111 143.127 194.844 144.257C195.578 145.387 195.833 146.762 195.554 148.081H195.566Z" fill="#FF452B"/>
<path d="M182.612 139.441L177.648 138.403C176.766 138.218 175.901 138.784 175.717 139.666L168.245 175.399C168.061 176.281 168.626 177.146 169.509 177.33L174.472 178.368C175.355 178.553 176.219 177.987 176.404 177.105L183.875 141.372C184.06 140.49 183.494 139.625 182.612 139.441Z" fill="#282D38"/>
<path opacity="0.2" d="M179.593 138.809L177.651 138.403C176.769 138.219 175.905 138.785 175.72 139.667L168.249 175.4C168.064 176.282 168.63 177.147 169.512 177.331L171.454 177.737C172.336 177.922 173.2 177.356 173.385 176.474L180.856 140.741C181.041 139.858 180.475 138.994 179.593 138.809Z" fill="white"/>
<path opacity="0.2" d="M195.566 148.08L189.822 175.578C189.245 178.314 186.51 180.322 183.755 179.752L178.254 178.599C178.105 178.064 178.072 177.504 178.156 176.955L184.568 146.255C184.747 145.522 185.206 144.888 185.847 144.49C186.488 144.092 187.259 143.961 187.996 144.125L195.451 145.684C195.679 146.463 195.719 147.284 195.566 148.08Z" fill="black"/>
<path opacity="0.2" d="M178.841 139.708L177.558 139.44C176.945 139.312 176.344 139.705 176.216 140.318L168.969 175.008C168.84 175.621 169.234 176.222 169.847 176.35L171.13 176.618C171.743 176.746 172.344 176.353 172.472 175.74L179.719 141.05C179.847 140.437 179.454 139.836 178.841 139.708Z" fill="black"/>
<path d="M184.574 126.667L179.958 125.703C179.693 125.644 179.46 125.485 179.31 125.259C179.159 125.032 179.103 124.757 179.151 124.489C179.21 124.224 179.369 123.992 179.595 123.841C179.821 123.691 180.097 123.634 180.365 123.683L184.975 124.647C185.241 124.706 185.473 124.864 185.625 125.09C185.776 125.316 185.835 125.592 185.788 125.86C185.729 126.126 185.57 126.358 185.344 126.509C185.118 126.659 184.842 126.716 184.574 126.667Z" fill="#282D38"/>
<path opacity="0.2" d="M184.574 126.667L179.958 125.703C179.693 125.644 179.46 125.485 179.31 125.259C179.159 125.032 179.103 124.757 179.151 124.489C179.21 124.224 179.369 123.992 179.595 123.841C179.821 123.691 180.097 123.634 180.365 123.683L184.975 124.647C185.241 124.706 185.473 124.864 185.625 125.09C185.776 125.316 185.835 125.592 185.788 125.86C185.729 126.126 185.57 126.358 185.344 126.509C185.118 126.659 184.842 126.716 184.574 126.667Z" fill="white"/>
<path opacity="0.2" d="M184.599 126.673C184.468 126.645 184.343 126.591 184.233 126.515C184.123 126.439 184.028 126.342 183.956 126.229C183.883 126.116 183.833 125.99 183.809 125.858C183.785 125.726 183.788 125.591 183.816 125.46V125.411C183.842 125.279 183.894 125.153 183.97 125.041C184.045 124.929 184.143 124.834 184.256 124.76C184.369 124.686 184.496 124.636 184.629 124.613C184.762 124.589 184.898 124.593 185.029 124.623C185.161 124.65 185.286 124.703 185.397 124.779C185.507 124.855 185.602 124.953 185.675 125.065C185.748 125.178 185.797 125.305 185.821 125.437C185.844 125.569 185.841 125.705 185.812 125.836V125.891C185.754 126.155 185.594 126.385 185.367 126.532C185.139 126.678 184.863 126.729 184.599 126.673Z" fill="black"/>
<path d="M135.512 122.809C135.512 122.809 134.122 124.629 132.479 126.485C130.75 128.457 128.742 130.464 127.814 130.392C125.994 130.246 120.182 128.105 120.182 128.105L117.556 129.093C117.556 129.093 115.099 127.158 115.087 126.473C115.075 125.787 118.727 125.017 119.418 125.017C120.11 125.017 121.098 126.103 121.098 126.103C121.098 126.103 126.958 127.316 127.516 127.158C130.55 126.424 133.522 118.059 135.196 118.059L135.324 119.988L135.512 122.809Z" fill="#E4897B"/>
<path opacity="0.2" d="M135.512 122.809C135.512 122.809 134.122 124.629 132.479 126.485C132.139 123.804 134.905 120.48 135.324 119.982L135.512 122.809Z" fill="black"/>
<path d="M138.915 108.808C138.915 108.808 137.701 105.648 141.657 104.319C145.612 102.991 146.952 103.106 148.05 104.926C149.148 106.746 148.554 108.177 150.889 108.044C153.225 107.911 155.239 106.776 156.816 108.183C158.393 109.591 158.029 111.532 159.891 109.694C161.754 107.856 161.93 108.044 163.131 108.851C163.131 108.851 161.99 109.457 162.051 110.113C162.112 110.768 163.731 110.622 163.131 111.665C162.53 112.709 160.838 114.753 158.411 113.613C155.985 112.472 155.148 113.431 155.148 113.431C155.676 113.365 156.213 113.42 156.717 113.591C157.221 113.763 157.68 114.046 158.059 114.419C159.048 115.542 159.709 115.281 161.329 114.893C160.995 115.634 160.388 116.218 159.635 116.525C158.882 116.832 158.04 116.838 157.283 116.543C154.414 115.53 154.05 115.772 150.998 116.488C147.947 117.204 143.112 116.852 140.65 114.571C138.187 112.29 138.915 108.808 138.915 108.808Z" fill="#282D38"/>
<path d="M153.491 193.922L154.881 192.102L152.527 189.828L150.386 187.765L148.372 189.646L151.077 191.908L153.491 193.922Z" fill="#E4897B"/>
<path d="M154.966 191.544C154.76 191.399 153.037 193.971 153.037 193.971C153.037 193.971 153.419 196.664 152.643 198.399C151.866 200.134 153.377 199.988 154.632 198.344C155.888 196.701 156.846 195.439 157.744 194.274C158.642 193.109 157.113 193.085 154.966 191.544Z" fill="#282D38"/>
<path d="M152.394 195.936C152.343 195.933 152.294 195.918 152.249 195.893C152.205 195.868 152.167 195.833 152.139 195.791C152.111 195.754 152.091 195.712 152.08 195.667C152.07 195.622 152.069 195.575 152.078 195.53C152.137 195.297 152.261 195.087 152.436 194.923C152.175 195.038 151.914 195.117 151.775 195.026C151.73 194.988 151.698 194.936 151.684 194.878C151.67 194.821 151.674 194.76 151.696 194.705C151.709 194.637 151.736 194.572 151.775 194.516C151.815 194.459 151.867 194.412 151.927 194.377C152.302 194.251 152.709 194.251 153.085 194.377V194.408C153.037 194.632 152.782 195.748 152.388 195.839L152.394 195.936ZM152.927 194.693C152.654 194.923 152.272 195.299 152.236 195.554C152.232 195.578 152.234 195.602 152.24 195.625C152.246 195.648 152.257 195.669 152.272 195.688C152.351 195.791 152.394 195.779 152.412 195.772C152.594 195.73 152.806 195.172 152.927 194.723V194.693ZM152.388 194.456C152.257 194.449 152.128 194.476 152.011 194.535C151.971 194.557 151.935 194.589 151.908 194.626C151.881 194.664 151.862 194.708 151.854 194.753C151.854 194.796 151.854 194.875 151.854 194.899C151.854 194.923 152.43 194.772 152.843 194.517C152.694 194.48 152.541 194.46 152.388 194.456Z" fill="#FF452B"/>
<path opacity="0.2" d="M151.077 191.908L152.527 189.828L150.386 187.765L148.372 189.646L151.077 191.908Z" fill="black"/>
<path d="M139.57 196.804H141.863L142.239 193.613L142.578 190.689L139.861 190.246L139.703 193.716L139.57 196.804Z" fill="#E4897B"/>
<path d="M142.348 196.652C142.348 196.403 139.242 196.597 139.242 196.597C139.242 196.597 137.338 198.539 135.481 198.975C133.625 199.412 134.662 200.522 136.737 200.522H141.863C143.331 200.522 142.415 199.273 142.348 196.652Z" fill="#282D38"/>
<path d="M137.611 197.392C137.514 197.4 137.418 197.374 137.338 197.319C137.293 197.278 137.262 197.224 137.249 197.164C137.236 197.104 137.241 197.042 137.265 196.986C137.277 196.942 137.298 196.901 137.326 196.866C137.354 196.831 137.389 196.801 137.429 196.779C137.649 196.688 137.891 196.661 138.126 196.701C137.871 196.567 137.653 196.403 137.641 196.24C137.629 196.076 137.708 196.045 137.847 195.979C137.91 195.95 137.978 195.936 138.047 195.936C138.116 195.936 138.185 195.95 138.248 195.979C138.666 196.155 138.927 196.877 138.939 196.913C138.943 196.923 138.943 196.933 138.939 196.943C138.528 197.173 138.077 197.325 137.611 197.392ZM137.878 196.852C137.753 196.844 137.628 196.867 137.514 196.919C137.47 196.943 137.438 196.982 137.423 197.028C137.423 197.149 137.423 197.18 137.423 197.192C137.568 197.313 138.138 197.143 138.593 196.949C138.359 196.893 138.119 196.86 137.878 196.852ZM138.059 196.094C138.009 196.094 137.959 196.107 137.914 196.13C137.871 196.13 137.805 196.191 137.805 196.233C137.805 196.373 138.26 196.61 138.715 196.786C138.615 196.512 138.43 196.278 138.187 196.118C138.147 196.101 138.103 196.093 138.059 196.094Z" fill="#FF452B"/>
<path opacity="0.2" d="M139.703 193.789L142.239 193.674L142.579 190.719L139.861 190.258L139.703 193.789Z" fill="black"/>
<path d="M133.856 141.711C133.856 141.711 127.092 157.72 126.024 164.726C124.957 171.732 148.997 190.556 148.997 190.556L151.423 187.941C151.423 187.941 133.546 169.561 133.546 166.4C133.546 163.24 140.516 148.808 140.516 148.808C140.516 148.808 141.22 142.973 133.856 141.711Z" fill="#282D38"/>
<path opacity="0.4" d="M138.751 181.808C141.208 184.065 143.604 186.109 145.424 187.65C147.565 189.47 148.991 190.556 148.991 190.556L151.417 187.941C151.417 187.941 148.991 185.418 145.873 182.081C143.446 179.455 140.619 176.324 138.284 173.522C135.584 170.27 133.54 167.456 133.54 166.4C133.54 164.732 135.481 159.934 137.313 155.76C138.957 152.023 140.51 148.796 140.51 148.796C140.56 148.131 140.497 147.462 140.322 146.819C139.849 144.999 138.363 142.494 133.819 141.711C133.819 141.711 127.055 157.707 125.988 164.72C125.442 168.56 132.363 175.918 138.751 181.808Z" fill="white"/>
<path opacity="0.2" d="M138.308 173.522L138.739 181.808C141.196 184.065 143.592 186.109 145.412 187.65C145.835 185.826 145.996 183.951 145.891 182.081C143.476 179.455 140.656 176.324 138.308 173.522Z" fill="black"/>
<path opacity="0.2" d="M137.35 155.76C138.994 152.023 140.547 148.796 140.547 148.796C140.597 148.131 140.533 147.462 140.359 146.819C140.123 146.667 139.862 146.558 139.588 146.497C139.588 146.497 137.586 149.639 137.35 155.76Z" fill="black"/>
<path d="M139.521 146.497L139.078 169.015V192.066H142.979C152.139 148.39 145.86 137.471 145.86 137.471V137.422C144.386 134.153 134.735 136.561 134.735 136.561C134.043 139.272 133.601 144.774 133.601 144.774L139.521 146.497Z" fill="#282D38"/>
<path opacity="0.4" d="M139.521 146.497L139.078 169.015V192.066H142.979C152.139 148.39 145.86 137.471 145.86 137.471V137.422C144.386 134.153 134.735 136.561 134.735 136.561C134.043 139.272 133.601 144.774 133.601 144.774L139.521 146.497Z" fill="white"/>
<path d="M145.818 135.766V137.398L134.65 136.543V134.608L145.818 135.766Z" fill="#282D38"/>
<path d="M141.985 137.898L142.536 137.926L142.68 135.103L142.129 135.075L141.985 137.898Z" fill="#282D38"/>
<path d="M137.14 136.854L139.581 137.072L139.747 135.218L137.306 134.999L137.14 136.854Z" fill="white"/>
<path d="M135.162 137.147L135.714 137.175L135.858 134.352L135.306 134.324L135.162 137.147Z" fill="#282D38"/>
<path opacity="0.4" d="M141.985 137.898L142.536 137.926L142.68 135.103L142.129 135.075L141.985 137.898Z" fill="white"/>
<path opacity="0.4" d="M135.162 137.147L135.714 137.175L135.858 134.352L135.306 134.324L135.162 137.147Z" fill="white"/>
<path d="M134.668 134.802L145.842 135.772C146.109 131.617 146.376 128.936 148.833 121.535C149.045 120.886 149.276 120.2 149.53 119.473C148.014 118.992 146.465 118.619 144.896 118.356C143.239 118.059 141.562 117.883 139.879 117.829C137.701 117.829 135.208 118.053 135.208 118.053C135.208 118.053 134.85 118.138 134.602 120.443C134.414 122.609 134.219 126.934 134.668 134.802Z" fill="#FF452B"/>
<path d="M140.795 120.298C143.549 119.94 144.374 118.769 144.374 118.769C142.627 117.119 144.077 114.262 144.077 114.262L140.765 114.868C140.839 115.33 140.882 115.796 140.892 116.264C140.892 118.278 140.006 118.296 140.006 118.296C139.43 119.394 140.795 120.298 140.795 120.298Z" fill="#E4897B"/>
<path opacity="0.2" d="M140.765 114.88C140.84 115.342 140.882 115.808 140.892 116.276C142.494 115.906 144.077 114.262 144.077 114.262L140.765 114.88Z" fill="black"/>
<path d="M143.719 105.709C140.91 105.041 139.649 106.315 138.757 109.178C137.647 112.733 137.841 115.487 141.535 115.548C146.546 115.633 148.384 106.813 143.719 105.709Z" fill="#E4897B"/>
<path d="M140.613 109.451C140.287 109.809 139.92 110.129 139.521 110.404C139.575 110.539 139.665 110.657 139.782 110.743C139.899 110.83 140.037 110.883 140.182 110.895L140.613 109.451Z" fill="#DE5753"/>
<path d="M142.384 109.627C142.324 109.858 142.384 110.076 142.554 110.113C142.724 110.149 142.876 110.003 142.936 109.773C142.997 109.542 142.936 109.324 142.773 109.281C142.609 109.239 142.445 109.397 142.384 109.627Z" fill="#282D38"/>
<path d="M142.833 109.312L142.385 108.984C142.385 108.984 142.554 109.47 142.833 109.312Z" fill="#282D38"/>
<path d="M139.521 108.833C139.461 109.063 139.521 109.281 139.691 109.318C139.861 109.354 140.013 109.209 140.073 108.978C140.134 108.748 140.073 108.529 139.909 108.487C139.746 108.444 139.606 108.584 139.521 108.833Z" fill="#282D38"/>
<path d="M139.994 108.517L139.545 108.19C139.545 108.19 139.685 108.675 139.994 108.517Z" fill="#282D38"/>
<path d="M142.87 107.692C143.099 107.717 143.32 107.795 143.514 107.919C143.709 108.043 143.872 108.211 143.992 108.408" stroke="#282D38" stroke-width="0.72" stroke-linecap="round" stroke-linejoin="round"/>
<path d="M140.862 107.092C140.682 106.997 140.482 106.944 140.278 106.938C140.074 106.932 139.871 106.972 139.685 107.055" stroke="#282D38" stroke-width="0.72" stroke-linecap="round" stroke-linejoin="round"/>
<path d="M140.334 111.763C140.389 112.11 140.419 112.46 140.425 112.812H140.613C141.45 112.927 141.875 112.703 142.093 112.418C142.194 112.277 142.261 112.115 142.287 111.944C142.299 111.846 142.299 111.746 142.287 111.647C141.741 111.809 141.165 111.85 140.601 111.769C140.443 111.781 140.334 111.763 140.334 111.763Z" fill="#282D38"/>
<path d="M140.619 111.793L140.656 112.102C141.199 112.242 141.774 112.195 142.288 111.969C142.3 111.87 142.3 111.77 142.288 111.672C141.747 111.831 141.178 111.872 140.619 111.793Z" fill="white"/>
<path d="M140.613 112.83C141.45 112.945 141.875 112.721 142.093 112.436C141.775 112.399 141.452 112.42 141.141 112.497C140.934 112.548 140.749 112.665 140.613 112.83Z" fill="#DE5753"/>
<path d="M145.666 111.168C145.666 111.168 144.902 108.548 145.521 106.813C145.521 106.813 140.498 103.221 138.884 108.808C138.884 108.808 139.527 103.664 144.38 104.696C149.233 105.727 147.541 112.782 144.55 114.298C144.55 114.298 146.133 112.83 145.666 111.168Z" fill="#282D38"/>
<path d="M145.066 111.653C145.17 111.334 145.396 111.07 145.695 110.917C145.994 110.765 146.342 110.737 146.661 110.84C147.504 111.138 147.498 113.024 145.235 112.939C144.908 112.927 144.805 112.581 145.066 111.653Z" fill="#E4897B"/>
<path d="M143.44 191.508L138.648 190.804L139.048 192.721L143.003 193.255L143.44 191.508Z" fill="#FF452B"/>
<path d="M151.454 187.062L148.239 190.556L149.846 191.478L152.327 188.845L151.454 187.062Z" fill="#FF452B"/>
<path d="M144.86 105.514C144.775 105.799 144.86 106.085 145.06 106.121C145.26 106.157 145.478 105.988 145.563 105.696C145.648 105.405 145.563 105.126 145.363 105.09C145.163 105.053 144.945 105.223 144.86 105.514Z" fill="#282D38"/>
<path d="M145.436 105.126L144.878 104.695C144.878 104.695 145.042 105.32 145.436 105.126Z" fill="#282D38"/>
<path d="M141.274 104.416C141.19 104.708 141.274 104.987 141.475 105.023C141.675 105.059 141.893 104.89 141.978 104.598C142.063 104.307 141.978 104.028 141.778 103.992C141.578 103.955 141.341 104.125 141.274 104.416Z" fill="#282D38"/>
<path d="M141.851 104.028L141.293 103.604C141.293 103.604 141.457 104.222 141.851 104.028Z" fill="#282D38"/>
<path d="M140.225 103.039C141.015 102.996 141.798 103.209 142.457 103.646C142.686 103.614 142.918 103.629 143.141 103.691C143.363 103.753 143.57 103.859 143.75 104.004C144.677 104.153 145.569 104.476 146.376 104.956L146.795 108.566L146.746 108.875L146.218 105.581C145.867 106.248 145.054 107.231 144.114 106.879C142.87 106.406 143.161 105.059 143.355 104.453C143.137 104.089 142.627 103.961 142.482 104.192C142.294 104.726 141.736 105.945 140.395 105.654C139.054 105.363 140.225 103.039 140.225 103.039Z" fill="#FF452B"/>
<path opacity="0.2" d="M140.225 103.039C141.015 102.996 141.798 103.209 142.457 103.646C142.686 103.614 142.918 103.629 143.141 103.691C143.363 103.753 143.57 103.859 143.75 104.004C144.677 104.153 145.569 104.476 146.376 104.956L146.795 108.566L146.746 108.875L146.218 105.581C145.867 106.248 145.054 107.231 144.114 106.879C142.87 106.406 143.161 105.059 143.355 104.453C143.137 104.089 142.627 103.961 142.482 104.192C142.294 104.726 141.736 105.945 140.395 105.654C139.054 105.363 140.225 103.039 140.225 103.039Z" fill="black"/>
<g opacity="0.3">
<path opacity="0.3" d="M140.68 103.294L140.916 105.484C140.916 105.484 140.073 105.624 139.958 104.95C139.942 104.36 140.056 103.774 140.292 103.233C140.424 103.23 140.555 103.25 140.68 103.294Z" fill="white"/>
<path opacity="0.3" d="M140.868 103.306L141.098 105.508C141.098 105.508 141.475 105.454 141.499 105.32L141.317 103.44C141.317 103.44 141.001 103.337 140.868 103.306Z" fill="white"/>
<path opacity="0.3" d="M144.204 104.386L144.441 106.57C144.441 106.57 143.598 106.709 143.482 106.036C143.464 105.446 143.578 104.86 143.816 104.319C143.948 104.319 144.08 104.342 144.204 104.386Z" fill="white"/>
<path opacity="0.3" d="M144.374 104.392L144.598 106.6C144.598 106.6 144.975 106.546 145.005 106.412L144.823 104.526L144.374 104.392Z" fill="white"/>
</g>
<path opacity="0.3" d="M149.524 119.503C149.27 120.231 149.039 120.916 148.827 121.565C148.172 123.549 147.668 125.205 147.28 126.612C146.443 129.609 145.959 132.694 145.836 135.803L134.668 134.802C134.395 129.991 134.365 126.509 134.432 124.028C134.468 122.451 134.547 121.286 134.626 120.443C134.85 118.138 135.233 118.053 135.233 118.053C135.233 118.053 135.894 117.986 136.828 117.932L137.708 117.883C138.405 117.847 139.17 117.823 139.904 117.829C141.586 117.883 143.263 118.059 144.92 118.356C145.527 118.46 146.176 118.581 146.795 118.733C147.213 118.817 147.626 118.921 148.038 119.036C148.517 119.169 149.021 119.315 149.524 119.503Z" fill="black"/>
<path d="M146.764 118.733C145.278 120.552 141.723 124.38 138.878 123.458C136.209 122.591 137.016 119.521 137.665 117.883C138.363 117.847 139.127 117.823 139.861 117.829C141.544 117.883 143.22 118.059 144.878 118.356C145.521 118.46 146.145 118.581 146.764 118.733Z" fill="#E4897B"/>
<path d="M149.524 119.503C149.27 120.231 149.039 120.916 148.827 121.565C148.172 123.549 147.668 125.205 147.28 126.612C145.903 124.186 147.28 120.619 148.008 119.066C148.517 119.169 149.021 119.315 149.524 119.503Z" fill="#E4897B"/>
<path d="M136.798 117.932C136.324 119.224 135.257 122.178 134.426 123.998C134.462 122.421 134.541 121.256 134.62 120.413C134.844 118.108 135.227 118.023 135.227 118.023C135.227 118.023 135.882 117.986 136.798 117.932Z" fill="#E4897B"/>
<path d="M149.524 119.503C151.399 120.067 156.919 120.765 158.017 120.328C159.115 119.891 167.316 112.976 167.316 112.976L168.275 114.292C168.275 114.292 160.359 123.039 159.339 123.264C158.32 123.488 148.062 123.264 148.062 123.264L149.524 119.503Z" fill="#E4897B"/>
<path opacity="0.2" d="M148.263 123.276L149.664 122.378C149.664 122.378 147.674 121.329 146.728 123.331C146.455 123.892 146.356 124.522 146.444 125.141C146.531 125.759 146.801 126.337 147.219 126.8L148.263 123.276Z" fill="black"/>
<path d="M167.298 114.262C167.298 114.262 166.576 112.763 166.74 112.272C166.904 111.781 170.738 110.185 171.696 110.179C172.654 110.173 172.909 112.497 172.303 113.376C171.696 114.256 167.965 115.02 167.298 114.262Z" fill="#E4897B"/>
<path d="M143.719 147.268C143.719 147.268 135.918 151.581 135.384 151.666C134.85 151.751 126.57 146.127 126.57 146.127L124.689 148.208C124.689 148.208 132.211 154.365 133.983 155.154C135.754 155.942 144.053 152.727 144.053 152.727L143.719 147.268Z" fill="#EBB376"/>
<path opacity="0.2" d="M143.719 147.268C143.719 147.268 135.918 151.581 135.384 151.666C134.85 151.751 126.57 146.127 126.57 146.127L124.689 148.208C124.689 148.208 132.211 154.365 133.983 155.154C135.754 155.942 144.053 152.727 144.053 152.727L143.719 147.268Z" fill="black"/>
<path d="M150.337 144.696C150.731 144.599 151.094 144.403 151.391 144.125C151.687 143.848 151.907 143.499 152.03 143.112C152.167 142.607 152.2 142.078 152.127 141.559C152.127 141.274 152.048 140.989 151.993 140.698L156.458 137.204C155.918 139.448 155.299 143.567 156.816 145.144C155.835 145.787 154.671 146.09 153.501 146.009C152.331 145.928 151.22 145.467 150.337 144.696Z" fill="#EBB376"/>
<path opacity="0.2" d="M155.463 139.382C155.437 140.313 155.075 141.203 154.444 141.889C153.813 142.574 152.955 143.009 152.03 143.112C152.167 142.607 152.2 142.078 152.127 141.559L155.463 139.382Z" fill="black"/>
<path d="M148.803 129.949C148.803 129.949 147.341 134.001 149.239 136.015C151.138 138.029 152.673 130.288 152.673 130.288L148.803 129.949Z" fill="#282D38"/>
<path d="M155.014 140.643C154.414 141.239 153.635 141.621 152.796 141.731C151.958 141.84 151.107 141.671 150.374 141.25C149.417 140.727 148.694 139.86 148.354 138.824C148.304 138.679 148.263 138.531 148.232 138.381C147.626 135.615 148.184 131.101 151.211 129.937C152.249 129.542 153.402 129.576 154.415 130.031C155.429 130.486 156.22 131.325 156.616 132.363C156.856 132.978 156.945 133.642 156.876 134.298C156.616 137.319 156.61 139.121 155.014 140.643Z" fill="#EBB376"/>
<path d="M152.212 135.002C152.212 135.245 152.066 135.445 151.902 135.445C151.738 135.445 151.611 135.232 151.617 134.984C151.623 134.735 151.763 134.535 151.927 134.541C152.09 134.547 152.212 134.747 152.212 135.002Z" fill="#282D38"/>
<path d="M149.391 134.923C149.391 135.172 149.245 135.372 149.088 135.366C148.93 135.36 148.796 135.154 148.802 134.911C148.809 134.668 148.948 134.462 149.112 134.468C149.276 134.474 149.397 134.668 149.391 134.923Z" fill="#282D38"/>
<path d="M150.283 135.075C149.966 135.828 149.547 136.534 149.039 137.174C149.21 137.302 149.408 137.392 149.617 137.436C149.827 137.48 150.044 137.477 150.252 137.428L150.283 135.075Z" fill="#D58745"/>
<path d="M153.109 134.11C153.083 134.113 153.056 134.109 153.032 134.099C153.007 134.088 152.986 134.071 152.97 134.05C152.864 133.899 152.726 133.774 152.565 133.685C152.404 133.596 152.225 133.544 152.042 133.534C152.023 133.535 152.004 133.532 151.986 133.525C151.968 133.519 151.951 133.509 151.937 133.496C151.923 133.483 151.912 133.467 151.904 133.45C151.895 133.432 151.891 133.414 151.89 133.394C151.89 133.356 151.904 133.319 151.93 133.291C151.956 133.263 151.992 133.246 152.03 133.243C152.262 133.248 152.489 133.308 152.693 133.419C152.896 133.53 153.07 133.688 153.2 133.88C153.214 133.893 153.224 133.908 153.232 133.925C153.239 133.943 153.243 133.961 153.243 133.98C153.243 133.998 153.239 134.017 153.232 134.034C153.224 134.051 153.214 134.067 153.2 134.08L153.109 134.11Z" fill="#282D38"/>
<path d="M148.208 133.922C148.18 133.931 148.151 133.931 148.123 133.922C148.089 133.905 148.062 133.875 148.05 133.839C148.037 133.802 148.04 133.763 148.056 133.728C148.16 133.519 148.312 133.338 148.5 133.2C148.688 133.061 148.906 132.97 149.136 132.933C149.155 132.932 149.175 132.934 149.193 132.94C149.211 132.945 149.228 132.955 149.243 132.967C149.257 132.98 149.269 132.995 149.278 133.012C149.287 133.029 149.292 133.048 149.294 133.067C149.296 133.105 149.283 133.143 149.258 133.172C149.233 133.201 149.198 133.22 149.16 133.224C148.98 133.258 148.81 133.334 148.665 133.446C148.519 133.557 148.402 133.702 148.323 133.868C148.309 133.884 148.292 133.898 148.272 133.908C148.252 133.917 148.23 133.922 148.208 133.922Z" fill="#282D38"/>
<path d="M154.729 130.422L154.468 131.757C154.688 131.881 154.853 132.084 154.929 132.325C155.006 132.565 154.989 132.826 154.881 133.055C154.359 134.153 154.881 135.954 155.688 136.694C155.688 136.694 155.754 136.209 156.155 136.355C156.555 136.5 156.258 139.048 155.36 140.207C155.36 140.207 156.664 139.194 157.55 136.567C158.369 134.141 158.605 132.072 158.156 131.077L154.729 130.422Z" fill="#282D38"/>
<path d="M149.039 131.029C149.039 131.029 147.783 129.548 148.802 128.268C149.821 126.989 152.375 125.994 152.6 126.673C152.824 127.352 151.993 127.632 152.6 127.753C153.206 127.874 154.547 127.146 155.766 127.274C156.986 127.401 156.076 127.753 156.725 128.232C157.374 128.711 158.338 128.711 159.018 129.154C159.697 129.597 158.581 130.367 158.581 130.367C158.581 130.367 160.14 130.367 160.14 131.393C160.14 132.418 158.381 132.23 158.381 132.23C158.381 132.23 159.442 133 159.212 133.655C158.981 134.31 155.117 133.085 154.468 131.702C154.468 131.726 150.058 132.333 149.039 131.029Z" fill="#282D38"/>
<path d="M152.503 135.22C152.503 135.518 152.618 135.778 152.818 135.797C153.018 135.815 153.2 135.584 153.225 135.281C153.249 134.978 153.109 134.723 152.909 134.705C152.709 134.686 152.527 134.917 152.503 135.22Z" fill="#282D38"/>
<path d="M152.994 134.729L152.387 134.413C152.387 134.413 152.642 134.996 152.994 134.729Z" fill="#282D38"/>
<path d="M148.772 134.838C148.772 135.135 148.887 135.396 149.087 135.445C149.288 135.493 149.47 135.232 149.5 134.929C149.53 134.626 149.379 134.371 149.178 134.353C148.978 134.335 148.796 134.535 148.772 134.838Z" fill="#282D38"/>
<path d="M149.263 134.347L148.657 134.031C148.657 134.031 148.912 134.614 149.263 134.347Z" fill="#282D38"/>
<path d="M147.474 133.686C148.239 133.488 149.047 133.542 149.779 133.837C149.997 133.762 150.228 133.732 150.457 133.75C150.687 133.767 150.91 133.832 151.114 133.94C152.052 133.906 152.989 134.05 153.874 134.365L156.767 135.342V135.657L153.831 135.014C153.613 135.736 153.006 136.834 152.012 136.688C150.695 136.47 150.732 135.111 150.798 134.48C150.507 134.171 149.985 134.141 149.888 134.389C149.803 134.953 149.494 136.258 148.123 136.209C146.752 136.161 147.474 133.686 147.474 133.686Z" fill="#FF452B"/>
<path opacity="0.2" d="M147.474 133.686C148.239 133.488 149.047 133.542 149.779 133.837C149.997 133.762 150.228 133.732 150.457 133.75C150.687 133.767 150.91 133.832 151.114 133.94C152.052 133.906 152.989 134.05 153.874 134.365L156.767 135.342V135.657L153.831 135.014C153.613 135.736 153.006 136.834 152.012 136.688C150.695 136.47 150.732 135.111 150.798 134.48C150.507 134.171 149.985 134.141 149.888 134.389C149.803 134.953 149.494 136.258 148.123 136.209C146.752 136.161 147.474 133.686 147.474 133.686Z" fill="black"/>
<g opacity="0.3">
<path opacity="0.3" d="M147.971 133.85L148.626 135.949C148.626 135.949 147.826 136.252 147.583 135.609C147.453 135.036 147.453 134.441 147.583 133.868C147.71 133.839 147.842 133.833 147.971 133.85Z" fill="white"/>
<path opacity="0.3" d="M148.159 133.825L148.808 135.942C148.808 135.942 149.166 135.821 149.166 135.681L148.626 133.862L148.159 133.825Z" fill="white"/>
<path opacity="0.3" d="M151.653 134.238L152.302 136.336C152.302 136.336 151.502 136.64 151.265 135.997C151.135 135.424 151.135 134.829 151.265 134.256C151.393 134.227 151.524 134.221 151.653 134.238Z" fill="white"/>
<path opacity="0.3" d="M151.823 134.213L152.473 136.33C152.473 136.33 152.83 136.209 152.83 136.07L152.291 134.25L151.823 134.213Z" fill="white"/>
</g>
<path d="M158.144 136.81C157.787 137.492 157.174 138.007 156.44 138.241C155.463 138.538 154.947 137.671 155.227 136.731C155.457 135.906 156.234 134.717 157.228 134.838C157.442 134.869 157.644 134.953 157.818 135.081C157.991 135.21 158.129 135.38 158.22 135.576C158.311 135.772 158.352 135.987 158.338 136.202C158.325 136.418 158.258 136.626 158.144 136.81Z" fill="#EBB376"/>
<path d="M150.264 138.308C150.5 138.737 150.703 139.183 150.871 139.643L151.126 139.588C152.272 139.351 152.721 138.86 152.879 138.375C152.947 138.144 152.96 137.901 152.915 137.665C152.896 137.529 152.857 137.396 152.8 137.271C152.158 137.735 151.424 138.056 150.647 138.211C150.44 138.308 150.264 138.308 150.264 138.308Z" fill="#282D38"/>
<path d="M150.653 138.247L150.847 138.635C151.926 138.405 152.667 138.096 152.921 137.701C152.902 137.565 152.863 137.432 152.806 137.307C152.164 137.771 151.43 138.092 150.653 138.247Z" fill="white"/>
<path d="M151.132 139.612C152.278 139.376 152.727 138.884 152.885 138.399C152.453 138.501 152.043 138.677 151.672 138.921C151.424 139.089 151.235 139.331 151.132 139.612Z" fill="#DE5753"/>
<path d="M146.443 145.618C144.016 145.29 139.315 148.893 139.315 148.893L141.256 154.383L145.745 153.971L146.443 145.618Z" fill="#FF452B"/>
<path opacity="0.6" d="M145.739 153.971L145.345 154.007L141.256 154.383L140.461 152.127L139.315 148.893C139.315 148.893 144.034 145.29 146.443 145.618L146.103 149.664L145.848 152.697L145.739 153.971Z" fill="white"/>
<path opacity="0.2" d="M145.848 152.685C145.714 153.137 145.545 153.58 145.345 154.007L141.256 154.383L140.461 152.127C142.281 149.9 145.957 149.051 145.957 149.051C146.021 149.249 146.07 149.452 146.103 149.658C146.258 150.673 146.171 151.71 145.848 152.685Z" fill="black"/>
<path d="M161.189 161.699H141.814C143.282 149.227 146.291 145.587 146.291 145.587C147.687 145.156 149.104 144.798 150.537 144.514C150.646 144.617 150.986 144.744 151.878 144.787C153.453 144.741 155.02 144.538 156.555 144.18C165.169 145.775 161.189 161.699 161.189 161.699Z" fill="#FF452B"/>
<path opacity="0.6" d="M161.408 160.71C161.28 161.317 161.189 161.699 161.189 161.699H141.814C143.282 149.227 146.291 145.587 146.291 145.587C147.687 145.156 149.104 144.798 150.537 144.514C150.646 144.617 150.986 144.744 151.878 144.787C153.453 144.741 155.02 144.538 156.555 144.18C158.981 144.629 160.395 146.212 161.195 148.256C162.815 152.369 161.875 158.375 161.408 160.71Z" fill="white"/>
<path opacity="0.2" d="M161.408 160.71C157.198 161.923 150.744 160.474 149.664 156.167C147.983 149.458 156.725 147.353 156.725 147.353C158.276 147.149 159.852 147.462 161.208 148.244C162.815 152.369 161.875 158.375 161.408 160.71Z" fill="black"/>
<path d="M125.994 147.692L126.6 146.127C126.6 146.127 121.748 143.391 121.013 144.168C120.279 144.944 119.655 147.668 121.013 148.305C122.372 148.942 124.047 149.336 124.72 149.051C125.252 148.712 125.69 148.245 125.994 147.692Z" fill="#EBB376"/>
<path opacity="0.2" d="M125.994 147.692L126.6 146.127C126.6 146.127 121.748 143.391 121.013 144.168C120.279 144.944 119.655 147.668 121.013 148.305C122.372 148.942 124.047 149.336 124.72 149.051C125.252 148.712 125.69 148.245 125.994 147.692Z" fill="black"/>
<path d="M127.456 159.636C127.374 159.671 127.285 159.689 127.196 159.689C127.106 159.689 127.018 159.671 126.936 159.637C126.853 159.603 126.778 159.552 126.716 159.488C126.653 159.425 126.604 159.349 126.57 159.266L121.547 147.134C121.479 146.968 121.48 146.781 121.549 146.615C121.619 146.449 121.751 146.317 121.918 146.248C122 146.214 122.089 146.196 122.179 146.196C122.269 146.196 122.358 146.213 122.441 146.248C122.523 146.282 122.599 146.332 122.662 146.396C122.725 146.46 122.775 146.535 122.809 146.619L127.826 158.751C127.861 158.833 127.878 158.922 127.878 159.011C127.879 159.1 127.861 159.189 127.826 159.271C127.792 159.354 127.741 159.428 127.678 159.491C127.614 159.554 127.539 159.603 127.456 159.636Z" fill="black"/>
<path d="M236.495 178.023H58.6237C58.429 178.023 58.2423 178.1 58.1046 178.238C57.967 178.376 57.8896 178.562 57.8896 178.757V204.429C57.8896 204.623 57.967 204.81 58.1046 204.948C58.2423 205.085 58.429 205.163 58.6237 205.163H108.542C108.737 205.163 108.923 205.24 109.061 205.378C109.199 205.515 109.276 205.702 109.276 205.897V208.008C109.276 208.203 109.353 208.389 109.491 208.527C109.629 208.665 109.815 208.742 110.01 208.742H131.757C131.952 208.742 132.138 208.665 132.276 208.527C132.414 208.389 132.491 208.203 132.491 208.008V205.897C132.491 205.702 132.568 205.515 132.706 205.378C132.844 205.24 133.03 205.163 133.225 205.163H154.717C154.912 205.163 155.099 205.24 155.236 205.378C155.374 205.515 155.451 205.702 155.451 205.897C155.451 206.092 155.529 206.278 155.666 206.416C155.804 206.554 155.991 206.631 156.185 206.631H165.976C166.171 206.631 166.357 206.554 166.495 206.416C166.633 206.278 166.71 206.092 166.71 205.897C166.71 205.702 166.787 205.515 166.925 205.378C167.063 205.24 167.249 205.163 167.444 205.163H176.404C176.598 205.163 176.785 205.24 176.923 205.378C177.06 205.515 177.138 205.702 177.138 205.897V206.752C177.138 206.947 177.215 207.134 177.353 207.271C177.49 207.409 177.677 207.486 177.872 207.486H196.816C197.011 207.486 197.198 207.409 197.335 207.271C197.473 207.134 197.55 206.947 197.55 206.752V205.897C197.55 205.702 197.628 205.515 197.765 205.378C197.903 205.24 198.09 205.163 198.284 205.163H236.501C236.696 205.163 236.882 205.085 237.02 204.948C237.158 204.81 237.235 204.623 237.235 204.429V178.757C237.235 178.66 237.216 178.564 237.179 178.475C237.141 178.385 237.087 178.304 237.018 178.236C236.949 178.168 236.867 178.114 236.778 178.077C236.688 178.041 236.592 178.022 236.495 178.023Z" fill="black"/>
<path d="M85.3023 221.159C95.889 221.159 104.471 212.577 104.471 201.99C104.471 191.404 95.889 182.821 85.3023 182.821C74.7155 182.821 66.1333 191.404 66.1333 201.99C66.1333 212.577 74.7155 221.159 85.3023 221.159Z" fill="#282D38"/>
<path opacity="0.2" d="M85.3023 216.64C82.4043 216.64 79.5715 215.78 77.1621 214.17C74.7527 212.56 72.875 210.271 71.7666 207.594C70.6581 204.916 70.3687 201.97 70.935 199.128C71.5012 196.286 72.8977 193.675 74.9477 191.627C76.9977 189.579 79.6092 188.184 82.4517 187.621C85.2943 187.057 88.2403 187.348 90.9169 188.459C93.5936 189.57 95.8807 191.449 97.489 193.86C99.0973 196.271 99.9544 199.104 99.952 202.002C99.9456 205.885 98.3997 209.606 95.6534 212.35C92.9071 215.094 89.1846 216.637 85.3023 216.64Z" fill="black"/>
<path opacity="0.6" d="M85.3023 214.82C92.388 214.82 98.1322 209.076 98.1322 201.99C98.1322 194.905 92.388 189.16 85.3023 189.16C78.2165 189.16 72.4724 194.905 72.4724 201.99C72.4724 209.076 78.2165 214.82 85.3023 214.82Z" fill="white"/>
<path opacity="0.6" d="M85.3023 213C83.1242 213 80.995 212.354 79.1842 211.144C77.3733 209.934 75.9621 208.213 75.1292 206.201C74.2962 204.188 74.0789 201.974 74.5047 199.838C74.9305 197.702 75.9803 195.74 77.5213 194.201C79.0623 192.661 81.0252 191.614 83.1618 191.19C85.2983 190.767 87.5124 190.987 89.524 191.822C91.5357 192.657 93.2543 194.07 94.4627 195.882C95.671 197.694 96.3147 199.824 96.3123 202.002C96.3059 204.919 95.1435 207.715 93.0797 209.776C91.016 211.838 88.2192 212.997 85.3023 213Z" fill="white"/>
<path opacity="0.2" d="M85.3023 205.114C84.6844 205.114 84.0804 204.931 83.5667 204.588C83.0529 204.244 82.6525 203.757 82.416 203.186C82.1796 202.615 82.1177 201.987 82.2383 201.381C82.3588 200.775 82.6563 200.218 83.0932 199.781C83.5301 199.344 84.0868 199.047 84.6928 198.926C85.2988 198.806 85.927 198.867 86.4978 199.104C87.0687 199.34 87.5566 199.741 87.8998 200.255C88.2431 200.768 88.4263 201.372 88.4263 201.99C88.4247 202.818 88.0951 203.612 87.5096 204.197C86.924 204.783 86.1303 205.113 85.3023 205.114Z" fill="black"/>
<g opacity="0.2">
<path opacity="0.2" d="M83.1062 192.521L84.8533 197.756C85.1354 197.724 85.4203 197.724 85.7025 197.756L87.4435 192.515C86.7329 192.354 86.0065 192.272 85.2779 192.272C84.5468 192.271 83.8181 192.355 83.1062 192.521Z" fill="black"/>
<path opacity="0.2" d="M85.2961 206.249C85.1547 206.258 85.0128 206.258 84.8714 206.249L83.1062 211.466C83.8168 211.627 84.5432 211.708 85.2718 211.708C86.0029 211.709 86.7316 211.626 87.4435 211.459L85.7207 206.249C85.5793 206.258 85.4375 206.258 85.2961 206.249Z" fill="black"/>
<path opacity="0.2" d="M94.7714 199.825L89.5364 201.572C89.5688 201.854 89.5688 202.139 89.5364 202.421L94.7775 204.162C94.9387 203.451 95.0201 202.725 95.0202 201.996C95.0211 201.265 94.9376 200.537 94.7714 199.825Z" fill="black"/>
<path opacity="0.2" d="M81.0438 202.002C81.0345 201.861 81.0345 201.719 81.0438 201.578L75.8269 199.825C75.6657 200.535 75.5843 201.262 75.5842 201.99C75.5833 202.721 75.6668 203.45 75.833 204.162L81.068 202.415C81.0512 202.278 81.0431 202.14 81.0438 202.002Z" fill="black"/>
<path opacity="0.2" d="M88.5962 199.297L93.534 196.822C93.1446 196.208 92.6889 195.638 92.1752 195.123C91.6576 194.606 91.0838 194.148 90.4645 193.758L87.9956 198.696C88.2179 198.877 88.4212 199.081 88.6022 199.303L88.5962 199.297Z" fill="black"/>
<path opacity="0.2" d="M82.0021 204.684L77.04 207.159C77.4316 207.773 77.8893 208.342 78.4049 208.857C78.9213 209.376 79.4952 209.834 80.1156 210.222L82.5784 205.284C82.3561 205.103 82.1529 204.9 81.9718 204.677L82.0021 204.684Z" fill="black"/>
<path opacity="0.2" d="M88.311 205.035C88.2111 205.136 88.1036 205.23 87.9895 205.314L90.4645 210.252C91.0817 209.864 91.6535 209.409 92.1691 208.893C92.6862 208.377 93.1421 207.803 93.5279 207.183L88.5658 204.684C88.4901 204.807 88.4049 204.925 88.311 205.035Z" fill="black"/>
<path opacity="0.2" d="M78.4294 195.117C77.9122 195.633 77.4563 196.207 77.0706 196.828L82.0084 199.297C82.0952 199.183 82.1905 199.075 82.2935 198.975C82.3927 198.876 82.498 198.783 82.6089 198.696L80.134 193.758C79.5167 194.146 78.945 194.602 78.4294 195.117Z" fill="black"/>
</g>
<path d="M210.453 221.159C221.039 221.159 229.622 212.577 229.622 201.99C229.622 191.404 221.039 182.821 210.453 182.821C199.866 182.821 191.284 191.404 191.284 201.99C191.284 212.577 199.866 221.159 210.453 221.159Z" fill="#282D38"/>
<path opacity="0.2" d="M210.452 216.64C207.554 216.64 204.722 215.78 202.312 214.17C199.903 212.56 198.025 210.271 196.917 207.594C195.808 204.916 195.519 201.97 196.085 199.128C196.651 196.286 198.048 193.675 200.098 191.627C202.148 189.579 204.759 188.184 207.602 187.621C210.444 187.057 213.39 187.348 216.067 188.459C218.744 189.57 221.031 191.449 222.639 193.86C224.247 196.271 225.105 199.104 225.102 202.002C225.096 205.885 223.55 209.606 220.804 212.35C218.057 215.094 214.335 216.637 210.452 216.64Z" fill="black"/>
<path opacity="0.6" d="M210.452 214.82C217.538 214.82 223.282 209.076 223.282 201.99C223.282 194.905 217.538 189.16 210.452 189.16C203.367 189.16 197.623 194.905 197.623 201.99C197.623 209.076 203.367 214.82 210.452 214.82Z" fill="white"/>
<path opacity="0.6" d="M210.453 213C208.275 213 206.145 212.354 204.335 211.144C202.524 209.934 201.113 208.213 200.28 206.201C199.447 204.188 199.229 201.974 199.655 199.838C200.081 197.702 201.131 195.74 202.672 194.201C204.213 192.661 206.176 191.614 208.312 191.19C210.449 190.767 212.663 190.987 214.674 191.822C216.686 192.657 218.405 194.07 219.613 195.882C220.821 197.694 221.465 199.824 221.463 202.002C221.456 204.919 220.294 207.715 218.23 209.776C216.166 211.838 213.37 212.997 210.453 213Z" fill="white"/>
<path opacity="0.2" d="M210.452 205.114C209.835 205.114 209.231 204.931 208.717 204.588C208.203 204.244 207.803 203.757 207.566 203.186C207.33 202.615 207.268 201.987 207.388 201.381C207.509 200.775 207.806 200.218 208.243 199.781C208.68 199.344 209.237 199.047 209.843 198.926C210.449 198.806 211.077 198.867 211.648 199.104C212.219 199.34 212.707 199.741 213.05 200.255C213.393 200.768 213.576 201.372 213.576 201.99C213.575 202.818 213.245 203.612 212.66 204.197C212.074 204.783 211.28 205.113 210.452 205.114Z" fill="black"/>
<g opacity="0.2">
<path opacity="0.2" d="M208.281 192.521L210.028 197.756C210.31 197.724 210.595 197.724 210.877 197.756L212.618 192.515C211.908 192.354 211.181 192.272 210.453 192.272C209.722 192.271 208.993 192.355 208.281 192.521Z" fill="black"/>
<path opacity="0.2" d="M210.447 206.249C210.305 206.258 210.163 206.258 210.022 206.249L208.281 211.49C208.992 211.651 209.718 211.732 210.447 211.732C211.178 211.733 211.906 211.65 212.618 211.484L210.871 206.249C210.73 206.258 210.588 206.258 210.447 206.249Z" fill="black"/>
<path opacity="0.2" d="M219.922 199.825L214.687 201.572C214.719 201.854 214.719 202.139 214.687 202.421L219.928 204.162C220.099 203.454 220.191 202.73 220.201 202.002C220.193 201.268 220.099 200.537 219.922 199.825Z" fill="black"/>
<path opacity="0.2" d="M206.194 202.002C206.185 201.861 206.185 201.719 206.194 201.578L200.953 199.837C200.792 200.547 200.711 201.274 200.711 202.002C200.71 202.733 200.793 203.462 200.959 204.174L206.194 202.427C206.185 202.286 206.185 202.144 206.194 202.002Z" fill="black"/>
<path opacity="0.2" d="M213.747 199.297L218.685 196.822C218.295 196.208 217.84 195.638 217.326 195.123C216.808 194.606 216.234 194.148 215.615 193.758L213.146 198.696C213.369 198.877 213.572 199.081 213.753 199.303L213.747 199.297Z" fill="black"/>
<path opacity="0.2" d="M207.153 204.684L202.215 207.159C202.604 207.773 203.06 208.342 203.574 208.857C204.092 209.376 204.668 209.834 205.29 210.222L207.753 205.284C207.531 205.103 207.328 204.9 207.147 204.677L207.153 204.684Z" fill="black"/>
<path opacity="0.2" d="M213.462 205.035C213.362 205.137 213.254 205.23 213.14 205.314L215.615 210.252C216.232 209.865 216.804 209.409 217.32 208.894C217.837 208.377 218.293 207.803 218.679 207.183L213.741 204.714C213.656 204.828 213.563 204.936 213.462 205.035Z" fill="black"/>
<path opacity="0.2" d="M203.58 195.117C203.063 195.633 202.607 196.207 202.221 196.828L207.159 199.297C207.251 199.18 207.353 199.07 207.462 198.969C207.562 198.87 207.667 198.777 207.778 198.69L205.303 193.752C204.679 194.141 204.101 194.599 203.58 195.117Z" fill="black"/>
</g>
<path d="M157.192 159.679C157.192 159.679 159.673 149.591 162.961 147.692C162.961 147.692 161.875 146.904 163.276 143.446C164.678 139.988 166.006 137.168 168.329 137.871C170.653 138.575 177.113 142.754 168.329 147.692C168.329 147.692 170.149 152.442 170.149 163.027C170.149 173.613 159.036 185.12 156.682 183.325C154.329 181.529 157.192 159.679 157.192 159.679Z" fill="#282D38"/>
<path d="M213.655 148.408C212.588 149.737 212.576 151.581 212.824 153.091C212.975 154.006 213.227 154.901 213.577 155.76L177.786 160.334V154.141C177.786 154.141 177.513 150.416 195.809 150.094C195.809 150.094 206 140.249 208.287 140.492C211.763 140.856 210.459 143.634 210.459 143.634C211.339 143.398 212.266 143.398 213.146 143.634C214.644 144.156 215.779 145.763 213.655 148.408Z" fill="#282D38"/>
<path opacity="0.2" d="M213.655 148.408C212.588 149.737 212.576 151.581 212.824 153.091C205.848 154.335 180.152 156.124 181.456 154.413C182.9 152.551 197.598 152.794 198.442 152.254C199.285 151.714 210.459 143.634 210.459 143.634C211.339 143.398 212.266 143.398 213.146 143.634C214.644 144.156 215.779 145.763 213.655 148.408Z" fill="black"/>
<path d="M245.121 200.947L231.648 201.056C231.278 195.66 228.862 190.608 224.894 186.932C220.926 183.257 215.705 181.234 210.296 181.277C204.887 181.321 199.699 183.427 195.79 187.166C191.881 190.904 189.547 195.994 189.264 201.396L106.546 202.075V202.002C106.53 197.427 105.037 192.98 102.289 189.322C99.5408 185.665 95.6848 182.993 91.2951 181.704C86.9055 180.415 82.2169 180.579 77.9278 182.171C73.6387 183.762 69.9785 186.697 67.4922 190.537C65.2801 193.952 64.1064 197.934 64.1133 202.002C64.1133 202.154 64.1133 202.306 64.1133 202.457L59.9823 200.51L49.5728 195.603C49.5728 195.603 46.4488 175.821 55.4145 165.32C64.3802 154.82 98.1565 147.025 98.1565 147.025C98.1565 147.025 108.002 133.679 114.408 127.177L114.978 126.606C115.304 126.293 115.739 126.119 116.191 126.121H120.11C120.222 126.114 120.333 126.137 120.433 126.188C120.533 126.238 120.618 126.313 120.68 126.407C120.741 126.5 120.777 126.608 120.783 126.72C120.79 126.832 120.767 126.943 120.716 127.043C118.812 130.956 111.557 146.339 111.557 154.159H197.623L213.656 148.426C213.656 148.426 239.607 153.74 242.591 157.192C243.064 157.953 243.366 158.808 243.477 159.697C245.473 169.3 245.121 200.947 245.121 200.947Z" fill="#FF452B"/>
<path d="M62.5479 159.782C67.14 158.617 66.1087 168.172 59.8667 173.291C53.6246 178.411 51.1678 178.181 50.4763 175.257C49.7847 172.333 53.382 162.111 62.5479 159.782Z" fill="#FF452B"/>
<path opacity="0.6" d="M62.5479 159.782C67.14 158.617 66.1087 168.172 59.8667 173.291C53.6246 178.411 51.1678 178.181 50.4763 175.257C49.7847 172.333 53.382 162.111 62.5479 159.782Z" fill="white"/>
<path opacity="0.6" d="M62.178 167.711C61.3591 170.574 59.5453 172.563 58.1319 172.163C56.7185 171.763 56.2271 169.13 57.046 166.243C57.865 163.355 59.6787 161.39 61.0982 161.79C62.5177 162.19 63.003 164.847 62.178 167.711Z" fill="white"/>
<path opacity="0.6" d="M55.1474 171.829C54.7713 173.152 53.9342 174.068 53.2851 173.88C52.636 173.692 52.4055 172.472 52.7877 171.156C53.1699 169.84 54.0009 168.918 54.65 169.106C55.2991 169.294 55.5296 170.513 55.1474 171.829Z" fill="white"/>
<path opacity="0.2" d="M63.6947 165.606C63.6947 165.606 58.7629 171.605 51.708 171.484C51.708 171.484 54.8139 163.125 62.5785 160.565C62.5907 160.571 64.9079 162.33 63.6947 165.606Z" fill="white"/>
<path d="M117.519 127.577C116.876 128.614 116.209 129.761 115.53 130.962C112.157 136.901 108.614 144.131 107.547 146.34C107.446 146.539 107.293 146.706 107.104 146.824C106.914 146.942 106.696 147.005 106.473 147.007H98.1321C98.1321 147.007 107.977 133.661 114.383 127.158H117.283C117.332 127.157 117.381 127.17 117.424 127.194C117.467 127.219 117.502 127.254 117.526 127.297C117.55 127.34 117.563 127.389 117.561 127.438C117.56 127.487 117.546 127.535 117.519 127.577Z" fill="#282D38"/>
<path opacity="0.2" d="M117.519 127.577C116.876 128.614 116.209 129.761 115.53 130.962C109.918 135.877 104.718 141.243 99.9822 147.007H98.1624C98.1624 147.007 108.008 133.661 114.414 127.158H117.313C117.36 127.162 117.405 127.179 117.443 127.205C117.482 127.232 117.513 127.268 117.534 127.31C117.555 127.352 117.564 127.398 117.562 127.445C117.559 127.492 117.545 127.537 117.519 127.577Z" fill="white"/>
<path opacity="0.2" d="M245.12 200.947L231.647 201.056C231.278 195.66 228.862 190.608 224.894 186.932C220.926 183.257 215.704 181.234 210.296 181.277C204.887 181.321 199.698 183.427 195.79 187.166C191.881 190.904 189.547 195.994 189.263 201.396L106.545 202.075V202.002C106.53 197.427 105.037 192.98 102.288 189.322C99.5404 185.665 95.6844 182.993 91.2947 181.704C86.905 180.415 82.2165 180.579 77.9274 182.171C73.6383 183.762 69.978 186.697 67.4917 190.537C65.2797 193.952 64.1059 197.934 64.1129 202.002C64.1129 202.154 64.1129 202.306 64.1129 202.457L59.9818 200.51L58.9749 183.343C58.9749 183.343 63.6155 172.151 80.91 166.054C98.2046 159.958 231.635 164.289 231.635 164.289C231.635 164.289 239.115 160.231 243.501 159.697C243.695 160.625 243.865 161.754 244.016 163.046C244.52 167.371 244.811 173.461 244.975 179.497C245.242 190.301 245.12 200.947 245.12 200.947Z" fill="black"/>
<path d="M236.416 191.769L231.648 201.056C231.278 195.66 228.862 190.608 224.894 186.932C220.926 183.257 215.704 181.234 210.296 181.277C204.887 181.321 199.699 183.427 195.79 187.166C191.881 190.904 189.547 195.994 189.263 201.396L106.546 202.075V202.002C106.53 197.427 105.037 192.98 102.289 189.322C99.5405 185.665 95.6845 182.993 91.2948 181.704C86.9052 180.415 82.2166 180.579 77.9275 182.171C73.6384 183.762 69.9782 186.697 67.4919 190.537L63.4397 187.11C63.4397 187.11 68.608 173.995 85.3324 173.995C102.057 173.995 109.494 186.649 111.417 195.736H184.338C184.338 195.736 190.725 173.995 210.452 173.995C230.18 173.995 236.416 191.769 236.416 191.769Z" fill="#FF452B"/>
<path d="M64.6287 208.675C64.6311 208.924 64.5842 209.17 64.4908 209.4C64.3974 209.631 64.2592 209.84 64.0844 210.017C63.9095 210.193 63.7014 210.333 63.472 210.429C63.2427 210.525 62.9967 210.574 62.7482 210.574H57.5495C56.7713 210.574 56.0146 210.318 55.396 209.846L46.133 202.761C45.5206 202.289 45.0073 201.702 44.6226 201.032C44.1304 200.162 43.8713 199.18 43.8704 198.181V189.749C43.8736 189.252 43.9786 188.761 44.179 188.306C44.3793 187.851 44.6706 187.442 45.0351 187.104L49.1722 183.325H58.9508L67.4434 190.519C64.8046 194.571 64.5923 204.496 64.6287 208.675Z" fill="#FF452B"/>
<path opacity="0.2" d="M54.747 195.433C54.8194 196.921 54.4064 198.392 53.5702 199.624C53.4251 199.834 53.2346 200.007 53.013 200.132C52.7913 200.257 52.5442 200.33 52.2902 200.346C50.9314 200.346 49.8274 198.15 49.8274 195.433C49.8274 192.715 50.9314 190.519 52.2902 190.519C52.5171 190.532 52.7387 190.593 52.9404 190.697C53.1422 190.802 53.3196 190.948 53.461 191.126C54.2253 191.945 54.747 193.57 54.747 195.433Z" fill="black"/>
<path opacity="0.2" d="M54.7473 195.433C54.8196 196.921 54.4066 198.392 53.5704 199.624C52.8061 198.793 52.2905 197.149 52.2905 195.33C52.2212 193.843 52.6316 192.373 53.4613 191.138C54.2256 191.945 54.7473 193.57 54.7473 195.433Z" fill="white"/>
<path opacity="0.1" d="M58.9509 183.325L53.4913 188.178H44.2405C44.4348 187.774 44.7045 187.412 45.0351 187.11L49.1722 183.331L58.9509 183.325Z" fill="white"/>
<path opacity="0.2" d="M64.6289 208.675C64.6313 208.924 64.5845 209.17 64.491 209.4C64.3976 209.631 64.2595 209.84 64.0846 210.017C63.9098 210.193 63.7016 210.333 63.4723 210.429C63.2429 210.525 62.9969 210.574 62.7484 210.574H57.5497C56.7715 210.574 56.0149 210.318 55.3963 209.846L46.1333 202.761C45.5208 202.289 45.0075 201.702 44.6228 201.032H55.6692L61.3471 205.648C61.3471 205.648 60.4312 195.942 65.3872 190.028L58.951 183.325L67.4436 190.519C64.8048 194.571 64.5925 204.496 64.6289 208.675Z" fill="black"/>
<path d="M231.648 201.056L242.094 181.038H245.127L248.73 183.276C249.239 183.594 249.658 184.035 249.949 184.559C250.24 185.084 250.392 185.673 250.392 186.273V201.535C250.392 202.111 250.25 202.678 249.981 203.186C249.711 203.695 249.321 204.13 248.845 204.453L244.829 207.183C244.492 207.41 244.096 207.533 243.689 207.535H233.686C233.145 207.535 232.627 207.32 232.245 206.938C231.862 206.555 231.648 206.037 231.648 205.496V201.056Z" fill="#FF452B"/>
<g opacity="0.2">
<path opacity="0.2" d="M111.387 196.021C111.306 196.021 111.229 195.989 111.172 195.932C111.115 195.875 111.083 195.798 111.083 195.718C111.083 191.732 107.092 185.982 107.049 185.921C107.013 185.872 106.994 185.812 106.995 185.751C106.995 161.632 109.245 155.469 109.342 155.22L110.446 150.034C110.464 149.956 110.511 149.888 110.578 149.843C110.644 149.799 110.726 149.783 110.804 149.797C110.844 149.805 110.882 149.821 110.915 149.844C110.948 149.866 110.977 149.895 110.999 149.929C111.021 149.963 111.036 150.001 111.043 150.041C111.051 150.081 111.05 150.122 111.041 150.161L109.919 155.39C109.882 155.493 107.607 161.79 107.601 185.654C108.117 186.4 111.69 191.751 111.69 195.718C111.69 195.798 111.658 195.875 111.601 195.932C111.544 195.989 111.467 196.021 111.387 196.021Z" fill="black"/>
</g>
<path d="M112.321 147.692C111.771 147.694 111.238 147.882 110.81 148.226C110.381 148.57 110.082 149.049 109.961 149.585C109.476 151.732 108.881 154.978 109.621 155.329C110.361 155.681 114.201 155.748 116.797 155.76C117.441 155.76 118.058 155.505 118.513 155.049C118.968 154.594 119.224 153.977 119.224 153.334V152.97C119.224 151.57 118.668 150.227 117.679 149.236C116.689 148.245 115.347 147.688 113.946 147.686L112.321 147.692Z" fill="#282D38"/>
<path opacity="0.2" d="M112.321 147.692C111.771 147.694 111.238 147.882 110.81 148.226C110.381 148.57 110.082 149.049 109.961 149.585C109.476 151.732 108.881 154.978 109.621 155.329C110.361 155.681 114.201 155.748 116.797 155.76C117.441 155.76 118.058 155.505 118.513 155.049C118.968 154.594 119.224 153.977 119.224 153.334V152.97C119.224 151.57 118.668 150.227 117.679 149.236C116.689 148.245 115.347 147.688 113.946 147.686L112.321 147.692Z" fill="black"/>
<path d="M124.423 151.726C123.386 152.175 117.065 152.212 117.065 152.212L116.919 152.673C116.823 152.991 116.626 153.27 116.358 153.468C116.09 153.666 115.766 153.772 115.433 153.771H114.65C114.465 153.776 114.28 153.738 114.111 153.66C113.942 153.583 113.794 153.467 113.676 153.323C113.559 153.179 113.477 153.01 113.435 152.829C113.394 152.647 113.394 152.459 113.437 152.278C113.546 151.769 113.674 151.168 113.825 150.525C114.432 147.856 115.312 144.459 115.93 144.016C116.84 143.41 122.409 143.555 124.362 144.423C124.599 144.512 124.809 144.663 124.969 144.859C125.782 146.097 125.46 151.277 124.423 151.726Z" fill="#282D38"/>
<path opacity="0.1" d="M124.356 144.423C124.278 146.131 124.042 147.829 123.652 149.494C123.576 149.852 123.382 150.175 123.102 150.411C122.822 150.647 122.471 150.783 122.105 150.798L115.287 151.101C115.016 151.114 114.745 151.069 114.492 150.97C114.239 150.87 114.01 150.719 113.819 150.525C114.426 147.856 115.305 144.459 115.924 144.016C116.852 143.385 122.421 143.555 124.356 144.423Z" fill="white"/>
<g opacity="0.2">
<path opacity="0.2" d="M168.639 196.258C168.625 196.326 168.588 196.388 168.534 196.432C168.479 196.476 168.412 196.5 168.342 196.5H168.281C168.242 196.493 168.204 196.478 168.171 196.456C168.137 196.434 168.108 196.405 168.086 196.372C168.064 196.338 168.049 196.301 168.042 196.262C168.035 196.222 168.036 196.182 168.044 196.143C173.455 169.494 171.259 154.341 171.241 154.189C171.238 154.175 171.238 154.161 171.241 154.147H171.848C171.981 155.111 173.923 170.246 168.639 196.258Z" fill="black"/>
</g>
<path opacity="0.2" d="M165.606 166H158.963C158.239 166 157.545 166.287 157.033 166.799C156.521 167.311 156.233 168.006 156.233 168.73C156.233 169.454 156.521 170.148 157.033 170.66C157.545 171.172 158.239 171.459 158.963 171.459H165.606C166.33 171.459 167.024 171.172 167.536 170.66C168.048 170.148 168.335 169.454 168.335 168.73C168.335 168.006 168.048 167.311 167.536 166.799C167.024 166.287 166.33 166 165.606 166ZM166.637 169.967H157.938C157.609 169.967 157.293 169.836 157.061 169.604C156.828 169.371 156.697 169.056 156.697 168.727C156.697 168.398 156.828 168.082 157.061 167.849C157.293 167.617 157.609 167.486 157.938 167.486H166.631C166.96 167.486 167.275 167.617 167.508 167.849C167.741 168.082 167.871 168.398 167.871 168.727C167.871 169.056 167.741 169.371 167.508 169.604C167.275 169.836 166.96 169.967 166.631 169.967H166.637Z" fill="black"/>
<path opacity="0.4" d="M249.045 189.3H250.41V199.297H249.045C248.563 199.297 248.1 199.105 247.758 198.764C247.417 198.423 247.225 197.96 247.225 197.477V191.138C247.223 190.897 247.268 190.659 247.359 190.436C247.449 190.213 247.583 190.01 247.752 189.839C247.921 189.668 248.123 189.533 248.345 189.44C248.567 189.348 248.805 189.3 249.045 189.3Z" fill="black"/>
<path opacity="0.4" d="M244.951 179.479C242.524 178.551 240.704 175.342 240.589 171.459C240.589 171.308 240.589 171.156 240.589 171.004C240.589 167.456 241.99 164.404 244.004 163.027C244.283 165.405 244.496 168.317 244.653 171.459C244.781 174.031 244.872 176.761 244.951 179.479Z" fill="black"/>
<path opacity="0.6" d="M244.951 179.479C242.524 178.551 240.704 175.342 240.589 171.459H244.641C244.781 174.031 244.872 176.761 244.951 179.479Z" fill="white"/>
<path opacity="0.2" d="M101.177 167.486H97.1131C96.7914 167.486 96.4828 167.358 96.2552 167.131C96.0277 166.903 95.8999 166.595 95.8999 166.273C95.8999 165.951 96.0277 165.642 96.2552 165.415C96.4828 165.187 96.7914 165.06 97.1131 165.06H101.177C101.499 165.06 101.808 165.187 102.035 165.415C102.263 165.642 102.391 165.951 102.391 166.273C102.391 166.595 102.263 166.903 102.035 167.131C101.808 167.358 101.499 167.486 101.177 167.486Z" fill="white"/>
<path d="M159.212 152.745C159.212 152.745 152.017 160.522 150.386 161.578C148.754 162.633 139.315 154.298 139.315 154.298C139.315 154.298 134.238 153.121 134.183 153.085C134.128 153.049 136.609 150.659 137.877 150.659C139.145 150.659 141.068 152.739 141.129 152.745C141.189 152.751 148.062 158.314 149.191 157.598C150.319 156.882 153.88 151.12 153.88 151.12L159.212 152.745Z" fill="#EBB376"/>
<path d="M159.885 145.417C163.319 147.844 160.88 152.933 156.792 157.155L151.09 153.485C151.09 153.485 155.7 142.427 159.885 145.417Z" fill="#FF452B"/>
<path opacity="0.6" d="M159.885 145.417C163.319 147.844 160.88 152.933 156.792 157.155L151.09 153.485C151.09 153.485 155.7 142.427 159.885 145.417Z" fill="white"/>
<defs>
<clipPath id="clip0">
<rect width="2.42645" height="3.03307" fill="white" transform="translate(272.976 53.382)"/>
</clipPath>
</defs>
</svg>
