<svg width="21" height="17" viewBox="0 0 21 17" fill="none" xmlns="http://www.w3.org/2000/svg">
<path d="M20.25 0H0.75C0.335156 0 0 0.335156 0 0.75V4.5H21V0.75C21 0.335156 20.6648 0 20.25 0ZM0 15.75C0 16.1648 0.335156 16.5 0.75 16.5H20.25C20.6648 16.5 21 16.1648 21 15.75V6.5625H0V15.75ZM13.5703 11.4375C13.5703 11.3344 13.6547 11.25 13.7578 11.25H17.625C17.7281 11.25 17.8125 11.3344 17.8125 11.4375V13.125C17.8125 13.2281 17.7281 13.3125 17.625 13.3125H13.7578C13.6547 13.3125 13.5703 13.2281 13.5703 13.125V11.4375Z" fill="#B1B1B1"/>
</svg>
