<svg width="29" height="29" viewBox="0 0 29 29" fill="none" xmlns="http://www.w3.org/2000/svg">
<path d="M14.0874 0.121094C6.31968 0.121094 0 6.44066 0 14.2085C0 21.9765 6.31968 28.2963 14.0874 28.2963C21.8555 28.2963 28.1752 21.9765 28.1752 14.2085C28.175 6.44066 21.8553 0.121094 14.0874 0.121094ZM21.5852 10.5343C21.2116 11.0937 20.7471 11.5866 20.2109 11.9926C20.2131 12.0743 20.2146 12.1561 20.2146 12.2378C20.2146 16.3461 17.0885 20.5954 11.8569 20.5954C10.2604 20.5962 8.69726 20.1384 7.35343 19.2765C7.30552 19.2459 7.26942 19.1999 7.25105 19.1462C7.23268 19.0924 7.23312 19.0339 7.25231 18.9804C7.27099 18.9266 7.30754 18.8809 7.35587 18.8508C7.4042 18.8206 7.4614 18.808 7.51792 18.8149C7.7385 18.8404 7.95707 18.8529 8.16784 18.8529C9.19405 18.8529 10.172 18.577 11.0304 18.0498C10.5134 17.925 10.0372 17.6693 9.64772 17.3071C9.25822 16.945 8.9685 16.4887 8.80645 15.9821C8.79319 15.9405 8.79094 15.8962 8.79993 15.8535C8.80893 15.8108 8.82885 15.7711 8.85776 15.7384C8.88668 15.7056 8.92368 15.681 8.96508 15.6671C9.00648 15.6531 9.05083 15.6502 9.09369 15.6587C9.14097 15.6677 9.18851 15.6755 9.2358 15.6821C8.36227 15.1255 7.7956 14.1468 7.7956 13.0633V13.0273C7.79562 12.9836 7.80706 12.9406 7.8288 12.9026C7.85054 12.8646 7.88182 12.8329 7.91954 12.8107C7.95726 12.7885 8.00013 12.7765 8.0439 12.776C8.08767 12.7754 8.13082 12.7863 8.1691 12.8075C8.27851 12.8681 8.39195 12.9207 8.5084 12.965C8.06143 12.4126 7.81794 11.7233 7.81874 11.0127C7.81874 10.4649 7.96386 9.92565 8.23827 9.45356C8.25869 9.41837 8.28735 9.38865 8.32178 9.36697C8.35621 9.34528 8.39538 9.33228 8.43594 9.32906C8.47651 9.32585 8.51724 9.33252 8.55466 9.34851C8.59207 9.3645 8.62505 9.38933 8.65076 9.42086C9.98859 11.0612 11.9333 12.0932 14.0252 12.2834C14.0104 12.1587 14.003 12.0333 14.0031 11.9078C14.0031 10.1983 15.3943 8.80742 17.1041 8.80742C17.9107 8.80742 18.6912 9.12558 19.2669 9.68445C19.8296 9.55919 20.3687 9.34534 20.8643 9.05088C20.8767 9.01208 20.8983 8.97685 20.9272 8.94824C20.9562 8.91962 20.9917 8.89848 21.0307 8.88661C21.0697 8.87475 21.1109 8.87253 21.1509 8.88014C21.1909 8.88774 21.2285 8.90495 21.2604 8.93029C21.2923 8.95562 21.3176 8.98832 21.334 9.02558C21.3505 9.06283 21.3576 9.10352 21.3549 9.14416C21.3522 9.1848 21.3396 9.22416 21.3183 9.25886C21.297 9.29357 21.2675 9.32258 21.2325 9.3434C21.1093 9.72954 20.911 10.0875 20.649 10.3967C20.8621 10.3324 21.0711 10.2547 21.2745 10.1643C21.3244 10.1423 21.38 10.1371 21.4331 10.1494C21.4861 10.1618 21.5337 10.191 21.5688 10.2327C21.6038 10.2744 21.6243 10.3264 21.6273 10.3808C21.6302 10.4352 21.6155 10.489 21.5852 10.5343Z" fill="black"/>
</svg>
