<svg width="20" height="20" viewBox="0 0 20 20" fill="none" xmlns="http://www.w3.org/2000/svg">
<rect width="20" height="20" fill="url(#paint0_linear_1_3011)"/>
<path d="M19.5312 14.5938C19.4687 14.2344 19.2344 13.9062 18.9062 13.75C17.8125 13.2031 15.4219 12.4062 15.4219 12.4062V11.6094L15.4844 11.5625C15.9375 11.2188 16.2656 10.6875 16.3594 10.1094L16.375 10.0312H16.4375C16.8125 10.0312 17.125 9.79688 17.25 9.48438C17.3281 9.34375 17.375 9.1875 17.375 9.01562C17.375 8.90625 17.3594 8.79687 17.3125 8.6875C17.2969 8.57812 17.2187 8.46875 17.1406 8.40625L16.9219 8.26563L16.9687 8.03125C17.375 6.29688 16.0156 4.71875 14.2031 4.6875C14.1562 4.6875 14.1094 4.6875 14.0781 4.6875C14.0312 4.6875 13.9844 4.6875 13.9531 4.6875C12.125 4.70312 10.7812 6.28125 11.1719 8.01562L11.2344 8.25L11.0156 8.39062C10.9219 8.45313 10.8594 8.5625 10.8437 8.67188C10.7969 8.78125 10.7812 8.89062 10.7812 9C10.7812 9.17188 10.8281 9.32812 10.9062 9.46875C11.0312 9.79687 11.3594 10.0156 11.7187 10.0156H11.7812L11.7969 10.0938C11.8906 10.6719 12.2031 11.2031 12.6719 11.5469L12.7344 11.5937V12.3906C12.7344 12.3906 10.3437 13.1875 9.25 13.7344C8.92188 13.9062 8.6875 14.2188 8.625 14.5781C8.4375 15.6719 8.40625 17.5156 8.40625 17.5156H19.7656C19.75 17.5312 19.7187 15.6875 19.5312 14.5938Z" fill="url(#paint1_linear_1_3011)"/>
<path d="M8.89063 13.0469C9.51563 12.7344 10.5 12.3594 11.2813 12.0781C11.1719 11.8594 10.9844 11.6719 10.7656 11.5625C9.67188 11.0156 7.28125 10.2188 7.28125 10.2188V9.42188L7.34375 9.375C7.79688 9.03125 8.125 8.5 8.21875 7.92188L8.23438 7.84375H8.29688C8.67188 7.84375 8.98438 7.60938 9.10938 7.29688C9.1875 7.15625 9.23438 7 9.23438 6.82812C9.23438 6.71875 9.21875 6.60937 9.17188 6.5C9.15625 6.39062 9.07813 6.28125 9 6.21875L8.78125 6.07813L8.82813 5.84375C9.23438 4.10938 7.875 2.53125 6.0625 2.5C6.01563 2.5 5.96875 2.5 5.9375 2.5C5.89063 2.5 5.84375 2.5 5.8125 2.5C4 2.54688 2.65625 4.10938 3.04688 5.84375L3.10938 6.07813L2.89063 6.21875C2.79688 6.28125 2.73438 6.39062 2.71875 6.5C2.67188 6.60937 2.65625 6.71875 2.65625 6.82812C2.65625 7 2.70313 7.15625 2.78125 7.29688C2.90625 7.625 3.23438 7.84375 3.59375 7.84375H3.65625L3.67188 7.92188C3.75 8.5 4.0625 9.01562 4.53125 9.375L4.59375 9.42188V10.2188C4.59375 10.2188 2.20313 11.0156 1.10938 11.5625C0.78125 11.7344 0.546875 12.0469 0.484375 12.4062C0.296875 13.5 0.265625 15.3438 0.265625 15.3438H7.73438C7.76563 15.0312 7.79688 14.7344 7.84375 14.4688C7.95313 13.8438 8.34375 13.3281 8.89063 13.0469Z" fill="url(#paint2_linear_1_3011)"/>
<defs>
<linearGradient id="paint0_linear_1_3011" x1="0" y1="10" x2="20" y2="10" gradientUnits="userSpaceOnUse">
<stop stop-color="white"/>
<stop offset="1" stop-color="white" stop-opacity="0"/>
</linearGradient>
<linearGradient id="paint1_linear_1_3011" x1="7.66898" y1="11.9492" x2="20.1934" y2="11.9492" gradientUnits="userSpaceOnUse">
<stop stop-color="#EF0000"/>
<stop offset="1" stop-color="#AD0000"/>
</linearGradient>
<linearGradient id="paint2_linear_1_3011" x1="-0.449332" y1="9.7705" x2="11.6961" y2="9.7705" gradientUnits="userSpaceOnUse">
<stop stop-color="#EF0000"/>
<stop offset="1" stop-color="#AD0000"/>
</linearGradient>
</defs>
</svg>
