<svg width="67" height="67" viewBox="0 0 67 67" fill="none" xmlns="http://www.w3.org/2000/svg">
<path d="M1.18612 26.1111C0.872008 26.116 0.572644 26.2452 0.35356 26.4703C0.134476 26.6955 0.0135193 26.9984 0.0171702 27.3125V65.3125C0.0172016 65.6274 0.142323 65.9294 0.365016 66.1521C0.587708 66.3748 0.889735 66.5 1.20467 66.5H65.3297C65.6446 66.5 65.9466 66.3748 66.1693 66.1521C66.392 65.9294 66.5171 65.6274 66.5172 65.3125V27.3125C66.5194 27.1552 66.4903 26.9987 66.4316 26.8527C66.373 26.7067 66.2859 26.574 66.1754 26.4619C66.0649 26.3498 65.9332 26.2608 65.788 26.2001C65.6429 26.1394 65.487 26.1079 65.3297 26.1079C65.1723 26.1079 65.0165 26.1394 64.8713 26.2001C64.7261 26.2608 64.5945 26.3498 64.484 26.4619C64.3735 26.574 64.2864 26.7067 64.2277 26.8527C64.169 26.9987 64.1399 27.1552 64.1422 27.3125V64.125H2.39217V27.3125C2.39401 27.1538 2.36404 26.9964 2.30403 26.8495C2.24401 26.7026 2.15516 26.5692 2.04274 26.4573C1.93031 26.3453 1.79658 26.2569 1.64945 26.1975C1.50232 26.1381 1.34478 26.1086 1.18612 26.1111Z" fill="#303030"/>
<path fill-rule="evenodd" clip-rule="evenodd" d="M10.6862 17.9472C10.419 17.9553 10.1624 18.0534 9.9579 18.2255L0.467181 25.9349C0.340718 26.0314 0.234929 26.1522 0.156095 26.2904C0.0772614 26.4286 0.0269884 26.5812 0.00825982 26.7392C-0.0104687 26.8971 0.00272873 27.0572 0.0470696 27.21C0.0914105 27.3628 0.165991 27.505 0.266384 27.6284C0.366777 27.7517 0.490936 27.8539 0.631493 27.9284C0.77205 28.0029 0.926139 28.0483 1.08461 28.0621C1.24309 28.0759 1.40272 28.0578 1.55404 28.0087C1.70535 27.9596 1.84527 27.8807 1.96547 27.7765L11.4516 20.067C11.6473 19.9126 11.7895 19.7003 11.858 19.4605C11.9265 19.2208 11.9177 18.9656 11.8331 18.7311C11.7484 18.4966 11.592 18.2946 11.3862 18.1539C11.1803 18.0132 10.9354 17.9409 10.6862 17.9472ZM55.7787 17.9759C55.533 17.9783 55.294 18.0568 55.0949 18.2008C54.8957 18.3448 54.7461 18.5469 54.6667 18.7795C54.5874 19.0121 54.5821 19.2637 54.6516 19.4994C54.7212 19.7351 54.8621 19.9435 55.0551 20.0957L64.569 27.7864C64.6897 27.8885 64.8296 27.9654 64.9805 28.0128C65.1314 28.0601 65.2903 28.0769 65.4477 28.0621C65.6052 28.0472 65.7581 28.0011 65.8975 27.9264C66.0368 27.8516 66.1599 27.7496 66.2593 27.6266C66.3588 27.5037 66.4327 27.3622 66.4768 27.2103C66.5208 27.0584 66.534 26.8992 66.5157 26.7421C66.4974 26.585 66.4479 26.4333 66.3701 26.2956C66.2923 26.1579 66.1877 26.0369 66.0626 25.9402L56.5441 18.2492C56.3291 18.0709 56.0581 17.9742 55.7787 17.9759Z" fill="#303030"/>
<path fill-rule="evenodd" clip-rule="evenodd" d="M16.6423 23.7546V26.1296H49.8923V23.7546H16.6423Z" fill="#E20001"/>
<path d="M15.4548 4.75C15.1399 4.75003 14.8379 4.87521 14.6152 5.0979C14.3925 5.32059 14.2674 5.62257 14.2673 5.9375V15.4375C14.2674 15.7524 14.3925 16.0544 14.6152 16.2771C14.8379 16.4998 15.1399 16.625 15.4548 16.625H24.9548C25.2698 16.625 25.5718 16.4998 25.7945 16.2771C26.0172 16.0544 26.1423 15.7524 26.1423 15.4375V5.9375C26.1423 5.62257 26.0172 5.32059 25.7945 5.0979C25.5718 4.87521 25.2698 4.75003 24.9548 4.75H15.4548ZM16.6423 7.125H23.7673V14.25H16.6423V7.125Z" fill="#E20001"/>
<path fill-rule="evenodd" clip-rule="evenodd" d="M16.6423 19V21.375H49.8923V19H16.6423ZM38.0173 33.2546V35.6296H47.5173V33.2546H38.0173ZM16.6423 28.5V30.875H49.8923V28.5H16.6423ZM43.9084 0.00461351C43.5976 0.00949954 43.301 0.136153 43.0824 0.357297C42.8639 0.578442 42.7407 0.876551 42.7395 1.18747V13.0625C42.7395 13.3774 42.8647 13.6794 43.0873 13.9021C43.31 14.1248 43.6121 14.2499 43.927 14.25H55.8298C56.0646 14.2499 56.2941 14.1801 56.4894 14.0496C56.6846 13.9191 56.8367 13.7337 56.9266 13.5168C57.0164 13.2998 57.0399 13.0611 56.9942 12.8308C56.9484 12.6005 56.8354 12.389 56.6694 12.2229L44.7666 0.347875C44.6538 0.236221 44.5197 0.14836 44.3723 0.0894142C44.2249 0.0304684 44.0672 0.00156019 43.9084 0.00461351ZM45.1145 4.05417L52.9539 11.875H45.1145V4.05417Z" fill="#E20001"/>
<path d="M10.7047 0C10.3898 3.14888e-05 10.0877 0.125063 9.86505 0.347755C9.64236 0.570448 9.51724 0.872565 9.51721 1.1875V33.2917C9.51498 33.4491 9.54405 33.6052 9.60273 33.7513C9.66141 33.8973 9.74853 34.0303 9.85902 34.1424C9.96951 34.2544 10.1012 34.3434 10.2463 34.4042C10.3915 34.4649 10.5473 34.4961 10.7047 34.4961C10.8621 34.4961 11.0179 34.4649 11.1631 34.4042C11.3082 34.3434 11.4399 34.2544 11.5504 34.1424C11.6609 34.0303 11.748 33.8973 11.8067 33.7513C11.8654 33.6052 11.8944 33.4491 11.8922 33.2917V2.375H43.463L54.6422 13.5588V17.7939V33.2268C54.64 33.3842 54.6691 33.5406 54.7277 33.6866C54.7864 33.8326 54.8735 33.9654 54.984 34.0774C55.0945 34.1895 55.2262 34.2785 55.3713 34.3392C55.5165 34.4 55.6723 34.4314 55.8297 34.4314C55.9871 34.4314 56.1429 34.4 56.2881 34.3392C56.4332 34.2785 56.5649 34.1895 56.6754 34.0774C56.7859 33.9654 56.873 33.8326 56.9317 33.6866C56.9904 33.5406 57.0194 33.3842 57.0172 33.2268V17.7939V13.0625C57.0171 12.7476 56.892 12.4456 56.6693 12.2229L44.7943 0.3479C44.5716 0.125187 44.2696 7.02223e-05 43.9547 0H10.7047Z" fill="#E20001"/>
<path fill-rule="evenodd" clip-rule="evenodd" d="M1.33936 26.1807L0.0219727 28.1567L32.6086 49.8889C32.8037 50.0189 33.0329 50.0884 33.2673 50.0884C33.5018 50.0884 33.731 50.0189 33.926 49.8889L66.5127 28.1567L65.1953 26.1807L33.2673 47.4722L1.33936 26.1807Z" fill="#303030"/>
<path fill-rule="evenodd" clip-rule="evenodd" d="M28.5173 7.125V9.5H40.3923V7.125H28.5173ZM28.5173 11.875V14.25H40.3923V11.875H28.5173Z" fill="#E20001"/>
</svg>
