<svg width="29" height="29" viewBox="0 0 29 29" fill="none" xmlns="http://www.w3.org/2000/svg">
<path d="M14.7017 0.121094C6.87216 0.121094 0.524348 6.41927 0.524348 14.1892C0.524348 16.847 1.26775 19.3327 2.55876 21.4534L0 29.0009L7.84937 26.5073C9.8805 27.6215 12.2165 28.2572 14.7017 28.2572C22.5324 28.2572 28.8798 21.9581 28.8798 14.1892C28.8798 6.41927 22.5324 0.121094 14.7017 0.121094ZM21.7516 19.5318C21.4181 20.3587 19.9096 21.1133 19.2441 21.148C18.5792 21.1833 18.5602 21.6633 14.9353 20.0886C11.3108 18.5135 9.1302 14.6837 8.95828 14.4371C8.78622 14.1913 7.55425 12.4357 7.62072 10.6689C7.68763 8.90171 8.65517 8.068 9.0005 7.72125C9.34545 7.37398 9.74093 7.31177 9.98241 7.30784C10.2679 7.3032 10.4527 7.29933 10.664 7.30713C10.875 7.31512 11.1921 7.26297 11.4666 7.99296C11.7409 8.72289 12.3976 10.5169 12.4816 10.6997C12.5655 10.8827 12.6175 11.0946 12.4882 11.3296C12.3585 11.5651 12.2921 11.7122 12.1039 11.9151C11.9147 12.1181 11.7059 12.3691 11.5372 12.5243C11.3489 12.696 11.1523 12.8834 11.3502 13.2507C11.548 13.6177 12.2303 14.8208 13.2699 15.8122C14.6059 17.0867 15.758 17.5095 16.1126 17.7021C16.4681 17.8958 16.6803 17.8742 16.9007 17.6422C17.1202 17.4102 17.8444 16.6272 18.0995 16.2776C18.3545 15.927 18.5934 15.9957 18.9209 16.1275C19.2482 16.2597 20.9939 17.1947 21.3494 17.3878C21.7046 17.5805 21.9421 17.6797 22.027 17.8326C22.1119 17.986 22.085 18.7048 21.7516 19.5318Z" fill="black"/>
</svg>
