<svg width="12" height="12" viewBox="0 0 12 12" fill="none" xmlns="http://www.w3.org/2000/svg">
<path d="M6.00151 0H5.99851C2.69026 0 7.8727e-06 2.691 7.8727e-06 6C-0.00204645 7.26376 0.397995 8.4954 1.14226 9.51675L0.394508 11.7458L2.70076 11.0085C3.67904 11.6575 4.82751 12.0025 6.00151 12C9.30976 12 12 9.30825 12 6C12 2.69175 9.30976 0 6.00151 0ZM9.49276 8.47275C9.34801 8.8815 8.77351 9.2205 8.31526 9.3195C8.00176 9.38625 7.59226 9.4395 6.21376 8.868C4.45051 8.1375 3.31501 6.34575 3.22651 6.2295C3.14176 6.11325 2.51401 5.28075 2.51401 4.41975C2.51401 3.55875 2.95126 3.1395 3.12751 2.9595C3.27226 2.81175 3.51151 2.74425 3.74101 2.74425C3.81526 2.74425 3.88201 2.748 3.94201 2.751C4.11826 2.7585 4.20676 2.769 4.32301 3.04725C4.46776 3.396 4.82026 4.257 4.86226 4.3455C4.90501 4.434 4.94776 4.554 4.88776 4.67025C4.83151 4.79025 4.78201 4.8435 4.69351 4.9455C4.60501 5.0475 4.52101 5.1255 4.43251 5.235C4.35151 5.33025 4.26001 5.43225 4.36201 5.6085C4.46401 5.781 4.81651 6.35625 5.33551 6.81825C6.00526 7.4145 6.54826 7.605 6.74251 7.686C6.88726 7.746 7.05976 7.73175 7.16551 7.61925C7.29976 7.4745 7.46551 7.2345 7.63426 6.99825C7.75426 6.82875 7.90576 6.80775 8.06476 6.86775C8.22676 6.924 9.08401 7.34775 9.26026 7.4355C9.43651 7.524 9.55276 7.566 9.59551 7.64025C9.63751 7.7145 9.63751 8.06325 9.49276 8.47275Z" fill="#6B6B6B"/>
</svg>
