<svg width="287" height="94" viewBox="0 0 287 94" fill="none" xmlns="http://www.w3.org/2000/svg">
<path d="M74.1375 24.6278C71.6048 23.5821 69.0277 22.6824 66.3085 22.2268C66.0241 22.18 65.6746 22.0953 65.6657 21.7448C65.6568 21.3768 66.03 21.3183 66.3025 21.2628C66.6876 21.184 67.0934 21.2103 67.4756 21.1314C70.3252 20.5443 73.2696 20.6524 76.1074 19.9747C83.4447 20.0156 90.7968 19.3963 98.1075 20.5355C101.748 21.1022 105.344 21.8295 108.751 23.2316C112.062 24.5957 115.448 25.7144 118.967 26.3658C123.893 27.2772 128.888 27.1019 133.861 26.9529C136.373 26.877 138.876 26.4564 141.382 26.1905C137.442 25.6589 133.52 25.9569 129.601 25.3259C124.192 24.4555 118.97 23.0826 114.047 20.7312C108.493 18.076 102.66 16.2796 96.5938 15.3712C89.9082 14.3693 83.1603 14.1123 76.4036 14.7432C73.2814 14.5621 70.2185 15.1726 67.1497 15.5465C64.0809 15.9174 61.0121 16.3527 57.9877 17.0362C55.6002 17.5736 53.183 18.0001 50.7985 18.5434C48.0762 19.1656 45.4043 20.0565 42.6554 20.48C38.6743 21.0934 34.6723 21.6104 30.6379 21.9084C21.1678 22.6094 11.7302 22.5861 2.31346 21.2599C1.57884 21.1548 0.811638 20.9707 0 21.368C1.67067 23.5821 3.59313 25.3376 5.69332 26.9354C10.6609 30.7152 16.289 32.1844 22.5067 31.8777C25.0067 31.755 27.3321 30.981 29.6781 30.3354C36.9325 28.3316 44.2728 26.7835 51.773 26.1029C57.1287 25.618 62.4872 25.5655 67.8577 26.3015C72.4165 26.9266 76.7768 28.0863 80.9446 29.9674C83.5187 31.1299 85.8026 32.7803 88.4478 34.6293C88.1131 34.1239 88.039 33.9487 87.9146 33.8289C83.8653 29.9732 79.3569 26.7835 74.1375 24.6278Z" fill="#FBFBFB"/>
<path d="M277.948 31.0394C268.421 25.5976 257.956 23.1002 247.168 21.812C240.064 20.962 232.905 20.9795 225.745 21.0905C219.474 21.1898 213.259 21.8237 207.027 22.367C203.271 22.7643 199.521 23.2345 195.797 23.8684C193.478 24.2627 191.176 24.3912 189.251 22.7117C182.207 16.563 174.402 11.6119 165.743 7.96945C162.787 6.72511 159.845 5.43696 156.685 4.75929C154.816 3.80997 152.775 3.45361 150.743 3.07096C150.559 3.05051 150.372 3.02714 150.189 3.0067C149.836 2.84604 149.495 2.60068 149.125 2.5335C145.017 1.79741 140.926 1.01459 136.752 0.623173C127.584 -0.238518 118.437 -0.212229 109.284 0.737091C108.742 0.731249 108.191 0.661146 107.661 0.73417C103.511 1.31253 99.3457 1.80617 95.2223 2.53934C89.0462 3.63471 82.9234 5.02218 76.8746 6.66377C70.414 8.41637 63.998 10.3384 57.7033 12.6167C55.3069 13.0841 53.1416 14.1649 50.6978 15.012C51.8441 15.6663 52.6024 14.9302 53.3696 14.6994C55.2329 14.1415 57.1968 13.8786 58.9415 12.9614C60.9321 12.4678 62.9168 11.9478 64.9162 11.4834C68.7315 10.5954 72.5468 9.69576 76.3799 8.88664C78.9214 8.34918 81.4897 7.92272 84.0579 7.51378C87.5029 6.96463 90.9479 6.36875 94.4137 5.98903C99.0643 5.48077 103.736 5.16239 108.398 4.76221C116.286 4.7184 124.163 4.82939 131.992 5.93353C135.828 6.47391 139.649 7.04934 143.408 7.99282C146.059 8.65589 148.705 9.33063 151.353 10.0025C151.533 10.0287 151.717 10.055 151.898 10.0813C154.404 11.2322 157.028 12.0618 159.638 12.941C159.931 13.1133 160.207 13.3324 160.518 13.4551C167.589 16.2505 174.067 20.0711 180.21 24.473C180.512 24.6892 181.022 24.8031 180.918 25.2938C180.815 25.7846 180.308 25.7115 179.947 25.7378C176.12 25.9949 172.328 26.5469 168.528 27.026C167.177 26.8653 165.9 27.3473 164.588 27.4758C157.016 28.2031 149.481 29.1963 141.945 30.2186C136.029 31.0219 130.061 30.6042 124.115 30.4581C122.771 29.8915 121.278 30.4727 119.927 29.9411C117.172 29.9499 114.471 29.4007 111.751 29.0794C108.46 28.6909 105.196 28.06 101.92 27.5313C100.371 26.6725 98.6496 26.8332 96.9996 26.5732C98.066 27.2392 99.2006 27.6306 100.382 27.8847C102.729 28.539 105.051 29.2868 107.424 29.8272C112.015 30.8758 116.645 31.6996 121.316 32.3685C127.178 33.2068 133.067 33.7267 138.965 33.9195C146.21 34.159 153.468 34.0217 160.719 33.9575C163.027 33.937 165.331 33.6157 167.636 33.4346C171.241 33.6362 174.795 32.9965 178.377 32.7745C182.787 32.4999 187.186 32.015 191.576 31.5068C195.566 31.0423 199.565 30.5633 203.508 29.8184C205.469 29.4475 207.539 29.5935 209.406 28.726C212.652 28.5536 215.857 27.9811 219.089 27.7299C228.1 27.0318 237.123 26.8653 246.134 27.6861C249.318 27.9753 252.508 28.3141 255.651 28.8662C259.893 29.614 264.12 30.4464 268.291 31.5769C273.048 32.8679 277.743 34.2992 282.302 36.157C283.857 36.7908 285.433 37.375 287 37.9826C284.387 35.0733 281.256 32.9293 277.948 31.0394Z" fill="#FBFBFB"/>
<path d="M4.52341 80.7229L14.1195 56.9815C14.3564 56.3655 14.7829 56.0574 15.399 56.0574H20.4813C21.0026 56.0574 21.2988 56.2825 21.3699 56.7327L22.6849 68.8878C22.7323 69.0299 22.7678 69.101 22.7915 69.101C22.8389 69.101 22.8981 69.0655 22.9692 68.9944L34.058 56.7327C34.4845 56.2825 34.9466 56.0574 35.4441 56.0574H41.0596C41.6757 56.0574 41.8652 56.3655 41.6283 56.9815L32.0322 80.7229C31.7953 81.339 31.3569 81.647 30.7172 81.647H25.1372C24.5212 81.647 24.3316 81.339 24.5686 80.7229L27.7673 72.7617L22.4361 78.2706C22.0096 78.7208 21.5476 78.9459 21.05 78.9459H16.8917C16.3467 78.9459 16.0387 78.7208 15.9676 78.2706L15.1857 72.7973L11.987 80.7229C11.7501 81.339 11.2999 81.647 10.6365 81.647H5.05653C4.46418 81.647 4.28647 81.339 4.52341 80.7229ZM42.9986 80.6874L46.0551 72.8684C46.1736 72.584 46.2091 72.3589 46.1617 72.1931L43.2118 57.1237C43.0933 56.4129 43.425 56.0574 44.2069 56.0574H51.1375C51.6587 56.0574 51.9549 56.2944 52.026 56.7683L53.9452 71.4112C53.9689 71.7903 53.886 72.2168 53.6964 72.6907L50.4622 80.6874C50.2252 81.3271 49.7987 81.647 49.1827 81.647H43.6027C42.963 81.647 42.7616 81.3271 42.9986 80.6874ZM55.1891 62.7036L60.6625 56.7327C61.0889 56.2825 61.5628 56.0574 62.0841 56.0574H68.9791C69.7847 56.0574 69.8557 56.3892 69.1923 57.0526L56.5042 69.492C56.1961 69.8 55.9236 69.954 55.6867 69.954C55.4498 69.954 55.3194 69.7881 55.2958 69.4564L54.6205 64.0897C54.5257 63.6869 54.7153 63.2249 55.1891 62.7036ZM82.6538 74.9297C83.2698 74.9297 83.4594 75.2378 83.2224 75.8538L81.2677 80.6874C80.9833 81.3271 80.545 81.647 79.9526 81.647H65.7007C64.0184 81.647 62.8219 81.0665 62.111 79.9055C61.4239 78.7445 61.4239 77.3228 62.111 75.6406L67.6199 62.0639C68.5203 59.8366 69.5865 58.2847 70.8186 57.408C72.0744 56.5076 73.8159 56.0574 76.0431 56.0574H90.2951C90.8874 56.0574 91.0651 56.3773 90.8282 57.0171L88.8734 61.8506C88.6365 62.4667 88.21 62.7747 87.594 62.7747H75.6166C75.4034 62.7747 75.2375 62.905 75.1191 63.1657L70.4987 74.5743C70.4276 74.8113 70.4987 74.9297 70.712 74.9297H82.6538ZM81.5748 80.6163L101.193 56.8393C101.62 56.3181 102.106 56.0574 102.651 56.0574H108.266C108.811 56.0574 109.084 56.3181 109.084 56.8393L109.51 80.6163C109.51 81.3034 109.143 81.647 108.408 81.647H102.793C102.224 81.647 101.952 81.3864 101.975 80.8651V77.6664C101.975 77.4532 101.857 77.3465 101.62 77.3465H95.649C94.8908 77.3465 94.796 77.003 95.3647 76.3158L98.4923 72.3708C98.7529 72.0391 98.9662 71.8377 99.132 71.7666C99.3216 71.6718 99.6059 71.6244 99.985 71.6244H101.655C101.892 71.6244 102.011 71.5178 102.011 71.3046L101.975 65.8668L90.0335 80.8651C89.7729 81.1968 89.5478 81.4101 89.3582 81.5048C89.1924 81.5996 88.9318 81.647 88.5763 81.647H81.8235C81.089 81.647 81.0061 81.3034 81.5748 80.6163ZM110.73 80.6874L120.291 57.0171C120.575 56.3773 121.013 56.0574 121.606 56.0574H138.31C139.992 56.0574 141.177 56.6498 141.864 57.8345C142.575 58.9955 142.587 60.4053 141.9 62.0639L138.736 69.5986C138.12 71.0439 137.315 72.0509 136.32 72.6196C135.348 73.1882 133.903 73.4726 131.984 73.4726L134.72 80.6519C135.005 81.3153 134.708 81.647 133.832 81.647H127.932C127.34 81.647 126.972 81.4456 126.83 81.0428L124.022 73.4726H123.667C123.051 73.4726 122.861 73.1645 123.098 72.5485L124.947 67.9992C125.231 67.3595 125.669 67.0396 126.262 67.0396H132.055C132.292 67.0396 132.458 66.9212 132.552 66.6842L133.974 63.1301C134.045 62.8932 133.974 62.7747 133.761 62.7747H125.799C125.539 62.7747 125.373 62.8932 125.302 63.1301L118.194 80.6874C117.909 81.3271 117.471 81.647 116.879 81.647H111.263C110.623 81.647 110.446 81.3271 110.73 80.6874ZM138.392 80.7229L147.953 57.0171C148.19 56.401 148.616 56.093 149.232 56.093H164.835C166.517 56.093 167.726 56.6261 168.46 57.6923C169.195 58.7349 169.183 60.2039 168.425 62.0994L167.643 64.0542C167.429 64.5991 167.098 65.2033 166.648 65.8668C166.221 66.5065 165.7 67.0633 165.084 67.5372C165.534 68.0585 165.806 68.7693 165.901 69.6697C165.996 70.57 165.806 71.6244 165.333 72.8328L164.195 75.6406C163.295 77.8678 162.217 79.4316 160.961 80.332C159.729 81.2087 157.999 81.647 155.772 81.647H148.095C147.455 81.647 147.278 81.339 147.562 80.7229L149.481 75.8894C149.766 75.2496 150.204 74.9297 150.796 74.9297H155.736C156.661 74.9297 157.3 74.4677 157.656 73.5436L157.904 72.9039C158.07 72.5248 158.082 72.1931 157.94 71.9088C157.798 71.6244 157.537 71.4823 157.158 71.4823H151.898C151.472 71.4823 151.341 71.2809 151.507 70.8781L153.249 66.5776C153.414 66.1748 153.699 65.9734 154.102 65.9734H158.153C159.03 65.9734 159.681 65.4995 160.108 64.5518L160.286 64.1608C160.428 63.7817 160.428 63.45 160.286 63.1657C160.144 62.8813 159.871 62.7392 159.468 62.7392H153.497C153.26 62.7392 153.095 62.8458 153 63.059L145.856 80.7229C145.619 81.339 145.169 81.647 144.505 81.647H138.926C138.286 81.647 138.108 81.339 138.392 80.7229ZM167.627 75.6406L175.162 57.0171C175.446 56.3773 175.884 56.0574 176.477 56.0574H182.092C182.732 56.0574 182.91 56.3773 182.625 57.0171L175.553 74.5743C175.481 74.8113 175.553 74.9297 175.766 74.9297H184.296C184.556 74.9297 184.722 74.8113 184.793 74.5743L191.901 57.0171C192.186 56.3773 192.624 56.0574 193.216 56.0574H198.796C199.46 56.0574 199.649 56.3773 199.365 57.0171L191.83 75.6406C190.93 77.8678 189.852 79.4316 188.596 80.332C187.364 81.2087 185.622 81.647 183.372 81.647H171.217C169.534 81.647 168.338 81.0665 167.627 79.9055C166.94 78.7445 166.94 77.3228 167.627 75.6406ZM216.28 74.9297C216.896 74.9297 217.085 75.2378 216.848 75.8538L214.894 80.6874C214.609 81.3271 214.171 81.647 213.579 81.647H199.327C197.644 81.647 196.448 81.0665 195.737 79.9055C195.05 78.7445 195.05 77.3228 195.737 75.6406L201.246 62.0639C202.146 59.8366 203.213 58.2847 204.445 57.408C205.7 56.5076 207.442 56.0574 209.669 56.0574H223.921C224.513 56.0574 224.691 56.3773 224.454 57.0171L222.499 61.8506C222.263 62.4667 221.836 62.7747 221.22 62.7747H209.243C209.029 62.7747 208.864 62.905 208.745 63.1657L204.125 74.5743C204.054 74.8113 204.125 74.9297 204.338 74.9297H216.28ZM217.839 80.6874L227.4 57.0171C227.684 56.3773 228.122 56.0574 228.715 56.0574H234.33C234.97 56.0574 235.148 56.3773 234.863 57.0171L232.802 62.0994L240.159 56.5906C240.633 56.2351 241.119 56.0574 241.616 56.0574H248.476C249.376 56.0574 249.388 56.3892 248.511 57.0526L229.354 71.2335C229.118 71.3993 228.964 71.6007 228.892 71.8377L225.303 80.6874C225.018 81.3271 224.58 81.647 223.988 81.647H218.372C217.733 81.647 217.555 81.3271 217.839 80.6874ZM230.954 71.731L236.392 67.6794C236.652 67.4898 236.877 67.395 237.067 67.395C237.327 67.395 237.493 67.5491 237.564 67.8571L239.804 80.6163C239.922 81.3034 239.578 81.647 238.773 81.647H232.198C231.676 81.647 231.38 81.4101 231.309 80.9362L230.172 73.0816C230.101 72.6314 230.361 72.1812 230.954 71.731ZM249.738 73.5436C250.165 73.5436 250.283 73.745 250.094 74.1478L249.774 75.0008C249.632 75.3088 249.715 75.4629 250.023 75.4629H258.517C258.849 75.4629 259.074 75.3088 259.192 75.0008L260.33 72.1575C260.472 71.8495 260.377 71.6955 260.045 71.6955H249.952C248.317 71.6955 247.168 71.1387 246.504 70.0251C245.841 68.8878 245.829 67.5017 246.469 65.8668L248.103 61.8862C248.956 59.7774 249.999 58.2847 251.231 57.408C252.487 56.5076 254.169 56.0574 256.278 56.0574H267.616C269.25 56.0574 270.4 56.6261 271.063 57.7634C271.726 58.877 271.738 60.2513 271.099 61.8862L270.423 63.5566C270.234 63.9594 269.949 64.1608 269.57 64.1608H263.813C263.386 64.1608 263.268 63.9594 263.457 63.5566L263.777 62.7036C263.919 62.3956 263.836 62.2416 263.528 62.2416H255.389C255.058 62.2416 254.833 62.3956 254.714 62.7036L253.577 65.5469C253.435 65.8549 253.529 66.0089 253.861 66.0089H263.955C265.59 66.0089 266.739 66.5776 267.402 67.7149C268.066 68.8285 268.078 70.2028 267.438 71.8377L265.803 75.8183C264.926 77.927 263.86 79.4316 262.604 80.332C261.372 81.2087 259.714 81.647 257.628 81.647H245.935C244.301 81.647 243.14 81.0902 242.452 79.9766C241.789 78.8393 241.789 77.4532 242.452 75.8183L243.128 74.1478C243.317 73.745 243.602 73.5436 243.981 73.5436H249.738Z" fill="white"/>
</svg>
