<svg width="20" height="24" viewBox="0 0 20 24" fill="none" xmlns="http://www.w3.org/2000/svg">
<path d="M11.3578 20.2659C11.938 20.283 12.5077 20.4245 13.0277 20.6807H13.0591C13.4936 21.0352 13.5674 21.668 13.2261 22.1119C12.6045 23.0013 11.61 23.5622 10.5228 23.6364C9.40572 23.7696 8.28082 23.4603 7.39154 22.7756C6.93419 22.462 6.63698 21.966 6.57742 21.417C6.57742 20.8363 7.12017 20.5666 7.62116 20.4525C8.20796 20.3289 8.80612 20.2664 9.40596 20.2659H11.3578ZM10.0426 0.333328C13.654 0.333328 17.3801 2.94675 17.7663 6.73207C17.8289 7.50987 17.7663 8.31879 17.8289 9.10696C18.0339 10.1234 18.5056 11.0679 19.1962 11.8448C19.6256 12.4833 19.8744 13.2248 19.9165 13.9916V14.2301C19.9228 15.2648 19.5521 16.2668 18.8727 17.0509C18.0116 17.9717 16.8432 18.5503 15.5849 18.6791C11.8672 19.1562 8.10324 19.1562 4.38557 18.6791C3.11244 18.5601 1.92763 17.9807 1.05604 17.0509C0.397934 16.2593 0.0528333 15.2564 0.0853582 14.2301V13.9916C0.12609 13.2277 0.367166 12.4876 0.784664 11.8448C1.47841 11.0672 1.95678 10.1237 2.17284 9.10696C2.23546 8.31879 2.17284 7.52024 2.23546 6.73207C2.63208 2.94675 6.28518 0.333328 9.93827 0.333328H10.0426Z" fill="white"/>
</svg>
