<svg width="13" height="12" viewBox="0 0 13 12" fill="none" xmlns="http://www.w3.org/2000/svg">
<path d="M5.47966 0.707977L4.02666 3.64798L0.776658 4.12198C0.645326 4.14124 0.521993 4.19683 0.420582 4.28247C0.31917 4.36811 0.243718 4.4804 0.202742 4.60665C0.161767 4.7329 0.1569 4.8681 0.188692 4.99697C0.220483 5.12584 0.287667 5.24326 0.382658 5.33598L2.73466 7.62798L2.17866 10.864C2.15607 10.9948 2.17058 11.1294 2.22053 11.2524C2.27049 11.3754 2.35389 11.482 2.46131 11.5601C2.56872 11.6381 2.69584 11.6846 2.82828 11.6941C2.96072 11.7036 3.09318 11.6759 3.21066 11.614L6.11766 10.086L9.02666 11.614C9.14417 11.6755 9.27652 11.7029 9.40879 11.6932C9.54106 11.6835 9.66799 11.637 9.77527 11.5591C9.88256 11.4811 9.96593 11.3747 10.016 11.2519C10.0661 11.1291 10.0808 10.9947 10.0587 10.864L9.50166 7.62798L11.8527 5.33698C11.9476 5.24426 12.0148 5.12684 12.0466 4.99797C12.0784 4.8691 12.0735 4.7339 12.0326 4.60765C11.9916 4.4814 11.9161 4.36911 11.8147 4.28347C11.7133 4.19783 11.59 4.14224 11.4587 4.12298L8.20866 3.64798L6.75666 0.707977C6.69787 0.588829 6.60691 0.488507 6.49407 0.418359C6.38124 0.348211 6.25102 0.311035 6.11816 0.311035C5.98529 0.311035 5.85508 0.348211 5.74224 0.418359C5.62941 0.488507 5.53845 0.588829 5.47966 0.707977Z" fill="#E5DF2C"/>
</svg>
